<?xml version="1.0" encoding="utf-8"?>
<!-- Generator: Adobe Illustrator 26.2.1, SVG Export Plug-In . SVG Version: 6.00 Build 0)  -->
<svg version="1.1" id="圖層_1" xmlns="http://www.w3.org/2000/svg" xmlns:xlink="http://www.w3.org/1999/xlink" x="0px" y="0px"
	 viewBox="0 0 390.53 145.55" style="enable-background:new 0 0 390.53 145.55;" xml:space="preserve">
<style type="text/css">
	.st0{fill:#D8B798;fill-opacity:0.7;}
	.st1{fill:#FFFFFF;}
	.st2{fill:none;stroke:#FFFFFF;stroke-width:2;}
</style>
<rect x="0.37" y="0.42" class="st0" width="390" height="145"/>
<g>
	<path class="st1" d="M172.32,31.19h5.55v0.42h-5.55V31.19z M170.33,23.89h7.18l1.07-1.47c0,0,1.2,0.99,1.89,1.65
		c-0.03,0.17-0.21,0.24-0.42,0.24h-9.6L170.33,23.89z M177.81,18.91l2.05,1.98c-0.2,0.15-0.57,0.17-1.1-0.03
		c-2.08,0.38-5.44,0.69-8.25,0.73l-0.03-0.19C172.98,20.81,176.19,19.72,177.81,18.91z M167.22,19.09c4.68,0.01,3.35,3.6,1.41,2.52
		c-0.27-0.87-0.94-1.83-1.51-2.43L167.22,19.09z M166.1,22.37c4.51,0.07,3.04,3.58,1.2,2.43c-0.18-0.86-0.76-1.77-1.3-2.34
		L166.1,22.37z M166.88,28.48c0.26,0,0.33,0,0.53-0.3c0.4-0.57,0.4-0.57,3.36-6.14l0.21,0.06c-0.6,1.67-1.59,4.74-1.8,5.52
		c-0.13,0.49-0.27,1.07-0.25,1.45c0.03,0.85,0.75,1.27,0.71,2.62c-0.03,0.81-0.66,1.35-1.53,1.35c-0.39,0-0.84-0.19-1.01-0.78
		c0.32-1.58,0.26-3.03-0.1-3.27c-0.23-0.15-0.5-0.24-0.81-0.27v-0.26C166.17,28.48,166.71,28.48,166.88,28.48z M177.24,27.16h-0.16
		l0.97-1.05l1.95,1.48c-0.1,0.12-0.28,0.27-0.6,0.33v4.41c-0.01,0.13-1.05,0.57-1.79,0.57h-0.38V27.16z M174.06,20.59l2.22-0.32
		v7.07c-0.01,0-0.66,0-1.8,0h-0.42V20.59z M171.11,27.16V26.3l2.22,0.85h4.53v0.42h-4.62v4.76c0,0.19-0.93,0.66-1.83,0.66h-0.3
		V27.16z M182.33,21.89h5.58l0.95-1.19c0,0,1.08,0.8,1.73,1.36c-0.03,0.17-0.2,0.24-0.42,0.24h-7.71L182.33,21.89z M182.57,28.85
		h5.16l0.88-1.09c0,0,1.01,0.75,1.64,1.27c-0.04,0.16-0.2,0.24-0.42,0.24h-7.14L182.57,28.85z M182.4,30.47
		c1.32-0.03,4.53-0.19,7.79-0.42l0.01,0.16c-1.32,0.6-3.35,1.36-6.47,2.35c-0.1,0.2-0.28,0.32-0.48,0.35L182.4,30.47z M183.8,25.21
		h4.83v0.42h-4.83V25.21z M183.8,27.08h4.83v0.42h-4.83V27.08z M188.54,18.76l1.74,1.8c-0.2,0.15-0.56,0.14-1.02-0.06
		c-1.79,0.21-4.62,0.36-6.94,0.34l-0.03-0.21C184.37,20.18,187.13,19.36,188.54,18.76z M185.27,20.32l1.85-0.38v10.71
		c-0.01,0.12-0.6,0.52-1.51,0.52h-0.33V20.32z M182.7,23.35V22.6l1.99,0.75h3.15l0.89-1.01l1.66,1.26
		c-0.09,0.14-0.23,0.23-0.57,0.28v3.56c0,0.08-0.6,0.39-1.59,0.39h-0.35v-4.06h-3.35v3.93c0,0.14-0.57,0.42-1.51,0.42h-0.33V23.35z
		 M189.8,22.67h5.06v0.42h-4.92L189.8,22.67z M191.04,18.98l2.61,0.24c-0.04,0.24-0.21,0.38-0.56,0.42
		c-0.07,6.4,0.29,10.71-4.72,13.39l-0.15-0.19C191.45,29.59,191.04,25.33,191.04,18.98z M194.06,22.67h-0.18l1.07-1.06l1.73,1.53
		c-0.1,0.14-0.32,0.26-0.65,0.3c-0.1,6.25-0.27,7.92-1.11,8.73c-0.52,0.53-1.2,0.74-2.04,0.74c0.01-0.66-0.03-1.11-0.21-1.38
		c-0.19-0.3-0.51-0.51-1.04-0.66v-0.18c0.39,0.03,0.99,0.06,1.28,0.06c0.21,0,0.35-0.06,0.48-0.18
		C193.85,30.13,193.97,27.97,194.06,22.67z M202.59,29.06v0.42h-2.69v-0.42H202.59z M202.65,24.8v0.42h-2.68V24.8H202.65z
		 M202.65,20.66v0.42h-2.68v-0.42H202.65z M201.86,20.66l0.9-0.99l1.79,1.41c-0.09,0.12-0.3,0.26-0.6,0.32v8.82
		c-0.01,0.14-0.94,0.54-1.62,0.54h-0.32v-10.1H201.86z M198.92,19.75l2.11,0.91h-0.21v10.25c0,0.14-0.59,0.58-1.56,0.58h-0.35V19.75
		z M204.83,26.89c4.54,0.87,2.43,4.32,0.66,2.76c0-0.96-0.36-1.97-0.78-2.68L204.83,26.89z M211.19,24.67
		c-0.03,0.23-0.18,0.34-0.51,0.39v5.6c0,1.41-0.32,2.17-2.62,2.38c-0.04-0.67-0.12-1.15-0.39-1.48c-0.26-0.32-0.57-0.54-1.38-0.69
		v-0.19c0,0,1.68,0.1,2.01,0.1c0.21,0,0.29-0.08,0.29-0.24v-6.09L211.19,24.67z M209.52,19.15c-0.01,0.21-0.12,0.36-0.54,0.42v4.5
		h-2.1v-5.13L209.52,19.15z M211.5,24.92c0,0,0.98,0.89,1.51,1.47c-0.03,0.16-0.19,0.24-0.4,0.24h-8.55l-0.12-0.42h6.71L211.5,24.92
		z M210.33,22.48c0,0,1.18,0.96,1.88,1.6c-0.04,0.17-0.21,0.24-0.43,0.24h-7.04l-0.12-0.42h4.66L210.33,22.48z M210.86,19.73
		c0,0,1.11,0.9,1.75,1.51c-0.04,0.16-0.19,0.24-0.42,0.24h-7.92l-0.12-0.42h5.71L210.86,19.73z M218.75,26v-0.78l1.98,0.78h2.8v0.42
		h-2.86V31c0,0.18-0.84,0.6-1.65,0.6h-0.27V26z M219.75,30.05h3.9v0.42h-3.9V30.05z M219.75,28h3.9v0.42h-3.9V28z M222.71,26h-0.15
		l0.88-0.94l1.79,1.35c-0.07,0.12-0.26,0.24-0.52,0.28v4.12c-0.01,0.14-0.98,0.56-1.65,0.56h-0.35V26z M215.43,20.03v-0.9l2.16,0.9
		h2.41v0.42h-2.48v11.79c0,0.27-0.79,0.79-1.75,0.79h-0.35V20.03z M222.11,20.03v-0.8l2.07,0.8h2.58v0.42h-2.64v3.94
		c0,0.18-0.88,0.63-1.73,0.63h-0.28V20.03z M225.96,20.03h-0.15l0.94-1.08l1.93,1.51c-0.1,0.12-0.29,0.26-0.6,0.32v9.87
		c0,1.41-0.29,2.17-2.46,2.35c-0.03-0.69-0.09-1.2-0.27-1.5c-0.19-0.32-0.42-0.54-1.07-0.68v-0.19c0,0,1.12,0.08,1.4,0.08
		c0.23,0,0.27-0.12,0.27-0.28V20.03z M219.33,20.03h-0.15l0.87-0.93l1.79,1.34c-0.09,0.1-0.26,0.24-0.54,0.28v3.85
		c-0.01,0.1-0.99,0.45-1.62,0.45h-0.35V20.03z M216.44,21.86h3.48v0.42h-3.48V21.86z M216.44,23.72h3.48v0.42h-3.48V23.72z
		 M223.38,21.86h3.48v0.42h-3.48V21.86z M223.38,23.72h3.48v0.42h-3.48V23.72z"/>
	<path class="st1" d="M359.49,27.61h-121v-1h121V27.61z M155.49,27.61h-121v-1h121V27.61z"/>
	<path class="st1" d="M348.99,82.61h-110c-8,0-14.5-6.5-14.5-14.5s6.5-14.5,14.5-14.5h110c8,0,14.5,6.5,14.5,14.5
		S356.99,82.61,348.99,82.61z M238.99,54.61c-7.44,0-13.5,6.06-13.5,13.5s6.06,13.5,13.5,13.5h110c7.44,0,13.5-6.06,13.5-13.5
		s-6.06-13.5-13.5-13.5H238.99z"/>
	<path class="st1" d="M255.4,60.85l0.59-0.99l1.65,1.09c-0.21,0.26-0.78,0.4-1.47,0.45c0.58,1.97,1.95,3.6,3.78,4.45l-0.02,0.19
		c-0.85,0.35-1.55,1.2-1.78,2.05c-1.49-1.6-2.14-3.98-2.37-6.98v-0.26H255.4z M256.24,60.85v0.45h-1.73l-0.14-0.45H256.24z
		 M256.46,67.01c-0.1,0.22-0.4,0.38-0.98,0.22l0.51-0.14c-0.93,1.84-2.94,4.58-4.54,5.86V72.7h1.07c-0.13,1.33-0.61,2.03-1.15,2.19
		l-0.74-2.51c0,0,0.46-0.14,0.62-0.3c0.82-0.99,2.02-4.4,2.27-6.34L256.46,67.01z M251.04,72.35c1.18-0.02,4.13-0.19,7.06-0.42
		l0.02,0.19c-1.23,0.56-3.54,1.52-6.43,2.48L251.04,72.35z M255.77,69.49c5.38,2.38,3.54,6.69,1.46,4.88
		c-0.19-1.62-0.93-3.39-1.62-4.8L255.77,69.49z M254.91,62.17c-0.06,0.21-0.26,0.34-0.62,0.35c-0.82,2.35-2,4.16-3.57,5.39
		l-0.19-0.11c0.7-1.65,1.3-4.11,1.49-6.42L254.91,62.17z M249.24,65.97c3.62,1.52,1.89,4.29,0.53,2.96c0-0.98-0.35-2.1-0.7-2.88
		L249.24,65.97z M249.84,60.24c-0.03,0.24-0.14,0.4-0.59,0.46v13.81c0,0.18-0.94,0.62-1.79,0.62H247V59.97L249.84,60.24z
		 M249.1,64.27c-0.62,2.94-2.08,5.39-4.27,7.26l-0.18-0.16c1.18-1.97,1.89-4.82,2.24-7.36h2.21V64.27z M250.16,62.59
		c0,0,0.99,0.99,1.5,1.62c-0.03,0.18-0.19,0.26-0.42,0.26h-6.35l-0.13-0.45h4.53L250.16,62.59z M274.2,60.17
		c-0.03,0.14-0.1,0.26-0.38,0.3v2.43c0,0.13-1.09,0.45-1.94,0.45h-0.43v-3.41L274.2,60.17z M267.74,60.16
		c-0.03,0.14-0.1,0.26-0.38,0.3v2.43c0,0.13-1.09,0.45-1.94,0.45h-0.43v-3.41L267.74,60.16z M275.29,60.22c0,0,1.1,0.94,1.73,1.57
		c-0.05,0.18-0.21,0.26-0.43,0.26h-6.43l-0.13-0.45h4.3L275.29,60.22z M268.38,60.22c0,0,1.1,0.94,1.73,1.57
		c-0.05,0.18-0.21,0.26-0.43,0.26h-7.33l-0.13-0.45h5.2L268.38,60.22z M264.3,63.36c4.19-0.14,2.37,3.14,0.62,1.87
		c0-0.67-0.34-1.39-0.74-1.79L264.3,63.36z M270.03,70.91c7.06-0.16,6.14,4.9,3.58,3.82c-0.7-1.41-2.24-2.91-3.68-3.7L270.03,70.91z
		 M266.06,65.74c-0.18,3.58-0.48,7.14-4,9.39l-0.18-0.18c1.82-2.83,1.9-6.19,1.97-9.22H266.06z M267.87,68.17v0.45h-2.64v-0.45
		H267.87z M273.07,64.43c-0.72,1.98-2.1,3.81-4.3,4.9l-0.08-0.11c1.31-1.54,2.06-4.3,2.24-6.13l3.01,0.82
		c-0.06,0.21-0.21,0.32-0.72,0.38c0.86,1.2,2.53,2.02,4.16,2.21l0.02,0.19c-0.86,0.43-1.15,1.5-1.26,2.5
		C274.73,68.17,273.68,66.43,273.07,64.43z M266.88,68.17l1.02-0.96l1.74,1.44c-0.11,0.14-0.3,0.24-0.64,0.29
		c-0.14,3.58-0.42,4.8-1.2,5.39c-0.5,0.35-1.09,0.53-1.87,0.53c0-0.58-0.03-1.06-0.21-1.31c-0.19-0.27-0.45-0.45-0.93-0.59v-0.19
		c0.34,0.03,0.91,0.05,1.18,0.05c0.21,0,0.34-0.03,0.43-0.13c0.34-0.29,0.53-1.57,0.64-4.51H266.88z M268.2,64.08
		c0,0,1.17,1.01,1.82,1.68c-0.03,0.18-0.21,0.26-0.43,0.26h-7.49l-0.13-0.45h5.2L268.2,64.08z M270.97,67.26
		c5.23,0.1,3.63,4.22,1.54,2.9c-0.18-1.04-0.88-2.14-1.65-2.8L270.97,67.26z M292.41,63.26c0,0,1.31,1.36,1.98,2.19
		c-0.05,0.18-0.22,0.26-0.46,0.26h-4.88v-0.45h2.21L292.41,63.26z M290.52,60.59c-0.02,0.21-0.16,0.38-0.56,0.45v10.67
		c0,0.34,0.14,0.46,0.54,0.46h0.98c0.3,0,0.59-0.02,0.77-0.02c0.18-0.02,0.34-0.06,0.48-0.24c0.22-0.32,0.54-1.26,0.85-2.24h0.16
		l0.06,2.37c0.58,0.27,0.77,0.56,0.77,0.96c0,0.96-0.83,1.42-3.33,1.42h-1.31c-1.74,0-2.27-0.42-2.27-2.02V60.29L290.52,60.59z
		 M279.39,72.27c1.3-0.14,4.59-0.64,7.82-1.2l0.02,0.14c-1.18,0.83-3.15,1.97-6.21,3.44c-0.1,0.22-0.29,0.38-0.5,0.45L279.39,72.27z
		 M286.25,60.53c-0.03,0.22-0.14,0.4-0.59,0.46v10.62c0,0.19-0.98,0.69-1.86,0.69h-0.42V60.27L286.25,60.53z M285.04,65.23v0.45
		h-5.09l-0.14-0.45H285.04z M300.67,61.15V60.3l2.06,0.85h1.71v0.45h-1.78v9.17c0,0.22-0.8,0.69-1.68,0.69h-0.32V61.15z
		 M303.79,61.15h-0.16l0.93-0.99l1.82,1.42c-0.1,0.11-0.29,0.24-0.58,0.3v8.67c-0.02,0.13-0.98,0.54-1.68,0.54h-0.34V61.15z
		 M301.88,64.09h2.72v0.45h-2.72V64.09z M301.88,67.07h2.72v0.45h-2.72V67.07z M301.88,70.09h2.72v0.45h-2.72V70.09z M306.46,61.28
		l2.37,0.22c-0.02,0.18-0.11,0.3-0.45,0.35v8.98c0,0.16-0.85,0.56-1.55,0.56h-0.37V61.28z M309.02,60.13l2.67,0.26
		c-0.03,0.24-0.19,0.38-0.59,0.45v11.89c0,1.44-0.29,2.21-2.53,2.4c-0.03-0.67-0.11-1.15-0.34-1.47s-0.51-0.54-1.25-0.69v-0.21
		c0,0,1.41,0.1,1.73,0.1c0.22,0,0.3-0.08,0.3-0.26V60.13z M303.92,71.15c4.34,1.54,2.3,4.83,0.64,3.26c-0.02-1.09-0.4-2.29-0.8-3.2
		L303.92,71.15z M301.77,70.91l2.35,1.1c-0.06,0.16-0.21,0.27-0.59,0.24c-0.77,1.12-2.02,2.27-3.58,2.91l-0.13-0.18
		C300.81,73.9,301.5,72.16,301.77,70.91z M297.71,65.15l0.74-0.98l1.86,0.69c-0.06,0.14-0.19,0.26-0.51,0.3v9.38
		c-0.02,0.14-0.9,0.56-1.7,0.56h-0.38V65.15z M298.43,59.93l2.82,0.88c-0.06,0.21-0.27,0.34-0.64,0.34
		c-0.91,3.09-2.24,5.57-4.13,7.31l-0.19-0.11C297.23,66.21,298.09,62.96,298.43,59.93z M314.72,70.14c0.24,0,0.32,0,0.5-0.34
		c0.34-0.61,0.34-0.61,3.01-7.22l0.26,0.06c-0.51,1.97-1.39,5.6-1.57,6.53c-0.11,0.54-0.21,1.15-0.19,1.57
		c0.03,0.93,0.77,1.47,0.72,2.98c-0.03,0.85-0.64,1.42-1.49,1.42c-0.4,0-0.85-0.21-0.99-0.85c0.34-1.7,0.27-3.34-0.11-3.6
		c-0.22-0.16-0.5-0.24-0.85-0.27v-0.29C314,70.14,314.54,70.14,314.72,70.14z M313.8,63.87c4.64,0.51,2.74,4,0.9,2.61
		c-0.11-0.9-0.58-1.87-1.02-2.53L313.8,63.87z M314.89,60.09c4.85,0.51,2.86,4.14,0.93,2.7c-0.13-0.94-0.61-1.94-1.04-2.62
		L314.89,60.09z M322.48,71.61c-0.08,0.18-0.3,0.29-0.67,0.24c-1.12,1.42-2.59,2.35-4.1,2.91l-0.16-0.16
		c0.9-0.94,1.84-2.53,2.38-4.21L322.48,71.61z M324.59,70.77c5.55,0.86,4.13,4.91,2.02,3.62c-0.4-1.22-1.36-2.58-2.14-3.52
		L324.59,70.77z M325.23,67.85c0,0.14-0.78,0.51-1.52,0.51h-0.24v-4.16l1.82,0.72h1.92v0.45h-1.98V67.85z M326.25,64.93l0.8-0.86
		l1.71,1.26c-0.1,0.13-0.29,0.26-0.59,0.32v2.26c-0.02,0.1-0.91,0.4-1.46,0.4h-0.3v-3.38H326.25z M327.15,67.37v0.45h-2.72v-0.45
		H327.15z M321.68,63.82c0,0.16-0.93,0.59-1.78,0.59h-0.27v-4.19l2.13,0.82h3.82v0.45h-3.9V63.82z M324.6,61.04l0.93-0.99l1.92,1.44
		c-0.1,0.11-0.29,0.26-0.61,0.32v1.95c-0.02,0.13-1.04,0.51-1.71,0.51h-0.37v-3.23H324.6z M325.5,63.25v0.45h-4.78v-0.45H325.5z
		 M319.96,68.05c0,0.14-0.78,0.53-1.52,0.53h-0.24v-4.37l1.82,0.72h2.16v0.45h-2.22V68.05z M320.96,64.93l0.78-0.82l1.65,1.22
		c-0.08,0.1-0.27,0.21-0.53,0.27v2.29c-0.02,0.11-0.9,0.42-1.46,0.42h-0.3v-3.38H320.96z M322.03,67.37v0.45h-2.86v-0.45H322.03z
		 M324.75,68.49c-0.02,0.19-0.13,0.34-0.51,0.4v5.71c0,0.14-1.01,0.53-1.89,0.53h-0.4v-6.88L324.75,68.49z M326.89,68.38
		c0,0,1.17,0.88,1.9,1.49c-0.05,0.18-0.22,0.26-0.45,0.26h-10.5l-0.13-0.45h8.11L326.89,68.38z M333.1,63.33h11.34v0.45H333.1V63.33
		z M333,62.11l0.19-0.02c1.09,2.03,0.59,3.55-0.32,3.97c-0.66,0.3-1.44,0.02-1.65-0.74c-0.18-0.74,0.29-1.23,0.91-1.47
		C332.62,63.58,333.13,62.89,333,62.11z M343.26,63.33h-0.18l1.2-1.18l2.05,1.92c-0.14,0.14-0.29,0.19-0.64,0.21
		c-0.74,0.45-1.95,1.01-2.86,1.31l-0.1-0.1C342.94,64.88,343.16,63.9,343.26,63.33z M337.45,59.9l2.91,0.22
		c-0.02,0.19-0.11,0.34-0.51,0.42v2.94h-2.4V59.9z M335.23,68.29H342v0.45h-6.77V68.29z M334.16,65.34v-0.86l2.27,0.86h5.2v0.45
		h-5.3v3.18c0,0.19-0.99,0.66-1.87,0.66h-0.3V65.34z M341.02,65.34h-0.16l0.96-1.04l2,1.49c-0.08,0.11-0.26,0.26-0.56,0.3v2.75
		c-0.02,0.11-1.14,0.48-1.84,0.48h-0.4V65.34z M331.47,74h11.55l1.12-1.5c0,0,1.26,1.01,2,1.7c-0.05,0.18-0.22,0.26-0.45,0.26h-14.1
		L331.47,74z M332.99,70.96h8.56l1.1-1.49c0,0,1.26,1.01,2,1.68c-0.05,0.18-0.22,0.26-0.45,0.26h-11.09L332.99,70.96z M333.74,60.24
		c4.75,0.5,2.85,4.1,0.94,2.69c-0.1-0.94-0.59-1.94-1.07-2.61L333.74,60.24z M341.2,60.21l3.17,0.77c-0.06,0.21-0.24,0.34-0.61,0.34
		c-0.77,0.62-2.06,1.54-3.18,2.13h-0.14C340.75,62.53,341.05,61.13,341.2,60.21z M337.52,68.41h2.27v5.81c-0.02,0-0.67,0-1.86,0
		h-0.42V68.41z"/>
	<path class="st1" d="M94.19,79.37c-4.03,0-7.63-3.45-7.63-11.37c0-7.86,3.6-11.28,7.63-11.28c4,0,7.66,3.42,7.66,11.28
		C101.84,75.92,98.19,79.37,94.19,79.37z M94.19,78.36c1.71,0,3.22-2.23,3.22-10.35c0-8.06-1.51-10.27-3.22-10.27
		C92.45,57.74,91,59.91,91,68C91,76.15,92.45,78.36,94.19,78.36z M112.84,79.37c-4.9,0-8.03-3.28-8.03-8.87
		c0-7.13,5.74-13.02,14.15-13.78l0.14,0.73c-6.24,1.45-9.54,6.09-9.54,12.06c0,6.21,1.33,8.85,3.31,8.85c1.6,0,2.81-1.68,2.81-5.74
		c0-3.51-1.07-5.34-3.13-5.34c-1.19,0-2.38,0.38-3.39,1.54l-0.58-0.41h0.26c1.31-1.83,3.22-2.78,5.54-2.78c3.8,0,5.89,2.7,5.89,6.55
		C120.27,76.27,117.48,79.37,112.84,79.37z"/>
	<path class="st1" d="M71.58,94.84l12.14-39.27h1.6L73.26,94.84H71.58z"/>
	<path class="st1" d="M61.63,84.23c-5.47,0-8.39-2.38-8.71-6.41c0.4-1.15,1.33-1.66,2.27-1.66c1.44,0,2.34,0.72,2.66,3.13l0.65,3.89
		l-1.84-1.04c1.04,0.54,1.84,0.83,3.1,0.83c3.71,0,5.76-2.09,5.76-6.12c0-4.25-1.94-6.52-5.62-6.52h-1.4v-1.4h1.22
		c3.17,0,5.29-1.94,5.29-6.23c0-3.56-1.62-5.36-4.36-5.36c-0.97,0-2.09,0.25-3.42,0.79l2.27-0.9l-0.72,3.71
		c-0.32,1.84-1.44,2.45-2.7,2.45c-0.9,0-1.62-0.43-2.02-1.12c0.11-4.32,3.89-6.16,8.28-6.16c5.69,0,8.39,2.66,8.39,6.37
		c0,3.78-2.45,6.7-9.25,7.31v-0.58c7.52,0.4,10.08,3.35,10.08,7.6C71.57,81.2,67.79,84.23,61.63,84.23z"/>
	<path class="st1" d="M179.48,78.88v-2.61c1.68-1.83,3.31-3.65,4.73-5.28c3.16-3.57,4.58-5.48,4.58-8.64c0-2.96-1.36-4.64-3.6-4.64
		c-0.81,0-1.68,0.2-2.55,0.61l1.45-0.64l-0.61,3.13c-0.32,1.97-1.28,2.44-2.18,2.44c-0.84,0-1.57-0.49-1.88-1.25
		c0.17-3.45,3.54-5.28,7.4-5.28c4.58,0,6.7,2.47,6.7,5.92c0,3.13-2.67,5.39-8.06,9.63c-1.07,0.87-2.67,2.2-4.23,3.57l0.35-1.1v0.58
		h12.47v3.57H179.48z M200.36,78.88l-0.29-0.29l10.53-19.08l-0.49,1.88v-0.58h-12.24v-3.6h13.89v2.23l-7.54,19.43H200.36z"/>
	<path class="st1" d="M88.64,90.43c0-2.34,0.98-4.1,2.17-5.28l1.04,0.47c-1.11,1.18-1.97,2.71-1.97,4.81c0,2.11,0.86,3.64,1.97,4.82
		l-1.04,0.47C89.62,94.55,88.64,92.79,88.64,90.43z M97.84,86.33h8.38v1.34h-8.38V86.33z M98.6,89.87h6.74v1.33H98.6V89.87z
		 M97.21,93.59h9.59v1.35h-9.59V93.59z M115.4,90.43c0,2.35-0.98,4.11-2.17,5.29l-1.04-0.47c1.11-1.18,1.97-2.71,1.97-4.82
		c0-2.1-0.86-3.63-1.97-4.81l1.04-0.47C114.42,86.33,115.4,88.09,115.4,90.43z"/>
	<path class="st1" d="M180.41,90.43c0-2.34,0.98-4.1,2.17-5.28l1.04,0.47c-1.11,1.18-1.97,2.71-1.97,4.81
		c0,2.11,0.86,3.64,1.97,4.82l-1.04,0.47C181.39,94.55,180.41,92.79,180.41,90.43z M189.61,86.33h8.38v1.34h-8.38V86.33z
		 M190.37,89.87h6.74v1.33h-6.74V89.87z M188.98,93.59h9.59v1.35h-9.59V93.59z M207.17,90.43c0,2.35-0.98,4.11-2.17,5.29l-1.04-0.47
		c1.11-1.18,1.97-2.71,1.97-4.82c0-2.1-0.86-3.63-1.97-4.81l1.04-0.47C206.19,86.33,207.17,88.09,207.17,90.43z"/>
	<path class="st1" d="M163.97,94.84l12.14-39.27h1.6l-12.05,39.27H163.97z"/>
	<path class="st1" d="M154.03,84.23c-5.47,0-8.39-2.38-8.71-6.41c0.4-1.15,1.33-1.66,2.27-1.66c1.44,0,2.34,0.72,2.66,3.13
		l0.65,3.89l-1.84-1.04c1.04,0.54,1.84,0.83,3.1,0.83c3.71,0,5.76-2.09,5.76-6.12c0-4.25-1.94-6.52-5.62-6.52h-1.4v-1.4h1.22
		c3.17,0,5.29-1.94,5.29-6.23c0-3.56-1.62-5.36-4.36-5.36c-0.97,0-2.09,0.25-3.42,0.79l2.27-0.9l-0.72,3.71
		c-0.32,1.84-1.44,2.45-2.7,2.45c-0.9,0-1.62-0.43-2.02-1.12c0.11-4.32,3.89-6.16,8.28-6.16c5.69,0,8.39,2.66,8.39,6.37
		c0,3.78-2.45,6.7-9.25,7.31v-0.58c7.52,0.4,10.08,3.35,10.08,7.6C163.96,81.2,160.18,84.23,154.03,84.23z"/>
	<path class="st1" d="M36.88,58.72h1.08c0.76,0.7,1.51,1.37,2.18,1.96c1.48,1.31,2.27,1.9,3.58,1.9c1.22,0,1.92-0.56,1.92-1.49
		c0-0.34-0.08-0.7-0.25-1.06l0.26,0.6l-1.3-0.25c-0.82-0.13-1.01-0.53-1.01-0.9c0-0.35,0.2-0.65,0.52-0.78
		c1.43,0.07,2.18,1.46,2.18,3.06c0,1.9-1.02,2.77-2.45,2.77c-1.3,0-2.23-1.1-3.98-3.34c-0.36-0.44-0.91-1.1-1.48-1.75l0.46,0.14
		h-0.24v5.16h-1.48V58.72z M36.67,70c0-1.67,1.43-3.16,4.7-3.16c3.25,0,4.67,1.49,4.67,3.16c0,1.66-1.42,3.17-4.67,3.17
		C38.1,73.17,36.67,71.66,36.67,70z M37.09,70c0,0.71,0.92,1.33,4.28,1.33c3.34,0,4.25-0.62,4.25-1.33c0-0.72-0.9-1.32-4.25-1.32
		C38,68.68,37.09,69.28,37.09,70z M36.88,75.34h1.08c0.76,0.7,1.51,1.37,2.18,1.96c1.48,1.31,2.27,1.9,3.58,1.9
		c1.22,0,1.92-0.56,1.92-1.49c0-0.34-0.08-0.7-0.25-1.06l0.26,0.6L44.35,77c-0.82-0.13-1.01-0.53-1.01-0.9
		c0-0.35,0.2-0.65,0.52-0.78c1.43,0.07,2.18,1.46,2.18,3.06c0,1.9-1.02,2.77-2.45,2.77c-1.3,0-2.23-1.1-3.98-3.34
		c-0.36-0.44-0.91-1.1-1.48-1.75l0.46,0.14h-0.24v5.16h-1.48V75.34z M36.7,86.95h2.62h5.6v-0.22l0.11,0.42l-2.41-1.56l-2.76-1.79
		l0.53,0.13h-0.23v6.04H38.9v-6.62h1.01L46,87.32v1.34h-9.3V86.95z"/>
	<path class="st2" d="M127.3,74.44h10.81"/>
	<path class="st1" d="M231.75,90.92c0,1.33,0.54,2.13,1.42,2.13c0.44,0,0.76-0.15,1.09-0.47l0.12,0.09
		c-0.3,0.48-0.97,0.89-1.91,0.89c-1.44,0-2.48-0.87-2.48-2.41c0.01-1.72,1.35-2.61,2.88-2.61c1.9,0,3,1.24,3,3.35
		c0,2.55-2.02,4.4-5.05,4.96l-0.05-0.33c2.35-0.81,3.31-2.22,3.31-4.86c0-2.07-0.48-2.75-1.19-2.75
		C232.28,88.91,231.75,89.51,231.75,90.92z M238.82,96.8c-0.57,0-1.01-0.45-1.01-1c0-0.56,0.44-1.02,1.01-1.02
		c0.57,0,1.01,0.46,1.01,1.02C239.83,96.35,239.39,96.8,238.82,96.8z M238.82,92.57c-0.57,0-1.01-0.45-1.01-1
		c0-0.56,0.44-1.02,1.01-1.02c0.57,0,1.01,0.46,1.01,1.02C239.83,92.12,239.39,92.57,238.82,92.57z M243.5,92.68
		c0,2.95,0.54,3.74,1.19,3.74s1.21-0.8,1.21-3.74c0-2.96-0.56-3.76-1.21-3.76S243.5,89.71,243.5,92.68z M244.69,88.54
		c1.52,0,2.87,1.25,2.87,4.14c0,2.87-1.35,4.12-2.87,4.12c-1.53,0-2.86-1.25-2.86-4.12C241.83,89.79,243.16,88.54,244.69,88.54z
		 M250.86,92.68c0,2.95,0.54,3.74,1.19,3.74s1.21-0.8,1.21-3.74c0-2.96-0.56-3.76-1.21-3.76S250.86,89.71,250.86,92.68z
		 M252.04,88.54c1.52,0,2.87,1.25,2.87,4.14c0,2.87-1.35,4.12-2.87,4.12c-1.53,0-2.86-1.25-2.86-4.12
		C249.18,89.79,250.52,88.54,252.04,88.54z M256.21,96.61v-0.37l1.1-0.17h0.21l1.2,0.17v0.37H256.21z M256.95,96.61l2.76-8.25h1.14
		l2.82,8.25h-1.9l-2.27-7.12h0.23l-0.03,0.15l-2.17,6.96H256.95z M258.19,94.01l0.1-0.38h3.56l0.1,0.38H258.19z M260.54,96.61v-0.39
		l1.5-0.17h0.68l1.57,0.17v0.39H260.54z M265.34,96.61v-0.37l1.36-0.18h0.26l1.35,0.18v0.37H265.34z M265.52,88.77V88.4h1.74v0.54
		h-0.18L265.52,88.77z M266.54,96.61l0.04-8.22h0.43l0.07,4.41v3.81H266.54z M269.74,96.61l-2.94-7.7h-0.08V88.4h1.79l2.33,6.25
		h-0.31l0.08-0.21l2.26-6.04h0.64v0.52h-0.35l-0.14,0.38l-2.71,7.32H269.74z M271.91,96.61v-0.37l1.77-0.18H274l1.78,0.18v0.37
		H271.91z M272.87,96.61c0.04-1.29,0.02-2.58,0.04-3.6l0.04-4.62h1.85c-0.04,1.28-0.04,2.57-0.04,3.87v0.48c0,1.31,0,2.61,0.04,3.86
		H272.87z M273.83,88.94V88.4h1.92v0.37l-1.74,0.17H273.83z"/>
	<path class="st1" d="M313.2,92.39V92.2c0.63-0.26,1.23-0.36,1.94-0.36c1.86,0,3,0.85,3,2.37c0,1.68-1.36,2.6-3.23,2.6
		c-1.54,0-2.47-0.76-2.56-1.96c0.13-0.33,0.42-0.49,0.71-0.49c0.45,0,0.7,0.24,0.78,0.89l0.18,1.21l-0.37-0.28
		c0.34,0.18,0.54,0.24,0.95,0.24c1,0,1.67-0.75,1.67-2.01c0-1.31-0.59-1.97-1.57-1.97c-0.46,0-0.85,0.06-1.26,0.19l-0.32-0.21
		l0.26-3.68h4.48v1.35h-4.25l0.27-1l-0.24,3.31H313.2z M321.07,96.8c-0.57,0-1.01-0.45-1.01-1c0-0.56,0.44-1.02,1.01-1.02
		s1.01,0.46,1.01,1.02C322.08,96.35,321.64,96.8,321.07,96.8z M321.07,92.57c-0.57,0-1.01-0.45-1.01-1c0-0.56,0.44-1.02,1.01-1.02
		s1.01,0.46,1.01,1.02C322.08,92.12,321.64,92.57,321.07,92.57z M325.75,92.68c0,2.95,0.54,3.74,1.19,3.74
		c0.65,0,1.21-0.8,1.21-3.74c0-2.96-0.56-3.76-1.21-3.76C326.29,88.91,325.75,89.71,325.75,92.68z M326.94,88.54
		c1.52,0,2.87,1.25,2.87,4.14c0,2.87-1.35,4.12-2.87,4.12c-1.53,0-2.86-1.25-2.86-4.12C324.08,89.79,325.41,88.54,326.94,88.54z
		 M333.11,92.68c0,2.95,0.54,3.74,1.19,3.74s1.21-0.8,1.21-3.74c0-2.96-0.56-3.76-1.21-3.76S333.11,89.71,333.11,92.68z
		 M334.29,88.54c1.52,0,2.87,1.25,2.87,4.14c0,2.87-1.35,4.12-2.87,4.12c-1.53,0-2.86-1.25-2.86-4.12
		C331.43,89.79,332.77,88.54,334.29,88.54z M338.75,96.61v-0.37l1.77-0.18h0.53l1.78,0.18v0.37H338.75z M339.73,96.61
		c0.03-1.25,0.03-2.55,0.03-3.86v-0.48c0-1.3,0-2.58-0.03-3.87h1.94c-0.03,1.26-0.03,2.56-0.03,3.87v0.77c0,1.01,0,2.29,0.03,3.57
		H339.73z M340.7,93.33v-0.42h1.31c1.27,0,1.86-0.85,1.86-2.08c0-1.33-0.62-2.01-1.78-2.01h-1.39V88.4h1.39
		c2.52,0,3.53,0.89,3.53,2.44c0,1.38-0.95,2.49-3.56,2.49H340.7z M338.75,88.77V88.4h1.95v0.54h-0.18L338.75,88.77z M346.75,96.61
		v-0.37l1.36-0.18h0.26l1.35,0.18v0.37H346.75z M346.92,88.77V88.4h1.74v0.54h-0.18L346.92,88.77z M347.94,96.61l0.04-8.22h0.43
		l0.07,4.41v3.81H347.94z M351.15,96.61l-2.94-7.7h-0.08V88.4h1.79l2.33,6.25h-0.31l0.08-0.21l2.26-6.04h0.64v0.52h-0.35l-0.14,0.38
		l-2.71,7.32H351.15z M353.31,96.61v-0.37l1.77-0.18h0.32l1.78,0.18v0.37H353.31z M354.27,96.61c0.04-1.29,0.02-2.58,0.04-3.6
		l0.04-4.62h1.85c-0.04,1.28-0.04,2.57-0.04,3.87v0.48c0,1.31,0,2.61,0.04,3.86H354.27z M355.23,88.94V88.4h1.92v0.37l-1.74,0.17
		H355.23z"/>
	<rect x="283.11" y="92.11" class="st1" width="22.95" height="0.4"/>
	<path class="st1" d="M142.09,124.38h3.54v0.42h-3.54V124.38z M144.57,115.34h-0.15l1-1.11l1.94,1.55
		c-0.11,0.13-0.29,0.25-0.59,0.33v9.58c-0.03,0.18-1.02,0.75-1.85,0.75h-0.36V115.34z M133.33,116.15h5.62v0.42h-5.49L133.33,116.15
		z M135.12,112.94l2.7,0.24c-0.04,0.22-0.18,0.36-0.55,0.42c-0.07,4.82,0.07,9.92-4.12,13.46l-0.2-0.19
		C135.37,122.64,135.12,117.77,135.12,112.94z M138.24,116.15h-0.18l1.11-1.11l1.8,1.59c-0.12,0.15-0.32,0.25-0.66,0.32
		c-0.12,6.46-0.29,8.22-1.17,9.07c-0.56,0.54-1.26,0.78-2.15,0.78c0-0.72-0.04-1.2-0.23-1.47c-0.22-0.33-0.54-0.54-1.12-0.7
		l0.01-0.18c0.41,0.04,1.05,0.07,1.35,0.07c0.23,0,0.36-0.06,0.49-0.18C138.01,123.87,138.15,121.59,138.24,116.15z M141.13,115.34
		v-0.89l2.16,0.89h2.41v0.42h-2.47V126c0,0.25-0.83,0.75-1.76,0.75h-0.35V115.34z M155.47,114.3l0.84-1.33l2.2,1.59
		c-0.31,0.38-1.14,0.58-2.14,0.68v0.4c0.43,4.53,2.85,7.32,7.3,9.18l-0.04,0.15c-1.08,0.16-1.76,0.85-2.15,2.07
		c-1.71-1.04-3.81-3.74-4.59-6.42c-1.18,2.62-3.94,5.15-7.44,6.39l-0.07-0.12c3.26-1.85,6.21-6.63,6.52-11.39l-0.01-0.78h-3.52
		l-0.12-0.42H155.47z M169.11,115.82l2.5,1.47c-0.07,0.13-0.22,0.24-0.6,0.19c-1.26,1.39-3.27,3.18-5.54,4.33l-0.12-0.14
		C166.89,120,168.42,117.42,169.11,115.82z M168.91,112.83l2.35,1.49c-0.09,0.15-0.24,0.24-0.58,0.18c-1.15,0.97-2.94,2.11-4.8,2.82
		l-0.12-0.15C167.02,115.95,168.33,114.05,168.91,112.83z M167.71,119.46l0.79-1.05l1.85,0.67c-0.04,0.14-0.18,0.24-0.46,0.3v7.12
		c-0.03,0.15-0.93,0.54-1.77,0.54h-0.4V119.46z M171.87,114.38h4.66l1.02-1.35c0,0,1.15,0.92,1.83,1.53
		c-0.04,0.17-0.21,0.24-0.42,0.24h-6.98L171.87,114.38z M171.01,117.84h5.85l1.07-1.41c0,0,1.2,0.94,1.9,1.59
		c-0.04,0.16-0.21,0.24-0.43,0.24h-8.26L171.01,117.84z M175.17,117.84h2.22v6.54c0,1.41-0.4,2.37-2.96,2.52
		c-0.04-0.69-0.18-1.22-0.53-1.53c-0.34-0.3-0.74-0.54-1.81-0.72v-0.18c0,0,2.29,0.14,2.73,0.14c0.26,0,0.35-0.11,0.35-0.29V117.84z
		 M181.83,121.62h12.03l0.87-1.25c0,0,0.99,0.86,1.54,1.43c-0.03,0.17-0.19,0.24-0.4,0.24h-13.92L181.83,121.62z M181.87,114.54
		h10.77l1.12-1.36c0,0,1.28,0.9,2.07,1.54c-0.04,0.17-0.21,0.24-0.43,0.24h-13.41L181.87,114.54z M183.4,119.84h9.06v0.42h-8.93
		L183.4,119.84z M183.28,123.39h9.21v0.42h-9.07L183.28,123.39z M187.72,112.77l2.75,0.25c-0.01,0.22-0.17,0.38-0.54,0.43v11.29
		c0,1.4-0.36,2.1-2.79,2.3c-0.06-0.63-0.15-1.07-0.45-1.37c-0.29-0.27-0.62-0.49-1.53-0.64v-0.18c0,0,1.86,0.11,2.24,0.11
		c0.24,0,0.33-0.08,0.33-0.26V112.77z M183.66,116.13v-0.85l2.31,0.85h6.79v0.42h-6.93v2.24c0,0.18-1,0.63-1.88,0.63h-0.3V116.13z
		 M191.95,116.13h-0.15l0.95-0.99l1.93,1.43c-0.09,0.1-0.26,0.22-0.53,0.28v1.61c-0.01,0.12-1.09,0.53-1.81,0.53h-0.39V116.13z
		 M191.85,119.84h-0.15l0.91-0.97l1.86,1.39c-0.09,0.11-0.25,0.23-0.54,0.29v3.66c-0.01,0.14-1.02,0.56-1.73,0.56h-0.36V119.84z
		 M185.11,118.07h7.41v0.42h-7.41V118.07z M209.19,118.25c3.75-0.03,2.74,2.86,1.21,2.04c-0.2-0.69-0.81-1.49-1.34-1.94
		L209.19,118.25z M204.48,120.84c0,0.1-0.56,0.46-1.44,0.46h-0.32V116l1.76-0.53V120.84z M209.58,120.75c0,0.09-0.56,0.47-1.47,0.47
		h-0.33v-5.37l1.8-0.36V120.75z M211.42,115.91c-0.16,0.14-0.45,0.14-0.82-0.01c-1.12,0.22-2.93,0.45-4.44,0.51l-0.06-0.24
		c1.37-0.36,3.09-1.05,3.98-1.55L211.42,115.91z M206.16,115.88c-0.15,0.14-0.43,0.14-0.82-0.01c-1.02,0.25-2.68,0.51-4.1,0.58
		l-0.06-0.22c1.26-0.39,2.82-1.11,3.62-1.61L206.16,115.88z M210.15,112.79c0,0,1.26,0.94,2.01,1.59c-0.04,0.17-0.21,0.24-0.43,0.24
		h-11.76v-0.42h9.07L210.15,112.79z M198.99,114.05v-0.64l2.33,0.79h-0.3v3.57c0,2.75-0.11,6.72-2.93,9.27l-0.13-0.09
		c1.02-2.78,1.03-6.3,1.03-9.18V114.05z M204,126.41c0,0.19-0.92,0.65-1.76,0.65h-0.3v-6l2.16,0.82h5.19v0.42H204V126.41z
		 M208.18,121.88l0.91-0.97l1.86,1.39c-0.07,0.11-0.25,0.23-0.52,0.29v3.87c-0.01,0.12-1.07,0.48-1.74,0.48h-0.36v-5.06H208.18z
		 M209.32,125.6v0.42h-6.35v-0.42H209.32z M209.32,123.71v0.42h-6.35v-0.42H209.32z M209.25,117.57c-0.6,1.47-1.86,2.55-3.57,3.33
		l-0.12-0.21c0.9-0.87,1.44-2.08,1.71-3.36h1.98V117.57z M204.21,117.57c-0.57,1.33-1.75,2.37-3.21,3.14l-0.14-0.21
		c0.75-0.84,1.23-2.01,1.49-3.17h1.86V117.57z M204.42,118.08c3.15,0.28,1.63,2.6,0.39,1.59c0-0.54-0.26-1.15-0.53-1.51
		L204.42,118.08z M210.31,116.31c0,0,0.84,0.71,1.33,1.2c-0.03,0.17-0.18,0.24-0.39,0.24h-5.04l-0.12-0.42h3.47L210.31,116.31z
		 M205.06,116.43c0,0,0.78,0.63,1.23,1.08c-0.03,0.17-0.18,0.24-0.38,0.24h-4.74l-0.12-0.42h3.33L205.06,116.43z M219.34,119.76
		h6.21l1.02-1.33c0,0,1.17,0.9,1.86,1.51c-0.04,0.17-0.21,0.24-0.42,0.24h-8.55L219.34,119.76z M222.72,119.76h2.05v5.81l-2.05-0.53
		V119.76z M223.87,122.24h1.44l1.02-1.41c0,0,1.15,0.95,1.83,1.59c-0.04,0.17-0.21,0.24-0.42,0.24h-3.87V122.24z M221.26,122.85
		c0.79,1.58,2.1,1.88,4.47,1.88c0.64,0,2.16,0,2.89-0.01v0.17c-0.57,0.15-0.82,0.93-0.81,1.82c-0.49,0-1.66,0-2.16,0
		c-2.55,0-3.91-0.78-4.5-3.79L221.26,122.85z M219.85,120.93l2.71,0.47c-0.06,0.21-0.22,0.34-0.57,0.38
		c-0.63,2.92-1.88,4.42-3.92,5.31l-0.15-0.14C219.16,125.48,219.88,123.45,219.85,120.93z M221.23,115.88h4.98v0.42h-4.98V115.88z
		 M221.32,117.83h4.98v0.42h-4.98V117.83z M220.18,113.94v-0.83l2.13,0.83h3.88v0.42h-3.96v4.29c0,0.19-0.9,0.64-1.75,0.64h-0.3
		V113.94z M225.13,113.94h-0.15l0.91-1.01l1.9,1.44c-0.09,0.12-0.29,0.25-0.6,0.32v3.71c-0.01,0.12-1.02,0.54-1.71,0.54h-0.36
		V113.94z M214.18,116.39h3.61l0.83-1.36c0,0,0.96,0.94,1.47,1.54c-0.05,0.17-0.2,0.24-0.4,0.24h-5.39L214.18,116.39z
		 M215.85,112.77l2.58,0.24c-0.03,0.22-0.18,0.38-0.55,0.43v11.29c0,1.38-0.29,2.12-2.39,2.3c-0.03-0.65-0.09-1.12-0.28-1.44
		c-0.18-0.3-0.44-0.51-1.08-0.65v-0.19c0,0,1.17,0.08,1.46,0.08c0.21,0,0.27-0.06,0.27-0.22V112.77z M214.02,119.85
		c0.95-0.15,3.47-0.64,5.84-1.18l0.03,0.14c-0.91,0.72-2.46,1.8-4.68,3.12c-0.08,0.19-0.26,0.38-0.45,0.42L214.02,119.85z
		 M242.64,119.69c0,0,0.99,0.81,1.56,1.37c-0.04,0.17-0.2,0.24-0.4,0.24h-5.84v-0.42h3.82L242.64,119.69z M239.8,119.69
		c-0.06,0.19-0.24,0.33-0.57,0.33c-0.51,1.58-1.28,2.85-2.37,3.66l-0.19-0.11c0.48-1.2,0.79-2.88,0.85-4.51L239.8,119.69z
		 M237.54,113.22l1.98,0.75h2.28l0.89-0.99l1.65,1.24c-0.09,0.14-0.24,0.24-0.57,0.3v3.94c0,0.07-0.59,0.39-1.56,0.39h-0.35v-4.47
		h-2.51v4.2c0,0.12-0.56,0.42-1.49,0.42h-0.33V113.22z M242.01,119.13c-0.03,0.19-0.12,0.33-0.48,0.38v6.59h-1.85v-7.17
		L242.01,119.13z M243.19,124.58c0,0,1.05,0.87,1.65,1.47c-0.03,0.17-0.2,0.24-0.4,0.24h-7.62l-0.12-0.42h5.58L243.19,124.58z
		 M242.67,122.07c0,0,0.91,0.79,1.46,1.33c-0.04,0.17-0.2,0.24-0.4,0.24h-5.99l-0.12-0.42h4.25L242.67,122.07z M242.52,117.98v0.42
		h-4.05v-0.42H242.52z M242.52,116.03v0.42h-4.05v-0.42H242.52z M234.07,122.37c0,0,0.65,0.54,1.02,0.94
		c-0.03,0.17-0.17,0.24-0.36,0.24h-2.26l-0.11-0.42h1.15L234.07,122.37z M233.46,116.81h-1.29v-2.78h1.29V116.81z M233.46,117.66
		c0,1.23-0.06,3.16-1.24,4.5l-0.2-0.19c0.63-1.43,0.6-3.09,0.6-4.31v-1.17h0.84V117.66z M232.29,126.33c0,0.18-0.6,0.56-1.27,0.56
		h-0.26V115.8l1.6,0.69h3.53v0.42h-3.6V126.33z M234.67,116.49c0,0.18,0,0.33,0,0.44v3.42c0,0.17,0.03,0.21,0.11,0.21h0.12
		c0.03,0,0.07,0,0.12,0c0.05,0,0.11,0,0.14,0c0.06-0.01,0.18-0.03,0.24-0.04h0.12l0.04,0.01c0.27,0.09,0.39,0.19,0.39,0.45
		c0,0.39-0.27,0.62-1.12,0.62h-0.32c-0.63,0-0.72-0.24-0.72-0.81v-4.29H234.67z M235.08,114.03v2.78h-1.29v-2.78H235.08z
		 M234.82,116.49l0.78-0.84l1.56,1.21c-0.1,0.12-0.3,0.24-0.57,0.29v8.96c-0.03,0.12-0.8,0.48-1.37,0.48h-0.26v-10.1H234.82z
		 M235.95,125.31v0.42h-4.49v-0.42H235.95z M235.81,112.76c0,0,1.05,0.87,1.65,1.46c-0.04,0.17-0.2,0.24-0.4,0.24h-6.57l-0.12-0.42
		h4.53L235.81,112.76z M246.58,117.66h11.25l1.08-1.29c0,0,1.21,0.87,1.96,1.47c-0.05,0.16-0.21,0.24-0.42,0.24H246.7L246.58,117.66
		z M254.1,113.07l2.67,0.25c-0.01,0.2-0.13,0.38-0.52,0.44c-0.07,4.23,0.2,8.17,2.79,10.2c0.23,0.19,0.35,0.19,0.49-0.04
		c0.27-0.4,0.73-1.25,1.05-1.92l0.14,0.04l-0.36,2.6c0.59,0.99,0.66,1.53,0.38,1.83c-0.78,0.79-2.16,0.13-2.88-0.48
		C254.46,123.06,254.11,118.43,254.1,113.07z M257.02,113.6c4.38,0.54,2.54,3.92,0.81,2.53c-0.01-0.88-0.43-1.84-0.93-2.46
		L257.02,113.6z M257.91,118.38l2.51,1.14c-0.09,0.16-0.24,0.27-0.6,0.22c-1.4,2.64-3.83,5.4-7.91,6.72l-0.1-0.17
		C255.03,124.4,257.04,121.16,257.91,118.38z M246.57,120.74c1.31-0.11,4.59-0.53,7.85-0.99l0.01,0.17
		c-1.3,0.72-3.36,1.66-6.49,2.89c-0.09,0.19-0.27,0.33-0.45,0.38L246.57,120.74z M252.15,112.88l2.25,1.95
		c-0.19,0.17-0.55,0.2-1.1,0.02c-1.66,0.46-4.35,0.85-6.71,0.97l-0.03-0.15C248.53,114.98,250.95,113.75,252.15,112.88z
		 M249.84,114.59h2.13v9.9c0,1.39-0.36,2.37-2.67,2.54c-0.03-0.69-0.13-1.22-0.39-1.53c-0.25-0.31-0.58-0.56-1.47-0.7v-0.18
		c0,0,1.71,0.1,2.08,0.1c0.24,0,0.32-0.12,0.32-0.3V114.59z"/>
	<path class="st1" d="M358.49,121.61h-87v-1h87V121.61z M122.99,121.61h-89.5v-1h89.5V121.61z"/>
</g>
</svg>
