<?xml version="1.0" encoding="UTF-8"?><svg id="a" xmlns="http://www.w3.org/2000/svg" viewBox="0 0 390 145"><defs><style>.b{fill:#fff;}.c{fill:rgba(201,143,105,.7);}.d{stroke-width:2px;}.d,.e{fill:none;stroke:#fff;}</style></defs><rect class="c" width="390" height="145"/><g><path class="b" d="M108.21,16.31c6.3,.54,3.8,5.38,1.28,3.5-.12-1.24-.74-2.54-1.42-3.4l.14-.1Zm13.26,11.04h-.2l1.34-1.26,2.32,1.92c-.16,.16-.4,.3-.82,.36-.3,3.7-.84,5.38-1.94,6.12-.68,.46-1.5,.66-2.6,.66,0-.74-.06-1.38-.32-1.72-.3-.4-.74-.66-1.48-.84v-.24c.6,.06,1.58,.1,1.96,.1,.3,0,.46-.04,.64-.16,.48-.36,.88-2,1.1-4.94Zm-12.24,1.66l.24-.02c1.38,2.8,.64,4.8-.54,5.44-.82,.46-1.84,.16-2.14-.72-.26-.86,.26-1.5,.98-1.84,.78-.42,1.58-1.54,1.46-2.86Zm2.4,.02c4.52,2.78,1.18,6.46-.54,4.04,.42-1.34,.5-2.8,.32-3.98l.22-.06Zm2.46-.18c5.36,1.28,2.9,5.34,.84,3.5,0-1.18-.48-2.5-1.02-3.4l.18-.1Zm2.76-.36c5.26-.16,3.6,4.02,1.42,2.72-.18-.96-.88-2.02-1.56-2.6l.14-.12Zm-7.5-1.14h12.84v.56h-13.38l.54-.56Zm2.96-3.36h8.22v.56h-8.62l.4-.56Zm-5.32-3.26h12.46v.56h-12.28l-.18-.56Zm10.76,0h-.2l.98-1.08,2.32,1.7c-.16,.18-.34,.26-.72,.3l-.62,2.52h-2.62l.86-3.44Zm1.88,3.26h-.2l.96-1.06,2.24,1.66c-.16,.18-.32,.24-.7,.3l-.5,2.62h-2.48l.68-3.52Zm-5.82-8.02l3.58,1.08c-.08,.24-.26,.4-.8,.4-1.72,4.8-4.86,10.6-11,13.9l-.18-.18c4.64-3.96,7.32-10.36,8.4-15.2Zm23.38,11.96c-.08,.18-.3,.34-.66,.3-1.68,2.04-5.1,4.1-8.4,4.8l-.12-.22c2.4-1.36,4.78-3.92,5.76-5.86l3.42,.98Zm-1.58-5.54c4.96-.14,3.02,3.72,.96,2.36-.12-.84-.62-1.74-1.12-2.26l.16-.1Zm4.84,.46c5.92,.74,3.94,5.26,1.64,3.66-.2-1.26-1-2.66-1.8-3.54l.16-.12Zm-9.08-.1c.92,2.3,.28,3.92-.74,4.46-.7,.38-1.66,.14-1.92-.66-.2-.74,.26-1.32,.92-1.62,.7-.32,1.5-1.2,1.48-2.18h.26Zm4.04,.08c-.04,.26-.22,.44-.6,.5v1.44c0,.22,.06,.28,.62,.28h1.84c.64,0,1.24,0,1.5-.02,.24,0,.42-.04,.54-.18,.2-.18,.48-.64,.78-1.32h.22l.06,1.34c.64,.22,.8,.48,.8,.92,0,.94-.86,1.38-4.16,1.38h-2.08c-2.04,0-2.42-.38-2.42-1.88v-2.68l2.9,.22Zm-4.16,4.52c2.42,3.98,8.5,4.72,14.82,4.62v.26c-1.22,.4-1.9,1.38-2.14,2.78-6.2-.6-10.78-2.24-12.9-7.48l.22-.18Zm7.82,1.34l1.68-1.4,2.36,2.26c-.14,.22-.36,.28-.9,.32-3.16,3.52-8.58,5.04-14.84,5.22l-.08-.26c5.28-.98,10.02-2.96,12.06-6.14h-.28Zm1.42,0v.56h-7.06l.54-.56h6.52Zm3.52-10.4c-.24,.18-.7,.18-1.34-.1-3.44,.36-8.72,.54-13.12,.36l-.04-.32c4.16-.4,9.52-1.4,12.32-2.26l2.18,2.32Zm-.72,1.04c-.1,.24-.34,.36-.78,.32-.9,.72-2.4,1.68-3.74,2.34h-.26c.62-1.08,1.22-2.7,1.54-3.86l3.24,1.2Zm-8.52-.7c5.04,.62,2.5,4.32,.54,2.6,.04-.9-.3-1.88-.7-2.5l.16-.1Zm-3.82,.14c5.04,.5,2.56,4.18,.58,2.52,.02-.88-.34-1.84-.74-2.42l.16-.1Zm11.92,2.96l1.3-1.32,2.3,2.16c-.16,.16-.36,.22-.76,.24-.68,.54-1.8,1.2-2.68,1.56l-.14-.12c.1-.72,.18-1.86,.2-2.52h-.22Zm-13.74-1.18c1.2,2.18,.86,3.86,0,4.38-.64,.4-1.6,.14-1.86-.66-.22-.8,.26-1.4,.94-1.7,.44-.36,.88-1.2,.66-2l.26-.02Zm14.82,1.18v.56h-14.66v-.56h14.66Zm21.84-1.28s1.38,1.14,2.18,1.9c-.06,.22-.28,.32-.56,.32h-7.56l-.16-.56h4.9l1.2-1.66Zm-.78-3.34c4.72,1.2,2.34,4.74,.56,3.06,.08-1.04-.28-2.2-.74-2.96l.18-.1Zm-.88,5.14c.3,5.84,1.72,8.44,4.02,10.54l-.04,.2c-1.12,.12-2.06,.86-2.62,2.12-1.6-2.98-1.64-5.92-1.66-12.78l.3-.08Zm.84-5.84c-.04,.32-.26,.5-.74,.58-.06,8.18,.36,14.2-4.92,18.14l-.22-.28c3-4.62,2.54-10.58,2.54-18.74l3.34,.3Zm-6.6,2.98l1.08-1.1,1.92,1.84c-.16,.16-.36,.2-.76,.22-.5,.46-1.36,1.14-1.96,1.5l-.22-.12c.06-.62,.14-1.74,.16-2.34h-.22Zm-2.44,.7c-.04,.24-.24,.4-.56,.46v1.42c0,.2,.04,.26,.42,.26h1.02c.38,0,.76,0,.92-.02,.12,0,.32,0,.4-.02,.12,0,.32-.04,.44-.08h.18l.08,.02c.48,.18,.66,.32,.66,.62,0,.7-.66,.88-2.88,.88h-1.32c-1.42,0-1.64-.34-1.64-1.38v-2.38l2.28,.22Zm-6.24-.9v-.76l2.72,.96h-.38v5.44c0,3.14-.08,7.18-3.14,9.92l-.22-.14c1.08-2.86,1.02-6.52,1.02-9.78v-5.64Zm7.3,.82s.9,.58,1.46,1c-.02,.2-.22,.34-.46,.36l-5.68,.5-.2-.52,4.22-.36,.66-.98Zm1.08-3.7s1.28,.94,2.04,1.62c-.04,.22-.26,.32-.54,.32h-4.8v-.56h2.2l1.1-1.38Zm-1.08,.06c-.02,.26-.16,.44-.64,.52v2.86h-2.7v-3.64l3.34,.26Zm2.86,3.02v.56h-9.02v-.56h9.02Zm-2.12,7.76v.56h-4.06v-.56h4.06Zm-4.94-2.48l1.98,.8h2.4l.86-.96,1.74,1.3c-.12,.16-.3,.26-.7,.32v1.66c0,.06-.6,.38-1.52,.38h-.32v-2.14h-2.66v2c0,.12-.58,.44-1.48,.44h-.3v-3.8Zm5.6-1.56s1.02,.74,1.68,1.32c-.06,.22-.24,.32-.52,.32h-7.2l-.16-.56h5.28l.92-1.08Zm-.52,6.76c-.1,.22-.36,.36-.76,.32-.28,.34-.6,.74-.98,1.14h-.44c.18-.56,.42-1.48,.56-2.12l1.62,.66Zm-1.18,3.72c0,.08-.56,.38-1.48,.38h-.32v-2.72h1.8v2.34Zm.66-3.18s.54,.44,.9,.84c-.04,.2-.22,.3-.46,.3h-3.8l-.16-.56h3.04l.48-.58Zm-3.08-1.04c2.38,.68,1.14,2.32,.22,1.52-.02-.48-.24-1.08-.46-1.42l.24-.1Zm3.5-.64l.86-.98,2,1.46c-.1,.12-.32,.26-.64,.32v2.86c0,1.32-.28,2.04-2.42,2.22-.02-.56-.08-1.02-.3-1.28-.2-.26-.48-.46-1.16-.58v-.28s1.2,.08,1.52,.08c.26,0,.32-.12,.32-.34v-3.48h-.18Zm.72,0v.56h-5.2v-.56h5.2Zm-6.66-1.1l2.34,1.1h-.26v5.5c0,.14-.64,.6-1.7,.6h-.38v-7.2Zm34.94,2.98s1.42,1,2.3,1.72c-.04,.22-.26,.32-.54,.32h-17.22l-.16-.56h14.36l1.26-1.48Zm-1.34,3.94c0,.12-.84,.56-2.26,.56h-.52v-8.76h2.78v8.2Zm-8.18-8.22v6.06l-2.68,.04v-6.1h2.68Zm9-1.64s1.44,1,2.32,1.72c-.06,.22-.26,.32-.56,.32h-15.52l-.16-.56h12.68l1.24-1.48Zm-1.84,5.34v.56h-8.84v-.56h8.84Zm0-1.94v.56h-8.84v-.56h8.84Zm-3.16-6.82c1.46,1.92,4.68,2.24,8.34,2.14l.02,.22c-.86,.32-1.36,1.12-1.52,2.22-3.58-.56-5.86-1.54-7.08-4.44l.24-.14Zm4-.12l1.3-1.2,2.08,1.8c-.12,.18-.32,.24-.76,.28-1.72,2.32-5.04,3.44-8.96,3.76l-.1-.28c3.16-.78,5.64-2.2,6.66-4.36h-.22Zm-.4-3.9l1.1-1.14,1.96,1.58c-.12,.14-.38,.24-.68,.28v.78c0,.2,.04,.26,.18,.26h.32c.08,0,.3,0,.38-.02,.12,0,.3-.04,.44-.08h.18l.1,.04c.48,.24,.62,.4,.62,.74,0,.84-.72,1.04-2.22,1.04h-.66c-1.4,0-1.52-.46-1.52-1.62v-1.86h-.2Zm1.7,3.9v.56h-6.08l-.18-.56h6.26Zm-10.14,.36v2.8h-1.96v-2.8h1.96Zm4.48-4.46v-.72l2.58,.92h-.34v.62c0,.88-.42,2.58-3.36,3.36l-.12-.2c1.18-1.02,1.24-2.26,1.24-3.16v-.82Zm5.02,.2v.56h-3.96v-.56h3.96Zm-14.38,3.94v-.72l2.56,.92h-.34v.72c0,1.3-.36,3.9-3.26,5.28l-.16-.2c1.16-1.66,1.2-3.68,1.2-5.08v-.92Zm5.78-4.86c-.04,.24-.18,.42-.66,.5v3.26h-2.46v-4.02l3.12,.26Zm-.3,5.06l.96-1,1.98,1.48c-.1,.12-.32,.28-.64,.34v2.54c-.02,.16-1.04,.6-1.76,.6h-.36v-3.96h-.18Zm1,2.58v.56h-5.3v-.56h5.3Zm-.02-2.58v.56h-5.2v-.56h5.2Zm.16-2.94s1.16,.9,1.86,1.56c-.06,.22-.26,.32-.52,.32h-8.04l-.16-.56h5.84l1.02-1.32Zm.3-1.98s1.16,.9,1.86,1.56c-.06,.22-.26,.32-.54,.32h-8.96l-.16-.56h6.78l1.02-1.32Zm28.98,16.28c.86-.16,2.9-.62,4.88-1.12l.06,.22c-.72,.62-2.24,1.88-3.96,3.08l-.98-2.18Zm2.36-3.36l.56,.34v3.36l-2.22,.42,1-.74c.22,1.42-.42,2.16-.94,2.4l-1.14-2.46c.86-.38,1-.58,1-.96v-2.36h1.74Zm7.18,.78c-.08,.16-.28,.24-.72,.12-.72,.26-2.26,.56-3.14,.78l-.16-.2c.52-.64,1.26-1.82,1.64-2.46l2.38,1.76Zm-3.44-7.34c0,.14-.8,.54-1.54,.54h-.26v-4.1l1.88,.76h1.98v.56h-2.06v2.24Zm1.04-2.8l.82-.88,1.78,1.34c-.1,.12-.34,.26-.66,.32v1.96c-.02,.14-.92,.46-1.48,.46h-.3v-3.2h-.16Zm1.14,2.34v.56h-3.02v-.56h3.02Zm-7.52,.7c0,.14-.8,.54-1.54,.54h-.26v-4.34l1.88,.76h1.98v.56h-2.06v2.48Zm1.02-3.04l.82-.86,1.76,1.3c-.1,.14-.34,.28-.66,.34v1.96c-.02,.14-.9,.46-1.46,.46h-.3v-3.2h-.16Zm2.32,8.24c1.02,2.18,3.56,3.6,6.28,4.04l-.02,.22c-.9,.26-1.58,1.08-1.82,2.36-2.58-1.22-3.94-3.2-4.66-6.52l.22-.1Zm.4,.32c-1.4,1.46-3.94,2.44-6.64,3.02l-.14-.26c1.66-.76,3.04-1.92,3.86-3.08h2.92v.32Zm-1.44-6.24v.56h-3.02v-.56h3.02Zm3.9,1.06c-.02,.14-.08,.26-.3,.3v4.78h-2.34v-5.34l2.64,.26Zm-3.48,.04c-.02,.2-.14,.34-.48,.4v4.68h-2.36v-5.34l2.84,.26Zm4.78,3.48s1.24,.92,1.98,1.58c-.04,.22-.26,.32-.52,.32h-11.4l-.16-.56h9.02l1.08-1.34Zm-.86-1.7s1.08,.84,1.74,1.46c-.06,.22-.24,.32-.52,.32h-9.82l-.16-.56h7.8l.96-1.22Zm.44-1.82s1.16,.86,1.88,1.5c-.06,.22-.26,.32-.54,.32h-10.76l-.16-.56h8.56l1.02-1.26Zm.18-6.4s1.38,1.02,2.22,1.76c-.06,.22-.26,.32-.54,.32h-11.38l-.16-.56h8.64l1.22-1.52Zm-6.06-1c5.26-.24,2.9,3.8,.7,2.22-.02-.8-.42-1.64-.84-2.12l.14-.1Zm-9.28,.6c5.84-.22,3.6,4.34,1.16,2.74-.14-.98-.72-2.02-1.3-2.64l.14-.1Zm3.98,15.76v.56h-3.2v-.56h3.2Zm-1.28-4.54l1.08-1.14,2.2,1.66c-.1,.12-.32,.28-.64,.34v4.58c-.02,.18-1.2,.7-2.04,.7h-.42v-6.14h-.18Zm-.9,6.38c0,.22-1.04,.76-2.08,.76h-.34v-8.12l2.48,.98h2.06v.56h-2.12v5.82Zm2.64-15.38s1.12,.9,1.8,1.54c-.06,.22-.26,.32-.54,.32h-7l-.16-.56h4.9l1-1.3Zm-.52,5.2s1.06,.86,1.7,1.48c-.04,.22-.24,.32-.52,.32h-5.74l-.16-.56h3.78l.94-1.24Zm0-2.6s1.06,.86,1.7,1.48c-.04,.22-.24,.32-.52,.32h-5.74l-.16-.56h3.78l.94-1.24Zm26.1,6.5c-.08,.18-.3,.34-.66,.3-1.68,2.04-5.1,4.1-8.4,4.8l-.12-.22c2.4-1.36,4.78-3.92,5.76-5.86l3.42,.98Zm-1.58-5.54c4.96-.14,3.02,3.72,.96,2.36-.12-.84-.62-1.74-1.12-2.26l.16-.1Zm4.84,.46c5.92,.74,3.94,5.26,1.64,3.66-.2-1.26-1-2.66-1.8-3.54l.16-.12Zm-9.08-.1c.92,2.3,.28,3.92-.74,4.46-.7,.38-1.66,.14-1.92-.66-.2-.74,.26-1.32,.92-1.62,.7-.32,1.5-1.2,1.48-2.18h.26Zm4.04,.08c-.04,.26-.22,.44-.6,.5v1.44c0,.22,.06,.28,.62,.28h1.84c.64,0,1.24,0,1.5-.02,.24,0,.42-.04,.54-.18,.2-.18,.48-.64,.78-1.32h.22l.06,1.34c.64,.22,.8,.48,.8,.92,0,.94-.86,1.38-4.16,1.38h-2.08c-2.04,0-2.42-.38-2.42-1.88v-2.68l2.9,.22Zm-4.16,4.52c2.42,3.98,8.5,4.72,14.82,4.62v.26c-1.22,.4-1.9,1.38-2.14,2.78-6.2-.6-10.78-2.24-12.9-7.48l.22-.18Zm7.82,1.34l1.68-1.4,2.36,2.26c-.14,.22-.36,.28-.9,.32-3.16,3.52-8.58,5.04-14.84,5.22l-.08-.26c5.28-.98,10.02-2.96,12.06-6.14h-.28Zm1.42,0v.56h-7.06l.54-.56h6.52Zm3.52-10.4c-.24,.18-.7,.18-1.34-.1-3.44,.36-8.72,.54-13.12,.36l-.04-.32c4.16-.4,9.52-1.4,12.32-2.26l2.18,2.32Zm-.72,1.04c-.1,.24-.34,.36-.78,.32-.9,.72-2.4,1.68-3.74,2.34h-.26c.62-1.08,1.22-2.7,1.54-3.86l3.24,1.2Zm-8.52-.7c5.04,.62,2.5,4.32,.54,2.6,.04-.9-.3-1.88-.7-2.5l.16-.1Zm-3.82,.14c5.04,.5,2.56,4.18,.58,2.52,.02-.88-.34-1.84-.74-2.42l.16-.1Zm11.92,2.96l1.3-1.32,2.3,2.16c-.16,.16-.36,.22-.76,.24-.68,.54-1.8,1.2-2.68,1.56l-.14-.12c.1-.72,.18-1.86,.2-2.52h-.22Zm-13.74-1.18c1.2,2.18,.86,3.86,0,4.38-.64,.4-1.6,.14-1.86-.66-.22-.8,.26-1.4,.94-1.7,.44-.36,.88-1.2,.66-2l.26-.02Zm14.82,1.18v.56h-14.66v-.56h14.66Zm6.66,1.6c1.06-.22,3.66-.88,6.22-1.6l.06,.2c-1,.78-2.96,2.26-5.3,3.74l-.98-2.34Zm1.76-5.14l.66,.38v4.62l-1.9,.8,1.2-.9c.32,1.64-.36,2.58-.98,2.9l-1.48-2.9c.48-.36,.56-.56,.56-.98v-3.92h1.94Zm1.12-.52c-.04,.18-.14,.32-.46,.38v.86h-2.6v-1.54l3.06,.3Zm10.4,.1l1.36-1.26,2.32,1.9c-.16,.18-.4,.3-.8,.38-.22,3.76-.6,5.22-1.62,5.92-.64,.44-1.42,.64-2.48,.64,0-.78-.06-1.4-.3-1.76-.26-.36-.62-.62-1.28-.8v-.24c.46,.04,1.28,.08,1.64,.08,.26,0,.42-.04,.56-.14,.38-.32,.64-1.76,.8-4.72h-.2Zm-5.74,.62c-.28,.2-.76,.18-1.36-.08-1.26,.14-3.3,.22-4.96,.2l-.06-.24c1.34-.62,3.14-1.7,4.02-2.36l2.36,2.48Zm4.38-.62c-.2,3.36-.9,6.38-6.4,8.3l-.18-.24c3.6-2.42,3.62-5.16,3.68-8.06h2.9Zm-7.98,1.68c5.56,1.98,3.18,6.36,1.06,4.4-.02-1.46-.6-3.12-1.26-4.3l.2-.1Zm10.58-1.68v.56h-6.94l-.18-.56h7.12Zm-10.66,16.4c0,.3-1.32,.96-2.56,.96h-.44v-10.04l3.18,1.2h9.2v.56h-9.38v7.32Zm7.56-7.88l1.3-1.42,2.64,2.02c-.12,.16-.36,.34-.78,.42v6.98c-.02,.16-1.48,.66-2.46,.66h-.5v-8.66h-.2Zm1.58,6.7v.56h-10.46v-.56h10.46Zm0-3.4v.56h-10.46v-.56h10.46Zm-3.82-3.3v6.98h-2.8v-6.98h2.8Zm17.74-2.04c-.08,.18-.24,.3-.62,.38v9.32c-.02,.3-1.02,1.16-2.32,1.16h-.54v-10.5l.98-1.3,2.5,.94Zm7.2,1.3c-.04,.32-.24,.46-.66,.52v5.78c0,1.92-.46,2.96-3.68,3.24-.08-.92-.2-1.58-.56-2.02-.38-.42-.82-.74-1.98-.94v-.26s2.44,.16,2.9,.16c.28,0,.38-.1,.38-.32v-6.44l3.6,.28Zm-.62-3.04l1.5-1.46,2.48,2.36c-.16,.18-.36,.24-.8,.28-1.16,.8-3.12,1.78-4.6,2.32l-.14-.12c.66-.94,1.44-2.44,1.8-3.38h-.24Zm1.34,0v.56h-7.22l-.18-.56h7.4Zm-4.82-5.28c-.08,.22-.26,.4-.78,.4-1.46,3.86-4.1,8.5-9.08,11.12l-.18-.18c3.54-3.34,5.54-8.6,6.32-12.56l3.72,1.22Zm5.6,8.54s1.64,1.22,2.62,2.06c-.06,.22-.28,.32-.58,.32h-10.94l-.16-.56h7.62l1.44-1.82Zm.04-8.2s1.82,1.36,2.9,2.28c-.06,.22-.3,.32-.6,.32h-17.34l-.16-.56h13.6l1.6-2.04Z"/><path class="e" d="M32,25.71H96.5m198.5,0h62"/></g><g><path class="b" d="M134.25,115.64s1.12,1.03,1.74,1.71c-.04,.17-.21,.24-.42,.24h-3.53v-.42h1.23l.98-1.53Zm-5.28,4.12l2.19,.81h1.99l.99-1.12,1.82,1.39c-.11,.14-.26,.24-.6,.3v5.67c0,.11-.66,.47-1.76,.47h-.38v-6.29h-2.24v5.96c0,.14-.61,.48-1.65,.48h-.38v-7.66Zm4.59-5.93c-.01,.22-.13,.38-.54,.43v6.53h-2.06v-7.17l2.6,.21Zm.09,11.83v.42h-3.33v-.42h3.33Zm-7.6-11.24v4.4h-.18l.5,.03v4.33h-1.88v-4.33h.48l-.16-.03v-4.4h1.24Zm1.59,7.32s1.05,.76,1.7,1.32c-.04,.17-.21,.24-.42,.24h-7.23l-.12-.42h5.16l.91-1.14Zm.2-5.91c-.03,.13-.18,.3-.49,.28-.26,.45-.72,1.17-1.14,1.76l-.18-.06c.11-.75,.21-1.92,.24-2.5l1.58,.53Zm-2.55,7.93c3.33,1.5,1.58,4.17,.32,2.83,.14-.93-.12-2.01-.48-2.76l.17-.07Zm1.74-.03c3.57,1.08,1.89,3.87,.55,2.6,.07-.86-.25-1.86-.7-2.52l.15-.07Zm-3,.1c2.55,2.07,.62,4.35-.39,2.93,.26-.96,.3-2.06,.19-2.88l.19-.05Zm-1.09-.01c.61,1.58,.51,2.76,0,3.35-.38,.42-1.26,.36-1.55-.25-.22-.54,.05-1.05,.53-1.35,.35-.32,.87-1.08,.83-1.74h.19Zm.88-8.55c1.97,1.57,.93,3.17,.19,2.35,.03-.74-.19-1.68-.4-2.29l.21-.06Zm3.63,4.32s.94,.69,1.53,1.2c-.04,.17-.2,.24-.4,.24h-6.42l-.12-.42h4.59l.83-1.02Zm.54-.94v.42h-5.11v-.42h5.11Zm-1.09-4.32l.76-.83,1.61,1.22c-.09,.1-.27,.22-.56,.27v4.04c-.01,.1-.84,.42-1.4,.42h-.28v-5.11h-.14Zm-3.11,4.77c0,.15-.74,.53-1.42,.53h-.24v-5.99l1.74,.69h3.93v.42h-4.01v4.35Zm22.35,6.65c0,1.18-.36,1.78-2.78,1.9-.06-.5-.13-.84-.46-1.1-.29-.21-.65-.4-1.62-.56v-.17s2.01,.14,2.41,.14c.24,0,.32-.11,.32-.26v-3.85h2.13v3.89Zm3.75-3.62c-.18,.14-.53,.15-1.02-.06-2.48,.32-6.24,.45-9.43,.24v-.22c3-.27,6.78-1.03,8.74-1.74l1.71,1.78Zm-.72-.04s1.08,.75,1.77,1.29c-.04,.17-.21,.24-.42,.24h-11.62l-.12-.42h9.43l.96-1.11Zm1.15,1.29s1.11,.78,1.8,1.35c-.04,.17-.21,.24-.42,.24h-13.79l-.12-.42h11.54l.99-1.17Zm-9.62-3.86c-.03,.21-.16,.36-.54,.41v.52h-1.64v-1.15l2.18,.22Zm-.94,.36l.4,.24v.79h.07l-.48,.58-1.7-.75c.18-.22,.51-.51,.76-.6l-.3,.54v-.81h1.23Zm6.01-.46c-.01,.17-.11,.28-.42,.33v1.11c0,.1-.76,.34-1.38,.34h-.3v-1.96l2.1,.18Zm-2.45-5.83c-.03,.18-.13,.31-.48,.38v6.72h-1.82v-7.34l2.29,.24Zm5.68,3.63l.98-.93,1.65,1.35c-.09,.14-.22,.18-.54,.21-.98,1.65-3.04,2.55-5.62,2.88l-.07-.19c1.93-.65,3.27-1.79,3.78-3.32h-.17Zm-2.73,0c.99,1.62,3.3,2.19,5.76,2.36v.17c-.61,.19-1,.73-1.15,1.53-2.37-.65-3.99-1.69-4.8-3.94l.19-.11Zm2.48-3.14l.78-.81,1.43,1.15c-.11,.11-.29,.17-.53,.19v.78c0,.14,.03,.19,.14,.19h.24c.06,0,.21,0,.27-.01,.07-.01,.21-.03,.3-.06h.13l.07,.03c.35,.17,.46,.27,.46,.53,0,.58-.49,.74-1.6,.74h-.46c-.99,0-1.08-.33-1.08-1.14v-1.59h-.15Zm1,3.14v.42h-4.05l-.14-.42h4.18Zm-3.79-3.28v-.54l1.93,.69h-.27v.62c0,.72-.29,2.04-2.28,2.68l-.11-.17c.71-.79,.72-1.78,.72-2.52v-.76Zm3.81,.15v.42h-2.89v-.42h2.89Zm-4.54,3.89s.62,.53,.98,.92c-.04,.17-.18,.24-.38,.24h-7.85l-.12-.42h6.84l.52-.74Zm-.79-4.62s.9,.68,1.46,1.16c-.03,.16-.18,.24-.39,.24h-7.3l-.12-.42h5.58l.78-.98Zm-.94,2.12l.71-.71,1.44,1.05c-.06,.07-.18,.15-.36,.18v2.01c0,.12-.84,.44-1.38,.44h-.3v-2.97h-.1Zm.81,5.04v.42h-4.49v-.42h4.49Zm-.04-2.81v.42h-4.77v-.42h4.77Zm-.09-1.11v.42h-4.62v-.42h4.62Zm-3.94,1.56c0,.14-.72,.48-1.38,.48h-.22v-3.83l1.68,.66h3.81v.42h-3.88v2.26Zm22.68,6.82h3.54v.42h-3.54v-.42Zm2.48-9.04h-.15l1-1.11,1.93,1.55c-.1,.13-.28,.25-.58,.33v9.58c-.03,.18-1.02,.75-1.85,.75h-.36v-11.1Zm-11.24,.81h5.62v.42h-5.49l-.13-.42Zm1.79-3.21l2.7,.24c-.04,.22-.18,.36-.55,.42-.08,4.82,.07,9.92-4.12,13.46l-.2-.19c2.43-4.22,2.18-9.09,2.18-13.92Zm3.12,3.21h-.18l1.11-1.11,1.8,1.59c-.12,.15-.31,.25-.66,.32-.12,6.46-.29,8.22-1.17,9.07-.56,.54-1.26,.78-2.15,.78,0-.72-.04-1.2-.23-1.47-.22-.33-.54-.54-1.12-.7v-.18c.42,.04,1.07,.07,1.37,.07,.22,0,.36-.06,.49-.18,.51-.46,.65-2.74,.74-8.19Zm2.9-.81v-.89l2.16,.89h2.41v.42h-2.48v10.25c0,.25-.82,.75-1.75,.75h-.35v-11.42Zm14.34-1.03l.84-1.33,2.21,1.59c-.32,.38-1.14,.58-2.15,.68v.4c.44,4.53,2.85,7.32,7.31,9.18l-.04,.15c-1.08,.16-1.76,.85-2.15,2.07-1.71-1.04-3.81-3.74-4.59-6.42-1.18,2.62-3.95,5.15-7.44,6.39l-.07-.12c3.26-1.85,6.21-6.63,6.52-11.39v-.78h-3.54l-.12-.42h3.23Zm13.63,1.51l2.51,1.47c-.07,.13-.22,.24-.6,.19-1.26,1.39-3.27,3.18-5.54,4.33l-.12-.14c1.53-1.68,3.06-4.26,3.75-5.86Zm-.19-2.99l2.35,1.49c-.09,.15-.24,.24-.58,.18-1.15,.97-2.94,2.11-4.8,2.82l-.12-.15c1.26-1.22,2.56-3.12,3.15-4.33Zm-1.2,6.63l.79-1.05,1.85,.67c-.04,.14-.18,.24-.46,.3v7.12c-.03,.15-.93,.54-1.77,.54h-.4v-7.59Zm4.15-5.08h4.66l1.02-1.35s1.15,.92,1.83,1.53c-.04,.17-.21,.24-.42,.24h-6.98l-.12-.42Zm-.85,3.47h5.85l1.07-1.41s1.2,.94,1.9,1.59c-.04,.16-.21,.24-.43,.24h-8.26l-.12-.42Zm4.15,0h2.22v6.54c0,1.41-.41,2.37-2.96,2.52-.04-.69-.18-1.22-.53-1.53-.35-.3-.74-.54-1.82-.72v-.18s2.3,.14,2.73,.14c.25,0,.35-.11,.35-.29v-6.48Zm6.66,3.78h12.03l.87-1.25s.99,.86,1.54,1.43c-.03,.17-.2,.24-.4,.24h-13.92l-.12-.42Zm.04-7.08h10.77l1.12-1.36s1.28,.9,2.07,1.54c-.04,.17-.21,.24-.43,.24h-13.41l-.12-.42Zm1.53,5.29h9.06v.42h-8.93l-.13-.42Zm-.12,3.56h9.21v.42h-9.07l-.14-.42Zm4.44-10.62l2.74,.25c-.01,.22-.16,.38-.54,.43v11.29c0,1.4-.36,2.1-2.79,2.3-.06-.63-.15-1.07-.45-1.37-.28-.27-.61-.49-1.53-.64v-.18s1.86,.11,2.24,.11c.24,0,.33-.08,.33-.26v-11.94Zm-4.07,3.36v-.85l2.31,.85h6.8v.42h-6.93v2.24c0,.18-1.01,.63-1.88,.63h-.3v-3.29Zm8.29,0h-.15l.94-.99,1.94,1.43c-.09,.1-.26,.22-.53,.28v1.61c-.01,.12-1.1,.53-1.82,.53h-.39v-2.85Zm-.1,3.71h-.15l.91-.97,1.86,1.39c-.09,.11-.26,.23-.54,.29v3.66c-.01,.14-1.02,.56-1.73,.56h-.36v-4.92Zm-6.74-1.77h7.41v.42h-7.41v-.42Zm24.07,.18c3.75-.03,2.75,2.86,1.22,2.04-.2-.69-.81-1.49-1.34-1.94l.12-.1Zm-4.71,2.6c0,.1-.56,.46-1.44,.46h-.32v-5.31l1.76-.53v5.37Zm5.1-.09c0,.09-.55,.47-1.47,.47h-.33v-5.37l1.8-.36v5.26Zm1.85-4.85c-.16,.14-.45,.14-.82-.01-1.12,.22-2.93,.45-4.44,.51l-.06-.24c1.37-.36,3.09-1.05,3.98-1.55l1.35,1.29Zm-5.26-.03c-.15,.14-.43,.14-.82-.01-1.02,.25-2.68,.51-4.1,.58l-.06-.22c1.26-.39,2.82-1.11,3.62-1.61l1.36,1.26Zm3.99-3.09s1.26,.94,2.01,1.59c-.04,.17-.21,.24-.43,.24h-11.76v-.42h9.07l1.11-1.41Zm-11.16,1.26v-.64l2.32,.79h-.3v3.57c0,2.75-.11,6.72-2.93,9.27l-.14-.09c1.02-2.78,1.04-6.3,1.04-9.18v-3.72Zm5.01,12.36c0,.19-.91,.65-1.75,.65h-.3v-6l2.16,.82h5.19v.42h-5.3v4.11Zm4.19-4.53l.91-.97,1.86,1.39c-.07,.11-.26,.23-.52,.29v3.87c-.01,.12-1.07,.48-1.74,.48h-.36v-5.06h-.15Zm1.14,3.72v.42h-6.35v-.42h6.35Zm0-1.89v.42h-6.35v-.42h6.35Zm-.08-6.14c-.6,1.47-1.86,2.55-3.57,3.33l-.12-.21c.9-.87,1.44-2.08,1.71-3.36h1.98v.24Zm-5.04,0c-.57,1.33-1.76,2.37-3.21,3.14l-.13-.21c.75-.84,1.23-2.01,1.49-3.17h1.86v.24Zm.21,.51c3.15,.28,1.63,2.6,.39,1.59,0-.54-.26-1.15-.53-1.51l.14-.07Zm5.89-1.77s.84,.71,1.34,1.2c-.03,.17-.18,.24-.39,.24h-5.04l-.12-.42h3.46l.75-1.02Zm-5.25,.12s.78,.63,1.23,1.08c-.03,.17-.18,.24-.38,.24h-4.74l-.12-.42h3.33l.67-.9Zm14.28,3.33h6.21l1.02-1.33s1.17,.9,1.86,1.51c-.04,.17-.21,.24-.42,.24h-8.55l-.12-.42Zm3.38,0h2.06v5.81l-2.06-.53v-5.28Zm1.15,2.47h1.44l1.02-1.41s1.15,.95,1.83,1.59c-.04,.17-.21,.24-.42,.24h-3.87v-.42Zm-2.61,.61c.79,1.58,2.1,1.88,4.47,1.88,.65,0,2.16,0,2.9-.01v.17c-.57,.15-.82,.93-.81,1.82h-2.16c-2.55,0-3.91-.78-4.5-3.79l.11-.05Zm-1.41-1.92l2.71,.47c-.06,.21-.23,.34-.57,.38-.63,2.92-1.88,4.42-3.91,5.31l-.15-.14c1.23-1.47,1.95-3.5,1.92-6.01Zm1.38-5.06h4.98v.42h-4.98v-.42Zm.09,1.95h4.98v.42h-4.98v-.42Zm-1.14-3.88v-.83l2.13,.83h3.89v.42h-3.96v4.29c0,.19-.9,.64-1.76,.64h-.3v-5.35Zm4.95,0h-.15l.92-1.01,1.9,1.44c-.09,.12-.29,.25-.6,.32v3.71c-.01,.12-1.02,.54-1.71,.54h-.36v-4.99Zm-10.95,2.44h3.61l.82-1.36s.96,.94,1.47,1.54c-.04,.17-.19,.24-.4,.24h-5.38l-.12-.42Zm1.66-3.61l2.58,.24c-.03,.22-.18,.38-.56,.43v11.29c0,1.38-.28,2.12-2.38,2.3-.03-.65-.09-1.12-.29-1.44-.18-.3-.43-.51-1.08-.65v-.19s1.17,.08,1.46,.08c.21,0,.27-.06,.27-.22v-11.83Zm-1.83,7.08c.95-.15,3.46-.64,5.84-1.18l.03,.14c-.92,.72-2.46,1.8-4.68,3.12-.07,.19-.25,.38-.45,.42l-.74-2.49Zm28.62-.17s.99,.81,1.56,1.37c-.05,.17-.2,.24-.4,.24h-5.83v-.42h3.82l.86-1.19Zm-2.84,0c-.06,.19-.24,.33-.57,.33-.51,1.58-1.27,2.85-2.37,3.66l-.2-.11c.48-1.2,.79-2.88,.85-4.51l2.28,.63Zm-2.26-6.46l1.98,.75h2.28l.88-.99,1.65,1.24c-.09,.14-.24,.24-.57,.3v3.94c0,.07-.59,.39-1.56,.39h-.35v-4.47h-2.51v4.2c0,.12-.55,.42-1.49,.42h-.33v-5.79Zm4.47,5.91c-.03,.19-.12,.33-.48,.38v6.59h-1.85v-7.17l2.33,.21Zm1.18,5.44s1.05,.87,1.65,1.47c-.03,.17-.2,.24-.4,.24h-7.62l-.12-.42h5.58l.92-1.29Zm-.52-2.5s.92,.79,1.45,1.33c-.04,.17-.2,.24-.4,.24h-5.98l-.12-.42h4.24l.81-1.15Zm-.15-4.1v.42h-4.05v-.42h4.05Zm0-1.95v.42h-4.05v-.42h4.05Zm-8.45,6.35s.64,.54,1.02,.94c-.03,.17-.17,.24-.36,.24h-2.27l-.1-.42h1.15l.56-.76Zm-.62-5.57h-1.29v-2.78h1.29v2.78Zm0,.86c0,1.23-.06,3.16-1.24,4.5l-.2-.19c.63-1.43,.6-3.09,.6-4.31v-1.17h.84v1.17Zm-1.17,8.67c0,.18-.6,.56-1.27,.56h-.26v-11.08l1.6,.69h3.53v.42h-3.6v9.42Zm2.39-9.84v3.86c0,.17,.03,.21,.1,.21h.38c.06-.01,.18-.03,.24-.04h.16c.27,.1,.39,.21,.39,.46,0,.39-.27,.62-1.12,.62h-.32c-.63,0-.72-.24-.72-.81v-4.29h.89Zm.4-2.46v2.78h-1.29v-2.78h1.29Zm-.26,2.46l.78-.84,1.56,1.21c-.11,.12-.3,.24-.57,.29v8.96c-.03,.12-.79,.48-1.36,.48h-.26v-10.1h-.15Zm1.12,8.82v.42h-4.49v-.42h4.49Zm-.14-12.56s1.05,.87,1.65,1.46c-.04,.17-.19,.24-.4,.24h-6.57l-.12-.42h4.53l.92-1.28Z"/><path class="e" d="M32,119.71H117m153.5,0h86.5"/></g><g><path class="e" d="M222.16,62.71h131c7.73,0,14,6.27,14,14h0c0,7.73-6.27,14-14,14H222.16c-7.73,0-14-6.27-14-14h0c0-7.73,6.27-14,14-14Z"/><path class="b" d="M221.35,83.24c-3,0-5.28-1.78-5.28-5.19,0-3.86,2.9-6.86,6.93-6.86,2.91,0,4.95,1.9,4.95,4.9,0,2.77-1.78,4.28-3.35,4.28-1.16,0-1.85-.51-1.91-1.61h-.09l.64-3.99,1.85-1.01,.18,.12-.71,4.33c-.22,1.3-.07,1.6,.48,1.6,1.03,0,2.33-1.4,2.33-3.73,0-2.6-1.9-4.33-4.47-4.33-3.57,0-6.1,2.82-6.1,6.23,0,3,1.99,4.72,4.65,4.72,1.21,0,2.35-.3,3.26-.81l.25,.39c-.99,.58-2.17,.97-3.6,.97Zm-.71-2.87c-1.07,0-1.78-.68-1.78-2.2,0-2.4,1.86-4.43,3.55-4.43,.68,0,1.08,.44,1.18,1.18l-.23,.25c-.13-.48-.39-.64-.7-.64-.92,0-1.88,1.65-1.88,3.39,0,.94,.4,1.38,.92,1.38,.32,0,.64-.17,1.01-.83l.17,.19h-.05c-.43,1.29-1.35,1.7-2.18,1.7Zm17.93-9.53l.48-.81,1.34,.88c-.17,.21-.64,.32-1.2,.36,.47,1.6,1.59,2.92,3.07,3.61v.16c-.7,.29-1.27,.98-1.46,1.66-1.21-1.3-1.74-3.24-1.92-5.67v-.21h-.31Zm.68,0v.36h-1.4l-.12-.36h1.52Zm.18,5c-.08,.18-.33,.31-.79,.18l.42-.12c-.75,1.5-2.39,3.72-3.69,4.76v-.19h.87c-.1,1.08-.49,1.65-.94,1.78l-.6-2.04s.38-.12,.51-.25c.66-.81,1.64-3.57,1.85-5.15l2.38,1.03Zm-4.41,4.34c.96-.01,3.35-.16,5.73-.34v.16c-.99,.46-2.86,1.24-5.21,2.01l-.52-1.83Zm3.85-2.33c4.37,1.94,2.87,5.43,1.18,3.96-.16-1.31-.75-2.76-1.31-3.9l.13-.06Zm-.7-5.94c-.05,.17-.21,.27-.51,.29-.66,1.91-1.62,3.38-2.9,4.38l-.16-.09c.57-1.34,1.05-3.34,1.21-5.21l2.35,.64Zm-4.6,3.08c2.94,1.24,1.53,3.48,.43,2.4,0-.79-.29-1.7-.57-2.34l.14-.06Zm.48-4.65c-.03,.19-.12,.32-.48,.38v11.22c0,.14-.77,.51-1.46,.51h-.36v-12.32l2.3,.22Zm-.6,3.28c-.51,2.39-1.69,4.38-3.47,5.9l-.14-.13c.96-1.6,1.53-3.91,1.82-5.98h1.79v.21Zm.86-1.36s.81,.81,1.22,1.31c-.03,.14-.16,.21-.34,.21h-5.16l-.1-.36h3.68l.7-1.16Zm19.54-1.96c-.03,.12-.08,.21-.31,.25v1.98c0,.1-.88,.36-1.57,.36h-.35v-2.77l2.24,.18Zm-5.25-.01c-.03,.12-.08,.21-.31,.25v1.98c0,.1-.88,.36-1.57,.36h-.35v-2.77l2.24,.18Zm6.14,.05s.9,.77,1.4,1.27c-.04,.14-.17,.21-.35,.21h-5.23l-.1-.36h3.5l.78-1.12Zm-5.62,0s.9,.77,1.4,1.27c-.04,.14-.17,.21-.35,.21h-5.95l-.1-.36h4.22l.78-1.12Zm-3.32,2.55c3.41-.12,1.92,2.55,.51,1.52,0-.55-.27-1.13-.6-1.46l.09-.07Zm4.65,6.14c5.73-.13,4.99,3.98,2.91,3.11-.57-1.14-1.82-2.37-2.99-3l.08-.1Zm-3.22-4.2c-.14,2.91-.39,5.8-3.25,7.63l-.14-.14c1.48-2.3,1.55-5.03,1.6-7.49h1.79Zm1.47,1.98v.36h-2.14v-.36h2.14Zm4.23-3.04c-.59,1.61-1.7,3.09-3.5,3.98l-.07-.09c1.07-1.25,1.68-3.5,1.82-4.98l2.44,.66c-.05,.17-.17,.26-.58,.31,.7,.98,2.05,1.64,3.38,1.79v.16c-.69,.35-.92,1.22-1.01,2.03-1.13-.82-1.99-2.24-2.48-3.86Zm-5.03,3.04l.83-.78,1.42,1.17c-.09,.12-.25,.19-.52,.23-.12,2.91-.34,3.9-.98,4.38-.4,.29-.88,.43-1.52,.43,0-.47-.03-.86-.17-1.07-.16-.22-.36-.36-.75-.48v-.16c.27,.03,.74,.04,.96,.04,.17,0,.27-.03,.35-.1,.27-.23,.43-1.27,.52-3.67h-.14Zm1.08-3.33s.95,.82,1.48,1.36c-.03,.14-.17,.21-.35,.21h-6.08l-.1-.36h4.23l.83-1.21Zm2.25,2.59c4.25,.08,2.95,3.43,1.25,2.35-.14-.85-.71-1.74-1.34-2.28l.09-.08Zm15.07-4.68v5.38c0,.18,.04,.23,.2,.23h.58c.08,0,.25-.01,.34-.03,.1-.01,.25-.04,.35-.07h.12l.07,.04c.4,.18,.53,.42,.53,.73,0,.7-.53,.99-1.94,.99h-.66c-1.14,0-1.31-.35-1.31-1.4v-5.88h1.73Zm-2.68,2.96c0,1.7-.22,3.74-2.89,5l-.09-.1c1.14-1.39,1.22-3.19,1.22-4.9v-2.96h1.76v2.96Zm4.73,6.31v.36h-8.48v-.36h8.48Zm-9.54-7.31l1.98,.73h6.77l.92-1.04,1.61,1.27c-.09,.13-.23,.23-.55,.3v7.14c0,.09-.61,.47-1.59,.47h-.34v-7.77h-6.98v7.37c0,.12-.56,.46-1.49,.46h-.34v-8.92Zm9.7-3.25s1.18,.86,1.9,1.44c-.04,.14-.2,.21-.39,.21h-11.95l-.1-.36h9.52l1.03-1.29Zm8.5,.05l2.7,.6c-.05,.17-.18,.27-.49,.27-.62,.58-1.46,1.43-2.3,2.03h-.49c.22-.83,.47-2.08,.58-2.9Zm4.8,2.55h-.13l.82-.92,1.68,1.3c-.08,.1-.25,.23-.52,.29v7.02c0,1.22-.29,1.9-2.38,2.08-.05-.6-.14-1.01-.4-1.3-.26-.27-.57-.49-1.35-.62v-.17s1.59,.1,2,.1c.22,0,.29-.1,.29-.29v-7.49Zm-8.97,0v-.78l1.99,.78h7.49v.36h-7.63v8.71c0,.22-.77,.66-1.55,.66h-.3v-9.74Zm3.8,5.24h3.13v.36h-3.13v-.36Zm-.91-3.03v-.68l1.74,.68h2.37v.36h-2.42v4c0,.17-.74,.53-1.44,.53h-.25v-4.9Zm3.28,0h-.13l.78-.85,1.6,1.21c-.09,.1-.26,.22-.52,.29v3.43c-.01,.1-.84,.46-1.43,.46h-.3v-4.54Zm17.32-.83s1.35,1.18,2.13,1.92c-.04,.14-.2,.21-.42,.21h-11.83l-.12-.42h9.02l1.21-1.72Zm14.95,3.93c-.03,.18-.16,.32-.46,.35-.32,2.05-.91,3.38-7.16,4.1l-.07-.21c4.9-1.11,5.32-2.38,5.43-4.39l2.25,.16Zm-6.2,2.22c9.81-.49,6.94,2.81,5,2.05-.99-.68-2.94-1.46-5.33-1.82l.33-.23Zm-.31,.23c.49-.68,1.33-2.24,1.57-2.89l2.26,.42c-.04,.18-.18,.34-.83,.34l.36-.23c-.34,.61-1.03,1.79-1.52,2.48l-1.85-.12Zm6.71-2.42s.71,.57,1.16,.97c-.04,.14-.17,.21-.34,.21h-8.42l-.1-.36h7.08l.62-.82Zm-1.34-2.46l.71-.74,1.47,1.08c-.07,.08-.2,.17-.4,.22v1.2c-.01,.12-.82,.44-1.36,.44h-.3v-2.2h-.12Zm-3.99,2.05c0,.14-.74,.48-1.4,.48h-.22v-3.18l1.72,.65h4.42v.36h-4.51v1.69Zm3.43-6.14l.69-.72,1.42,1.04c-.05,.08-.18,.16-.36,.19v2.46c0,.12-.79,.47-1.34,.47h-.3v-3.44h-.1Zm-3.07,3.15c0,.14-.73,.49-1.39,.49h-.23v-4.29l1.69,.65h3.67v.36h-3.73v2.78Zm4.41,2.41v.36h-5.3v-.36h5.3Zm-.44-2.98v.36h-4.32v-.36h4.32Zm-1.07-3.8c-.03,.19-.12,.32-.47,.38v6.51h-1.73v-7.07l2.2,.18Zm2.29,1.66s.59,.55,.92,.92c-.03,.14-.16,.21-.32,.21h-8.1l-.1-.36h7.08l.52-.77Zm-8.68,2.48c2.46,1.17,1.16,3.08,.25,2.13,.08-.69-.13-1.52-.4-2.07l.16-.07Zm.48-4.13c-.03,.18-.13,.31-.48,.36v11.25c0,.17-.69,.56-1.29,.56h-.3v-12.38l2.07,.21Zm-.64,3.34c-.38,2.25-1.26,4.19-2.66,5.73l-.16-.14c.74-1.6,1.13-3.8,1.33-5.8h1.49v.21Zm.66-1.09s.64,.62,.98,1.04c-.03,.14-.16,.21-.32,.21h-3.98l-.1-.36h2.89l.55-.88Zm15.34,5.19h9.84v.36h-9.72l-.12-.36Zm8.98,0h-.13l.92-.86,1.59,1.3c-.1,.12-.26,.21-.53,.25-.21,1.96-.57,3.13-1.3,3.6-.47,.29-1,.42-1.92,.42,0-.49-.05-.92-.31-1.18-.27-.29-.81-.51-1.47-.64v-.14c.69,.06,1.73,.12,2.03,.12,.21,0,.32-.03,.43-.1,.31-.21,.56-1.25,.7-2.76Zm-4.61-1.83l2.54,.26c-.03,.21-.17,.34-.48,.36-.31,2.83-1.61,5.02-6.84,5.93l-.08-.14c4.24-1.46,4.91-3.91,4.86-6.41Zm.38-4.74h1.82v4.54h-1.82v-4.54Zm3.67,0h-.13l.83-.91,1.69,1.29c-.08,.1-.23,.23-.51,.29v4.32c-.01,.1-.95,.44-1.56,.44h-.33v-5.42Zm-6.5,2.18h7.36v.36h-7.36v-.36Zm0,2.24h7.36v.36h-7.36v-.36Zm-.81-4.42v-.75l1.98,.75h6.4v.36h-6.53v4.73c0,.18-.81,.6-1.57,.6h-.27v-5.69Zm13.2,7.25c.2,0,.26,0,.4-.27q.27-.49,2.44-5.86l.21,.05c-.42,1.6-1.13,4.55-1.27,5.3-.09,.44-.17,.94-.16,1.27,.03,.75,.62,1.2,.58,2.42-.03,.69-.52,1.16-1.21,1.16-.33,0-.69-.17-.81-.69,.27-1.38,.22-2.72-.09-2.92-.18-.13-.4-.19-.69-.22v-.23h.59Zm-.74-5.1c3.77,.42,2.22,3.25,.73,2.12-.09-.73-.47-1.52-.83-2.05l.1-.07Zm.88-3.07c3.94,.42,2.33,3.37,.75,2.2-.1-.77-.49-1.57-.85-2.13l.09-.07Zm6.16,9.36c-.07,.14-.25,.23-.55,.19-.91,1.16-2.11,1.91-3.33,2.37l-.13-.13c.73-.77,1.49-2.05,1.94-3.42l2.07,.99Zm1.72-.69c4.51,.7,3.35,3.99,1.64,2.94-.33-.99-1.11-2.09-1.74-2.86l.1-.08Zm.52-2.37c0,.12-.64,.42-1.23,.42h-.2v-3.38l1.48,.58h1.56v.36h-1.61v2.01Zm.83-2.38l.65-.7,1.39,1.03c-.08,.1-.23,.21-.48,.26v1.83c-.01,.08-.74,.32-1.18,.32h-.25v-2.74h-.13Zm.73,1.99v.36h-2.21v-.36h2.21Zm-4.45-2.89c0,.13-.75,.48-1.44,.48h-.22v-3.41l1.73,.66h3.11v.36h-3.17v1.9Zm2.38-2.26l.75-.81,1.56,1.17c-.08,.09-.23,.21-.49,.26v1.59c-.01,.1-.85,.42-1.39,.42h-.3v-2.63h-.13Zm.73,1.79v.36h-3.89v-.36h3.89Zm-4.5,3.9c0,.12-.64,.43-1.23,.43h-.2v-3.55l1.48,.58h1.76v.36h-1.81v2.17Zm.81-2.53l.64-.66,1.34,.99c-.07,.08-.22,.17-.43,.22v1.86c-.01,.09-.73,.34-1.18,.34h-.25v-2.74h-.12Zm.87,1.99v.36h-2.33v-.36h2.33Zm2.21,.91c-.01,.16-.1,.27-.42,.33v4.64c0,.12-.82,.43-1.53,.43h-.32v-5.59l2.27,.19Zm1.74-.09s.95,.71,1.55,1.21c-.04,.14-.18,.21-.36,.21h-8.53l-.1-.36h6.59l.86-1.05Zm5.04-4.11h9.22v.36h-9.22v-.36Zm-.08-.99h.16c.88,1.64,.48,2.87-.26,3.21-.53,.25-1.17,.01-1.34-.6-.14-.6,.23-1,.74-1.2,.39-.22,.81-.78,.7-1.42Zm8.33,.99h-.14l.98-.96,1.66,1.56c-.12,.12-.23,.16-.52,.17-.6,.36-1.59,.82-2.33,1.07l-.08-.08c.17-.49,.35-1.29,.43-1.76Zm-4.72-2.78l2.37,.18c-.01,.16-.09,.27-.42,.34v2.39h-1.95v-2.91Zm-1.81,6.81h5.5v.36h-5.5v-.36Zm-.87-2.39v-.7l1.85,.7h4.23v.36h-4.3v2.59c0,.16-.81,.53-1.52,.53h-.25v-3.48Zm5.58,0h-.13l.78-.85,1.62,1.21c-.07,.09-.21,.21-.46,.25v2.24c-.01,.09-.92,.39-1.49,.39h-.33v-3.24Zm-7.76,7.03h9.39l.91-1.22s1.03,.82,1.62,1.38c-.04,.14-.18,.21-.36,.21h-11.45l-.1-.36Zm1.23-2.47h6.96l.9-1.21s1.03,.82,1.62,1.36c-.04,.14-.18,.21-.36,.21h-9.01l-.1-.36Zm.61-8.71c3.86,.4,2.31,3.33,.77,2.18-.08-.77-.48-1.57-.87-2.12l.1-.06Zm6.06-.03l2.57,.62c-.05,.17-.2,.27-.49,.27-.62,.51-1.68,1.25-2.59,1.73h-.12c.26-.74,.51-1.87,.62-2.63Zm-2.99,6.67h1.85v4.72h-1.85v-4.72Z"/><path class="b" d="M79.34,78.97c-4.03,0-7.63-3.45-7.63-11.37s3.6-11.28,7.63-11.28,7.66,3.42,7.66,11.28-3.65,11.37-7.66,11.37Zm0-1.01c1.71,0,3.22-2.23,3.22-10.35s-1.51-10.27-3.22-10.27-3.19,2.17-3.19,10.27,1.45,10.35,3.19,10.35Zm12.57,1.1l-.17-.84c6.38-2.18,8.93-6.06,8.93-13.28,0-5.74-1.28-7.63-3.07-7.63-1.65,0-3.04,1.71-3.04,5.71,0,3.57,1.42,5.68,3.71,5.68,1.19,0,2-.38,2.87-1.25l.67,.23h-.32c-.78,1.33-2.55,2.38-5.05,2.38-3.77,0-6.5-2.32-6.5-6.41,0-4.87,3.48-7.34,7.54-7.34,5.07,0,7.92,3.45,7.92,9.25,0,6.93-5.42,12.01-13.49,13.49Z"/><path class="b" d="M56.75,94.43l12.14-39.27h1.6l-12.05,39.27h-1.68Z"/><path class="b" d="M46.8,83.82c-5.47,0-8.39-2.38-8.71-6.41,.4-1.15,1.33-1.66,2.27-1.66,1.44,0,2.34,.72,2.66,3.13l.65,3.89-1.84-1.04c1.04,.54,1.84,.83,3.1,.83,3.71,0,5.76-2.09,5.76-6.12,0-4.25-1.94-6.52-5.62-6.52h-1.4v-1.4h1.22c3.17,0,5.29-1.94,5.29-6.23,0-3.56-1.62-5.36-4.36-5.36-.97,0-2.09,.25-3.42,.79l2.27-.9-.72,3.71c-.32,1.84-1.44,2.45-2.7,2.45-.9,0-1.62-.43-2.02-1.12,.11-4.32,3.89-6.16,8.28-6.16,5.69,0,8.39,2.66,8.39,6.37s-2.45,6.7-9.25,7.31v-.58c7.52,.4,10.08,3.35,10.08,7.6s-3.78,7.42-9.94,7.42Z"/><path class="b" d="M164.58,78.47v-2.61c1.68-1.83,3.31-3.65,4.73-5.28,3.16-3.57,4.58-5.48,4.58-8.64,0-2.96-1.36-4.64-3.6-4.64-.81,0-1.68,.2-2.55,.61l1.45-.64-.61,3.13c-.32,1.97-1.28,2.44-2.17,2.44-.84,0-1.57-.49-1.89-1.25,.17-3.45,3.54-5.28,7.4-5.28,4.58,0,6.7,2.47,6.7,5.92,0,3.13-2.67,5.39-8.06,9.63-1.07,.87-2.67,2.2-4.23,3.57l.35-1.1v.58h12.47v3.57h-14.56Zm25.85,.49c-4.9,0-8.03-3.28-8.03-8.87,0-7.13,5.74-13.02,14.15-13.78l.15,.73c-6.24,1.45-9.54,6.09-9.54,12.06s1.33,8.85,3.31,8.85c1.6,0,2.81-1.68,2.81-5.74,0-3.51-1.07-5.34-3.13-5.34-1.19,0-2.38,.38-3.39,1.54l-.58-.41h.26c1.31-1.83,3.22-2.78,5.54-2.78,3.8,0,5.89,2.7,5.89,6.55,0,4.09-2.78,7.19-7.42,7.19Z"/><path class="b" d="M73.82,90.03c0-2.34,.98-4.1,2.17-5.28l1.04,.47c-1.11,1.18-1.97,2.71-1.97,4.81s.86,3.64,1.97,4.82l-1.04,.47c-1.19-1.18-2.17-2.94-2.17-5.29Zm8.48-2.75h9.79v1.38h-9.79v-1.38Zm4.15-2.39h1.44v3.1h-1.44v-3.1Zm-1.84,4.93l1.54,.4c-.67,1.85-1.76,3.7-2.83,4.83-.3-.26-.97-.74-1.33-.95,1.09-.99,2.07-2.64,2.62-4.28Zm3.63,.53l1.34-.54c.98,1.4,2.14,3.28,2.62,4.55l-1.5,.65c-.41-1.23-1.5-3.19-2.46-4.66Zm12.34-.32c0,2.35-.98,4.11-2.17,5.29l-1.04-.47c1.11-1.18,1.97-2.71,1.97-4.82s-.86-3.63-1.97-4.81l1.04-.47c1.19,1.18,2.17,2.94,2.17,5.28Z"/><path class="b" d="M165.59,90.03c0-2.34,.98-4.1,2.17-5.28l1.04,.47c-1.11,1.18-1.97,2.71-1.97,4.81s.86,3.64,1.97,4.82l-1.04,.47c-1.19-1.18-2.17-2.94-2.17-5.29Zm9.39-3.64h7.99v1.45h-7.99v-1.45Zm-.91,6.38h9.82v1.52h-9.82v-1.52Zm18.28-2.74c0,2.35-.98,4.11-2.17,5.29l-1.04-.47c1.11-1.18,1.97-2.71,1.97-4.82s-.86-3.63-1.97-4.81l1.04-.47c1.19,1.18,2.17,2.94,2.17,5.28Z"/><path class="b" d="M149.15,94.43l12.14-39.27h1.6l-12.05,39.27h-1.68Z"/><path class="b" d="M139.2,83.82c-5.47,0-8.39-2.38-8.71-6.41,.4-1.15,1.33-1.66,2.27-1.66,1.44,0,2.34,.72,2.66,3.13l.65,3.89-1.84-1.04c1.04,.54,1.84,.83,3.1,.83,3.71,0,5.76-2.09,5.76-6.12,0-4.25-1.94-6.52-5.62-6.52h-1.4v-1.4h1.22c3.17,0,5.29-1.94,5.29-6.23,0-3.56-1.62-5.36-4.36-5.36-.97,0-2.09,.25-3.42,.79l2.27-.9-.72,3.71c-.32,1.84-1.44,2.45-2.7,2.45-.9,0-1.62-.43-2.02-1.12,.11-4.32,3.89-6.16,8.28-6.16,5.69,0,8.39,2.66,8.39,6.37s-2.45,6.7-9.25,7.31v-.58c7.52,.4,10.08,3.35,10.08,7.6s-3.78,7.42-9.94,7.42Z"/><path class="b" d="M22.05,57.31h1.08c.76,.7,1.51,1.37,2.18,1.96,1.48,1.31,2.27,1.9,3.58,1.9,1.22,0,1.92-.56,1.92-1.49,0-.34-.08-.7-.25-1.06l.26,.6-1.3-.25c-.82-.13-1.01-.53-1.01-.9,0-.35,.2-.65,.52-.78,1.43,.07,2.18,1.46,2.18,3.06,0,1.9-1.02,2.77-2.45,2.77-1.3,0-2.23-1.1-3.98-3.34-.36-.44-.91-1.1-1.48-1.75l.46,.14h-.24v5.16h-1.48v-6.02Zm-.2,11.28c0-1.67,1.43-3.16,4.7-3.16s4.67,1.49,4.67,3.16-1.42,3.17-4.67,3.17-4.7-1.51-4.7-3.17Zm.42,0c0,.71,.92,1.33,4.28,1.33s4.25-.62,4.25-1.33-.9-1.32-4.25-1.32-4.28,.6-4.28,1.32Zm-.22,5.34h1.08c.76,.7,1.51,1.37,2.18,1.96,1.48,1.31,2.27,1.9,3.58,1.9,1.22,0,1.92-.56,1.92-1.49,0-.34-.08-.7-.25-1.06l.26,.6-1.3-.25c-.82-.13-1.01-.53-1.01-.9,0-.35,.2-.65,.52-.78,1.43,.07,2.18,1.46,2.18,3.06,0,1.9-1.02,2.77-2.45,2.77-1.3,0-2.23-1.1-3.98-3.34-.36-.44-.91-1.1-1.48-1.75l.46,.14h-.24v5.16h-1.48v-6.02Zm-.18,11.61h8.22v-.22l.11,.42-2.41-1.56-2.76-1.79,.53,.13h-.23v6.04h-1.25v-6.62h1.01l6.08,3.97v1.34h-9.3v-1.72Z"/><path class="d" d="M112.47,74.03h10.81"/></g></svg>