<?xml version="1.0" encoding="UTF-8"?><svg id="a" xmlns="http://www.w3.org/2000/svg" viewBox="0 0 390 145"><defs><style>.b{fill:#060001;}.c{fill:#fff;}.d{fill:#fce2d3;}.e{fill:#a32224;}.f{fill:#b3905d;}.g{fill:#090606;}.h{fill:rgba(196,140,103,.7);}.i{stroke-width:2px;}.i,.j{fill:none;stroke:#fff;}</style></defs><rect class="h" x="-.67" y=".03" width="391.67" height="145"/><path class="c" d="M109.54,22.13c6.3,.54,3.8,5.38,1.28,3.5-.12-1.24-.74-2.54-1.42-3.4l.14-.1Zm13.26,11.04h-.2l1.34-1.26,2.32,1.92c-.16,.16-.4,.3-.82,.36-.3,3.7-.84,5.38-1.94,6.12-.68,.46-1.5,.66-2.6,.66,0-.74-.06-1.38-.32-1.72-.3-.4-.74-.66-1.48-.84v-.24c.6,.06,1.58,.1,1.96,.1,.3,0,.46-.04,.64-.16,.48-.36,.88-2,1.1-4.94Zm-12.24,1.66l.24-.02c1.38,2.8,.64,4.8-.54,5.44-.82,.46-1.84,.16-2.14-.72-.26-.86,.26-1.5,.98-1.84,.78-.42,1.58-1.54,1.46-2.86Zm2.4,.02c4.52,2.78,1.18,6.46-.54,4.04,.42-1.34,.5-2.8,.32-3.98l.22-.06Zm2.46-.18c5.36,1.28,2.9,5.34,.84,3.5,0-1.18-.48-2.5-1.02-3.4l.18-.1Zm2.76-.36c5.26-.16,3.6,4.02,1.42,2.72-.18-.96-.88-2.02-1.56-2.6l.14-.12Zm-7.5-1.14h12.84v.56h-13.38l.54-.56Zm2.96-3.36h8.22v.56h-8.62l.4-.56Zm-5.32-3.26h12.46v.56h-12.28l-.18-.56Zm10.76,0h-.2l.98-1.08,2.32,1.7c-.16,.18-.34,.26-.72,.3l-.62,2.52h-2.62l.86-3.44Zm1.88,3.26h-.2l.96-1.06,2.24,1.66c-.16,.18-.32,.24-.7,.3l-.5,2.62h-2.48l.68-3.52Zm-5.82-8.02l3.58,1.08c-.08,.24-.26,.4-.8,.4-1.72,4.8-4.86,10.6-11,13.9l-.18-.18c4.64-3.96,7.32-10.36,8.4-15.2Zm23.38,11.96c-.08,.18-.3,.34-.66,.3-1.68,2.04-5.1,4.1-8.4,4.8l-.12-.22c2.4-1.36,4.78-3.92,5.76-5.86l3.42,.98Zm-1.58-5.54c4.96-.14,3.02,3.72,.96,2.36-.12-.84-.62-1.74-1.12-2.26l.16-.1Zm4.84,.46c5.92,.74,3.94,5.26,1.64,3.66-.2-1.26-1-2.66-1.8-3.54l.16-.12Zm-9.08-.1c.92,2.3,.28,3.92-.74,4.46-.7,.38-1.66,.14-1.92-.66-.2-.74,.26-1.32,.92-1.62,.7-.32,1.5-1.2,1.48-2.18h.26Zm4.04,.08c-.04,.26-.22,.44-.6,.5v1.44c0,.22,.06,.28,.62,.28h1.84c.64,0,1.24,0,1.5-.02,.24,0,.42-.04,.54-.18,.2-.18,.48-.64,.78-1.32h.22l.06,1.34c.64,.22,.8,.48,.8,.92,0,.94-.86,1.38-4.16,1.38h-2.08c-2.04,0-2.42-.38-2.42-1.88v-2.68l2.9,.22Zm-4.16,4.52c2.42,3.98,8.5,4.72,14.82,4.62v.26c-1.22,.4-1.9,1.38-2.14,2.78-6.2-.6-10.78-2.24-12.9-7.48l.22-.18Zm7.82,1.34l1.68-1.4,2.36,2.26c-.14,.22-.36,.28-.9,.32-3.16,3.52-8.58,5.04-14.84,5.22l-.08-.26c5.28-.98,10.02-2.96,12.06-6.14h-.28Zm1.42,0v.56h-7.06l.54-.56h6.52Zm3.52-10.4c-.24,.18-.7,.18-1.34-.1-3.44,.36-8.72,.54-13.12,.36l-.04-.32c4.16-.4,9.52-1.4,12.32-2.26l2.18,2.32Zm-.72,1.04c-.1,.24-.34,.36-.78,.32-.9,.72-2.4,1.68-3.74,2.34h-.26c.62-1.08,1.22-2.7,1.54-3.86l3.24,1.2Zm-8.52-.7c5.04,.62,2.5,4.32,.54,2.6,.04-.9-.3-1.88-.7-2.5l.16-.1Zm-3.82,.14c5.04,.5,2.56,4.18,.58,2.52,.02-.88-.34-1.84-.74-2.42l.16-.1Zm11.92,2.96l1.3-1.32,2.3,2.16c-.16,.16-.36,.22-.76,.24-.68,.54-1.8,1.2-2.68,1.56l-.14-.12c.1-.72,.18-1.86,.2-2.52h-.22Zm-13.74-1.18c1.2,2.18,.86,3.86,0,4.38-.64,.4-1.6,.14-1.86-.66-.22-.8,.26-1.4,.94-1.7,.44-.36,.88-1.2,.66-2l.26-.02Zm14.82,1.18v.56h-14.66v-.56h14.66Zm21.84-1.28s1.38,1.14,2.18,1.9c-.06,.22-.28,.32-.56,.32h-7.56l-.16-.56h4.9l1.2-1.66Zm-.78-3.34c4.72,1.2,2.34,4.74,.56,3.06,.08-1.04-.28-2.2-.74-2.96l.18-.1Zm-.88,5.14c.3,5.84,1.72,8.44,4.02,10.54l-.04,.2c-1.12,.12-2.06,.86-2.62,2.12-1.6-2.98-1.64-5.92-1.66-12.78l.3-.08Zm.84-5.84c-.04,.32-.26,.5-.74,.58-.06,8.18,.36,14.2-4.92,18.14l-.22-.28c3-4.62,2.54-10.58,2.54-18.74l3.34,.3Zm-6.6,2.98l1.08-1.1,1.92,1.84c-.16,.16-.36,.2-.76,.22-.5,.46-1.36,1.14-1.96,1.5l-.22-.12c.06-.62,.14-1.74,.16-2.34h-.22Zm-2.44,.7c-.04,.24-.24,.4-.56,.46v1.42c0,.2,.04,.26,.42,.26h1.02c.38,0,.76,0,.92-.02,.12,0,.32,0,.4-.02,.12,0,.32-.04,.44-.08h.18l.08,.02c.48,.18,.66,.32,.66,.62,0,.7-.66,.88-2.88,.88h-1.32c-1.42,0-1.64-.34-1.64-1.38v-2.38l2.28,.22Zm-6.24-.9v-.76l2.72,.96h-.38v5.44c0,3.14-.08,7.18-3.14,9.92l-.22-.14c1.08-2.86,1.02-6.52,1.02-9.78v-5.64Zm7.3,.82s.9,.58,1.46,1c-.02,.2-.22,.34-.46,.36l-5.68,.5-.2-.52,4.22-.36,.66-.98Zm1.08-3.7s1.28,.94,2.04,1.62c-.04,.22-.26,.32-.54,.32h-4.8v-.56h2.2l1.1-1.38Zm-1.08,.06c-.02,.26-.16,.44-.64,.52v2.86h-2.7v-3.64l3.34,.26Zm2.86,3.02v.56h-9.02v-.56h9.02Zm-2.12,7.76v.56h-4.06v-.56h4.06Zm-4.94-2.48l1.98,.8h2.4l.86-.96,1.74,1.3c-.12,.16-.3,.26-.7,.32v1.66c0,.06-.6,.38-1.52,.38h-.32v-2.14h-2.66v2c0,.12-.58,.44-1.48,.44h-.3v-3.8Zm5.6-1.56s1.02,.74,1.68,1.32c-.06,.22-.24,.32-.52,.32h-7.2l-.16-.56h5.28l.92-1.08Zm-.52,6.76c-.1,.22-.36,.36-.76,.32-.28,.34-.6,.74-.98,1.14h-.44c.18-.56,.42-1.48,.56-2.12l1.62,.66Zm-1.18,3.72c0,.08-.56,.38-1.48,.38h-.32v-2.72h1.8v2.34Zm.66-3.18s.54,.44,.9,.84c-.04,.2-.22,.3-.46,.3h-3.8l-.16-.56h3.04l.48-.58Zm-3.08-1.04c2.38,.68,1.14,2.32,.22,1.52-.02-.48-.24-1.08-.46-1.42l.24-.1Zm3.5-.64l.86-.98,2,1.46c-.1,.12-.32,.26-.64,.32v2.86c0,1.32-.28,2.04-2.42,2.22-.02-.56-.08-1.02-.3-1.28-.2-.26-.48-.46-1.16-.58v-.28s1.2,.08,1.52,.08c.26,0,.32-.12,.32-.34v-3.48h-.18Zm.72,0v.56h-5.2v-.56h5.2Zm-6.66-1.1l2.34,1.1h-.26v5.5c0,.14-.64,.6-1.7,.6h-.38v-7.2Zm34.94,2.98s1.42,1,2.3,1.72c-.04,.22-.26,.32-.54,.32h-17.22l-.16-.56h14.36l1.26-1.48Zm-1.34,3.94c0,.12-.84,.56-2.26,.56h-.52v-8.76h2.78v8.2Zm-8.18-8.22v6.06l-2.68,.04v-6.1h2.68Zm9-1.64s1.44,1,2.32,1.72c-.06,.22-.26,.32-.56,.32h-15.52l-.16-.56h12.68l1.24-1.48Zm-1.84,5.34v.56h-8.84v-.56h8.84Zm0-1.94v.56h-8.84v-.56h8.84Zm-3.16-6.82c1.46,1.92,4.68,2.24,8.34,2.14l.02,.22c-.86,.32-1.36,1.12-1.52,2.22-3.58-.56-5.86-1.54-7.08-4.44l.24-.14Zm4-.12l1.3-1.2,2.08,1.8c-.12,.18-.32,.24-.76,.28-1.72,2.32-5.04,3.44-8.96,3.76l-.1-.28c3.16-.78,5.64-2.2,6.66-4.36h-.22Zm-.4-3.9l1.1-1.14,1.96,1.58c-.12,.14-.38,.24-.68,.28v.78c0,.2,.04,.26,.18,.26h.32c.08,0,.3,0,.38-.02,.12,0,.3-.04,.44-.08h.18l.1,.04c.48,.24,.62,.4,.62,.74,0,.84-.72,1.04-2.22,1.04h-.66c-1.4,0-1.52-.46-1.52-1.62v-1.86h-.2Zm1.7,3.9v.56h-6.08l-.18-.56h6.26Zm-10.14,.36v2.8h-1.96v-2.8h1.96Zm4.48-4.46v-.72l2.58,.92h-.34v.62c0,.88-.42,2.58-3.36,3.36l-.12-.2c1.18-1.02,1.24-2.26,1.24-3.16v-.82Zm5.02,.2v.56h-3.96v-.56h3.96Zm-14.38,3.94v-.72l2.56,.92h-.34v.72c0,1.3-.36,3.9-3.26,5.28l-.16-.2c1.16-1.66,1.2-3.68,1.2-5.08v-.92Zm5.78-4.86c-.04,.24-.18,.42-.66,.5v3.26h-2.46v-4.02l3.12,.26Zm-.3,5.06l.96-1,1.98,1.48c-.1,.12-.32,.28-.64,.34v2.54c-.02,.16-1.04,.6-1.76,.6h-.36v-3.96h-.18Zm1,2.58v.56h-5.3v-.56h5.3Zm-.02-2.58v.56h-5.2v-.56h5.2Zm.16-2.94s1.16,.9,1.86,1.56c-.06,.22-.26,.32-.52,.32h-8.04l-.16-.56h5.84l1.02-1.32Zm.3-1.98s1.16,.9,1.86,1.56c-.06,.22-.26,.32-.54,.32h-8.96l-.16-.56h6.78l1.02-1.32Zm28.98,16.28c.86-.16,2.9-.62,4.88-1.12l.06,.22c-.72,.62-2.24,1.88-3.96,3.08l-.98-2.18Zm2.36-3.36l.56,.34v3.36l-2.22,.42,1-.74c.22,1.42-.42,2.16-.94,2.4l-1.14-2.46c.86-.38,1-.58,1-.96v-2.36h1.74Zm7.18,.78c-.08,.16-.28,.24-.72,.12-.72,.26-2.26,.56-3.14,.78l-.16-.2c.52-.64,1.26-1.82,1.64-2.46l2.38,1.76Zm-3.44-7.34c0,.14-.8,.54-1.54,.54h-.26v-4.1l1.88,.76h1.98v.56h-2.06v2.24Zm1.04-2.8l.82-.88,1.78,1.34c-.1,.12-.34,.26-.66,.32v1.96c-.02,.14-.92,.46-1.48,.46h-.3v-3.2h-.16Zm1.14,2.34v.56h-3.02v-.56h3.02Zm-7.52,.7c0,.14-.8,.54-1.54,.54h-.26v-4.34l1.88,.76h1.98v.56h-2.06v2.48Zm1.02-3.04l.82-.86,1.76,1.3c-.1,.14-.34,.28-.66,.34v1.96c-.02,.14-.9,.46-1.46,.46h-.3v-3.2h-.16Zm2.32,8.24c1.02,2.18,3.56,3.6,6.28,4.04l-.02,.22c-.9,.26-1.58,1.08-1.82,2.36-2.58-1.22-3.94-3.2-4.66-6.52l.22-.1Zm.4,.32c-1.4,1.46-3.94,2.44-6.64,3.02l-.14-.26c1.66-.76,3.04-1.92,3.86-3.08h2.92v.32Zm-1.44-6.24v.56h-3.02v-.56h3.02Zm3.9,1.06c-.02,.14-.08,.26-.3,.3v4.78h-2.34v-5.34l2.64,.26Zm-3.48,.04c-.02,.2-.14,.34-.48,.4v4.68h-2.36v-5.34l2.84,.26Zm4.78,3.48s1.24,.92,1.98,1.58c-.04,.22-.26,.32-.52,.32h-11.4l-.16-.56h9.02l1.08-1.34Zm-.86-1.7s1.08,.84,1.74,1.46c-.06,.22-.24,.32-.52,.32h-9.82l-.16-.56h7.8l.96-1.22Zm.44-1.82s1.16,.86,1.88,1.5c-.06,.22-.26,.32-.54,.32h-10.76l-.16-.56h8.56l1.02-1.26Zm.18-6.4s1.38,1.02,2.22,1.76c-.06,.22-.26,.32-.54,.32h-11.38l-.16-.56h8.64l1.22-1.52Zm-6.06-1c5.26-.24,2.9,3.8,.7,2.22-.02-.8-.42-1.64-.84-2.12l.14-.1Zm-9.28,.6c5.84-.22,3.6,4.34,1.16,2.74-.14-.98-.72-2.02-1.3-2.64l.14-.1Zm3.98,15.76v.56h-3.2v-.56h3.2Zm-1.28-4.54l1.08-1.14,2.2,1.66c-.1,.12-.32,.28-.64,.34v4.58c-.02,.18-1.2,.7-2.04,.7h-.42v-6.14h-.18Zm-.9,6.38c0,.22-1.04,.76-2.08,.76h-.34v-8.12l2.48,.98h2.06v.56h-2.12v5.82Zm2.64-15.38s1.12,.9,1.8,1.54c-.06,.22-.26,.32-.54,.32h-7l-.16-.56h4.9l1-1.3Zm-.52,5.2s1.06,.86,1.7,1.48c-.04,.22-.24,.32-.52,.32h-5.74l-.16-.56h3.78l.94-1.24Zm0-2.6s1.06,.86,1.7,1.48c-.04,.22-.24,.32-.52,.32h-5.74l-.16-.56h3.78l.94-1.24Zm26.1,6.5c-.08,.18-.3,.34-.66,.3-1.68,2.04-5.1,4.1-8.4,4.8l-.12-.22c2.4-1.36,4.78-3.92,5.76-5.86l3.42,.98Zm-1.58-5.54c4.96-.14,3.02,3.72,.96,2.36-.12-.84-.62-1.74-1.12-2.26l.16-.1Zm4.84,.46c5.92,.74,3.94,5.26,1.64,3.66-.2-1.26-1-2.66-1.8-3.54l.16-.12Zm-9.08-.1c.92,2.3,.28,3.92-.74,4.46-.7,.38-1.66,.14-1.92-.66-.2-.74,.26-1.32,.92-1.62,.7-.32,1.5-1.2,1.48-2.18h.26Zm4.04,.08c-.04,.26-.22,.44-.6,.5v1.44c0,.22,.06,.28,.62,.28h1.84c.64,0,1.24,0,1.5-.02,.24,0,.42-.04,.54-.18,.2-.18,.48-.64,.78-1.32h.22l.06,1.34c.64,.22,.8,.48,.8,.92,0,.94-.86,1.38-4.16,1.38h-2.08c-2.04,0-2.42-.38-2.42-1.88v-2.68l2.9,.22Zm-4.16,4.52c2.42,3.98,8.5,4.72,14.82,4.62v.26c-1.22,.4-1.9,1.38-2.14,2.78-6.2-.6-10.78-2.24-12.9-7.48l.22-.18Zm7.82,1.34l1.68-1.4,2.36,2.26c-.14,.22-.36,.28-.9,.32-3.16,3.52-8.58,5.04-14.84,5.22l-.08-.26c5.28-.98,10.02-2.96,12.06-6.14h-.28Zm1.42,0v.56h-7.06l.54-.56h6.52Zm3.52-10.4c-.24,.18-.7,.18-1.34-.1-3.44,.36-8.72,.54-13.12,.36l-.04-.32c4.16-.4,9.52-1.4,12.32-2.26l2.18,2.32Zm-.72,1.04c-.1,.24-.34,.36-.78,.32-.9,.72-2.4,1.68-3.74,2.34h-.26c.62-1.08,1.22-2.7,1.54-3.86l3.24,1.2Zm-8.52-.7c5.04,.62,2.5,4.32,.54,2.6,.04-.9-.3-1.88-.7-2.5l.16-.1Zm-3.82,.14c5.04,.5,2.56,4.18,.58,2.52,.02-.88-.34-1.84-.74-2.42l.16-.1Zm11.92,2.96l1.3-1.32,2.3,2.16c-.16,.16-.36,.22-.76,.24-.68,.54-1.8,1.2-2.68,1.56l-.14-.12c.1-.72,.18-1.86,.2-2.52h-.22Zm-13.74-1.18c1.2,2.18,.86,3.86,0,4.38-.64,.4-1.6,.14-1.86-.66-.22-.8,.26-1.4,.94-1.7,.44-.36,.88-1.2,.66-2l.26-.02Zm14.82,1.18v.56h-14.66v-.56h14.66Zm6.66,1.6c1.06-.22,3.66-.88,6.22-1.6l.06,.2c-1,.78-2.96,2.26-5.3,3.74l-.98-2.34Zm1.76-5.14l.66,.38v4.62l-1.9,.8,1.2-.9c.32,1.64-.36,2.58-.98,2.9l-1.48-2.9c.48-.36,.56-.56,.56-.98v-3.92h1.94Zm1.12-.52c-.04,.18-.14,.32-.46,.38v.86h-2.6v-1.54l3.06,.3Zm10.4,.1l1.36-1.26,2.32,1.9c-.16,.18-.4,.3-.8,.38-.22,3.76-.6,5.22-1.62,5.92-.64,.44-1.42,.64-2.48,.64,0-.78-.06-1.4-.3-1.76-.26-.36-.62-.62-1.28-.8v-.24c.46,.04,1.28,.08,1.64,.08,.26,0,.42-.04,.56-.14,.38-.32,.64-1.76,.8-4.72h-.2Zm-5.74,.62c-.28,.2-.76,.18-1.36-.08-1.26,.14-3.3,.22-4.96,.2l-.06-.24c1.34-.62,3.14-1.7,4.02-2.36l2.36,2.48Zm4.38-.62c-.2,3.36-.9,6.38-6.4,8.3l-.18-.24c3.6-2.42,3.62-5.16,3.68-8.06h2.9Zm-7.98,1.68c5.56,1.98,3.18,6.36,1.06,4.4-.02-1.46-.6-3.12-1.26-4.3l.2-.1Zm10.58-1.68v.56h-6.94l-.18-.56h7.12Zm-10.66,16.4c0,.3-1.32,.96-2.56,.96h-.44v-10.04l3.18,1.2h9.2v.56h-9.38v7.32Zm7.56-7.88l1.3-1.42,2.64,2.02c-.12,.16-.36,.34-.78,.42v6.98c-.02,.16-1.48,.66-2.46,.66h-.5v-8.66h-.2Zm1.58,6.7v.56h-10.46v-.56h10.46Zm0-3.4v.56h-10.46v-.56h10.46Zm-3.82-3.3v6.98h-2.8v-6.98h2.8Zm17.74-2.04c-.08,.18-.24,.3-.62,.38v9.32c-.02,.3-1.02,1.16-2.32,1.16h-.54v-10.5l.98-1.3,2.5,.94Zm7.2,1.3c-.04,.32-.24,.46-.66,.52v5.78c0,1.92-.46,2.96-3.68,3.24-.08-.92-.2-1.58-.56-2.02-.38-.42-.82-.74-1.98-.94v-.26s2.44,.16,2.9,.16c.28,0,.38-.1,.38-.32v-6.44l3.6,.28Zm-.62-3.04l1.5-1.46,2.48,2.36c-.16,.18-.36,.24-.8,.28-1.16,.8-3.12,1.78-4.6,2.32l-.14-.12c.66-.94,1.44-2.44,1.8-3.38h-.24Zm1.34,0v.56h-7.22l-.18-.56h7.4Zm-4.82-5.28c-.08,.22-.26,.4-.78,.4-1.46,3.86-4.1,8.5-9.08,11.12l-.18-.18c3.54-3.34,5.54-8.6,6.32-12.56l3.72,1.22Zm5.6,8.54s1.64,1.22,2.62,2.06c-.06,.22-.28,.32-.58,.32h-10.94l-.16-.56h7.62l1.44-1.82Zm.04-8.2s1.82,1.36,2.9,2.28c-.06,.22-.3,.32-.6,.32h-17.34l-.16-.56h13.6l1.6-2.04Z"/><path class="j" d="M18.33,33.03H100m191,0h81.33"/><path class="j" d="M223.37,56.53h135.52c8.01,0,14.5,6.49,14.5,14.5h0c0,8.01-6.49,14.5-14.5,14.5H223.37c-8.01,0-14.5-6.49-14.5-14.5h0c0-8.01,6.49-14.5,14.5-14.5Z"/><path class="c" d="M222.04,77.47c-3.18,0-5.94-1.95-5.94-5.94,0-4.4,3.22-7.31,7.06-7.31,3.37,0,5.52,2.3,5.52,5.59,0,2.87-1.9,4.33-3.5,4.33-.91,0-1.64-.42-1.79-1.2h-.03c-.46,.63-1.25,1.08-1.92,1.08-1.2,0-2.06-.91-2.06-2.37,0-1.88,1.34-3.85,3.18-3.85,.53,0,.95,.24,1.22,.78h.04l.21-.67h1.29l-.7,3.43c-.25,1.02,.01,1.51,.77,1.51,.98,0,1.97-1.15,1.97-2.98,0-2.38-1.32-4.37-4.37-4.37-2.77,0-5.47,2.37-5.47,5.99,0,3.12,2.14,4.7,4.69,4.7,.85,0,1.79-.28,2.45-.64l.48,1.15c-.95,.52-1.97,.77-3.09,.77Zm-.17-4.79c.36,0,.71-.2,1.16-.78l.41-2.25c-.21-.35-.46-.5-.83-.5-1.04,0-1.67,1.36-1.67,2.38,0,.8,.36,1.16,.92,1.16Zm17.95-7.69l.52-.87,1.44,.95c-.18,.22-.69,.35-1.29,.39,.5,1.72,1.71,3.15,3.3,3.89v.17c-.76,.31-1.37,1.05-1.57,1.79-1.3-1.4-1.88-3.49-2.07-6.1v-.22h-.34Zm.73,0v.39h-1.51l-.13-.39h1.64Zm.2,5.39c-.08,.2-.35,.34-.85,.2l.45-.13c-.81,1.61-2.58,4-3.98,5.12v-.21h.94c-.11,1.16-.53,1.78-1.01,1.92l-.64-2.2s.41-.13,.55-.27c.71-.87,1.76-3.85,1.99-5.54l2.56,1.11Zm-4.75,4.68c1.04-.01,3.61-.17,6.17-.36v.17c-1.06,.49-3.08,1.33-5.61,2.17l-.56-1.97Zm4.14-2.51c4.7,2.09,3.09,5.85,1.27,4.27-.17-1.41-.81-2.97-1.41-4.2l.14-.07Zm-.76-6.4c-.06,.18-.22,.29-.55,.31-.71,2.06-1.75,3.64-3.12,4.72l-.17-.1c.62-1.44,1.13-3.6,1.3-5.61l2.53,.69Zm-4.96,3.32c3.16,1.33,1.65,3.75,.46,2.59,0-.85-.31-1.83-.62-2.52l.15-.07Zm.52-5.01c-.03,.21-.13,.35-.52,.41v12.08c0,.15-.83,.55-1.57,.55h-.39v-13.27l2.48,.24Zm-.64,3.53c-.55,2.58-1.82,4.72-3.74,6.36l-.15-.14c1.04-1.72,1.65-4.21,1.96-6.44h1.93v.22Zm.92-1.47s.87,.87,1.32,1.41c-.03,.15-.17,.22-.36,.22h-5.56l-.11-.39h3.96l.76-1.25Zm20.62-2.11c-.03,.13-.08,.22-.34,.27v2.13c0,.11-.95,.39-1.69,.39h-.38v-2.98l2.41,.2Zm-5.66-.01c-.03,.13-.08,.22-.34,.27v2.13c0,.11-.95,.39-1.69,.39h-.38v-2.98l2.41,.2Zm6.61,.06s.97,.83,1.51,1.37c-.04,.15-.18,.22-.38,.22h-5.63l-.11-.39h3.77l.84-1.2Zm-6.05,0s.97,.83,1.51,1.37c-.04,.15-.18,.22-.38,.22h-6.41l-.11-.39h4.55l.84-1.2Zm-3.57,2.74c3.67-.13,2.07,2.74,.55,1.64,0-.59-.29-1.22-.64-1.57l.1-.07Zm5.01,6.61c6.17-.14,5.38,4.28,3.14,3.35-.62-1.23-1.96-2.55-3.22-3.23l.08-.11Zm-3.47-4.52c-.15,3.14-.42,6.24-3.5,8.22l-.15-.15c1.6-2.48,1.67-5.42,1.72-8.06h1.93Zm1.58,2.13v.39h-2.31v-.39h2.31Zm4.55-3.28c-.63,1.74-1.83,3.33-3.77,4.28l-.07-.1c1.15-1.34,1.81-3.77,1.96-5.36l2.63,.71c-.06,.18-.18,.28-.63,.34,.76,1.05,2.21,1.76,3.64,1.93v.17c-.74,.38-.99,1.32-1.09,2.18-1.22-.88-2.14-2.41-2.67-4.16Zm-5.42,3.28l.9-.84,1.53,1.26c-.1,.13-.27,.21-.56,.25-.13,3.14-.36,4.2-1.05,4.72-.43,.31-.95,.46-1.64,.46,0-.5-.03-.92-.18-1.15-.17-.24-.39-.39-.81-.52v-.17c.29,.03,.8,.04,1.04,.04,.18,0,.29-.03,.38-.11,.29-.25,.46-1.37,.56-3.95h-.15Zm1.16-3.58s1.02,.88,1.6,1.47c-.03,.15-.18,.22-.38,.22h-6.55l-.11-.39h4.55l.9-1.3Zm2.42,2.79c4.58,.08,3.18,3.7,1.34,2.53-.15-.91-.77-1.88-1.44-2.45l.1-.08Zm15.81-5.04v5.8c0,.2,.04,.25,.21,.25h.63c.08,0,.27-.01,.36-.03,.11-.01,.27-.04,.38-.07h.13l.07,.04c.43,.2,.57,.45,.57,.78,0,.76-.57,1.06-2.09,1.06h-.71c-1.23,0-1.41-.38-1.41-1.51v-6.33h1.86Zm-2.88,3.19c0,1.83-.24,4.03-3.11,5.39l-.1-.11c1.23-1.5,1.32-3.43,1.32-5.28v-3.19h1.89v3.19Zm5.1,6.79v.39h-9.13v-.39h9.13Zm-10.28-7.87l2.13,.78h7.29l.99-1.12,1.74,1.37c-.1,.14-.25,.25-.59,.32v7.69c0,.1-.66,.5-1.71,.5h-.36v-8.37h-7.52v7.94c0,.13-.6,.49-1.61,.49h-.36v-9.6Zm10.44-3.5s1.27,.92,2.04,1.55c-.04,.15-.21,.22-.42,.22h-12.87l-.11-.39h10.25l1.11-1.39Zm8.74,.06l2.91,.64c-.06,.18-.2,.29-.53,.29-.67,.63-1.57,1.54-2.48,2.18h-.53c.24-.9,.5-2.24,.63-3.12Zm5.17,2.74h-.14l.88-.99,1.81,1.4c-.08,.11-.27,.25-.56,.31v7.56c0,1.32-.31,2.04-2.56,2.24-.06-.64-.15-1.09-.43-1.4-.28-.29-.62-.53-1.46-.67v-.18s1.71,.11,2.16,.11c.24,0,.31-.11,.31-.31v-8.06Zm-9.66,0v-.84l2.14,.84h8.06v.39h-8.22v9.38c0,.24-.83,.71-1.67,.71h-.32v-10.49Zm4.09,5.64h3.37v.39h-3.37v-.39Zm-.98-3.26v-.73l1.88,.73h2.55v.39h-2.6v4.31c0,.18-.8,.57-1.55,.57h-.27v-5.28Zm3.53,0h-.14l.84-.91,1.72,1.3c-.1,.11-.28,.24-.56,.31v3.7c-.01,.11-.91,.49-1.54,.49h-.32v-4.89Zm18.23-.9s1.46,1.27,2.3,2.07c-.04,.15-.21,.22-.45,.22h-12.74l-.13-.45h9.72l1.3-1.85Zm15.68,4.23c-.03,.2-.17,.35-.49,.38-.35,2.21-.98,3.64-7.71,4.41l-.07-.22c5.28-1.19,5.73-2.56,5.85-4.73l2.42,.17Zm-6.68,2.39c10.57-.53,7.48,3.02,5.39,2.21-1.06-.73-3.16-1.57-5.74-1.96l.35-.25Zm-.34,.25c.53-.73,1.43-2.41,1.69-3.11l2.44,.45c-.04,.2-.2,.36-.9,.36l.39-.25c-.36,.66-1.11,1.93-1.64,2.67l-1.99-.13Zm7.22-2.6s.77,.62,1.25,1.05c-.04,.15-.18,.22-.36,.22h-9.07l-.11-.39h7.63l.67-.88Zm-1.44-2.65l.77-.8,1.58,1.16c-.07,.08-.21,.18-.43,.24v1.29c-.01,.13-.88,.48-1.47,.48h-.32v-2.37h-.13Zm-4.3,2.21c0,.15-.8,.52-1.51,.52h-.24v-3.43l1.85,.7h4.76v.39h-4.86v1.82Zm3.7-6.61l.74-.77,1.53,1.12c-.06,.08-.2,.17-.39,.21v2.65c0,.13-.85,.5-1.44,.5h-.32v-3.71h-.11Zm-3.3,3.39c0,.15-.78,.53-1.5,.53h-.25v-4.62l1.82,.7h3.95v.39h-4.02v3Zm4.75,2.59v.39h-5.71v-.39h5.71Zm-.48-3.21v.39h-4.65v-.39h4.65Zm-1.15-4.09c-.03,.21-.13,.35-.5,.41v7.01h-1.86v-7.62l2.37,.2Zm2.46,1.79s.63,.59,.99,.99c-.03,.15-.17,.22-.35,.22h-8.72l-.11-.39h7.63l.56-.83Zm-9.35,2.67c2.65,1.26,1.25,3.32,.27,2.3,.08-.74-.14-1.64-.43-2.23l.17-.07Zm.52-4.45c-.03,.2-.14,.34-.52,.39v12.11c0,.18-.74,.6-1.39,.6h-.32v-13.33l2.23,.22Zm-.69,3.6c-.41,2.42-1.36,4.51-2.87,6.17l-.17-.15c.8-1.72,1.22-4.09,1.43-6.24h1.61v.22Zm.71-1.18s.69,.67,1.05,1.12c-.03,.15-.17,.22-.35,.22h-4.28l-.11-.39h3.11l.59-.95Zm15.68,5.59h10.6v.39h-10.47l-.13-.39Zm9.67,0h-.14l.99-.92,1.71,1.4c-.11,.13-.28,.22-.57,.27-.22,2.11-.62,3.37-1.4,3.88-.5,.31-1.08,.45-2.07,.45,0-.53-.06-.99-.34-1.27-.29-.31-.87-.55-1.58-.69v-.15c.74,.07,1.86,.13,2.18,.13,.22,0,.35-.03,.46-.11,.34-.22,.6-1.34,.76-2.97Zm-4.97-1.97l2.73,.28c-.03,.22-.18,.36-.52,.39-.34,3.05-1.74,5.4-7.36,6.38l-.08-.15c4.56-1.57,5.29-4.21,5.24-6.9Zm.41-5.11h1.96v4.89h-1.96v-4.89Zm3.95,0h-.14l.9-.98,1.82,1.39c-.08,.11-.25,.25-.55,.31v4.65c-.01,.11-1.02,.48-1.68,.48h-.35v-5.84Zm-7,2.35h7.92v.39h-7.92v-.39Zm0,2.41h7.92v.39h-7.92v-.39Zm-.87-4.76v-.81l2.13,.81h6.89v.39h-7.03v5.1c0,.2-.87,.64-1.69,.64h-.29v-6.13Zm13.79,7.81c.21,0,.28,0,.43-.29q.29-.53,2.63-6.31l.22,.06c-.45,1.72-1.22,4.9-1.37,5.71-.1,.48-.18,1.01-.17,1.37,.03,.81,.67,1.29,.63,2.6-.03,.74-.56,1.25-1.3,1.25-.35,0-.74-.18-.87-.74,.29-1.48,.24-2.93-.1-3.15-.2-.14-.43-.21-.74-.24v-.25h.63Zm-.8-5.49c4.06,.45,2.39,3.5,.78,2.28-.1-.78-.5-1.64-.9-2.21l.11-.07Zm.95-3.3c4.24,.45,2.51,3.63,.81,2.37-.11-.83-.53-1.69-.91-2.3l.1-.07Zm6.64,10.08c-.07,.15-.27,.25-.59,.21-.98,1.25-2.27,2.06-3.58,2.55l-.14-.14c.78-.83,1.61-2.21,2.09-3.68l2.23,1.06Zm1.85-.74c4.86,.76,3.61,4.3,1.76,3.16-.35-1.06-1.19-2.25-1.88-3.08l.11-.08Zm.56-2.55c0,.13-.69,.45-1.33,.45h-.21v-3.64l1.6,.63h1.68v.39h-1.74v2.17Zm.9-2.56l.7-.76,1.5,1.11c-.08,.11-.25,.22-.52,.28v1.97c-.01,.08-.8,.35-1.27,.35h-.27v-2.95h-.14Zm.78,2.14v.39h-2.38v-.39h2.38Zm-4.79-3.11c0,.14-.81,.52-1.55,.52h-.24v-3.67l1.86,.71h3.35v.39h-3.42v2.04Zm2.56-2.44l.81-.87,1.68,1.26c-.08,.1-.25,.22-.53,.28v1.71c-.01,.11-.91,.45-1.5,.45h-.32v-2.83h-.14Zm.78,1.93v.39h-4.19v-.39h4.19Zm-4.84,4.2c0,.13-.69,.46-1.33,.46h-.21v-3.82l1.6,.63h1.89v.39h-1.95v2.34Zm.87-2.73l.69-.71,1.44,1.06c-.07,.08-.24,.18-.46,.24v2c-.01,.1-.78,.36-1.27,.36h-.27v-2.95h-.13Zm.94,2.14v.39h-2.51v-.39h2.51Zm2.38,.98c-.01,.17-.11,.29-.45,.35v5c0,.13-.88,.46-1.65,.46h-.35v-6.02l2.45,.21Zm1.88-.1s1.02,.77,1.67,1.3c-.04,.15-.2,.22-.39,.22h-9.18l-.11-.39h7.1l.92-1.13Zm5.01-4.42h9.93v.39h-9.93v-.39Zm-.08-1.06h.17c.95,1.76,.52,3.09-.28,3.46-.57,.27-1.26,.01-1.44-.64-.15-.64,.25-1.08,.8-1.29,.42-.24,.87-.84,.76-1.53Zm8.97,1.06h-.15l1.05-1.04,1.79,1.68c-.13,.13-.25,.17-.56,.18-.64,.39-1.71,.88-2.51,1.15l-.08-.08c.18-.53,.38-1.39,.46-1.89Zm-5.08-3l2.55,.2c-.01,.17-.1,.29-.45,.36v2.58h-2.1v-3.14Zm-1.95,7.34h5.92v.39h-5.92v-.39Zm-.94-2.58v-.76l1.99,.76h4.55v.39h-4.63v2.79c0,.17-.87,.57-1.64,.57h-.27v-3.75Zm6.01,0h-.14l.84-.91,1.75,1.3c-.07,.1-.22,.22-.49,.27v2.41c-.01,.1-.99,.42-1.61,.42h-.35v-3.49Zm-8.36,7.57h10.11l.98-1.32s1.11,.88,1.75,1.48c-.04,.15-.2,.22-.39,.22h-12.33l-.11-.39Zm1.33-2.66h7.49l.97-1.3s1.11,.88,1.75,1.47c-.04,.15-.2,.22-.39,.22h-9.7l-.11-.39Zm.66-9.38c4.16,.43,2.49,3.58,.83,2.35-.08-.83-.52-1.69-.94-2.28l.11-.07Zm6.52-.03l2.77,.67c-.06,.18-.21,.29-.53,.29-.67,.55-1.81,1.34-2.79,1.86h-.13c.28-.8,.55-2.02,.67-2.83Zm-3.22,7.18h1.99v5.08h-1.99v-5.08Z"/><path class="c" d="M77.31,84.26c-4.03,0-7.63-3.45-7.63-11.37s3.6-11.28,7.63-11.28,7.66,3.42,7.66,11.28-3.65,11.37-7.66,11.37Zm0-1.01c1.71,0,3.22-2.23,3.22-10.35s-1.51-10.27-3.22-10.27-3.19,2.17-3.19,10.27,1.45,10.35,3.19,10.35Zm12.57,1.1l-.17-.84c6.38-2.18,8.93-6.06,8.93-13.28,0-5.74-1.28-7.63-3.07-7.63-1.65,0-3.04,1.71-3.04,5.71,0,3.57,1.42,5.68,3.71,5.68,1.19,0,2-.38,2.87-1.25l.67,.23h-.32c-.78,1.33-2.55,2.38-5.05,2.38-3.77,0-6.5-2.32-6.5-6.41,0-4.87,3.48-7.34,7.54-7.34,5.07,0,7.92,3.45,7.92,9.25,0,6.93-5.42,12.01-13.48,13.49Z"/><path class="c" d="M54.96,99.25l12.14-39.27h1.6l-12.05,39.27h-1.68Z"/><path class="c" d="M45.16,89.22c-5.47,0-8.39-2.38-8.71-6.41,.4-1.15,1.33-1.66,2.27-1.66,1.44,0,2.34,.72,2.66,3.13l.65,3.89-1.84-1.04c1.04,.54,1.84,.83,3.1,.83,3.71,0,5.76-2.09,5.76-6.12,0-4.25-1.94-6.52-5.62-6.52h-1.4v-1.4h1.22c3.17,0,5.29-1.94,5.29-6.23,0-3.56-1.62-5.36-4.36-5.36-.97,0-2.09,.25-3.42,.79l2.27-.9-.72,3.71c-.32,1.84-1.44,2.45-2.7,2.45-.9,0-1.62-.43-2.02-1.12,.11-4.32,3.89-6.16,8.28-6.16,5.69,0,8.39,2.66,8.39,6.37s-2.45,6.7-9.25,7.31v-.58c7.52,.4,10.08,3.35,10.08,7.6s-3.78,7.42-9.94,7.42Z"/><path class="c" d="M161.65,83.77v-2.61c1.68-1.83,3.31-3.65,4.73-5.28,3.16-3.57,4.58-5.48,4.58-8.64,0-2.96-1.36-4.64-3.6-4.64-.81,0-1.68,.2-2.55,.61l1.45-.64-.61,3.13c-.32,1.97-1.28,2.44-2.17,2.44-.84,0-1.57-.49-1.89-1.25,.17-3.45,3.54-5.28,7.4-5.28,4.58,0,6.7,2.47,6.7,5.92,0,3.13-2.67,5.39-8.06,9.63-1.07,.87-2.67,2.2-4.23,3.57l.35-1.1v.58h12.47v3.57h-14.56Zm25.85,.49c-4.9,0-8.03-3.28-8.03-8.87,0-7.13,5.74-13.02,14.15-13.77l.15,.73c-6.24,1.45-9.54,6.09-9.54,12.06s1.33,8.85,3.31,8.85c1.6,0,2.81-1.68,2.81-5.74,0-3.51-1.07-5.34-3.13-5.34-1.19,0-2.38,.38-3.39,1.54l-.58-.41h.26c1.31-1.83,3.22-2.78,5.54-2.78,3.8,0,5.89,2.7,5.89,6.55,0,4.09-2.78,7.19-7.42,7.19Z"/><path class="c" d="M70.18,93.85c0-2.34,.98-4.1,2.17-5.28l1.04,.47c-1.11,1.18-1.97,2.71-1.97,4.81s.86,3.64,1.97,4.82l-1.04,.47c-1.19-1.18-2.17-2.94-2.17-5.29Zm8.48-2.75h9.79v1.38h-9.79v-1.38Zm4.15-2.39h1.44v3.1h-1.44v-3.1Zm-1.84,4.93l1.54,.4c-.67,1.85-1.76,3.7-2.83,4.83-.3-.26-.97-.74-1.33-.95,1.09-.99,2.07-2.64,2.62-4.28Zm3.63,.53l1.34-.54c.98,1.4,2.15,3.28,2.62,4.55l-1.5,.65c-.41-1.23-1.5-3.19-2.46-4.66Zm12.34-.32c0,2.35-.98,4.11-2.17,5.29l-1.04-.47c1.11-1.18,1.97-2.71,1.97-4.82s-.86-3.63-1.97-4.81l1.04-.47c1.19,1.18,2.17,2.94,2.17,5.28Z"/><path class="c" d="M165.18,93.85c0-2.34,.98-4.1,2.17-5.28l1.04,.47c-1.11,1.18-1.97,2.71-1.97,4.81s.86,3.64,1.97,4.82l-1.04,.47c-1.19-1.18-2.17-2.94-2.17-5.29Zm9.39-3.64h7.99v1.45h-7.99v-1.45Zm-.91,6.38h9.82v1.52h-9.82v-1.52Zm18.28-2.74c0,2.35-.98,4.11-2.17,5.29l-1.04-.47c1.11-1.18,1.97-2.71,1.97-4.82s-.86-3.63-1.97-4.81l1.04-.47c1.19,1.18,2.17,2.94,2.17,5.28Z"/><path class="c" d="M146.46,99.25l12.14-39.27h1.6l-12.05,39.27h-1.68Z"/><path class="c" d="M136.67,89.22c-5.47,0-8.39-2.38-8.71-6.41,.4-1.15,1.33-1.66,2.27-1.66,1.44,0,2.34,.72,2.66,3.13l.65,3.89-1.84-1.04c1.04,.54,1.84,.83,3.1,.83,3.71,0,5.76-2.09,5.76-6.12,0-4.25-1.94-6.52-5.62-6.52h-1.4v-1.4h1.22c3.17,0,5.29-1.94,5.29-6.23,0-3.56-1.62-5.36-4.36-5.36-.97,0-2.09,.25-3.42,.79l2.27-.9-.72,3.71c-.32,1.84-1.44,2.45-2.7,2.45-.9,0-1.62-.43-2.02-1.12,.11-4.32,3.89-6.16,8.28-6.16,5.69,0,8.39,2.66,8.39,6.37s-2.45,6.7-9.25,7.31v-.58c7.52,.4,10.08,3.35,10.08,7.6s-3.78,7.42-9.94,7.42Z"/><path class="c" d="M20.5,63.54h1.08c.76,.7,1.51,1.37,2.18,1.96,1.48,1.31,2.27,1.9,3.58,1.9,1.22,0,1.92-.56,1.92-1.49,0-.34-.08-.7-.25-1.06l.26,.6-1.3-.25c-.82-.13-1.01-.53-1.01-.9,0-.35,.2-.65,.52-.78,1.43,.07,2.18,1.46,2.18,3.06,0,1.9-1.02,2.77-2.45,2.77-1.3,0-2.23-1.1-3.98-3.34-.36-.44-.91-1.1-1.48-1.75l.46,.14h-.24v5.16h-1.48v-6.02Zm-.2,11.28c0-1.67,1.43-3.16,4.7-3.16s4.67,1.49,4.67,3.16-1.42,3.17-4.67,3.17-4.7-1.51-4.7-3.17Zm.42,0c0,.71,.92,1.33,4.28,1.33s4.25-.62,4.25-1.33-.9-1.32-4.25-1.32-4.28,.6-4.28,1.32Zm-.22,5.34h1.08c.76,.7,1.51,1.37,2.18,1.96,1.48,1.31,2.27,1.9,3.58,1.9,1.22,0,1.92-.56,1.92-1.49,0-.34-.08-.7-.25-1.06l.26,.6-1.3-.25c-.82-.13-1.01-.53-1.01-.9,0-.35,.2-.65,.52-.78,1.43,.07,2.18,1.46,2.18,3.06,0,1.9-1.02,2.77-2.45,2.77-1.3,0-2.23-1.1-3.98-3.34-.36-.44-.91-1.1-1.48-1.75l.46,.14h-.24v5.16h-1.48v-6.02Zm-.18,11.61h8.22v-.22l.11,.42-2.41-1.56-2.76-1.79,.53,.13h-.23v6.04h-1.25v-6.62h1.01l6.08,3.97v1.34h-9.3v-1.72Z"/><path class="i" d="M110.21,79.28h10.7"/><path class="d" d="M21.15,110.05l-.21-.72c-.17-.52-.25-.88-.25-1.1,0-.3,.18-.57,.52-.57s.53,.27,.53,.57c0,.27-.11,.61-.26,1.1l-.23,.72h-.1Zm.05,.04h-.75c-.56,0-.92-.04-1.12-.11-.3-.1-.49-.34-.39-.67,.1-.34,.41-.43,.72-.33,.23,.08,.53,.29,.96,.59l.6,.42-.02,.1Zm.05-.02l-.24,.71c-.18,.53-.32,.87-.44,1.04-.19,.24-.48,.36-.77,.15-.28-.2-.27-.52-.09-.78,.15-.2,.44-.42,.86-.73l.6-.45,.08,.06Zm0-.06l.59,.45c.44,.32,.73,.56,.85,.74,.18,.25,.19,.57-.08,.77-.29,.21-.59,.11-.78-.14-.14-.21-.25-.56-.43-1.06l-.23-.7,.08-.06Zm-.05-.02l.6-.43c.44-.31,.76-.51,.96-.57,.31-.1,.61-.01,.71,.32,.12,.34-.08,.58-.38,.68-.25,.08-.6,.08-1.12,.09h-.75l-.02-.09Zm9.54,.06l-.21-.72c-.17-.52-.25-.88-.25-1.1,0-.3,.18-.57,.52-.57s.53,.27,.53,.57c0,.27-.11,.61-.26,1.1l-.23,.72h-.1Zm.05,.04h-.75c-.56,0-.92-.04-1.12-.11-.3-.1-.49-.34-.39-.67,.1-.34,.41-.43,.72-.33,.23,.08,.53,.29,.96,.59l.6,.42-.02,.1Zm.05-.02l-.24,.71c-.18,.53-.32,.87-.44,1.04-.19,.24-.48,.36-.77,.15-.28-.2-.27-.52-.09-.78,.15-.2,.44-.42,.86-.73l.6-.45,.08,.06Zm0-.06l.59,.45c.44,.32,.73,.56,.85,.74,.18,.25,.19,.57-.08,.77-.29,.21-.59,.11-.78-.14-.14-.21-.25-.56-.43-1.06l-.23-.7,.08-.06Zm-.05-.02l.6-.43c.44-.31,.76-.51,.96-.57,.31-.1,.61-.01,.71,.32,.12,.34-.08,.58-.38,.68-.25,.08-.6,.08-1.12,.09h-.75l-.02-.09Zm9.54,.06l-.21-.72c-.17-.52-.25-.88-.25-1.1,0-.3,.18-.57,.52-.57s.53,.27,.53,.57c0,.27-.11,.61-.26,1.1l-.23,.72h-.1Zm.05,.04h-.75c-.56,0-.92-.04-1.12-.11-.3-.1-.49-.34-.39-.67,.1-.34,.41-.43,.72-.33,.23,.08,.53,.29,.96,.59l.6,.42-.02,.1Zm.05-.02l-.24,.71c-.18,.53-.32,.87-.44,1.04-.19,.24-.48,.36-.77,.15-.28-.2-.27-.52-.09-.78,.15-.2,.44-.42,.86-.73l.6-.45,.08,.06Zm0-.06l.59,.45c.44,.32,.73,.56,.85,.74,.18,.25,.19,.57-.08,.77-.29,.21-.59,.11-.78-.14-.14-.21-.25-.56-.43-1.06l-.23-.7,.08-.06Zm-.05-.02l.6-.43c.44-.31,.76-.51,.96-.57,.31-.1,.61-.01,.71,.32,.12,.34-.08,.58-.38,.68-.25,.08-.6,.08-1.12,.09h-.75l-.02-.09Zm15.85-1.01s.75,.69,1.16,1.14c-.03,.11-.14,.16-.28,.16h-2.35v-.28h.82l.65-1.02Zm-3.52,2.75l1.46,.54h1.33l.66-.75,1.21,.93c-.07,.09-.17,.16-.4,.2v3.78c0,.07-.44,.31-1.17,.31h-.25v-4.19h-1.49v3.97c0,.09-.41,.32-1.1,.32h-.25v-5.11Zm3.06-3.95c0,.15-.09,.25-.36,.29v4.35h-1.37v-4.78l1.73,.14Zm.06,7.89v.28h-2.22v-.28h2.22Zm-5.07-7.49v2.93h-.12l.33,.02v2.89h-1.25v-2.89h.32l-.11-.02v-2.93h.83Zm1.06,4.88s.7,.51,1.13,.88c-.03,.11-.14,.16-.28,.16h-4.82l-.08-.28h3.44l.61-.76Zm.13-3.94c-.02,.09-.12,.2-.33,.19-.17,.3-.48,.78-.76,1.17l-.12-.04c.07-.5,.14-1.28,.16-1.67l1.05,.35Zm-1.7,5.29c2.22,1,1.05,2.78,.21,1.89,.09-.62-.08-1.34-.32-1.84l.11-.05Zm1.16-.02c2.38,.72,1.26,2.58,.37,1.73,.05-.57-.17-1.24-.47-1.68l.1-.05Zm-2,.07c1.7,1.38,.41,2.9-.26,1.95,.17-.64,.2-1.37,.13-1.92l.13-.03Zm-.73-.01c.41,1.05,.34,1.84,0,2.23-.25,.28-.84,.24-1.03-.17-.15-.36,.03-.7,.35-.9,.23-.21,.58-.72,.55-1.16h.13Zm.59-5.7c1.31,1.05,.62,2.11,.13,1.57,.02-.49-.13-1.12-.27-1.53l.14-.04Zm2.42,2.88s.63,.46,1.02,.8c-.03,.11-.13,.16-.27,.16h-4.28l-.08-.28h3.06l.55-.68Zm.36-.63v.28h-3.41v-.28h3.41Zm-.73-2.88l.51-.55,1.07,.81c-.06,.07-.18,.15-.37,.18v2.69c-.01,.07-.56,.28-.93,.28h-.19v-3.41h-.09Zm-2.07,3.18c0,.1-.49,.35-.95,.35h-.16v-3.99l1.16,.46h2.62v.28h-2.67v2.9Zm18.8,4.43c0,.79-.24,1.19-1.85,1.27-.04-.33-.09-.56-.31-.73-.19-.14-.43-.27-1.08-.37v-.11s1.34,.09,1.61,.09c.16,0,.21-.07,.21-.17v-2.57h1.42v2.59Zm2.5-2.41c-.12,.09-.35,.1-.68-.04-1.65,.21-4.16,.3-6.29,.16v-.15c2-.18,4.52-.69,5.83-1.16l1.14,1.19Zm-.48-.03s.72,.5,1.18,.86c-.03,.11-.14,.16-.28,.16h-7.75l-.08-.28h6.29l.64-.74Zm.77,.86s.74,.52,1.2,.9c-.03,.11-.14,.16-.28,.16h-9.19l-.08-.28h7.69l.66-.78Zm-6.41-2.57c-.02,.14-.11,.24-.36,.27v.35h-1.09v-.77l1.45,.15Zm-.63,.24l.27,.16v.53h.05l-.32,.39-1.13-.5c.12-.15,.34-.34,.51-.4l-.2,.36v-.54h.82Zm4.01-.31c-.01,.11-.07,.19-.28,.22v.74c0,.07-.51,.23-.92,.23h-.2v-1.31l1.4,.12Zm-1.63-3.89c-.02,.12-.09,.21-.32,.25v4.48h-1.21v-4.89l1.53,.16Zm3.79,2.42l.65-.62,1.1,.9c-.06,.09-.15,.12-.36,.14-.65,1.1-2.03,1.7-3.75,1.92l-.05-.13c1.29-.43,2.18-1.19,2.52-2.21h-.11Zm-1.82,0c.66,1.08,2.2,1.46,3.84,1.57v.11c-.41,.13-.67,.49-.77,1.02-1.58-.43-2.66-1.13-3.2-2.63l.13-.07Zm1.65-2.09l.52-.54,.95,.77c-.07,.07-.19,.11-.35,.13v.52c0,.09,.02,.13,.09,.13h.16s.14,0,.18-.01c.05,0,.14-.02,.2-.04h.09l.05,.02c.23,.11,.31,.18,.31,.35,0,.39-.33,.49-1.07,.49h-.31c-.66,0-.72-.22-.72-.76v-1.06h-.1Zm.67,2.09v.28h-2.7l-.09-.28h2.79Zm-2.53-2.19v-.36l1.29,.46h-.18v.41c0,.48-.19,1.36-1.52,1.79l-.07-.11c.47-.53,.48-1.19,.48-1.68v-.51Zm2.54,.1v.28h-1.93v-.28h1.93Zm-3.03,2.59s.41,.35,.65,.61c-.03,.11-.12,.16-.25,.16h-5.23l-.08-.28h4.56l.35-.49Zm-.53-3.08s.6,.45,.97,.77c-.02,.11-.12,.16-.26,.16h-4.87l-.08-.28h3.72l.52-.65Zm-.63,1.41l.47-.47,.96,.7c-.04,.05-.12,.1-.24,.12v1.34c0,.08-.56,.29-.92,.29h-.2v-1.98h-.07Zm.54,3.36v.28h-2.99v-.28h2.99Zm-.03-1.87v.28h-3.18v-.28h3.18Zm-.06-.74v.28h-3.08v-.28h3.08Zm-2.63,1.04c0,.09-.48,.32-.92,.32h-.15v-2.55l1.12,.44h2.54v.28h-2.59v1.51Zm19.02,4.55h2.36v.28h-2.36v-.28Zm1.65-6.03h-.1l.67-.74,1.29,1.03c-.07,.09-.19,.17-.39,.22v6.39c-.02,.12-.68,.5-1.23,.5h-.24v-7.4Zm-7.49,.54h3.75v.28h-3.66l-.09-.28Zm1.19-2.14l1.8,.16c-.03,.15-.12,.24-.37,.28-.05,3.21,.05,6.61-2.75,8.97l-.13-.13c1.62-2.81,1.45-6.06,1.45-9.28Zm2.08,2.14h-.12l.74-.74,1.2,1.06c-.08,.1-.21,.17-.44,.21-.08,4.31-.19,5.48-.78,6.05-.37,.36-.84,.52-1.43,.52,0-.48-.03-.8-.15-.98-.15-.22-.36-.36-.75-.47v-.12c.28,.03,.71,.05,.91,.05,.15,0,.24-.04,.33-.12,.34-.31,.43-1.83,.49-5.46Zm1.93-.54v-.59l1.44,.59h1.61v.28h-1.65v6.83c0,.17-.55,.5-1.17,.5h-.23v-7.61Zm13.46-.69l.56-.89,1.47,1.06c-.21,.25-.76,.39-1.43,.45v.27c.29,3.02,1.9,4.88,4.87,6.12l-.03,.1c-.72,.11-1.17,.57-1.43,1.38-1.14-.69-2.54-2.49-3.06-4.28-.79,1.75-2.63,3.43-4.96,4.26l-.05-.08c2.17-1.23,4.14-4.42,4.35-7.59v-.52h-2.36l-.08-.28h2.15Zm12.99,1.01l1.67,.98c-.05,.09-.15,.16-.4,.13-.84,.93-2.18,2.12-3.69,2.89l-.08-.09c1.02-1.12,2.04-2.84,2.5-3.91Zm-.13-1.99l1.57,.99c-.06,.1-.16,.16-.39,.12-.77,.65-1.96,1.41-3.2,1.88l-.08-.1c.84-.81,1.71-2.08,2.1-2.89Zm-.8,4.42l.53-.7,1.23,.45c-.03,.09-.12,.16-.31,.2v4.75c-.02,.1-.62,.36-1.18,.36h-.27v-5.06Zm2.77-3.39h3.11l.68-.9s.77,.61,1.22,1.02c-.03,.11-.14,.16-.28,.16h-4.65l-.08-.28Zm-.57,2.31h3.9l.71-.94s.8,.63,1.27,1.06c-.03,.11-.14,.16-.29,.16h-5.51l-.08-.28Zm2.77,0h1.48v4.36c0,.94-.27,1.58-1.97,1.68-.03-.46-.12-.81-.35-1.02-.23-.2-.49-.36-1.21-.48v-.12s1.53,.09,1.82,.09c.17,0,.23-.07,.23-.19v-4.32Zm8.34,2.52h8.02l.58-.83s.66,.57,1.03,.95c-.02,.11-.13,.16-.27,.16h-9.28l-.08-.28Zm.03-4.72h7.18l.75-.91s.85,.6,1.38,1.03c-.03,.11-.14,.16-.29,.16h-8.94l-.08-.28Zm1.02,3.53h6.04v.28h-5.95l-.09-.28Zm-.08,2.37h6.14v.28h-6.05l-.09-.28Zm2.96-7.08l1.83,.17c-.01,.15-.11,.25-.36,.29v7.53c0,.93-.24,1.4-1.86,1.53-.04-.42-.1-.71-.3-.91-.19-.18-.41-.33-1.02-.43v-.12s1.24,.07,1.49,.07c.16,0,.22-.05,.22-.17v-7.96Zm-2.71,2.24v-.57l1.54,.57h4.53v.28h-4.62v1.49c0,.12-.67,.42-1.25,.42h-.2v-2.19Zm5.53,0h-.1l.63-.66,1.29,.95c-.06,.07-.17,.15-.35,.19v1.07c-.01,.08-.73,.35-1.21,.35h-.26v-1.9Zm-.07,2.47h-.1l.61-.65,1.24,.93c-.06,.07-.17,.15-.36,.19v2.44c0,.09-.68,.37-1.15,.37h-.24v-3.28Zm-4.49-1.18h4.94v.28h-4.94v-.28Zm19.95,.12c2.5-.02,1.83,1.91,.81,1.36-.13-.46-.54-.99-.89-1.29l.08-.07Zm-3.14,1.73c0,.07-.37,.31-.96,.31h-.21v-3.54l1.17-.35v3.58Zm3.4-.06c0,.06-.37,.31-.98,.31h-.22v-3.58l1.2-.24v3.51Zm1.23-3.23c-.11,.09-.3,.09-.55-.01-.75,.15-1.95,.3-2.96,.34l-.04-.16c.91-.24,2.06-.7,2.65-1.03l.9,.86Zm-3.51-.02c-.1,.09-.29,.09-.55-.01-.68,.17-1.79,.34-2.73,.39l-.04-.15c.84-.26,1.88-.74,2.41-1.07l.91,.84Zm2.66-2.06s.84,.63,1.34,1.06c-.03,.11-.14,.16-.29,.16h-7.84v-.28h6.05l.74-.94Zm-7.44,.84v-.43l1.55,.53h-.2v2.38c0,1.83-.07,4.48-1.95,6.18l-.09-.06c.68-1.85,.69-4.2,.69-6.12v-2.48Zm3.34,8.24c0,.13-.61,.43-1.17,.43h-.2v-4l1.44,.55h3.46v.28h-3.53v2.74Zm2.79-3.02l.61-.65,1.24,.93c-.05,.07-.17,.15-.35,.19v2.58c-.01,.08-.71,.32-1.16,.32h-.24v-3.37h-.1Zm.76,2.48v.28h-4.23v-.28h4.23Zm0-1.26v.28h-4.23v-.28h4.23Zm-.05-4.09c-.4,.98-1.24,1.7-2.38,2.22l-.08-.14c.6-.58,.96-1.39,1.14-2.24h1.32v.16Zm-3.36,0c-.38,.89-1.17,1.58-2.14,2.09l-.09-.14c.5-.56,.82-1.34,.99-2.11h1.24v.16Zm.14,.34c2.1,.19,1.09,1.73,.26,1.06,0-.36-.17-.77-.35-1.01l.09-.05Zm3.93-1.18s.56,.47,.89,.8c-.02,.11-.12,.16-.26,.16h-3.36l-.08-.28h2.31l.5-.68Zm-3.5,.08s.52,.42,.82,.72c-.02,.11-.12,.16-.25,.16h-3.16l-.08-.28h2.22l.45-.6Zm13.42,2.22h4.14l.68-.89s.78,.6,1.24,1.01c-.03,.11-.14,.16-.28,.16h-5.7l-.08-.28Zm2.25,0h1.37v3.87l-1.37-.35v-3.52Zm.77,1.65h.96l.68-.94s.77,.63,1.22,1.06c-.03,.11-.14,.16-.28,.16h-2.58v-.28Zm-1.74,.41c.53,1.05,1.4,1.25,2.98,1.25,.43,0,1.44,0,1.93-.01v.11c-.38,.1-.55,.62-.54,1.21h-1.44c-1.7,0-2.61-.52-3-2.53l.07-.03Zm-.94-1.28l1.81,.31c-.04,.14-.15,.23-.38,.25-.42,1.95-1.25,2.95-2.61,3.54l-.1-.09c.82-.98,1.3-2.33,1.28-4.01Zm.92-3.37h3.32v.28h-3.32v-.28Zm.06,1.3h3.32v.28h-3.32v-.28Zm-.76-2.59v-.55l1.42,.55h2.59v.28h-2.64v2.86c0,.13-.6,.43-1.17,.43h-.2v-3.57Zm3.3,0h-.1l.61-.67,1.27,.96c-.06,.08-.19,.17-.4,.21v2.47c0,.08-.68,.36-1.14,.36h-.24v-3.33Zm-7.3,1.63h2.41l.55-.91s.64,.63,.98,1.03c-.03,.11-.13,.16-.27,.16h-3.59l-.08-.28Zm1.11-2.41l1.72,.16c-.02,.15-.12,.25-.37,.29v7.53c0,.92-.19,1.41-1.59,1.53-.02-.43-.06-.75-.19-.96-.12-.2-.29-.34-.72-.43v-.13s.78,.05,.97,.05c.14,0,.18-.04,.18-.15v-7.89Zm-1.22,4.72c.63-.1,2.31-.43,3.89-.79l.02,.09c-.61,.48-1.64,1.2-3.12,2.08-.05,.13-.17,.25-.3,.28l-.49-1.66Zm22.98-.11s.66,.54,1.04,.91c-.03,.11-.13,.16-.27,.16h-3.89v-.28h2.55l.57-.79Zm-1.89,0c-.04,.13-.16,.22-.38,.22-.34,1.05-.85,1.9-1.58,2.44l-.13-.07c.32-.8,.53-1.92,.57-3.01l1.52,.42Zm-1.51-4.31l1.32,.5h1.52l.59-.66,1.1,.83c-.06,.09-.16,.16-.38,.2v2.63c0,.05-.39,.26-1.04,.26h-.23v-2.98h-1.67v2.8c0,.08-.37,.28-.99,.28h-.22v-3.86Zm2.98,3.94c-.02,.13-.08,.22-.32,.25v4.39h-1.23v-4.78l1.55,.14Zm.79,3.63s.7,.58,1.1,.98c-.02,.11-.13,.16-.27,.16h-5.08l-.08-.28h3.72l.61-.86Zm-.35-1.67s.61,.53,.97,.89c-.03,.11-.13,.16-.27,.16h-3.99l-.08-.28h2.83l.54-.77Zm-.1-2.73v.28h-2.7v-.28h2.7Zm0-1.3v.28h-2.7v-.28h2.7Zm-5.63,4.23s.43,.36,.68,.63c-.02,.11-.11,.16-.24,.16h-1.51l-.07-.28h.77l.37-.51Zm-.41-3.71h-.86v-1.85h.86v1.85Zm0,.57c0,.82-.04,2.11-.83,3l-.13-.13c.42-.95,.4-2.06,.4-2.87v-.78h.56v.78Zm-.78,5.78c0,.12-.4,.37-.85,.37h-.17v-7.39l1.07,.46h2.35v.28h-2.4v6.28Zm1.59-6.56v2.57c0,.11,.02,.14,.07,.14h.25s.12-.02,.16-.03h.11c.18,.07,.26,.14,.26,.31,0,.26-.18,.41-.75,.41h-.21c-.42,0-.48-.16-.48-.54v-2.86h.59Zm.27-1.64v1.85h-.86v-1.85h.86Zm-.17,1.64l.52-.56,1.04,.81c-.07,.08-.2,.16-.38,.19v5.97c-.02,.08-.53,.32-.91,.32h-.17v-6.73h-.1Zm.75,5.88v.28h-2.99v-.28h2.99Zm-.09-8.37s.7,.58,1.1,.97c-.03,.11-.13,.16-.27,.16h-4.38l-.08-.28h3.02l.61-.85Zm13.21,2.59l-.21-.72c-.17-.52-.25-.88-.25-1.1,0-.3,.18-.57,.52-.57s.53,.27,.53,.57c0,.27-.11,.61-.26,1.1l-.23,.72h-.1Zm.05,.04h-.75c-.56,0-.92-.04-1.12-.11-.3-.1-.49-.34-.39-.67,.1-.34,.41-.43,.72-.33,.23,.08,.53,.29,.96,.59l.6,.42-.02,.1Zm.05-.02l-.24,.71c-.18,.53-.32,.87-.44,1.04-.19,.24-.48,.36-.77,.15-.28-.2-.27-.52-.09-.78,.15-.2,.44-.42,.86-.73l.6-.45,.08,.06Zm0-.06l.59,.45c.44,.32,.73,.56,.85,.74,.18,.25,.19,.57-.08,.77-.29,.21-.59,.11-.78-.14-.14-.21-.25-.56-.43-1.06l-.23-.7,.08-.06Zm-.05-.02l.6-.43c.44-.31,.76-.51,.96-.57,.31-.1,.61-.01,.71,.32,.12,.34-.08,.58-.38,.68-.25,.08-.6,.08-1.12,.09h-.75l-.02-.09Zm9.54,.06l-.21-.72c-.17-.52-.25-.88-.25-1.1,0-.3,.18-.57,.52-.57s.53,.27,.53,.57c0,.27-.11,.61-.26,1.1l-.23,.72h-.1Zm.05,.04h-.75c-.56,0-.92-.04-1.12-.11-.3-.1-.49-.34-.39-.67,.1-.34,.41-.43,.72-.33,.23,.08,.53,.29,.96,.59l.6,.42-.02,.1Zm.05-.02l-.24,.71c-.18,.53-.32,.87-.44,1.04-.19,.24-.48,.36-.77,.15-.28-.2-.27-.52-.09-.78,.15-.2,.44-.42,.86-.73l.6-.45,.08,.06Zm0-.06l.59,.45c.44,.32,.73,.56,.85,.74,.18,.25,.19,.57-.08,.77-.29,.21-.59,.11-.78-.14-.14-.21-.25-.56-.43-1.06l-.23-.7,.08-.06Zm-.05-.02l.6-.43c.44-.31,.76-.51,.96-.57,.31-.1,.61-.01,.71,.32,.12,.34-.08,.58-.38,.68-.25,.08-.6,.08-1.12,.09h-.75l-.02-.09Zm9.54,.06l-.21-.72c-.17-.52-.25-.88-.25-1.1,0-.3,.18-.57,.52-.57s.53,.27,.53,.57c0,.27-.11,.61-.26,1.1l-.23,.72h-.1Zm.05,.04h-.75c-.56,0-.92-.04-1.12-.11-.3-.1-.49-.34-.39-.67,.1-.34,.41-.43,.72-.33,.23,.08,.53,.29,.96,.59l.6,.42-.02,.1Zm.05-.02l-.24,.71c-.18,.53-.32,.87-.44,1.04-.19,.24-.48,.36-.77,.15-.28-.2-.27-.52-.09-.78,.15-.2,.44-.42,.86-.73l.6-.45,.08,.06Zm0-.06l.59,.45c.44,.32,.73,.56,.85,.74,.18,.25,.19,.57-.08,.77-.29,.21-.59,.11-.78-.14-.14-.21-.25-.56-.43-1.06l-.23-.7,.08-.06Zm-.05-.02l.6-.43c.44-.31,.76-.51,.96-.57,.31-.1,.61-.01,.71,.32,.12,.34-.08,.58-.38,.68-.25,.08-.6,.08-1.12,.09h-.75l-.02-.09Z"/><path class="c" d="M278.68,102.98c.75,0,1.37-.61,1.37-1.37s-.62-1.37-1.37-1.37-1.37,.61-1.37,1.37,.62,1.37,1.37,1.37Z"/><path class="c" d="M278.68,104.17c-1.42,0-2.57-1.15-2.57-2.57s1.15-2.57,2.57-2.57,2.57,1.15,2.57,2.57-1.15,2.57-2.57,2.57Zm0-2.74c-.1,0-.18,.08-.18,.18s.08,.18,.18,.18,.18-.08,.18-.18-.08-.18-.18-.18Z"/><path class="c" d="M273.96,101.56c1.05,0,1.9-.85,1.9-1.9s-.85-1.9-1.9-1.9-1.9,.85-1.9,1.9,.85,1.9,1.9,1.9Z"/><path class="c" d="M273.96,102.75c-1.7,0-3.1-1.38-3.1-3.1s1.39-3.1,3.1-3.1,3.1,1.38,3.1,3.1-1.39,3.1-3.1,3.1Zm0-3.81c-.39,0-.71,.32-.71,.71s.32,.71,.71,.71,.71-.32,.71-.71-.32-.71-.71-.71Z"/><path class="c" d="M281.9,101.76c-.61-.71-1.02,.02-1.02,.02-2.31,4.36-4.64,4.48-4.64,4.48,1.83,.56,3.47-.96,3.47-.96,.41-.45,.96-.08,.96-.08,3.5,3.83-3.75,11.44-3.75,11.44,11.13-7.89,4.97-14.91,4.97-14.91Z"/><path class="c" d="M276.93,117.87c-.33,0-.66-.14-.91-.41-.4-.47-.39-1.16,.04-1.6,1.58-1.66,5.48-6.7,4.07-9.35-.73,.53-2.38,1.48-4.24,.91-.58-.18-.97-.74-.87-1.33,.1-.58,.55-1,1.13-1,.21-.04,1.89-.49,3.67-3.85,.23-.43,.72-.9,1.38-.96,.33-.03,.98,.01,1.59,.71,.17,.2,2.39,2.85,1.92,6.77-.41,3.52-2.81,6.85-7.11,9.89-.21,.14-.45,.22-.69,.22Zm3.99-13.84c.15,.06,.3,.13,.42,.22,.08,.06,.15,.11,.21,.19,.31,.33,.55,.69,.74,1.05-.18-.99-.54-1.77-.84-2.28-.18,.29-.35,.56-.53,.82Zm.07-1.49l.9-.78-.91,.78h.01Z"/><path class="c" d="M268.46,104.07s.73-2.39,2.2-2.53c0,0,.98-.51,3.52,3.57,0,0-.78-3.57-3.24-5.68,0,0-.89-.79-1.83-.13,0,0-8.13,5.65,4.38,16.96,0,0-6.54-6.56-5.05-12.19h.01Z"/><path class="c" d="M273.51,117.46c-.29,0-.58-.1-.8-.31-5.13-4.64-7.61-9.01-7.36-12.98,.24-3.83,2.98-5.78,3.1-5.85,1.35-.94,2.74-.28,3.3,.21,2.72,2.32,3.58,6.15,3.62,6.32,.12,.56-.18,1.14-.72,1.36-.54,.22-1.16,.02-1.46-.48-1.42-2.28-2.19-2.86-2.43-3.01-.38,.11-.9,.95-1.13,1.67-1.06,4.07,3.07,9.33,4.75,11.02,.45,.45,.46,1.19,.02,1.67-.23,.24-.55,.38-.86,.38h-.02Zm-3.57-17.22s-.09,.01-.13,.04c-.03,.02-.33,.24-.7,.66,.32-.25,.7-.44,1.13-.54l-.07-.06c-.09-.07-.17-.1-.24-.1h.01Z"/><path class="c" d="M275.39,104.65c-.66-.08-.69,.53-.69,.53-1.14,.08-.63,.84-.63,.84,.73,.81,1.69,.55,1.69,.55,.43-1.85-.38-1.93-.38-1.93Z"/><path class="c" d="M275.42,107.81c-.66,0-1.54-.22-2.24-.99-.04-.04-.08-.09-.11-.14-.28-.42-.46-1.08-.15-1.72,.14-.29,.41-.62,.94-.82,.08-.1,.17-.2,.26-.29,.38-.31,.86-.45,1.39-.4,.2,.02,.74,.13,1.15,.7,.45,.62,.53,1.51,.26,2.68-.1,.43-.43,.78-.85,.89-.18,.04-.4,.08-.65,.08h0Z"/><path class="e" d="M280.05,101.6c0,.75-.61,1.37-1.37,1.37s-1.37-.61-1.37-1.37,.62-1.37,1.37-1.37,1.37,.61,1.37,1.37Z"/><path class="e" d="M275.86,99.66c0,1.05-.85,1.9-1.9,1.9s-1.9-.85-1.9-1.9,.85-1.9,1.9-1.9,1.9,.85,1.9,1.9Z"/><path class="e" d="M276.93,116.67s7.26-7.6,3.75-11.44c0,0-.56-.38-.96,.08,0,0-1.65,1.53-3.47,.96,0,0,2.33-.12,4.64-4.48,0,0,.41-.73,1.02-.02,0,0,6.16,7.03-4.97,14.9Z"/><path class="e" d="M274.19,105.11s-.79-3.57-3.24-5.68c0,0-.89-.79-1.83-.13,0,0-8.13,5.65,4.38,16.96,0,0-6.54-6.56-5.04-12.19,0,0,.73-2.39,2.2-2.53,0,0,.98-.51,3.52,3.57h.01Z"/><path class="e" d="M274.7,105.18s.03-.61,.69-.53c0,0,.81,.08,.38,1.93,0,0-.96,.25-1.69-.55,0,0-.51-.76,.63-.84Z"/><path class="b" d="M288.94,104.87c-.18,.47-.48,.93-.77,1.23-.08-.07-.25-.2-.34-.26,.3-.26,.55-.66,.71-1.07l.41,.1Zm1.22-.23h-2.03v-3.62h2.03v3.62Zm-.42-3.25h-1.2v.73h1.2v-.73Zm0,1.07h-1.2v.74h1.2v-.74Zm0,1.07h-1.2v.75h1.2v-.75Zm-.05,1.23c.26,.29,.51,.66,.63,.92l-.36,.19c-.12-.26-.38-.66-.61-.95l.34-.17h0Zm3.48-2.18h-.74v2.98c0,.25-.07,.39-.22,.45-.17,.07-.43,.09-.87,.09-.02-.11-.09-.31-.15-.42h.7c.09,0,.13-.03,.13-.13v-2.42c-.39,.84-.93,1.6-1.49,2.05-.08-.1-.2-.24-.3-.32,.65-.45,1.27-1.37,1.64-2.29h-1.51v-.4h1.66v-1.35h.42v1.35h.74v.42Z"/><path class="b" d="M298.63,101.06v5h-.41v-.28h-3.84v.3h-.4v-5.02h4.65Zm-.41,4.38v-4.04h-3.84v4.04h3.84Zm-.19-.95h-.83v.54c0,.17-.03,.22-.17,.26-.13,.04-.34,.04-.69,.04-.02-.08-.07-.18-.1-.24h.51c.07,0,.09-.02,.09-.08v-.53h-2.26v-.26h2.26v-.21h.36v.21h.83v.26h-.01Zm-1.94-2.46h-1.46v-.28h1.46v-.28h.36v.28h1.48v.28h-1.48v.23h1.28v1.16h-.46c.23,.17,.5,.4,.63,.56l-.24,.18c-.06-.08-.14-.17-.23-.25-1.01,.03-2.04,.07-2.75,.08l-.02-.26c.39,0,.9,0,1.44-.01v-.29h-1.23v-1.16h1.23v-.23Zm-.63,2.48c.2,.14,.42,.38,.52,.52l-.3,.18c-.09-.17-.31-.39-.5-.55l.28-.14Zm-.25-1.77h.89v-.24h-.89v.24Zm.89,.47v-.26h-.89v.26h.89Zm.36-.72v.24h.92v-.24h-.92Zm.92,.46h-.92v.26h.92v-.26Zm-.21,.74s-.09-.08-.13-.11l.22-.15h-.81v.29l.71-.02h.01Z"/><path class="b" d="M300.54,103.36c-.23-.2-.7-.45-1.07-.63l.23-.31c.36,.14,.84,.4,1.07,.58l-.24,.35h.01Zm-.87,2.38c.31-.44,.76-1.19,1.1-1.86l.31,.29c-.3,.61-.71,1.33-1.05,1.86l-.35-.29Zm.34-4.87c.39,.15,.86,.42,1.11,.61l-.25,.35c-.23-.2-.7-.48-1.08-.65l.23-.31Zm4.25,5.22c-.06-.17-.15-.36-.27-.58-2.15,.27-2.39,.31-2.56,.39-.02-.1-.09-.31-.14-.43,.11-.03,.22-.17,.38-.38,.13-.18,.51-.79,.8-1.44h-1.29v-.41h1.49v-1.03h-1.24v-.41h1.24v-1h.43v1h1.28v.41h-1.28v1.03h1.53v.41h-1.64c-.3,.62-.66,1.23-1.02,1.71l1.84-.2c-.17-.26-.33-.52-.52-.75l.34-.17c.41,.51,.85,1.19,1.03,1.64l-.39,.19h-.01Z"/><path class="b" d="M308.13,100.82c0,.21-.01,.5-.04,.84,.09,.69,.43,3.11,2.48,4.03-.12,.1-.25,.24-.31,.37-1.45-.68-2.07-2.11-2.35-3.19-.27,1.16-.89,2.46-2.3,3.21-.08-.11-.21-.24-.34-.33,2.41-1.22,2.37-4.04,2.39-4.91h.48Z"/><path class="b" d="M316.03,104.73c-.08-.08-.17-.14-.27-.22v1.54h-.4v-.16h-1.03v.19h-.39v-1.79h1.5c-.38-.25-.81-.51-1.27-.73h-1.11c-.24,.27-.54,.51-.9,.73h1.23v1.76h-.4v-.16h-.99v.19h-.39v-1.49c-.14,.07-.29,.13-.43,.19-.04-.1-.15-.25-.24-.31,.64-.23,1.16-.55,1.56-.91h-1.43v-.38h1.78c.16-.18,.28-.36,.38-.54h-1.73v-1.59h1.82v1.48l.4,.08c-.1,.19-.21,.39-.34,.58h1.66c-.2-.13-.46-.27-.7-.34l.19-.2h-.54v-1.59h1.85v1.59h-1.22c.28,.1,.59,.26,.76,.4l-.13,.14h1.02v.38h-1.36c.55,.3,1.07,.62,1.39,.92l-.3,.26h.01Zm-3.08-3.32h-1.03v.89h1.03v-.89Zm.07,3.23h-.98v.9h.98v-.9Zm2.35,.9v-.9h-1.03v.9h1.03Zm-.99-3.25h1.07v-.89h-1.07v.89Z"/><path class="b" d="M321.94,101.35v1.03h-.44v-.62h-4.02v.62h-.42v-1.03h2.33c-.06-.15-.12-.34-.2-.49l.43-.1c.1,.18,.2,.41,.25,.59h2.06Zm-3.73,2.93h3.2v1.77h-.43v-.22h-2.76v.25h-.43v-3.83h3.42v1.47h-2.99v.55h-.01Zm0-1.65v.72h2.57v-.72h-2.57Zm0,2.04v.78h2.76v-.78h-2.76Z"/><path class="b" d="M324.69,103.68c-.27,.08-.52,.17-.77,.23v1.66c0,.24-.07,.35-.21,.43-.14,.07-.39,.08-.78,.08-.02-.1-.08-.28-.13-.39h.6c.08,0,.11-.03,.11-.11v-1.54l-.75,.22-.13-.42c.24-.06,.55-.14,.88-.22v-1.25h-.81v-.41h.81v-1.15h.42v1.15h.75v.41h-.75v1.13c.23-.07,.48-.13,.71-.2l.07,.39h0Zm3.04,1.89c0,.23-.05,.35-.21,.42-.17,.07-.43,.08-.85,.08-.02-.12-.07-.29-.13-.41,.3,.01,.58,0,.65,0s.1-.03,.1-.1v-.71c-.64,.17-1.3,.33-1.83,.45l-.15-.41c.51-.09,1.25-.25,1.98-.41v-1.24h-1.97v.72c0,.64-.09,1.53-.59,2.12-.07-.08-.26-.21-.34-.25,.45-.55,.51-1.31,.51-1.88v-1.1h2.82v2.71Zm-.17-3.11h-2.53v-1.49h2.53v1.49Zm-.42-1.13h-1.7v.78h1.7v-.78Zm-1.49,2.28c.49,.08,1.11,.27,1.45,.43l-.17,.33c-.32-.17-.94-.36-1.44-.46l.17-.3h-.01Z"/><path class="b" d="M329.32,104.9c-.15,.38-.39,.81-.56,1.09-.07-.05-.22-.15-.3-.2,.19-.28,.39-.65,.53-1l.33,.11h0Zm.92-.31h-1.56v-3.53h1.56v3.53Zm-.35-3.17h-.86v.71h.86v-.71Zm0,1.04h-.86v.71h.86v-.71Zm0,1.05h-.86v.72h.86v-.72Zm-.01,1.25c.19,.28,.41,.63,.51,.85l-.3,.2c-.09-.23-.31-.61-.49-.89l.28-.17Zm3.6-3.22v1.99h-2.88v-1.99h.73c-.07-.18-.21-.44-.33-.64l.33-.12c.15,.2,.3,.46,.38,.64l-.28,.12h.91c.15-.22,.32-.54,.42-.77l.4,.14c-.13,.21-.28,.44-.42,.63h.74Zm-2.63,2.31h2.39v2.19h-.39v-.21h-1.64v.23h-.38v-2.21h.01Zm.1-.65h.93v-1.33h-.93v1.33Zm.39-1.12c.14,.27,.29,.61,.35,.82l-.25,.1c-.07-.22-.21-.58-.34-.84l.24-.08Zm-.12,2.11v.51h1.64v-.51h-1.64Zm1.64,1.29v-.47h-1.64v.47h1.64Zm.27-3.61h-.93v1.33h.93v-1.33Zm-.74,1.03c.12-.22,.29-.58,.36-.82l.28,.09c-.13,.29-.28,.61-.4,.82l-.23-.09h-.01Z"/><path class="b" d="M336.18,104.31c-.09-.17-.33-.49-.53-.72v2.48h-.42v-2.57c-.24,.59-.54,1.16-.84,1.51-.04-.12-.14-.29-.21-.4,.36-.41,.76-1.15,1-1.82h-.89v-.41h.94v-.89c-.29,.06-.58,.1-.85,.14-.02-.1-.08-.23-.13-.33,.65-.1,1.4-.28,1.84-.46l.3,.32c-.21,.09-.46,.17-.74,.23v.99h.72v.41h-.72v.36c.18,.15,.68,.66,.79,.8l-.27,.34h.02Zm3.36-.69c-.5,1.45-1.71,2.16-3.11,2.48-.04-.11-.14-.28-.22-.37,.64-.12,1.26-.34,1.76-.7-.21-.21-.53-.44-.83-.63-.18,.11-.36,.22-.56,.33-.05-.1-.18-.23-.28-.3,.85-.4,1.43-.97,1.7-1.48-.43,.31-.94,.53-1.45,.68-.05-.1-.14-.26-.22-.34,.5-.12,.99-.32,1.41-.62-.19-.19-.46-.42-.73-.58-.15,.11-.32,.21-.51,.31-.05-.09-.19-.22-.28-.29,.73-.35,1.22-.87,1.47-1.32l.43,.08c-.08,.14-.18,.29-.29,.42h1.05l.08-.02,.27,.13c-.25,.66-.7,1.17-1.24,1.56l.43,.08c-.09,.15-.2,.31-.32,.46h1.06l.08-.02,.28,.12h.02Zm-2.01-1.95c-.07,.08-.15,.14-.23,.21,.27,.17,.55,.39,.75,.58,.27-.22,.49-.49,.64-.79h-1.16Zm.28,2.21c-.1,.1-.21,.2-.33,.3,.3,.17,.63,.41,.83,.62,.29-.25,.52-.55,.69-.92h-1.18Z"/><path class="b" d="M341.6,103.89c-.07-.18-.22-.5-.38-.76v2.96h-.41v-2.71c-.18,.61-.41,1.17-.65,1.54-.04-.12-.14-.31-.22-.41,.34-.49,.7-1.39,.86-2.19h-.71v-.41h.74v-1.12h.41v1.12h.61v.41h-.61v.25c.15,.22,.55,.84,.64,1.01l-.28,.32h-.01Zm3.72,1.65v.38h-3.64v-.38h.52v-3.26h.81c.03-.14,.07-.31,.09-.47h-1.15v-.38h1.22c.04-.23,.07-.46,.09-.67l.44,.03c-.03,.21-.07,.43-.11,.64h1.55v.38h-1.64c-.03,.18-.08,.34-.11,.47h1.42v3.26h.52Zm-2.72-2.93v.49h1.78v-.49h-1.78Zm1.78,.81h-1.78v.5h1.78v-.5Zm-1.78,.81v.5h1.78v-.5h-1.78Zm0,1.32h1.78v-.5h-1.78v.5Z"/><path class="b" d="M350.98,101.76c-.27,.24-.6,.51-.89,.7,.33,.29,.7,.52,1.1,.66-.1,.08-.22,.26-.3,.37-.51-.22-.97-.58-1.37-1v.3h-2.08v-.28c-.43,.44-.93,.8-1.43,1.03-.05-.1-.18-.24-.26-.32,.4-.17,.81-.43,1.17-.76-.18-.2-.48-.42-.74-.59l.23-.24c.27,.15,.58,.39,.76,.57,.22-.25,.43-.53,.57-.81h-1.58v-.36h1.78l.08-.02,.29,.14c-.18,.48-.45,.9-.79,1.26h1.91c-.4-.43-.72-.93-.96-1.48l.38-.11c.1,.24,.24,.49,.4,.72,.27-.21,.56-.48,.75-.69l.33,.23c-.27,.25-.6,.52-.89,.71,.12,.15,.26,.3,.39,.44,.29-.21,.61-.5,.81-.7l.32,.22h.01Zm-1.23,3.09c-.12,.25-.27,.52-.39,.74h1.65v.38h-5.08v-.38h1.59c-.06-.2-.19-.5-.32-.72l.39-.12c.14,.22,.3,.52,.35,.72l-.35,.12h1.34c.15-.24,.33-.6,.42-.85l.41,.11h-.01Zm.32-.14h-3.29v-1.45h3.29v1.45Zm-.45-1.08h-2.41v.73h2.41v-.73Z"/><path class="b" d="M354.9,104.94c-.34,.28-.71,.55-1.02,.8l-.18-.24c-.71,.15-1.45,.29-1.99,.4l-.1-.39c.25-.03,.6-.09,.95-.17v-1.7h-.86v-.38h.86v-.63h-.57v-.28c-.1,.1-.2,.2-.31,.29-.02-.09-.12-.3-.17-.4,.44-.35,.89-.88,1.15-1.44l.33,.12c-.03,.06-.05,.11-.09,.17,.34,.32,.76,.73,.98,.97l-.25,.29c-.2-.24-.58-.63-.91-.95-.19,.31-.41,.62-.65,.87h1.33v.38h-.5v.63h.72v.38h-.72v1.64l.77-.14,.02,.22c.28-.18,.66-.45,1.04-.73l.13,.31h.01Zm-2.82-1.03c.09,.34,.19,.77,.22,1.06l-.32,.08c-.03-.29-.12-.73-.21-1.06l.31-.08Zm1.1,1c.08-.29,.18-.75,.22-1.05l.31,.09c-.1,.34-.19,.78-.29,1.04l-.24-.08Zm2.36-1.58v2.3c0,.21-.03,.32-.19,.39-.13,.06-.36,.07-.69,.07-.01-.11-.07-.27-.13-.38,.24,.01,.44,0,.51,0s.09-.02,.09-.08v-2.3h-1.39v-.39h1.96c.03-.14,.07-.29,.1-.43h-1.7c.14-.45,.33-1.18,.45-1.74l.41,.04c-.03,.14-.07,.31-.11,.47h1.23l.07-.02,.29,.04c-.08,.46-.2,1.11-.32,1.64h.82v.39h-1.38Zm-1.33,.23c.23,.22,.52,.53,.66,.73l-.3,.23c-.13-.2-.42-.53-.64-.76l.29-.2h-.01Zm1.66-1.39c.04-.19,.08-.39,.1-.54h-1.22c-.05,.19-.09,.38-.14,.54h1.26Zm.03,2.4c.34,.25,.81,.61,1.04,.84l-.24,.3c-.22-.23-.67-.62-1.03-.89l.23-.25Zm-.12-.26c.22-.19,.54-.53,.73-.77l.29,.24c-.24,.28-.55,.57-.79,.75l-.23-.22Z"/><path class="b" d="M292.89,109.79c-.24,.94-.69,1.64-1.27,2.17,.44,.31,.97,.54,1.56,.69-.1,.1-.23,.28-.3,.41-.63-.18-1.17-.44-1.63-.81-.54,.4-1.17,.66-1.84,.85-.06-.12-.16-.31-.24-.4,.63-.14,1.23-.39,1.74-.75-.51-.5-.89-1.13-1.15-1.86h-.21c-.11,.94-.45,1.98-1.39,2.87-.07-.12-.22-.29-.31-.37,1.23-1.14,1.33-2.59,1.33-3.61v-.52h-1.02v-.42h3.55c-.11,.53-.26,1.18-.4,1.65h1.18l.08-.02,.3,.13h.02Zm-3.29-.83c0,.22,0,.45-.02,.71h1.27c.1-.36,.22-.81,.31-1.23h-1.56v.52Zm.57,1.12c.23,.63,.61,1.16,1.07,1.59,.46-.41,.83-.93,1.06-1.59h-2.14Z"/><path class="b" d="M298.96,108.41v.39h-3.94v1.33c0,.9-.12,2.12-.91,2.92-.07-.08-.22-.23-.31-.29,.46-.48,.66-1.1,.75-1.68-.27,.15-.53,.31-.76,.44l-.15-.4c.27-.1,.6-.29,.95-.48,.01-.19,.02-.35,.02-.53v-1.72h2.04c-.05-.19-.13-.41-.2-.57l.45-.09c.09,.21,.19,.48,.24,.67h1.82Zm-4.79,1.7c-.07-.29-.26-.74-.44-1.07l.32-.16c.2,.32,.41,.78,.46,1.05l-.33,.18h-.01Zm1.1-.81h3.64v.38h-1.68v.59h1.51v2.28c0,.22-.04,.33-.2,.41-.17,.07-.43,.07-.83,.07-.02-.11-.08-.28-.14-.39,.31,.01,.58,0,.65,0,.09,0,.11-.02,.11-.1v-1.9h-1.12c0,.1-.02,.21-.04,.31,.36,.32,.8,.75,1.03,1.03l-.29,.24c-.19-.24-.53-.61-.86-.92-.14,.34-.42,.7-.92,.96-.05-.08-.18-.22-.27-.3,.73-.34,.91-.89,.94-1.34h-1.03v2.4h-.4v-2.78h1.43v-.59h-1.56v-.38l.02,.02Z"/><path class="b" d="M302.34,107.78c0,.21-.01,.5-.04,.84,.09,.69,.43,3.11,2.48,4.03-.12,.1-.25,.24-.31,.37-1.45-.68-2.07-2.11-2.35-3.19-.27,1.16-.89,2.46-2.3,3.21-.08-.12-.21-.24-.34-.33,2.41-1.22,2.37-4.04,2.39-4.91h.47Z"/><path class="b" d="M309.93,108.54v4.49h-.44v-.3h-3.09v.32h-.43v-4.51h1.46c.09-.25,.18-.56,.22-.8l.5,.07c-.09,.25-.19,.51-.29,.73h2.07Zm-3.54,.41v.86h3.09v-.86h-3.09Zm0,1.27v.84h3.09v-.84h-3.09Zm3.09,2.1v-.86h-3.09v.86h3.09Z"/><path class="b" d="M316.27,112.44v.42h-5.12v-.42h2.32v-1.43h-1.78v-.41h1.78v-1.27h-2.06v-.42h2.55c-.22-.26-.64-.63-.98-.89l.34-.24c.38,.26,.83,.66,1.06,.93l-.28,.2h1.87v.42h-2.06v1.27h1.83v.41h-1.83v1.43h2.36Z"/><path class="b" d="M322.11,112.65h-2.6v.41h-.42v-3.39c-.14,.24-.31,.46-.46,.65l-.02-.02,.05,.38-.66,.21v1.64c0,.24-.05,.37-.2,.44-.14,.07-.35,.09-.73,.08-.01-.12-.07-.3-.13-.42h.54c.08,0,.1-.02,.1-.1v-1.5l-.67,.22-.11-.42c.22-.07,.5-.14,.79-.23v-1.28h-.74v-.4h.74v-1.15h.42v1.15h.64v.4h-.64v1.15l.58-.18c-.08-.09-.2-.21-.28-.26,.51-.54,.94-1.37,1.19-2.22l.41,.1c-.1,.3-.22,.61-.34,.9h1.14c-.07-.23-.24-.59-.4-.84l.38-.14c.18,.26,.35,.61,.42,.84l-.33,.14h1.23v.4h-1.11v.75h1.01v.39h-1.01v.76h1.01v.39h-1.01v.79h1.22v.4h.01Zm-1.63-3.47h-.97v.75h.97v-.75Zm0,1.14h-.97v.76h.97v-.76Zm-.97,1.94h.97v-.79h-.97v.79Z"/><path class="b" d="M323.56,109.9c0,.92-.08,2.22-.61,3.1-.08-.07-.25-.18-.35-.22,.51-.84,.55-2.03,.55-2.88v-1.65h2.22c-.04-.14-.09-.29-.14-.42l.43-.09c.07,.15,.14,.35,.19,.51h2.01v.38h-4.3v1.27Zm1.78,2.52c-.5,.22-1.15,.48-1.6,.65-.06-.09-.15-.23-.22-.31,.45-.15,1.12-.42,1.49-.62l.34,.28h-.01Zm2.57-2.43v.28h-4.18v-.28h4.18Zm-3.32-.18v-.5h-.73v-.28h.73v-.33h.41v.33h1.49v-.33h.43v.33h.74v.28h-.74v.5h-2.33Zm2.91,2.31h-3.48v-1.65h3.48v1.65Zm-3.08-.97h1.14v-.4h-1.14v.4Zm0,.69h1.14v-.41h-1.14v.41Zm.58-2.52v.28h1.49v-.28h-1.49Zm2.09,1.44h-1.13v.4h1.13v-.4Zm0,.68h-1.13v.41h1.13v-.41Zm-.75,.72c.55,.2,1.15,.43,1.54,.62l-.21,.31c-.36-.19-.95-.43-1.49-.64l.18-.29h-.01Z"/><path class="b" d="M333.4,108.78v2.71h-.44v-.33h-1.66v1.88h-.44v-1.88h-1.66v.35h-.42v-2.74h2.08v-1.03h.44v1.03h2.1Zm-2.56,1.97v-1.54h-1.66v1.54h1.66Zm2.11,0v-1.54h-1.66v1.54h1.66Z"/><path class="b" d="M335.2,109.88c-.09,.68-.28,1.66-.51,2.27l-.43-.18c.26-.59,.44-1.49,.52-2.17l.42,.08Zm.94-.52v2.85c0,.26,.07,.32,.4,.32h1.11c.35,0,.41-.2,.45-1.21,.1,.08,.29,.16,.41,.19-.07,1.1-.2,1.42-.84,1.42h-1.16c-.63,0-.8-.15-.8-.73v-2.85h.43Zm.12-1.39c.54,.38,1.23,.92,1.56,1.28l-.31,.32c-.32-.35-.99-.93-1.54-1.32l.29-.29Zm2.52,1.68c.33,.69,.65,1.58,.77,2.17l-.42,.17c-.11-.6-.43-1.51-.75-2.19l.4-.15h0Z"/><path class="c" d="M254.44,110.61c.07-.14,.1-.31,.1-.5,0-.32-.12-.56-.27-.74,.18-.22,.29-.51,.3-.88,.01-.45-.17-.74-.32-.91,0-.01-.02-.02-.03-.03-.11-.11-.29-.24-.54-.3-.12-.03-.31-.05-.38-.05h-1.06c.03-.18,.06-.35,.06-.52,0-.41-.13-.78-.37-1.15-.06-.09-.12-.17-.19-.24,.07-.19,.09-.4,.04-.6v-.04c.15-.21,.29-.45,.38-.72,.14-.43,.17-.91,.05-1.33-.15-.6-.52-1.06-1.1-1.4-.13-.08-.27-.11-.41-.13,0,0-.01-.02-.02-.03,.01,0,.02-.02,.03-.03,.15-.1,.28-.22,.37-.38,.13-.23,.19-.61,.14-.86-.04-.23-.13-.45-.3-.69-.14-.21-.33-.39-.56-.55-.02-.02-.09-.07-.12-.08-.21-.12-.44-.21-.69-.25,0,0-.12-.01-.13-.02-.06,0-.21-.02-.27-.02-.15,0-.28,.02-.32,.03h-.04l-.04-.04c-.13-.14-.29-.25-.46-.31-.02-.11-.06-.22-.09-.33-.28-.76-.94-1.31-1.73-1.42-.06,0-.2-.02-.24-.02-.06,0-.15,0-.21,.02-.03,0-.11,.02-.15,.03-.13,.03-.24,.09-.34,.14-.01-.1-.04-.19-.08-.29-.14-.34-.42-.61-.81-.76-.15-.06-.31-.1-.46-.12-.1-.01-.2-.02-.31-.02-.24-.02-.49,.04-.57,.07-.07,0-.22,.03-.38,.1-.19,.08-.32,.18-.42,.25-.07,.04-.22,.15-.28,.21-.15,.15-.26,.31-.3,.38-.06,.07-.15,.22-.19,.31v.03s-.04-.01-.08-.01h-.2c-.07-.1-.14-.19-.21-.25-.15-.17-.34-.3-.55-.4-.2-.1-.41-.17-.62-.21-.08-.02-.15-.03-.25-.03-.15-.02-.3-.04-.46-.02-.13,0-.27,.03-.38,.06-.06,0-.19,.03-.24,.04-.22,.07-.43,.15-.63,.27-.26,.14-.48,.35-.64,.63-.12,.22-.19,.45-.21,.69-.01,.25,.06,.5,.19,.73-.24-.14-.48-.17-.55-.18-.1-.01-.28-.01-.38,0-.29,.03-.55,.13-.8,.29-.7,.44-1.07,1.27-.94,2.07,.03,.2,.09,.4,.17,.58,.04,.1,.1,.2,.16,.29-.08,.1-.13,.22-.17,.34-.06,.01-.09,.02-.11,.03-.1,.01-.26,.06-.35,.09-.25,.11-.51,.27-.73,.47-.46,.42-.73,.96-.74,1.55,0,.2,.01,.4,.07,.6,.07,.27,.2,.5,.39,.65-.06,.29,.02,.58,.18,.81-.02,.01-.04,.03-.08,.06-.03,.02-.11,.1-.14,.13-.23,.22-.39,.5-.48,.82v.04c-.04,.13-.06,.3-.03,.43,0,.08,.02,.14,.04,.21h-.48c-.24,.02-1.04,.2-1.1,1.29-.01,.28,.04,.5,.13,.66,0,.02-.02,.05-.02,.07s-.01,.04-.02,.08c-.04,.13-.08,.28-.08,.45v2.31h-.03v.02c0,.11,0,.21,.03,.3,0,.03,.02,.07,.03,.1,.01,.06,.03,.11,.06,.15,.01,.03,.03,.06,.04,.09,.02,.04,.04,.08,.08,.12,.01,.02,.03,.03,.04,.06,.02,.02,.04,.06,.06,.07h.01l.02,.03s.09,.04,.13,.08c.09,.07,.18,.12,.29,.15,.04,.01,.08,.01,.12,.02,.1,.02,.19,.06,.29,.06h.41s.07,0,.1-.01c.08,0,.14-.02,.21-.04h.03c.09-.04,.16-.08,.22-.11l.03-.02c.07-.04,.13-.09,.18-.13,0,0,.01-.02,.02-.03,.05-.07,.11-.14,.15-.23,.01-.02,.02-.03,.03-.06,.06-.12,.1-.24,.12-.38h.09c.21,0,.39-.03,.54-.08,.14,.25,.32,.49,.55,.66-.12-.01-.23-.02-.35-.02h-.04c-1.37,.01-2.38,.91-2.49,2.21-.11,1.25,.6,2.29,1.75,2.59,.28,.08,.55,.11,.82,.11,.07,0,.13-.02,.2-.02,.14,0,.29-.01,.43-.04,.09,.02,.19,.03,.3,.03h.22c.09,0,.17-.02,.25-.03,.08,0,.15,0,.23-.03,.04-.01,.08-.04,.11-.06,.02,.01,.06,.02,.08,.03,.06,.02,.11,.03,.15,.04,.02,0,.04,.01,.07,.02,.09,.01,.17,.02,.23,.02h.03c.07,0,.14,0,.22-.01h.07c.09,0,.18-.03,.26-.04,.04,0,.1,0,.14-.02,.15-.06,.29-.13,.41-.23,.21,.2,.45,.26,.62,.29,.07,0,.13,.01,.18,.01h.63c.23,0,.45-.08,.63-.21,.32,.15,.68,.24,1.04,.25h.13c.23,0,.49-.03,.73-.09,.37-.09,.7-.25,.99-.49,.18,.16,.39,.29,.62,.38,.32,.12,.67,.19,1.05,.19,.13,0,.28,0,.43-.02,.34-.03,.65-.14,.93-.3,.09,.07,.19,.12,.3,.17,.14,.06,.3,.09,.44,.09h.36c.17,0,.31-.03,.43-.09,.02,0,.03,0,.05-.02,.15-.07,.28-.15,.34-.22v-.02h.02c.05-.07,.11-.15,.15-.23,.01-.02,.03-.03,.04-.06,.06-.11,.1-.24,.12-.37,.1,0,.21-.02,.32-.04v.09s.01,.04,.02,.07c.02,.07,.03,.13,.05,.19,0,.02,.02,.03,.03,.04,.02,.06,.05,.11,.09,.15,.03,.07,.08,.11,.11,.14l.03,.03c.12,.12,.29,.23,.55,.3,.1,.02,.2,.03,.32,.03h1.84s.19,.01,.23,.01c.2,0,.35-.04,.49-.1,.02,0,.06-.02,.08-.03,.19-.09,.32-.21,.4-.3,.25-.29,.3-.62,.3-.8v-.13h0c.01-.13,0-.23,0-.33,0-.04-.02-.09-.03-.13-.01-.06-.02-.1-.04-.14-.01-.03-.02-.04-.03-.08-.02-.04-.04-.1-.08-.14-.03-.06-.08-.1-.1-.14l-.02-.02v-.14c.35-.41,.31-.87,.29-1.02,.03-.48-.18-.79-.31-.92-.02-.02-.04-.03-.06-.06,.22-.07,.44-.14,.68-.29,.61-.4,.92-1.06,.82-1.79-.02-.19-.08-.36-.15-.53l.03,.06Zm-12.79,4.89s-.02,.02-.03,.02l-.03-.03,.02-.41h.02s.06,.03,.09,.07c.03,.04,.07,.08,.07,.11,0,.1-.07,.19-.12,.24h-.01Zm-.12-.08s-.02-.02-.02-.04c-.02-.06-.03-.1-.02-.15,.01-.04,.06-.1,.11-.14l-.02,.39s-.03-.03-.04-.06h0Zm2.36-4.83v-.75h.06v.75h-.06Zm-3.92,2.72h.1s-.03,.03-.05,.04c-.02-.01-.03-.03-.04-.04Z"/><path class="f" d="M250.77,102.48c.01,.19,.06,.38,0,.56-.04,.2-.12,.35-.33,.42-.22,.07-.43,.03-.63-.11-.02-.01-.04-.03-.03-.08,.13,0,.25,.07,.39,.02,.03-.01,.1,0,.09-.07,0-.06-.06-.03-.09-.03-.35-.02-.65-.17-.93-.38-.22-.18-.34-.21-.51-.18,0,.04,.07,.04,.08,.1h-.1c-.29,.05-.46,.2-.54,.52-.04,.2-.07,.41-.12,.61-.08,.34-.32,.46-.64,.33-.14-.06-.28-.15-.41-.23-.18-.11-.35-.21-.57-.23,.08-.12,.23-.17,.41-.12,.1,.02,.2,.08,.29,.12,.06,.03,.11,.07,.17,.1,.3,.18,.44,.1,.49-.25,.01,0,.02-.02,0-.03v.02c-.2,.12-.39,.1-.59,.02-.37-.13-.41-.13-.75-.1,.12-.2,.33-.32,.55-.28,.31,.07,.55-.01,.76-.25,.11-.13,.24-.24,.39-.33,.27-.18,.54-.22,.84-.11,.1,.03,.15,.02,.23-.04,.08-.08,.14-.15,.28-.21-.04,.13-.12,.23-.18,.32-.03,.06-.03,.1,.03,.13,.18,.1,.35,.21,.55,.27,.35,.11,.59-.04,.63-.42,.01-.14,0-.29,0-.46,.31,.19,.5,.41,.59,.73,.11,.44-.07,.99-.42,1.25-.31,.23-.64,.22-.97,.08-.11-.04-.22-.12-.32-.19-.26-.14-.38-.13-.59,.08-.03,.03-.08,.07-.14,.11l.74,.3v.02c-.24-.03-.49-.07-.72-.1-.11-.02-.2,0-.29,.08-.35,.31-.76,.38-1.19,.2,.03,.18,.05,.2,.22,.2,1.07,0,2.16,0,3.24,.02l-2.28,1.02c.15,.04,.26,0,.38-.01,.3-.07,.57-.19,.87-.24,.53-.1,1.06,.08,1.33,.48,.24,.38,.23,.76,.04,1.15-.01,.02-.03,.04-.04,.07-.07,.09-.13,.17-.26,.13-.12-.03-.08-.15-.08-.23,0-.09,.01-.18,.02-.27,.02-.4-.24-.6-.62-.5-.24,.07-.41,.23-.61,.38-.12,.09-.15,.17-.08,.3,.08,.14,.12,.3,.15,.48-.11-.14-.23-.28-.34-.42-.05-.08-.1-.07-.17-.02-.2,.13-.41,.23-.65,.22,0,.04,.03,.04,.05,.06,.43,.25,.87,.52,1.31,.77,.08,.05,.15,.06,.23,.06h3.33c.13,0,.17,.03,.15,.17q0,.28-.28,.28h-20.58c-.14,0-.19-.03-.18-.18,.01-.25,0-.25,.27-.25h3.09c.11,0,.18-.03,.24-.13,.19-.33,.39-.65,.58-.97v-.03h-.02c-.15,.11-.31,.22-.49,.3-.39,.19-.76,.17-1.13-.07-.15-.1-.29-.21-.43-.32-.15-.11-.31-.22-.51-.21-.09,0-.05-.04-.04-.09,.09-.34,.33-.5,.71-.42,.1,.02,.21,.04,.31,.08,.21,.08,.4,.03,.56-.1,.22-.17,.41-.35,.61-.56l-1.66-.9v-.02h4.21c.08,0,.17,0,.24-.02,.08-.02,.17-.04,.15-.14,0-.1-.08-.15-.17-.18-.15-.04-.32-.02-.47,0-.44,.06-.89,.17-1.34,.19-.37,.01-.69-.09-.96-.33-.08-.07-.13-.08-.22-.05-.18,.06-.35,.11-.53,.13,.14-.08,.3-.17,.44-.24,.08-.03,.08-.07,.02-.12-.09-.09-.18-.18-.28-.25-.29-.24-.61-.28-.96-.15-.13,.04-.25,.11-.38,.18-.1,.07-.13,.02-.15-.07-.1-.43,.03-.78,.34-1.07,.53-.49,1.16-.48,1.71-.01,.14,.12,.28,.25,.43,.36,.15,.1,.31,.13,.49,.08,.1-.03,.13-.06,.04-.15-.37-.42-.72-.84-1.09-1.25-.02-.03-.04-.07-.08-.1l.02-.02c.4,.2,.81,.39,1.21,.59,.27,.12,.52,.26,.82,.4-.05-.18-.12-.32-.15-.46-.04-.24-.17-.38-.42-.4-.19-.02-.37-.09-.54-.15l.82,.07c-.07-.24-.2-.41-.39-.53-.21-.14-.45-.21-.69-.28-.45-.14-.71-.45-.79-.92-.08-.5,.3-1.03,.79-1.08h.08c.21,.02,.21,.03,.14,.22-.2,.59,.1,1.05,.72,1.12,.1,0,.2,.01,.3,0,.13,0,.12-.07,.09-.15-.1-.32-.2-.65-.29-.97,.06,0,.07,.03,.09,.04,.85,.86,1.7,1.73,2.56,2.59,.09,.09,.06,.12-.02,.17-.33,.2-.71,.15-1.01-.12-.28-.24-.43-.56-.55-.91-.07-.2-.17-.37-.37-.44-.17-.07-.34-.06-.52-.02-.22,.03-.45,.09-.67,.13-.1,.02-.2,.03-.29,0-.11-.03-.1,.02-.08,.09,.02,.08,.08,.12,.15,.14,.1,.03,.2,.06,.29,.08,.39,.09,.59,.34,.64,.72,.06,.34,.13,.66,.35,.95,.25,.33,.58,.51,1.01,.46h.14c-.09,.14-.22,.19-.37,.2-.21,.02-.42-.01-.63,.02-.22,.03-.41,.13-.56,.34,.33-.01,.59,.11,.8,.34,.09,.1,.19,.21,.28,.31,.12,.13,.24,.27,.42,.33,0,.02,.03,.03,.04,.01,.01-.02-.01-.02-.02-.03-.18-.17-.29-.39-.4-.6-.1-.2-.22-.38-.46-.45,.12-.03,.21,0,.29,.08,.09,.08,.19,.09,.3,.06,.35-.11,.5-.3,.53-.7,.32,.07,.44,.48,.22,.74-.1,.11-.22,.2-.33,.29-.06,.04-.12,.09-.14,.17,.07,.03,.11-.07,.19-.04-.12,.26-.04,.49,.13,.72,.01-.1,.02-.18,.03-.24,0-.04,0-.1,.04-.11,.06-.01,.06,.06,.07,.09,.18,.33,.44,.57,.82,.63,.18,.03,.35,.03,.55-.02-.13-.07-.26-.11-.37-.19v-.02c.41,.06,.7-.15,.92-.44,.26-.35,.34-.75,.3-1.18,0-.03-.04-.09,.02-.11,.04-.01,.09,.02,.11,.06,.04,.06,.03,.12,.02,.19-.08,.36,.03,.71,.08,1.06,.02,.13,.15,.09,.23,.12,.06,.02,.18-.03,.17,.06,0,.07-.12,.03-.18,.03h-.28c-.07,0-.11,.02-.14,.07-.04,.04-.09,.1-.08,.17,.02,.08,.1,.08,.15,.09,.31,.07,.62,.06,.94-.01-.06,.13-.15,.17-.27,.19-.28,.06-.55,.03-.82-.03-.13-.03-.12,.03-.09,.11,.02,.08,.08,.14,.14,.2,.1,.09,.21,.16,.32,.22,.14,.09,.28,.09,.42-.03,.09-.08,.19-.17,.3-.22l-.06,.14c.12-.02,.23-.07,.32-.13,.12-.1,.12-.21,0-.31-.02-.02-.07-.03-.04-.08,.01-.03,.04-.03,.08-.04,.09,0,.15,.02,.2,.09,.06,.08,.06,.17,0,.24-.07,.1-.17,.17-.27,.22-.15,.08-.3,.15-.45,.23-.22,.12-.24,.2-.18,.44,0,.03,.02,.07,.03,.1,.1,.23,.15,.28,.41,.28,.13,0,.27,0,.4-.01,.16-.01,.26-.09,.33-.22,.11-.23,.23-.45,.33-.7,.06-.13,.06-.25-.01-.39-.15-.33-.35-.64-.54-.95-.09-.15-.08-.23,.09-.29,.2-.08,.41-.13,.61-.2-.09,.14-.21,.25-.29,.4-.11,.21-.05,.31,.19,.32h.29c-.18,.12-.28,.26-.26,.47,0,.09,.03,.14,.12,.18,.48,.18,.74,.54,.91,1,.14,.38,.21,.79,.33,1.17,.1,.31,.22,.6,.5,.8,.07,.04,.14,.09,.22,.13-.28,.07-.55-.04-.74-.3-.18-.24-.25-.52-.32-.81-.03-.17-.07-.34-.1-.51-.01,.29-.03,.58,.03,.86,.05,.22,.17,.42,.32,.59,.14,.17,.31,.25,.54,.24,.59-.01,1.17,0,1.76,0,.04,0,.1,.01,.15-.02-.12-.21-.32-.3-.55-.32l-.53-.07c-.53-.09-.85-.44-1.08-.9-.13-.28-.25-.55-.39-.83-.21-.45-.43-.9-.83-1.22,.25,.04,.42,.21,.57,.39,.24,.28,.41,.61,.59,.94,.1,.2,.21,.39,.3,.59,.2,.41,.53,.63,.96,.72,.25,.06,.51,.11,.75,.17,.29,.07,.49,.22,.61,.49,.02,.06,.06,.09,.11,.07,.07-.02,.02-.08,.01-.12-.1-.45-.31-.64-.8-.74-.19-.03-.38-.07-.55-.11-.45-.1-.8-.35-1.02-.76-.1-.18-.2-.36-.3-.54-.29-.54-.62-1.04-1.16-1.41,.26-.09,.48-.07,.7,.03,.29,.12,.5,.33,.69,.57,.29,.36,.55,.75,.85,1.12,.23,.29,.5,.53,.89,.61,.24,.06,.46,.01,.68-.11,.29-.17,.52-.41,.77-.62,.19-.16,.38-.29,.63-.31,.53-.04,.94,.33,.95,.86,0,.13-.01,.28-.04,.43,.28-.34,.17-1-.21-1.26-.37-.24-.76-.28-1.17-.11-.22,.09-.44,.18-.68,.23-.54,.12-.94-.09-1.26-.51-.15-.2-.3-.4-.44-.6-.42-.56-.53-.65-1.17-.9,.15-.13,.32-.18,.52-.13,.22,.04,.41,.17,.6,.29,.13,.08,.26,.17,.4,.22,.3,.11,.57,.03,.75-.24,.13-.2,.21-.42,.29-.64,.15-.48,.4-.55,.81-.28,.09,.07,.18,.13,.25,.21,.28,.26,.71,.42,1.14,.17h.02c-.02,.11-.11,.15-.17,.21-.05,.04-.08,.09-.03,.15,.05,.07,.11,.02,.15,0,.22-.2,.31-.46,.35-.74,.02-.18,.02-.35-.04-.53-.03-.09-.08-.18-.17-.23l-.02-.02v.03l.07-.09Zm-8.9,4.97v-.02h-.02l.02,.02,.02,.03s.02,.04,.03,.06c.19,.19,.32,.41,.25,.69,0,.02-.01,.06,.01,.06,.07,.02,.14,.02,.22,0,.07-.02,.03-.09,.03-.13-.05-.32-.28-.51-.53-.69,0-.01-.02-.02-.04-.01Zm-1.96-2.1s-.03,.02-.03,.05l-.03,.02s-.03,.03-.06,.04c-.4,.43-.56,.96-.6,1.54-.02,.41,.03,.81,0,1.22,0,.07,.02,.09,.09,.09h.13c.12,.02,.17-.03,.2-.14,.12-.42,.17-.85,.21-1.28,.03-.43,.05-.87,.24-1.28,0-.01,.01-.03-.02-.04-.15,.18-.23,.4-.3,.62-.13,.48-.15,.99-.22,1.47-.02,.19-.04,.26-.12,.37-.1-.92-.05-1.78,.47-2.58l.02-.03s.03-.03,.02-.06t.01-.01v.02h-.01Zm8.21-.87l.06-.03c.33-.21,.6-.48,.81-.8,.03-.04,.06-.11,.07-.17,.02-.07,.02-.14-.06-.18-.08-.03-.14-.02-.2,.04-.05,.07-.1,.14-.13,.22-.14,.3-.28,.61-.51,.84l-.04,.04-.04,.02s.04,.01,.06,0Zm-5.41,3.16v-.02h-.02l.02,.02c.03,.2,.12,.39,.11,.6,0,.08,.07,.05,.1,.06,.07,0,.07-.04,.06-.09-.03-.21-.11-.41-.28-.56h.01Zm.5-.22s.01,.08,.03,.1c.1,.22,.11,.44,.07,.67,0,.04-.03,.09,.04,.1,.06,0,.1,0,.11-.08,.03-.31-.03-.58-.25-.8Zm1.53,.38c.15,.09,.23,.24,.31,.4,.03,.07,.08,.11,.15,.1,.09-.01,.24,.03,.26-.02,.02-.09-.11-.13-.19-.19-.49-.38-.95-.75-.97-1.45-.04,.11-.07,.22-.07,.34-.03,.51,.26,.88,.49,1.29,.03,.06,.12,.04,.17,.02,.06-.02,0-.08,0-.12-.04-.12-.1-.23-.15-.35l.02-.02h-.01Zm-6.1-.87l-2.4,1.33c.29,.03,.55,.03,.83,.03,.08,0,.17,0,.24-.02,.35-.1,.7-.2,1.05-.3,.07-.02,.11-.06,.13-.12,.1-.29,.13-.59,.13-.93h.01Zm-1.15-3.43h-.23c-.38,.01-.69-.11-.94-.38-.07-.08-.13-.15-.21-.24-.09-.1-.18-.19-.31-.22-.03-.01-.09-.04-.1,.02-.02,.15-.1,.08-.14,.03-.22-.2-.62-.12-.79,.01-.05,.04-.1,.1-.08,.18,.02,.08,.09,.1,.17,.11h.32c.29-.02,.5,.09,.64,.33,.21,.35,.54,.52,.94,.57,.34,.04,.64-.12,.72-.4v-.02Zm-1.02,2.19c.33-.06,.43-.06,.64,.04,.14,.07,.28,.15,.42,.23,.14,.08,.28,.15,.44,.19,.18,.03,.39-.06,.49-.21-.28,.08-.53,.02-.75-.13-.25-.18-.51-.36-.87-.33,.16-.14,.3-.17,.47-.13,.22,.04,.42,.17,.63,.24,.38,.14,.75,.11,1.12-.04,.17-.07,.28-.19,.32-.38-.02,0-.03,0-.04,.01-.43,.28-.9,.35-1.38,.2-.21-.07-.42-.14-.63-.19-.39-.08-.71,.11-.82,.46l-.02,.03Zm4.75,.22c.12,.18,.3,.2,.48,.23-.12,.14-.27,.04-.41,.07,.02,.03,.03,.06,.06,.07,.24,.19,.52,.22,.81,.21,.04,0,.08-.04,.11-.08,.09-.13,.14-.27,.15-.42,0-.09-.01-.13-.1-.17-.21-.09-.43-.17-.65-.21-.2-.04-.39-.08-.62-.04,.17,.17,.38,.22,.56,.33-.13,.08-.25,.04-.39,.02h0Zm-4.29,.54c-.23-.09-.42-.06-.6,.09-.12,.1-.23,.2-.34,.3-.21,.19-.43,.34-.73,.32-.08,0-.08,.04-.07,.1,.02,.13,.18,.22,.35,.2,.4-.04,.73-.2,.98-.52,.12-.17,.23-.34,.41-.49h-.01Zm3.89,.56l.04,.03c.18,.31,.39,.6,.6,.88,.06,.08,.1,.15,.09,.25,0,.08,.03,.1,.11,.1s.07-.07,.06-.11c-.02-.22-.14-.39-.28-.54-.12-.14-.23-.29-.34-.43-.11-.15-.2-.32-.25-.5-.06-.17-.09-.34-.11-.55-.12,.65-.09,1.25,.24,1.82,.05,.08,.08,.17,.11,.25,.02,.04,.03,.08,.1,.08,.17,.01,.19,0,.14-.17-.05-.22-.18-.4-.3-.59-.1-.15-.19-.31-.2-.52h-.01Zm-3.41-3.07c-.29,0-.57,.05-.83,.18-.06,.03-.11,.07-.11,.14s.07,.11,.12,.13c.1,.06,.22,.07,.33,.08,.3,.03,.59,0,.86-.11,.09-.03,.19-.09,.18-.21,0-.12-.11-.16-.21-.2-.11-.03-.23-.04-.35-.03v.02Zm-.7-4.97c-.18-.02-.33,.09-.41,.29-.11,.3-.06,.58,.17,.81,.2,.22,.64,.3,.93,.19-.59-.18-.92-.6-.68-1.28h-.01Zm3.54,6.82c-.11,.2-.13,.42-.15,.63-.07,.6-.05,1.22-.31,1.78,0,.02-.03,.04,0,.07,.09,.06,.26-.01,.3-.11,.12-.32,.17-.66,.18-1,.01-.45-.07-.92,0-1.38h-.01Zm2.35,.91h-.71s-.09-.01-.11,.03c-.01,.03,0,.07,.02,.1,.02,.04,.07,.06,.1,.07,.25,.06,.52,.1,.77,.09,.2-.01,.4-.04,.6-.09,.09-.02,.13-.08,.12-.15,0-.08-.09-.04-.13-.04h-.66Zm-8.37,0c.3-.04,.55,.07,.81,.2,.19,.1,.4,.08,.57-.04,.08-.06,.12-.13,.11-.23-.01-.09-.03-.14-.14-.08-.21,.12-.43,.13-.65,.06-.08-.03-.16-.06-.23-.08-.21-.06-.37,0-.46,.19h0Zm.02-3.1h.03c.38-.2,.76-.24,1.16-.07,.08,.03,.09-.01,.09-.07,0-.14-.09-.26-.25-.32-.36-.13-.86,.09-1.04,.45h.01Zm14.91,3.19c.1-.1,.18-.2,.27-.29,.15-.14,.31-.26,.52-.33,.25-.08,.48,0,.66,.18-.08-.19-.21-.3-.4-.34-.42-.09-.98,.32-1.05,.78h0Zm-10.96-1.54s.03,.02,.04,.02c.43,.04,.82-.08,1.16-.32l.02-.02s.08-.08,.03-.13c-.03-.04-.09-.03-.13,0-.08,.04-.15,.1-.23,.14-.26,.18-.55,.31-.9,.32h0Zm5.38,1.95c.13,.43,.14,.61,.08,.94,0,.04-.07,.11,.04,.12,.08,0,.13,0,.13-.11v-.44c-.01-.19-.09-.36-.24-.52h-.01Zm-1.52-1.73c-.08-.04-.14-.08-.21-.12-.15-.11-.18-.23-.03-.38,.07-.07,0-.08-.03-.09-.13-.03-.25,.09-.24,.24,.02,.19,.29,.38,.52,.34Zm-1.74,2.81h.38c.07,0,.09-.01,.06-.08-.04-.11-.1-.21-.19-.3l-.23,.39h-.01Zm3.63-.57c.06,.17,.11,.33,.18,.5,.02,.08,.09,.04,.14,.06,.03,0,.04-.01,.03-.04-.08-.2-.15-.39-.34-.51h-.01Zm-5.22-.01c-.09,.15-.16,.32-.24,.48-.01,.02-.06,.06-.02,.08,.03,.02,.09,.02,.13,0,.02-.02,.03-.06,.04-.08,.06-.15,.1-.3,.1-.46h-.01Z"/><path class="f" d="M242.27,98.56c.12,.14,.21,.31,.32,.46,.05,.08,.08,.08,.13,0,.15-.27,.2-.54,.12-.84-.09-.31-.2-.62-.19-.96,.01-.6,.57-1.13,1.16-1.1,.15,0,.3,.01,.44,.08,.22,.09,.25,.27,.08,.43-.09,.08-.19,.14-.29,.22-.42,.34-.47,.98-.11,1.38,.06,.07,.11,.12,.17,.18q.12,.12,.23,0c.23-.25,.45-.52,.69-.77,.02-.02,.03-.04,.09-.04l-1.18,3.33c-.23-.37-.23-.72-.03-1.07,.08-.13,.17-.26,.24-.4,.15-.24,.14-.5,.01-.74-.09-.17-.21-.3-.33-.43-.19-.21-.35-.43-.35-.74s.12-.59,.39-.76c.11-.07,.22-.12,.33-.19,.06-.03,.11-.07,.1-.13-.01-.08-.08-.09-.14-.11-.41-.09-.95,.31-.99,.73-.02,.29,.07,.54,.19,.8,.1,.2,.18,.4,.21,.61,.05,.3-.02,.55-.19,.8-.09,.14-.19,.28-.29,.4-.3,.39-.41,.79-.17,1.24l-.02,.02c-.27-.12-.31-.35-.33-.61-.08,.25-.09,.51,.07,.74,.1,.15,.26,.17,.42,.12,.03,0,.07-.04,.1,0,.02,.03,0,.07,0,.11-.03,.09-.1,.13-.19,.13-.19,.01-.33-.07-.45-.2-.18-.19-.25-.43-.28-.68-.04-.41,.01-.8,.24-1.15,.03-.06,.03-.11,0-.17-.08-.22-.18-.42-.23-.65l.03-.03Zm1.05-.11c-.04,.33-.24,.59-.44,.84-.1,.13-.21,.25-.29,.41-.08,.14-.14,.29-.13,.45,.06-.14,.14-.27,.24-.38,.11-.13,.23-.26,.34-.39,.23-.27,.35-.58,.28-.94Z"/><path class="f" d="M241.6,97.43l.51,2.84c-.3-.3-.72-.37-1.06-.58-.44-.25-.55-.67-.51-1.15,.03-.3,.06-.59,.06-.89-.01-.56-.28-.86-.83-.93-.11-.01-.22,0-.37,0,.14,.07,.27,.11,.38,.19,.27,.18,.37,.42,.3,.74-.05,.27-.18,.5-.29,.74-.13,.29-.26,.56-.31,.89-.07,.41,.08,.72,.39,.97,.1,.08,.21,.14,.32,.22,.25,.17,.45,.38,.53,.69,.04,.17,.02,.29-.09,.43-.02-.47-.33-.74-.7-.94-.44-.23-.72-.59-.82-1.08-.01-.07-.05-.08-.09-.11-.21-.1-.42-.2-.63-.32,.2,.04,.41,.08,.61,.12,.08,.02,.1,0,.11-.08,.04-.33,.19-.63,.29-.95,.06-.2,.09-.4,.07-.6-.02-.18-.12-.28-.3-.27-.14,0-.27,.06-.41,.07-.11,.01-.24,.07-.32-.06-.09-.12-.07-.27,0-.4,.05-.09,.12-.17,.21-.21,.51-.29,1.04-.32,1.57-.07,.39,.19,.54,.56,.5,1.05-.03,.35-.07,.72-.04,1.07,.01,.22,.07,.43,.29,.55,.1,.06,.15,.06,.19-.08,.13-.58,.28-1.15,.42-1.73,0-.03,.02-.08,.04-.15h-.01Zm-2.15-.13c-.09-.33-.61-.39-.84-.19-.03,.02-.06,.06-.03,.11,.03,.07,.09,.06,.14,.03,.24-.07,.48-.08,.73,.04Z"/><path class="g" d="M238.91,110.89v-1.17c0-.08,0-.12,.11-.12,.54,0,1.08,0,1.63,.01,.14,0,.28,.03,.4,.1,.41,.19,.52,.72,.22,1.05-.04,.06-.04,.07,0,.11,.42,.4,.28,1.03-.26,1.23-.24,.09-.5,.09-.75,.09h-1.22c-.1,0-.13-.02-.13-.12v-1.17h.01Zm1.18,.8c.19-.01,.42,.02,.65-.03,.2-.04,.29-.22,.2-.39-.06-.11-.17-.15-.29-.17-.38-.04-.76,0-1.14-.02-.07,0-.08,.03-.08,.09v.43c0,.07,.02,.1,.09,.09h.56Zm-.09-1.61h-.46c-.07,0-.1,.01-.1,.09v.33c0,.08,.02,.1,.1,.1h.87c.12,0,.24-.01,.37-.07,.09-.04,.12-.11,.12-.21s-.05-.15-.14-.18c-.04-.01-.09-.02-.13-.03-.2-.02-.4-.03-.61-.02h-.01Z"/><path class="g" d="M235.68,115.71h-.8c-.1,0-.13-.02-.12-.12v-.29c0-.08,.02-.09,.09-.09h1.27c.07,0,.1,.01,.1,.09v1.22c0,.07-.02,.1-.09,.1h-.22c-.11,0-.23,.02-.19-.17-.44,.24-.89,.26-1.35,.13-.71-.19-.97-.83-.92-1.43,.07-.81,.67-1.19,1.4-1.21,.39,0,.74,.08,1.04,.33,.13,.11,.22,.25,.3,.41,.02,.06,.03,.1-.04,.12-.11,.04-.21,.11-.32,.17-.06,.03-.08,.02-.1-.03-.27-.5-.91-.67-1.39-.38-.23,.14-.33,.38-.35,.64-.07,.76,.51,.97,1.02,.94,.26-.02,.51-.1,.65-.37,0-.01,0-.03,.02-.07h0Z"/><path class="g" d="M252.21,109.54c.32,0,.69,.08,1.01,.33,.29,.23,.29,.27,0,.49-.1,.08-.18,.07-.27-.02-.24-.28-.57-.33-.92-.32-.12,0-.24,.01-.36,.06-.11,.04-.22,.1-.21,.23,0,.13,.12,.17,.23,.2,.2,.06,.41,.07,.61,.08,.24,.02,.49,.04,.72,.13,.25,.1,.43,.26,.48,.54,.04,.31-.07,.55-.32,.72-.31,.2-.65,.24-1.01,.24-.53,0-.99-.18-1.32-.6-.06-.07-.07-.1,0-.15,.1-.08,.19-.15,.29-.24,.04-.03,.07-.06,.1,0,.35,.53,.88,.53,1.43,.42,.02,0,.06-.02,.08-.02,.12-.04,.23-.12,.22-.26,0-.14-.13-.18-.24-.2-.29-.07-.59-.08-.87-.11-.17-.02-.33-.06-.49-.11-.22-.09-.4-.23-.43-.48-.03-.28,.03-.53,.28-.71,.28-.2,.6-.23,1.01-.23v.02Z"/><path class="g" d="M238.98,115.52l.79,1.07h-.63c-.07,0-.08-.06-.11-.1-.21-.28-.41-.57-.61-.85-.05-.08-.11-.11-.2-.1h-.5c-.09,0-.11,.02-.1,.11v.83c0,.08-.01,.12-.11,.11-.13-.01-.31,.06-.4-.02-.09-.08-.02-.26-.02-.4v-2.06c0-.09,.01-.12,.11-.12h1.49c.14,0,.29,.03,.42,.08,.32,.11,.5,.33,.51,.66,.01,.33-.15,.59-.45,.72-.06,.02-.11,.04-.18,.07h-.01Zm-.79-.48h.4c.12,0,.24-.01,.36-.06,.16-.07,.2-.28,.08-.4-.06-.06-.13-.07-.2-.08-.38-.06-.75-.01-1.13-.02-.07,0-.07,.03-.07,.08v.39c0,.09,.03,.1,.1,.1h.46Z"/><path class="g" d="M250.03,115.29v-1.17c0-.09,.01-.12,.11-.12h2.11c.09,0,.12,.02,.11,.11,0,.12,.04,.29-.02,.37-.08,.08-.24,.02-.36,.02h-1.29c-.09,0-.12,.02-.11,.11,.01,.12-.06,.3,.02,.37,.07,.07,.23,.02,.35,.02h1c.09,0,.13,.01,.12,.12-.01,.12,.03,.29-.02,.35-.07,.08-.23,.02-.35,.02h-1c-.11,0-.14,.03-.13,.13v.34c0,.1,.02,.12,.12,.12h1.57c.11,0,.15,.02,.14,.14-.01,.11,.03,.27-.02,.33-.07,.08-.22,.02-.34,.02h-1.87c-.12,0-.14-.03-.14-.14v-1.16h.01Z"/><path class="g" d="M241.62,113.95c.51,0,.95,.15,1.26,.59,.55,.8,.13,1.85-.82,2.07-.52,.12-1.03,.06-1.46-.28-.44-.33-.55-.8-.44-1.32,.11-.53,.45-.85,.97-1,.17-.04,.33-.07,.51-.06h-.02Zm0,.49c-.11,0-.22,0-.33,.03-.38,.1-.62,.4-.62,.77,0,.47,.2,.74,.62,.86,.18,.05,.37,.06,.54,.03,.4-.06,.65-.3,.73-.71,.07-.36-.1-.71-.43-.87-.17-.09-.33-.12-.51-.11h0Z"/><path class="f" d="M249.88,99.78c-.26-.42-.71-.51-1.11-.22-.27,.2-.39,.46-.42,.78-.03,.25-.06,.51-.12,.75-.13,.46-.5,.65-.96,.5-.07-.02-.12-.04-.18-.07-.34-.17-.6,0-.77,.2-.1,.11-.18,.22-.28,.32-.13,.13-.25,.15-.44,.08v-.02c.21-.15,.36-.35,.48-.59,.17-.3,.41-.48,.74-.55,.03,0,.07-.02,.11-.02,.64-.1,.94-.51,1.05-1.12,.01-.09,.04-.17,.03-.29,.09,.1,.07,.21,.12,.3,.12-.14,.24-.29,.4-.4,.5-.36,1.16-.25,1.51,.24,.06,.08,.1,.15,.11,.25,.02,.1,0,.15-.12,.13-.15-.03-.3-.03-.45-.01-.3,.04-.48,.22-.55,.5-.06,.19-.07,.38-.08,.58-.01,.14-.01,.3-.03,.44-.01,.1,.01,.13,.11,.12,.28,0,.55,0,.84,.02l-3.32,1.48c.03-.14,.11-.23,.19-.31,.13-.12,.29-.2,.45-.26,.17-.05,.33-.1,.5-.15,.8-.24,1.12-.65,1.13-1.49,0-.18,.02-.34,.07-.51,.07-.21,.2-.36,.41-.45,.03-.01,.11,0,.09-.08-.01-.06-.07-.08-.11-.09-.12-.01-.23,.02-.34,.08-.07,.03-.12,.07-.19,.1h-.01c.14-.41,.46-.56,.85-.4,.1,.04,.19,.1,.28,.15,0,0,.02,.02,.03,0v0Zm-3.1,1.52c.22,.01,.4,.12,.6,.19,.08,.02,.17,.03,.24,0,.09-.03,.18-.12,.11-.19-.11-.12,0-.18,.04-.24,.08-.11,.15-.22,.21-.34,.04-.1,.05-.2,.02-.34-.27,.53-.71,.78-1.23,.93Z"/><path class="g" d="M247,115.29v-1.17c0-.09,.02-.11,.11-.11h1.51c.17,0,.32,.03,.46,.1,.33,.14,.48,.41,.43,.82-.03,.32-.25,.55-.6,.63-.35,.08-.72,.04-1.07,.06q-.31,0-.31,.31v.58c0,.09-.02,.11-.11,.11h-.32c-.09,0-.11-.02-.11-.11v-1.21h.01Zm1.17-.2c.19-.01,.42,.02,.64-.03,.15-.04,.21-.13,.2-.29-.01-.14-.1-.21-.28-.24-.38-.06-.75-.01-1.13-.03-.07,0-.08,.03-.08,.09v.4c0,.09,.03,.11,.11,.11h.53Z"/><path class="g" d="M247.57,112.24c-.34,0-.74-.08-1.04-.41-.41-.44-.44-.97-.24-1.5,.19-.51,.61-.73,1.13-.77,.35-.03,.71,0,1.03,.17,.25,.13,.44,.33,.55,.6,.02,.07,.02,.09-.04,.11-.02,0-.06,.02-.08,.03-.1,.04-.19,.12-.29,.12-.12,0-.1-.15-.17-.23-.24-.3-.57-.34-.92-.32-.37,.03-.63,.2-.74,.56-.18,.63,.17,1.11,.82,1.14,.43,.02,.78-.11,.99-.52,.03-.06,.07-.07,.12-.03,.1,.06,.21,.11,.32,.15,.08,.03,.07,.06,.03,.12-.29,.58-.77,.78-1.46,.78h-.01Z"/><path class="g" d="M232.45,110.89v-1.16c0-.1,.01-.13,.12-.13,.53,0,1.06,0,1.59,.01,.45,.01,.77,.29,.81,.65,.04,.55-.26,.9-.84,.92h-1.04c-.09,0-.11,.03-.11,.11v.79c0,.09-.02,.11-.11,.11h-.3c-.1,0-.12-.03-.12-.12v-1.17Zm1.15-.8h-.14c-.15,0-.38-.07-.46,.03-.08,.1-.02,.31-.02,.46v.02s.01,.07,.07,.07c.39-.01,.79,.03,1.17-.03,.17-.02,.24-.11,.25-.26,0-.15-.07-.22-.24-.27-.21-.06-.43-.02-.61-.03h-.01Z"/><path class="f" d="M246.38,97.32c.08,.12,.19,.23,.25,.37,.17,.32,.11,.61-.18,.84-.19,.15-.4,.28-.62,.34-.54,.15-.74,.55-.81,1.07-.03,.23-.04,.46-.1,.7-.03,.12-.09,.23-.18,.32-.24,.24-.55,.35-.91,.42,.03-.12,.1-.18,.17-.24,.06-.07,.12-.12,.2-.18,.39-.27,.54-.64,.55-1.1,0-.19,.04-.38,.12-.55,.06-.13,.14-.24,.27-.31,.14-.08,.18-.18,.17-.32,0-.13,0-.28,.02-.42,.04,.15,.1,.3,.13,.45,.02,.08,.04,.1,.13,.08,.24-.09,.48-.17,.68-.34,.21-.19,.23-.39,.09-.63-.07-.11-.17-.2-.24-.3-.07-.09-.14-.18-.08-.29,.07-.1,.18-.1,.29-.09,.52,.08,.91,.53,.91,1.11,0,.35-.03,.71-.23,1.06l.92-.48,.02,.02c-.12,.17-.24,.32-.38,.49-.5,.64-.99,1.28-1.48,1.93-.15,.19-.31,.39-.52,.51-.08,.04-.17,.09-.28,.04,.43-.22,.72-.56,.75-1.04,.03-.5,.23-.9,.57-1.25,.34-.35,.5-.8,.52-1.27,.02-.49-.26-.83-.73-.95h-.03v.02h0Z"/><path class="g" d="M235.5,110.49v-.79c0-.08,.02-.11,.1-.1h.33c.09,0,.11,.02,.11,.11v1.39c0,.38,.2,.6,.57,.64,.15,.02,.3,.02,.45,0,.35-.04,.55-.26,.55-.62v-1.39c0-.1,.02-.14,.12-.13,.13,.01,.31-.04,.39,.02,.09,.08,.03,.25,.02,.4,0,.42,.03,.84-.01,1.26-.05,.51-.32,.79-.82,.92-.35,.09-.72,.09-1.07-.02-.48-.14-.74-.51-.75-1.03v-.65h0Z"/><path class="g" d="M243.67,114.88v-.77c0-.09,.02-.11,.11-.1,.13,0,.32-.04,.4,.02,.09,.07,.02,.25,.02,.4v1.04c-.01,.5,.24,.64,.6,.7,.19,.02,.38,.02,.56-.03,.29-.09,.43-.27,.43-.56v-1.43c0-.11,.02-.13,.13-.12,.13,.01,.31-.04,.39,.02,.09,.07,.02,.25,.02,.39v1.09c0,.65-.39,1.06-1.04,1.13-.33,.03-.66,.02-.97-.1-.42-.16-.64-.51-.64-.99v-.68h-.01Z"/><path class="g" d="M242.24,110.89v-1.18c0-.09,.02-.11,.11-.11,.13,0,.32-.04,.4,.02,.09,.07,.02,.25,.02,.4v1.55c0,.1,.02,.12,.12,.12h1.54c.1,0,.14,.02,.13,.13v.24c0,.1-.02,.13-.12,.13h-2.07c-.1,0-.12-.02-.12-.12v-1.17h-.01Z"/><path class="g" d="M245.05,110.9v-1.18c0-.09,.02-.12,.11-.11,.13,.01,.3-.06,.39,.02,.09,.08,.02,.25,.02,.39v2.05c0,.12-.03,.15-.14,.14-.12-.01-.29,.03-.37-.02-.08-.07-.02-.23-.02-.35v-.93Z"/><path class="f" d="M240.16,97.04c.29,.22,.33,.53,.25,.86-.07,.33-.23,.63-.37,.94-.07,.15-.12,.31-.15,.48-.05,.31,.04,.54,.32,.7,.21,.11,.44,.17,.65,.24,.21,.08,.43,.14,.62,.28,.18,.12,.23,.3,.19,.5-.04,.19-.19,.32-.4,.35-.23,.03-.45-.12-.52-.38-.03-.13-.04-.28-.11-.4,.1-.03,.15,.03,.2,.09,.09,.1,.17,.2,.25,.3,.07,.08,.15,.13,.27,.1,.09-.03,.14-.1,.15-.19,.01-.12-.06-.2-.15-.25-.19-.11-.41-.16-.62-.2-.21-.06-.42-.1-.62-.2-.4-.21-.68-.62-.44-1.17,.08-.19,.18-.37,.28-.54,.09-.17,.17-.34,.22-.52,.08-.28,.09-.54-.01-.82-.01-.04-.04-.09-.03-.13l.02-.03Z"/><path class="f" d="M245.23,104.32c.3-.1,.59-.1,.86,.03,.31,.14,.53,.39,.74,.65,.28,.34,.5,.73,.8,1.06,.35,.4,.69,.45,1.15,.21,.18-.09,.33-.21,.52-.29,.02,0,.05-.01,.08-.02-.35,.53-1.06,.81-1.58,.62-.32-.12-.54-.38-.73-.64-.21-.29-.39-.61-.62-.88-.31-.39-.7-.68-1.21-.73h-.01Z"/><path class="g" d="M250.18,110.91v1.16c0,.09-.01,.13-.12,.12-.13-.01-.31,.04-.39-.02-.08-.07-.02-.25-.02-.39v-2.06c0-.1,.01-.14,.12-.13,.13,.01,.31-.06,.38,.02,.07,.07,.02,.24,.02,.38v.91h.01Z"/><path class="f" d="M246.89,98.39c-.02,.21-.16,.37-.31,.48-.08,.06-.15,.1-.24,.13-.64,.28-.95,.77-.94,1.47,0,.14-.02,.28-.04,.41-.07,.32-.28,.49-.59,.54-.1,.02-.2,.02-.33,.03,.06-.02,.09-.04,.11-.06,.44-.12,.63-.43,.63-.87,0-.19,.01-.39,.04-.57,.08-.43,.3-.73,.71-.91,.12-.05,.23-.11,.35-.17,.24-.11,.45-.28,.62-.5h-.01Z"/><path class="f" d="M238.3,100.78c.23,.02,.35,.18,.43,.38,.08,.21,.08,.43,.11,.65,.08,.52,.24,.68,.76,.72h.07c-.23,.34-.79,.32-1.04-.03-.15-.21-.15-.44-.12-.68,.01-.12,.03-.23,.05-.35,.06-.26-.01-.48-.22-.64-.01,0-.02-.03-.03-.04h-.01Z"/><path class="f" d="M246.44,102.93c-.03-.34,.13-.64,.43-.8,.26-.13,.55-.18,.83-.24,.1-.03,.21-.06,.3-.09,.22-.09,.39-.22,.47-.49,.04,.3-.06,.5-.25,.65-.23,.19-.51,.28-.79,.4-.17,.07-.34,.14-.51,.21-.18,.08-.33,.2-.46,.37h-.01Z"/><path class="f" d="M241.33,101.98c-.21,.04-.39,.1-.53,.22-.07,.06-.12,.12-.17,.2-.02,.06-.02,.1,0,.14,.03,.06,.09,.04,.13,.03,.09-.03,.18-.07,.27-.11,.24-.11,.48-.12,.72,0,.18,.1,.36,.14,.53-.04,.02,.27-.13,.42-.38,.38-.19-.03-.37-.1-.53-.18-.18-.08-.33-.07-.5,.02-.13,.08-.28,.14-.43,.19-.24,.07-.37,0-.43-.28,.17,.07,.23-.02,.31-.14,.19-.31,.65-.51,1.01-.45v.02Z"/><path class="f" d="M241.73,103.41c0,.17-.02,.28-.06,.39-.01,.04-.03,.08-.09,.06-.25-.09-.51-.15-.75-.25-.15-.06-.31-.14-.42-.28-.04-.04-.05-.08,.01-.11,.17-.09,.33-.19,.5-.27,.43-.2,.81,.04,.81,.48h0Zm-.77,.13c.04-.19,.13-.36,.2-.55-.18,0-.29,.06-.33,.21-.04,.15,0,.26,.13,.34Zm.58-.22s0-.06-.02-.08c-.01-.03-.03-.09-.08-.09s-.04,.06-.06,.09c-.04,.11-.09,.22-.14,.32,0,.02-.03,.03-.01,.06s.04,.01,.07,0c.12-.02,.24-.17,.24-.31h0Z"/><path class="f" d="M243.48,103.41c0-.52,.38-.76,.82-.56,.17,.08,.33,.18,.5,.27,.07,.03,.05,.06,.02,.1-.1,.12-.23,.2-.37,.26-.27,.12-.55,.17-.82,.28-.06,.02-.08-.02-.09-.06-.03-.11-.06-.21-.06-.29h-.01Zm.93-.17c0-.19-.11-.31-.24-.34-.08-.02-.12-.01-.08,.09,.04,.12,.09,.24,.13,.36,.01,.04,0,.11,.07,.11,.05,0,.08-.06,.1-.1,.02-.04,.02-.09,.03-.11h-.01Zm-.39,.29c-.11-.16-.15-.33-.22-.5-.1,.1-.13,.2-.08,.32,.05,.12,.14,.19,.3,.18Z"/><path class="f" d="M245.13,102.42c.08,.13,.03,.22-.07,.29-.13,.09-.26,.09-.41,.03-.08-.02-.14-.07-.21-.1-.22-.11-.44-.12-.66-.01-.13,.07-.28,.11-.42,.13-.25,.02-.41-.09-.46-.33-.04-.22,.08-.45,.29-.52,.03,0,.07-.01,.1-.02-.05,.08-.11,.14-.15,.22-.07,.13-.03,.23,.1,.3,.02,.01,.05,0,.05,.04-.01,.14,.1,.14,.19,.15,.09,0,.17-.02,.23-.07,.09-.04,.18-.1,.27-.14,.24-.12,.49-.14,.73,0,.21,.13,.28,.12,.42,0v.02Z"/><path class="f" d="M244.98,101.65c.41-.14,.54-.46,.59-.86,.02-.23,.03-.45,.09-.69,.07-.25,.18-.47,.4-.63,.25-.19,.56-.33,.8-.61,0,.12-.06,.19-.11,.25-.07,.09-.15,.15-.24,.22-.48,.31-.71,.74-.7,1.32,0,.15-.02,.3-.06,.45-.09,.39-.34,.58-.74,.55h-.02Z"/><path class="f" d="M240.17,98.94l.02,.04c-.07,.59,.23,.84,.69,1.01,.22,.09,.44,.15,.66,.23,.1,.03,.19,.08,.28,.13,.3,.19,.39,.5,.22,.82,.01-.43-.09-.6-.5-.78-.23-.11-.48-.17-.72-.25-.14-.04-.29-.1-.42-.18-.33-.19-.43-.43-.32-.79,.02-.08,.06-.14,.09-.24Z"/><path class="f" d="M243.88,98.65c.12,.24,.11,.44,.01,.65-.09,.19-.23,.34-.37,.5-.19,.24-.34,.49-.3,.82,.02,.12,.08,.23,.11,.35-.25-.13-.38-.48-.29-.78,.08-.24,.22-.44,.36-.64,.1-.14,.21-.29,.31-.44,.08-.13,.13-.27,.14-.46h.01Z"/><path class="f" d="M245.93,102.6c.08-.35,.29-.61,.61-.79,.31-.17,.63-.15,.96-.02-.09,.07-.17,.06-.24,.06-.3,0-.55,.08-.77,.3-.17,.18-.34,.33-.57,.44h.01Z"/><path class="f" d="M241.38,103.96h-.46c-.25,.02-.35,.1-.4,.32-.06-.07-.06-.08-.07-.18v-.2c-.19,.04-.29,.19-.42,.3-.08-.18-.01-.38,.17-.49,.07-.04,.12-.09,.11-.2,.28,.25,.6,.31,.93,.38,.05,.01,.11,.01,.15,.06h-.01Z"/><path class="f" d="M239.93,102.06c-.14,.17-.26,.31-.48,.29-.21-.01-.31-.17-.39-.33-.07-.15-.11-.31-.04-.5,.2,.36,.52,.49,.92,.53h-.01Z"/><path class="f" d="M245.91,103.78c-.31-.11-.62-.1-.93,0-.04,.01-.12,.03-.14-.03-.02-.07,0-.12,.07-.17,.06-.03,.11-.04,.17-.06,.31-.03,.6,.02,.83,.25h.01Z"/><path class="f" d="M243.63,100.16c-.05,.32-.04,.6,.15,.86-.34-.07-.48-.45-.15-.86Z"/><path class="f" d="M243.14,106.23c.11-.23,.34-.26,.53-.36,.01,0,.04-.01,.04,0,.02,.02,0,.06,0,.08-.07,.2-.34,.34-.58,.3h0Z"/><path class="f" d="M243,105.98c.09-.29,.36-.28,.57-.42-.02,.21-.31,.42-.57,.42Z"/><path class="f" d="M245.95,103.21c-.21-.06-.41,.02-.61,.09-.02,0-.05,.02-.08,.02-.03,0-.08,0-.1-.03-.02-.04,0-.08,.03-.11,.07-.04,.13-.06,.21-.07,.19-.02,.36,0,.53,.09h.01Z"/><path class="f" d="M245.39,102.81c-.09,.08-.15,.14-.22,.2-.03,.02-.07,.06-.11,.01-.03-.04-.01-.08,.01-.11,.08-.09,.18-.12,.31-.11h.01Z"/><path class="f" d="M246.89,98.41v-.04s.02,.03,0,.03h0Z"/><path class="f" d="M238.31,100.77h-.03v-.02s.03,0,.03,.02Z"/><path class="f" d="M250.69,103.62l.03-.02v.04h-.02v-.02Z"/><path class="f" d="M244.68,104.93h-.03v-.02s.04,0,.03,.02Z"/><path class="f" d="M249.55,102.24v.03h-.02l.02-.03Z"/><path class="f" d="M249.55,102.24v-.02s.02,.02,0,.02Z"/><path class="f" d="M235.98,101.61v-.02h.02l-.02,.02Z"/><path class="f" d="M243.37,101.01h0Z"/><path class="f" d="M242.94,100.91v.02h-.02l.02-.02Z"/><path class="f" d="M248.75,100.04s-.01,.02-.02,0v-.02h.02v.02Z"/><path class="f" d="M245.13,97.56h0Z"/><path class="c" d="M240.85,106.98v-.02h-.01v.03h.01Z"/><path class="c" d="M239.38,104.41s.04,.01,.02,.03c-.01,.01-.03,0-.04-.01l.02-.02Z"/><path class="c" d="M248.2,104.44l-.06,.03v-.02l.02-.04,.02,.02h.01Z"/><path class="c" d="M239.89,105.39s0-.04,.03-.04c0,0,0,.04-.02,.06h-.01Z"/><path class="c" d="M248.14,104.47s-.03,.02-.06,0l.04-.02v.02h.01Z"/><path class="c" d="M239.92,105.34v-.02s.01,.02,0,.01h0Z"/><path class="c" d="M242.74,107.64h-.02v-.02l.02,.02Z"/><path class="c" d="M241.88,107.45s.03,0,.04,.01h-.04Z"/><path class="c" d="M239.89,105.4l-.02,.03-.02-.02,.03-.02h.01Z"/><path class="c" d="M241.88,107.45h-.02v-.02l.02,.02Z"/><path class="c" d="M243.24,107.42h0Z"/><path class="c" d="M247.8,103.57v-.02s.02,.02,0,.03h0Z"/><path class="c" d="M250.77,102.48s-.01-.02,0-.03l.02,.02h-.02Z"/><path class="c" d="M236.59,107.17h.02v.02l-.02-.02Z"/><path class="c" d="M239.44,97.3c-.25-.13-.49-.11-.73-.04-.06,.01-.11,.03-.14-.03-.02-.04,0-.08,.03-.11,.22-.2,.75-.13,.84,.19Z"/><path class="c" d="M246.38,97.32v-.02h.02l-.02,.02Z"/><path class="f" d="M240.85,106.98h0Z"/><path class="f" d="M244.74,107.82v-.03h.02l-.02,.03Z"/></svg>