<?xml version="1.0" encoding="utf-8"?>
<!-- Generator: Adobe Illustrator 26.2.1, SVG Export Plug-In . SVG Version: 6.00 Build 0)  -->
<svg version="1.1" id="圖層_1" xmlns="http://www.w3.org/2000/svg" xmlns:xlink="http://www.w3.org/1999/xlink" x="0px" y="0px"
	 viewBox="0 0 488.08 145.56" style="enable-background:new 0 0 488.08 145.56;" xml:space="preserve">
<style type="text/css">
	.st0{fill:#FFFFFF;}
</style>
<g>
	<path class="st0" d="M248.8,92.56c0.01-0.22,0.02-0.44,0.02-0.66c0-17.97,0-35.93,0-53.9V19.53c0-0.82-0.01-1.49-0.04-2.12
		c-0.05-1-0.81-1.69-1.84-1.65c-0.99,0.03-1.72,0.71-1.78,1.65c-0.04,0.61-0.04,1.21-0.04,1.93v20.72c0,16.11,0.01,32.23,0,48.34
		c0,0.49-0.03,1-0.06,1.49c-0.02,0.24-0.03,0.49-0.04,0.74v0.07c0.01,0.24,0.02,0.48,0.03,0.73c0.02,0.5,0.04,1.01,0.04,1.51
		c0,7.29,0.01,14.59,0.01,21.88v17.51c0,0.56,0,1.14,0.04,1.73c0.07,0.95,0.81,1.62,1.82,1.63c0.97,0,1.68-0.65,1.79-1.62
		c0.07-0.67,0.08-1.31,0.08-1.97c0-4.77,0-9.54,0.01-14.32c0-7.04,0-14.09,0.01-21.13c0-0.47,0.03-0.97,0.06-1.48
		c0.02-0.25,0.03-0.49,0.04-0.74l0.01-0.22l-0.07-0.2C248.75,93.6,248.77,93.12,248.8,92.56L248.8,92.56z"/>
	<path class="st0" d="M258.67,38.35V12.61l0.01-0.41c0-0.52,0.01-1.06-0.03-1.61c-0.08-1.07-0.89-1.83-1.93-1.83
		c-0.01,0-0.03,0-0.04,0c-0.76,0.02-1.59,0.52-1.63,1.89c-0.02,0.55-0.02,1.11-0.02,1.65v16.04c0.01,26.19-0.14,98.33,0.42,98.95
		c0.23,0.26,0.66,0.56,1.39,0.57c0.71,0,1.13-0.3,1.36-0.54c0.56-0.6,0.46-2.16,0.47-2.25C258.71,124.28,258.67,61.64,258.67,38.35
		L258.67,38.35z"/>
	<path class="st0" d="M269.55,34.52V9.8l0.01-0.39c0-0.5,0.01-1.02-0.03-1.55c-0.08-1.03-0.88-1.76-1.93-1.76c-0.01,0-0.03,0-0.04,0
		c-0.76,0.02-1.59,0.5-1.62,1.81c-0.02,0.53-0.02,1.07-0.02,1.58V24.9c0.01,25.16-0.14,94.43,0.42,95.03
		c0.24,0.25,0.66,0.54,1.4,0.54c0.7,0,1.13-0.28,1.36-0.52c0.56-0.57,0.47-2.08,0.47-2.16C269.58,117.04,269.55,56.88,269.55,34.52
		L269.55,34.52z"/>
	<path class="st0" d="M292.15,31.93V11.07l0.01-0.33c0-0.43,0.01-0.86-0.03-1.31c-0.08-0.87-0.88-1.49-1.93-1.49
		c-0.01,0-0.03,0-0.04,0c-0.76,0.01-1.59,0.42-1.62,1.53c-0.02,0.45-0.02,0.9-0.02,1.33v13c0.01,21.23-0.14,79.71,0.42,80.21
		c0.23,0.21,0.66,0.46,1.39,0.46c0.71,0,1.13-0.24,1.36-0.44c0.56-0.48,0.46-1.75,0.47-1.83C292.18,101.58,292.15,50.8,292.15,31.93
		L292.15,31.93z"/>
	<path class="st0" d="M281.17,27.94V7.7l0.01-0.32c0-0.41,0.01-0.84-0.03-1.27c-0.08-0.84-0.89-1.44-1.93-1.44
		c-0.01,0-0.03,0-0.04,0c-0.76,0.01-1.59,0.41-1.62,1.48c-0.02,0.44-0.02,0.88-0.02,1.29v12.62c0.01,20.6-0.05,76.13,0.16,77.14
		c0.21,1.01,0.92,1.13,1.65,1.13c0.7,0,1.13-0.23,1.36-0.43c0.56-0.47,0.46-1.7,0.47-1.77C281.2,95.53,281.16,46.25,281.17,27.94
		L281.17,27.94z"/>
	<path class="st0" d="M281.14,101.8c-0.08-0.14-0.09-1.63-1.93-1.63h-0.04c-1.48,0-1.59,1.45-1.62,1.63
		c-0.02,0.07-0.06,12.19,0.09,12.71c0.16,0.56,0.27,1.23,1.7,1.23c1.76,0,1.83-1.52,1.83-1.53
		C281.2,114.12,281.18,101.87,281.14,101.8z"/>
	<path class="st0" d="M215.59,38.35V12.61l-0.01-0.41c0-0.52-0.01-1.06,0.03-1.61c0.08-1.07,0.88-1.83,1.93-1.83
		c0.01,0,0.03,0,0.04,0c0.76,0.02,1.59,0.52,1.62,1.89c0.02,0.55,0.02,1.11,0.02,1.65v16.04c-0.01,26.19,0.14,98.33-0.42,98.95
		c-0.23,0.26-0.66,0.56-1.39,0.57c-0.71,0-1.13-0.3-1.36-0.54c-0.56-0.6-0.46-2.16-0.47-2.25
		C215.55,124.28,215.59,61.64,215.59,38.35L215.59,38.35z"/>
	<path class="st0" d="M204.71,34.52V9.8l-0.01-0.39c0-0.5-0.01-1.02,0.03-1.55c0.08-1.03,0.88-1.76,1.93-1.76c0.01,0,0.03,0,0.04,0
		c0.76,0.02,1.59,0.5,1.62,1.81c0.02,0.53,0.02,1.07,0.02,1.58V24.9c-0.01,25.16,0.14,94.43-0.42,95.03
		c-0.23,0.25-0.66,0.54-1.39,0.54c-0.71,0-1.13-0.28-1.36-0.52c-0.56-0.57-0.46-2.08-0.47-2.16
		C204.68,117.04,204.71,56.88,204.71,34.52L204.71,34.52z"/>
	<path class="st0" d="M183.16,32.11V12.84l-0.01-0.31c0-0.39-0.01-0.8,0.03-1.21c0.07-0.8,0.76-1.37,1.65-1.37c0.01,0,0.02,0,0.04,0
		c0.65,0.01,1.36,0.39,1.39,1.41c0.01,0.42,0.01,0.83,0.01,1.23v12.01c-0.01,19.61,0.12,73.62-0.36,74.08
		c-0.2,0.19-0.57,0.42-1.19,0.42c-0.6,0-0.96-0.22-1.16-0.41c-0.48-0.45-0.4-1.62-0.4-1.69C183.13,96.44,183.16,49.54,183.16,32.11
		L183.16,32.11z"/>
	<path class="st0" d="M193.41,31.25V8.13l-0.01-0.37c0-0.47-0.01-0.96,0.03-1.45c0.08-0.96,0.89-1.65,1.93-1.65
		c0.01,0,0.03,0,0.04,0c0.76,0.02,1.59,0.47,1.63,1.69c0.02,0.5,0.02,1,0.02,1.48v14.42c-0.01,23.54,0.05,86.97-0.16,88.12
		c-0.21,1.15-0.92,1.29-1.65,1.29c-0.71,0-1.13-0.26-1.36-0.49c-0.56-0.54-0.46-1.94-0.47-2.03
		C193.38,108.47,193.42,52.18,193.41,31.25L193.41,31.25z"/>
	<path class="st0" d="M228.69,83.86v-0.07c-0.03-0.49-0.06-1.05-0.06-1.57c0-11.39,0-22.77,0-34.16V15.07c0-0.63,0-1.35-0.06-2.07
		c-0.04-0.51-0.27-0.95-0.64-1.25c-0.37-0.3-0.86-0.43-1.36-0.36c-0.83,0.11-1.45,0.79-1.5,1.65c-0.04,0.61-0.06,1.26-0.06,2.04
		V48.1c0,13.27-0.08,41.89-0.1,42.16l0.07,10.42c0,6.41-0.61,30.23,0.41,32.2c0.17,0.32,0.68,0.59,1.43,0.59
		c0.73,0,1.2-0.3,1.41-0.59c0.94-1.31,0.43-37.49,0.43-40.85c0-1.68,0.02-3.38,0.04-5.04v-0.05c0.01-0.78,0.02-1.55,0.03-2.35v-0.03
		C228.73,84.32,228.71,84.09,228.69,83.86L228.69,83.86z"/>
	<path class="st0" d="M302,54.79c0-6.68,0-13.37,0-20.05c0-5.61,0-11.23,0-16.84c0-0.69-0.03-1.33-0.08-1.95
		c-0.07-0.83-0.71-1.46-1.55-1.53c-1.01-0.09-1.86,0.56-1.97,1.51c-0.08,0.67-0.08,1.34-0.08,1.98v18.62c0,9.13,0,18.26,0,27.38
		c0,0.49-0.03,1-0.06,1.49v0.06c-0.02,0.22-0.03,0.44-0.04,0.69v0.06c0.01,0.22,0.02,0.43,0.02,0.65v0.08
		c0.02,0.5,0.05,1.02,0.05,1.52c0,4.03,0,8.06,0.01,12.1v10.08c0,0.52,0.01,1.12,0.05,1.73c0.06,0.92,0.8,1.61,1.76,1.66
		c0.04,0,0.07,0,0.1,0c0.95,0,1.69-0.7,1.76-1.66c0.05-0.67,0.06-1.35,0.06-1.94c0.02-8.9,0.03-17.8,0.05-26.69l0.01-6.71
		c-0.01-0.25-0.02-0.49-0.03-0.75C302.02,55.79,302,55.28,302,54.79L302,54.79z"/>
	<path class="st0" d="M311.95,69.15c0.01-0.17,0.02-0.34,0.02-0.5c0-8.39,0-16.78,0-25.17V30.55c0-0.58,0-1.11-0.07-1.65
		c-0.1-0.83-0.84-1.37-1.82-1.36c-1,0.02-1.71,0.58-1.76,1.4c-0.03,0.49-0.03,0.98-0.03,1.44V39c0,6.63,0,13.27,0,19.9
		c0,0.41-0.03,0.84-0.06,1.25c-0.02,0.21-0.03,0.41-0.04,0.62v0.02l0.08,14.04c0,0.42,0.01,0.86,0.02,1.29
		c0.03,0.77,0.68,1.39,1.57,1.49c0.1,0.01,0.19,0.02,0.29,0.02c0.4,0,0.77-0.1,1.07-0.29c0.41-0.26,0.68-0.67,0.74-1.16
		c0.04-0.31,0.05-0.63,0.05-0.9c0-0.13,0-0.25,0.01-0.38c0.03-0.55,0.01-1.11,0-1.65c-0.02-0.86-0.04-1.75,0.1-2.59l0.04-0.23
		l-0.1-0.22C311.91,69.93,311.93,69.57,311.95,69.15z"/>
	<path class="st0" d="M344.89,56.39L344.89,56.39c0.01-0.54,0.02-1.07,0.02-1.6c-0.02-3.44-0.01-6.97-0.01-10.08v-0.34
		c0-2.39,0-4.77,0-7.16c0-0.06,0-0.13,0-0.19v-0.03c0.02-0.53,0.04-1.34-0.56-1.92c-0.36-0.35-0.84-0.53-1.43-0.52
		c-0.78,0.01-1.22,0.33-1.46,0.59c-0.53,0.6-0.41,1.33-0.33,1.82c0.01,0.09,0.04,0.21,0.04,0.26c-0.03,3.49-0.03,7.02-0.02,10.44
		c0,2.18,0,4.35,0,6.53c-0.01,1.8-0.04,3.62-0.06,5.38c-0.01,0.82-0.03,1.64-0.04,2.48c0.01,0.76,0.01,1.51,0.02,2.27
		c0.01,2.02,0.03,4.11,0.07,6.18c0,0.09-0.01,0.22-0.02,0.37c-0.05,0.58-0.12,1.38,0.44,1.99c0.32,0.35,0.78,0.55,1.34,0.58
		c0.04,0,0.08,0,0.12,0c0.74,0,1.19-0.29,1.44-0.54c0.62-0.62,0.55-1.49,0.51-2.06c-0.01-0.14-0.02-0.27-0.02-0.36
		c0.05-2.48,0.07-5,0.09-7.44c0.01-0.89,0.01-1.78,0.02-2.67V60.3l-0.01-0.08C344.84,58.98,344.86,57.66,344.89,56.39L344.89,56.39z
		"/>
	<path class="st0" d="M238.6,25.98c0-0.18,0.02-0.49,0.03-0.82c0.07-1.26,0.16-3-0.4-4.32c-0.32-0.75-0.77-1.17-1.3-1.21
		c-0.84-0.06-1.32,0.63-1.58,1.22c-0.61,1.38-0.48,3.23-0.39,4.45c0.02,0.29,0.04,0.62,0.04,0.78c-0.03,14.78-0.03,29.8-0.03,44.34
		v0.42c0,5.76,0,11.51,0,17.27c0,1.04-0.03,2.13-0.06,3.18c-0.01,0.52-0.03,1.05-0.04,1.6v0.05l0.02,3.1
		c0.02,2.97,0.04,5.94,0.06,8.91v0.26c0.01,1.02,0.02,2.07,0.11,3.17c0.14,1.65,0.84,2.79,1.73,2.82h0.05c0.9,0,1.62-1.27,1.71-3.02
		c0.06-1.25,0.1-2.58,0.1-4.21c0.02-10.4,0.03-20.8,0.04-31.2l0.02-11.8l-0.02-8.12C238.67,44.09,238.65,35.03,238.6,25.98
		L238.6,25.98z"/>
	<path class="st0" d="M449.3,66.9c0.03-6.94,0.03-14.19,0.03-20.58v-5.08c0-0.4-0.01-0.79-0.02-1.19v-0.08
		c-0.02-0.58-0.2-1.04-0.57-1.37c-0.35-0.31-0.82-0.47-1.36-0.45c-0.51,0.02-1.7,0.24-1.76,1.89c-0.01,0.33-0.01,0.65-0.01,0.98v0.3
		c0,4.21,0,8.42,0,12.62c0,1.11,0,2.22,0,3.33c0,3.18-0.01,6.47,0.03,9.72c0,0.09-0.02,0.26-0.05,0.42
		c-0.08,0.58-0.19,1.38,0.32,1.99c0.28,0.34,0.71,0.55,1.19,0.59c0.09,0.01,0.18,0.01,0.27,0.01c0.76,0,1.21-0.29,1.46-0.53
		c0.66-0.65,0.56-1.57,0.49-2.18C449.31,67.15,449.3,66.99,449.3,66.9L449.3,66.9z"/>
	<path class="st0" d="M238.13,113.02c-0.26-0.26-0.75-0.56-1.55-0.51c-0.73,0.04-1.14,0.36-1.36,0.62
		c-0.51,0.61-0.38,1.35-0.29,1.84c0.02,0.09,0.04,0.23,0.04,0.28c-0.03,6.06-0.02,12.18-0.02,18.11v4.62c0,0.3,0,0.6,0.02,0.91
		c0.05,1.08,0.78,1.78,1.86,1.78c0.03,0,0.07,0,0.1,0c0.77-0.03,1.61-0.49,1.69-1.7c0.03-0.44,0.03-0.88,0.03-1.27v-0.24
		c0-2.79,0-5.58,0-8.36l0.01-5.38c0-2.75,0.01-5.59-0.02-8.39c0-0.09,0.01-0.19,0.02-0.31
		C238.69,114.46,238.75,113.63,238.13,113.02L238.13,113.02z"/>
	<path class="st0" d="M385.65,40.74c-0.32-0.33-0.77-0.51-1.29-0.52c-0.67-0.02-1.09,0.24-1.32,0.45c-0.54,0.5-0.55,1.17-0.55,1.62
		c0,0.06,0,0.12,0,0.18c-0.01,0.23-0.01,0.45-0.01,0.65v0.24c0,3.52,0,7.04,0,10.57v4.26c0,2.17,0,4.34,0,6.51v0.14
		c0,0.47,0,0.95,0.07,1.45c0.11,0.8,0.77,1.33,1.7,1.37c0.03,0,0.06,0,0.1,0c0.84,0,1.51-0.48,1.7-1.22c0.1-0.39,0.1-0.75,0.1-1.08
		c0-7.44,0.01-15.14,0-22.8c0-0.06,0-0.11,0-0.18C386.15,41.96,386.18,41.28,385.65,40.74L385.65,40.74z"/>
	<path class="st0" d="M482.45,43.09c-0.28-0.73-1.14-1.04-1.55-1.1c-0.42-0.06-0.83,0.04-1.16,0.29c-0.37,0.28-0.6,0.71-0.64,1.21
		c-0.04,0.47-0.06,0.97-0.06,1.54c0,2.21,0,4.42,0,6.63v4.71c0,2.23,0,4.45,0,6.68c0,0.62,0.03,1.12,0.09,1.57
		c0.11,0.82,0.82,1.43,1.71,1.43c0.83,0,1.53-0.5,1.73-1.23c0.13-0.47,0.13-0.96,0.13-1.31c0.01-6.28,0.01-12.57,0-18.85
		C482.7,44.2,482.67,43.63,482.45,43.09L482.45,43.09z"/>
	<path class="st0" d="M406.43,44.66L406.43,44.66c-0.63,0-1.02,0.25-1.24,0.46c-0.49,0.47-0.48,1.08-0.48,1.41v0.09
		c-0.01,1.81-0.01,3.63-0.01,5.44v0.73h-0.01v2.93c0,1.73,0,3.45,0,5.18v0.05c0,0.81,0.26,1.82,1.55,1.96
		c0.1,0.01,0.19,0.02,0.27,0.02c0.59,0,0.99-0.22,1.21-0.4c0.29-0.23,0.65-0.68,0.7-1.48c0.02-0.3,0.02-0.59,0.02-0.87v-0.23
		c0-4.07,0-8.14,0-12.21v-0.2c0-0.37,0.01-0.78-0.07-1.21C408.23,45.32,407.46,44.67,406.43,44.66z"/>
	<path class="st0" d="M56.49,44.86L56.49,44.86c-0.63,0-1.02,0.25-1.24,0.46c-0.49,0.47-0.48,1.08-0.48,1.41v0.09
		c-0.01,1.81-0.01,3.63-0.01,5.44v0.73h-0.01v2.93c0,1.73,0,3.45,0,5.18v0.05c0,0.81,0.26,1.82,1.55,1.96
		c0.1,0.01,0.19,0.02,0.28,0.02c0.59,0,0.98-0.22,1.21-0.4c0.29-0.23,0.65-0.68,0.7-1.48c0.02-0.3,0.02-0.59,0.02-0.87v-0.23
		c0-4.07,0-8.14,0-12.21v-0.2c0-0.37,0.01-0.78-0.06-1.21C58.28,45.52,57.52,44.87,56.49,44.86z"/>
	<path class="st0" d="M460.97,47.31c-0.23-0.84-1.11-1.34-2-1.15c-0.52,0.11-1.14,0.55-1.3,1.16c-0.12,0.44-0.18,0.94-0.19,1.47
		c-0.01,1.21-0.01,2.42-0.01,3.63v3.17c0,1.04,0,2.08,0,3.11c0,0.11,0,0.22,0,0.34c0,0.39-0.01,0.8,0.04,1.22
		c0.11,0.96,0.83,1.61,1.8,1.61c0.71,0,1.56-0.4,1.8-1.51c0.07-0.36,0.08-0.69,0.08-0.99v-0.9c0.01-3.15,0.01-6.41,0-9.67
		C461.19,48.32,461.11,47.82,460.97,47.31L460.97,47.31z"/>
	<path class="st0" d="M357.27,47.31c-0.23-0.84-1.11-1.34-2-1.15c-0.52,0.11-1.14,0.55-1.3,1.16c-0.12,0.44-0.18,0.94-0.19,1.47
		c-0.01,1.21-0.01,2.42-0.01,3.63v3.17c0,1.04,0,2.08,0,3.11c0,0.11,0,0.22,0,0.34c0,0.39-0.01,0.8,0.04,1.22
		c0.11,0.96,0.83,1.61,1.8,1.61c0.72,0,1.56-0.4,1.8-1.51c0.07-0.36,0.08-0.69,0.08-0.99v-0.9c0.01-3.15,0.01-6.41,0-9.67
		C357.49,48.32,357.42,47.82,357.27,47.31L357.27,47.31z"/>
	<path class="st0" d="M10.38,47.71c0.04-0.52,0.1-1.31-0.48-1.89c-0.24-0.24-0.69-0.53-1.41-0.5c-0.54,0.02-0.99,0.21-1.31,0.56
		c-0.55,0.59-0.49,1.38-0.45,1.92c0.01,0.1,0.02,0.2,0.02,0.29c-0.02,3.8-0.01,7.66-0.01,11.38v2.05c0,0.37,0.03,0.76,0.07,1.14
		c0.09,0.84,0.82,1.49,1.65,1.49c0.03,0,0.05,0,0.08,0c0.66-0.03,1.49-0.51,1.68-1.22c0.15-0.57,0.16-1.14,0.16-1.65v-0.04
		c0.01-1.48,0.01-2.96,0.01-4.45v-1.96c0-0.6,0-1.2,0-1.83c0-1.64,0.01-3.33-0.02-5c0-0.08,0.01-0.17,0.01-0.26L10.38,47.71
		L10.38,47.71z"/>
	<path class="st0" d="M433.49,44.85l-0.65-0.02l-0.33,0.51l-0.03,0.03c-0.12,0.14-0.36,0.44-0.37,0.88
		c-0.04,5.41-0.07,10.28-0.08,14.87c0,1.4,0.95,1.93,1.75,1.95h0.07c0.62,0,1.02-0.25,1.24-0.46c0.37-0.34,0.55-0.83,0.56-1.45
		c0.01-4.19,0.01-9.16,0-14.26C435.66,45.7,434.81,44.89,433.49,44.85L433.49,44.85z"/>
	<path class="st0" d="M378.19,52.87c0-0.91,0-1.82,0-2.72c-0.01-1.1-0.68-1.9-1.67-1.99c-0.54-0.05-1.04,0.1-1.42,0.42
		c-0.42,0.37-0.64,0.91-0.64,1.61c-0.02,2.2-0.02,4.56-0.01,7.68c0,1.09,0.69,1.89,1.69,1.98c0.07,0.01,0.15,0.01,0.22,0.01
		c0.46,0,0.88-0.14,1.2-0.42c0.62-0.54,0.63-1.34,0.64-1.61c0.01-0.89,0.01-1.78,0.01-2.68L378.19,52.87L378.19,52.87z"/>
	<path class="st0" d="M22.78,51.07c-0.01-0.62-0.2-1.12-0.58-1.46c-0.33-0.31-0.79-0.46-1.29-0.44c-1.06,0.04-1.77,0.82-1.77,1.93
		v1.54c0,1.65,0,3.35,0.01,5.03c0.01,0.55,0.21,1.02,0.59,1.36c0.23,0.2,0.63,0.43,1.23,0.43c0.07,0,0.14,0,0.22-0.01
		c0.75-0.07,1.56-0.58,1.58-1.79c0.01-0.8,0.01-1.59,0.01-2.38v-0.45l0.01-1.41C22.79,52.64,22.79,51.85,22.78,51.07L22.78,51.07z"
		/>
	<path class="st0" d="M471.92,51.05c-0.13-0.79-0.8-1.38-1.7-1.51c-0.47-0.07-0.91,0.04-1.25,0.31c-0.56,0.45-0.59,1.15-0.59,1.41
		c-0.02,0.66-0.02,1.31-0.01,1.96v0.29l-0.01,1.2c0,0.59,0,1.18,0,1.77c0.02,1.72,1.18,1.97,1.68,1.99c0.04,0,0.08,0,0.12,0
		c0.48,0,0.91-0.15,1.23-0.45c0.53-0.48,0.6-1.16,0.6-1.62c0.02-1.48,0.01-2.92,0.01-4.15C471.99,51.86,471.98,51.46,471.92,51.05
		L471.92,51.05z"/>
	<path class="st0" d="M420.26,51.05c-0.13-0.79-0.8-1.38-1.7-1.51c-0.47-0.07-0.91,0.04-1.25,0.31c-0.57,0.45-0.59,1.15-0.59,1.41
		c-0.02,0.66-0.02,1.31-0.01,1.96v0.29l-0.01,1.2c0,0.59,0,1.18,0,1.77c0.03,1.72,1.18,1.97,1.68,1.99c0.04,0,0.08,0,0.12,0
		c0.48,0,0.91-0.15,1.23-0.45c0.53-0.48,0.6-1.16,0.6-1.62c0.02-1.48,0.01-2.92,0.01-4.15C420.34,51.86,420.33,51.46,420.26,51.05
		L420.26,51.05z"/>
	<path class="st0" d="M368.28,51.05c-0.13-0.79-0.8-1.38-1.7-1.51c-0.47-0.07-0.91,0.04-1.25,0.31c-0.56,0.45-0.59,1.15-0.59,1.41
		c-0.02,0.66-0.02,1.31-0.01,1.96v0.29l-0.01,1.2c0,0.59,0,1.18,0,1.77c0.03,1.72,1.18,1.97,1.68,1.99c0.04,0,0.08,0,0.12,0
		c0.49,0,0.91-0.15,1.23-0.45c0.53-0.48,0.6-1.16,0.6-1.62c0.02-1.48,0.01-2.92,0.01-4.15C368.36,51.86,368.35,51.46,368.28,51.05
		L368.28,51.05z"/>
	<path class="st0" d="M175.3,21.28c-1.92,0-1.79,2.56-1.79,3.02c0,13.84,0.03,58.43,0.04,60.14c0,1.07,0.73,1.92,1.69,1.98
		c0.04,0,0.09,0,0.13,0c0.57,0,0.95-0.25,1.17-0.47c0.38-0.37,0.58-0.92,0.59-1.63c0.01-0.72,0.02-59.01,0.02-59.01
		C177.15,25.13,177.42,21.28,175.3,21.28L175.3,21.28z"/>
	<path class="st0" d="M165.36,37.46c-0.53,0.02-0.92,0.22-1.29,0.93c-0.51,0.98-0.4,26.92-0.4,26.92c0,0.58,0.01,1.06,0.07,1.56
		c0.1,0.91,0.82,1.55,1.75,1.55c0.07,0,0.14,0,0.21-0.01c0.83-0.08,1.46-0.72,1.53-1.54c0.04-0.47,0.17-27.41-0.16-28.44
		C166.95,38.06,166.21,37.43,165.36,37.46z"/>
	<path class="st0" d="M76.43,38.9c-0.55,0.02-1.01,0.22-1.33,0.57c-0.56,0.63-0.46,1.44-0.39,2.03c0.02,0.14,0.04,0.29,0.04,0.38
		c-0.03,6.67-0.02,13.45-0.02,20v4.22c0,0.51,0.01,1.02,0.06,1.55c0.09,0.92,0.82,1.56,1.77,1.56c0.05,0,0.1,0,0.15-0.01
		c0.85-0.06,1.49-0.69,1.57-1.53c0.04-0.49,0.06-0.99,0.06-1.53c0-3.13,0-6.26,0-9.39l0.01-2.82c0-1.01,0-2.01,0-3.02
		c0.01-2.94,0.01-5.99-0.04-9c0-0.06,0.03-0.23,0.05-0.36c0.09-0.56,0.23-1.41-0.36-2.06C77.76,39.2,77.27,38.87,76.43,38.9
		L76.43,38.9z"/>
	<path class="st0" d="M125.71,60.52c0.02-3.44,0.02-6.93,0.02-10.31v-2.85c0-0.31,0-0.65-0.04-1.01c-0.16-1.15-0.99-1.59-1.71-1.62
		c-0.98-0.04-1.74,0.59-1.89,1.53c-0.06,0.42-0.06,0.82-0.06,1.2v0.18c0,1.76,0,3.52,0,5.29v1.11c0,0.61,0,1.23,0,1.84
		c0,1.42-0.01,3.02,0.02,4.57c0,0.08-0.01,0.22-0.02,0.34c-0.05,0.54-0.12,1.34,0.46,1.95c0.24,0.25,0.69,0.55,1.46,0.55
		c0.53-0.01,0.98-0.18,1.31-0.52c0.57-0.59,0.52-1.4,0.48-1.97C125.72,60.7,125.72,60.6,125.71,60.52L125.71,60.52z"/>
	<path class="st0" d="M47.74,59.36c0.01-1.23,0.01-2.48,0.01-3.69v-2.83c0-1.56,0-3.11,0-4.67c0-1.68-0.92-2.11-1.69-2.18
		c-0.66-0.06-1.08,0.17-1.33,0.37c-0.57,0.47-0.62,1.12-0.65,1.56v0.07c-0.01,0.13-0.01,0.26-0.01,0.39v2.71
		c0,2.86,0,5.71,0.01,8.57c0,0.46,0.03,0.99,0.28,1.48c0.38,0.74,0.97,0.92,1.29,0.96c0.06,0.01,0.12,0.01,0.2,0.01
		c0.35,0,0.86-0.11,1.37-0.66c0.6-0.66,0.56-1.4,0.54-1.86C47.75,59.5,47.74,59.43,47.74,59.36L47.74,59.36z"/>
	<path class="st0" d="M332.4,48.24v-0.1c0.01-1.66-0.95-2.03-1.75-2.06c-0.53-0.02-0.98,0.14-1.31,0.45
		c-0.54,0.51-0.54,1.19-0.54,1.6v0.06c-0.01,4.44-0.01,8.12,0,11.57v0.13c-0.03,1.74,1.09,2.02,1.76,2.03h0.04
		c0.51,0,0.95-0.16,1.27-0.46c0.54-0.51,0.54-1.16,0.54-1.6v-0.05c0-1.42,0-2.84,0-4.26v-2.96C332.41,51.15,332.41,49.7,332.4,48.24
		L332.4,48.24z"/>
	<path class="st0" d="M397.73,48.24v-0.1c0.01-1.66-0.95-2.03-1.75-2.06c-0.53-0.02-0.98,0.14-1.32,0.45
		c-0.54,0.51-0.54,1.19-0.54,1.6v0.06c-0.01,4.44-0.01,8.12,0,11.57v0.13c-0.03,1.74,1.09,2.02,1.76,2.03h0.04
		c0.51,0,0.95-0.16,1.27-0.46c0.53-0.51,0.53-1.16,0.53-1.6v-0.05c0-1.42,0-2.84,0-4.26v-2.96
		C397.74,51.15,397.74,49.7,397.73,48.24L397.73,48.24z"/>
	<path class="st0" d="M138.26,52.86c0-1.18,0.01-2.4-0.01-3.61c-0.01-0.59-0.22-1.1-0.61-1.45c-0.34-0.31-0.8-0.47-1.3-0.45
		c-1.04,0.04-1.77,0.84-1.78,1.95c-0.01,2.72-0.01,5.6-0.01,9.34c0,1.37,0.86,1.93,1.66,2c0.07,0.01,0.14,0.01,0.21,0.01
		c0.46,0,0.88-0.14,1.2-0.42c0.62-0.54,0.63-1.35,0.63-1.62c0.01-1.03,0.01-2.08,0.01-3.09L138.26,52.86L138.26,52.86z"/>
	<path class="st0" d="M90.47,52.86c0-1.18,0.01-2.4-0.01-3.61c-0.01-0.59-0.22-1.1-0.61-1.45c-0.34-0.31-0.8-0.47-1.3-0.45
		c-1.04,0.04-1.77,0.84-1.78,1.95c-0.01,2.72-0.01,5.6-0.01,9.34c0,1.37,0.86,1.93,1.66,2c0.07,0.01,0.14,0.01,0.21,0.01
		c0.46,0,0.88-0.14,1.2-0.42c0.62-0.54,0.63-1.35,0.63-1.62c0.01-1.03,0.01-2.08,0.01-3.09L90.47,52.86L90.47,52.86z"/>
	<path class="st0" d="M102.44,48.05c0-0.47,0.01-1.18-0.56-1.7c-0.24-0.22-0.67-0.47-1.35-0.44c-0.78,0.04-1.7,0.43-1.7,2.07
		c0,0.07,0,0.14,0,0.21c-0.01,0.09-0.01,0.18-0.01,0.25v11c0,0.2,0.01,0.4,0.01,0.6v0.04c0.01,0.63,0.23,1.14,0.63,1.49
		c0.31,0.27,0.7,0.41,1.13,0.41c0.05,0,0.09,0,0.14-0.01c1.01-0.07,1.7-0.88,1.7-2c0-0.18,0-0.35,0-0.52v-0.09c0-0.21,0-0.42,0-0.63
		v-7.47c0-1.02,0.01-2.05-0.01-3.08V48.05L102.44,48.05z"/>
	<path class="st0" d="M147.51,48.91c-0.66-0.04-1.09,0.21-1.34,0.43c-0.38,0.34-0.58,0.83-0.58,1.45c-0.01,2.25-0.02,4.34-0.01,6.39
		c0,1.43,0.96,1.95,1.8,1.96c0.52,0,0.96-0.17,1.29-0.48c0.49-0.47,0.56-1.08,0.56-1.61v-4.06c0-0.71,0-1.42-0.01-2.13
		C149.2,49.49,148.33,48.95,147.51,48.91L147.51,48.91z"/>
	<path class="st0" d="M321.53,54.28l-0.03-0.72v-0.63c0.01-1.12,0.02-2.29-0.02-3.46c-0.02-0.76-0.24-1.44-0.61-1.92
		c-0.39-0.51-0.9-0.72-1.43-0.61c-0.86,0.18-1.49,1.29-1.5,2.64c-0.02,3.66-0.03,6.87-0.01,9.82c0,0.81,0.2,1.55,0.56,2.08
		c0.32,0.47,0.74,0.73,1.2,0.73c0.04,0,0.07,0,0.1,0c0.96-0.08,1.7-1.29,1.73-2.81c0.02-1.25,0.02-2.49,0.01-3.69
		C321.53,55.23,321.53,54.75,321.53,54.28L321.53,54.28z"/>
	<path class="st0" d="M33.49,49.76c-1.01,0-1.74,0.71-1.76,1.71c-0.01,0.62-0.01,1.24-0.01,1.79l0.01,1.13v0.33
		c-0.01,0.64-0.01,1.3,0.01,1.97c0.03,0.82,0.67,1.48,1.54,1.58c0.08,0.01,0.16,0.01,0.24,0.01c0.44,0,0.86-0.14,1.17-0.41
		c0.36-0.31,0.56-0.74,0.57-1.22c0.04-1.9,0.02-3.77,0.01-5.2C35.27,50.47,34.52,49.75,33.49,49.76L33.49,49.76z"/>
	<path class="st0" d="M67.22,54.09l-0.02-0.43V53.4c0.01-0.59,0.01-1.21-0.02-1.83c-0.04-0.84-0.78-1.47-1.74-1.48
		c-0.94,0-1.72,0.67-1.74,1.49c-0.05,1.7-0.06,3.27-0.02,4.78c0.01,0.47,0.23,0.91,0.59,1.21c0.32,0.26,0.73,0.41,1.17,0.41
		c0.08,0,0.16-0.01,0.24-0.02c0.85-0.1,1.49-0.76,1.53-1.56c0.03-0.57,0.03-1.13,0.02-1.69C67.23,54.5,67.22,54.3,67.22,54.09z"/>
	<path class="st0" d="M159.05,53.33c0-0.67,0-1.34,0-2.01c-0.01-1.14-0.62-1.89-1.63-1.99c-0.52-0.05-1,0.09-1.36,0.39
		c-0.28,0.24-0.61,0.68-0.61,1.48c-0.02,1.85-0.01,3.63,0,5.61c0,0.63,0.22,1.14,0.61,1.49c0.22,0.19,0.59,0.42,1.15,0.42
		c0.06,0,0.11,0,0.17-0.01c1.02-0.08,1.69-0.89,1.68-2.01c-0.01-0.64-0.01-1.28-0.01-1.93L159.05,53.33L159.05,53.33z"/>
	<path class="st0" d="M111.9,51.19c-1.06-0.04-1.82,0.66-1.92,1.77c-0.04,0.39-0.03,0.77-0.02,1.13v0.04c0,0.12,0.01,0.24,0.01,0.36
		c0,0.16,0,0.32-0.01,0.49c-0.01,0.39-0.01,0.8,0.02,1.23c0.09,1.08,0.81,1.77,1.83,1.77c0.04,0,0.08,0,0.12,0
		c0.96-0.05,1.67-0.78,1.7-1.73c0.04-1.27,0.04-2.33,0-3.33C113.59,51.95,112.86,51.23,111.9,51.19L111.9,51.19z"/>
</g>
</svg>
