<?xml version="1.0" encoding="UTF-8"?><svg id="a" xmlns="http://www.w3.org/2000/svg" viewBox="0 0 650.5 648.47"><defs><style>.b{fill:#fff;}.c{fill:rgba(255,255,255,.85);}.d{fill:rgba(255,255,255,.6);}.e{fill:rgba(255,255,255,.5);}</style></defs><path class="d" d="M650.5,322.52c-1.33,90.66-32.06,167.43-94.79,230.44-58.72,58.98-130.37,91.07-213.71,95.05-95.52,4.58-178.3-26.69-246.25-93.76C33.73,493.01,1.66,417.87,.06,330.72-1.6,239.1,30.25,160.05,94.94,95.06,152.2,37.52,222.18,5.79,303.33,.74c93.41-5.83,175.43,22.92,243.84,86.7,68.47,63.84,101.79,143.66,103.33,235.08Zm-.39,2.12c-1.32-89.12-32.42-166.16-95.64-229.09C488.26,29.64,407.3-2.42,313.84,.56,229.23,3.26,156,35.25,96.12,95.03,33.07,157.99,.88,234.59,.34,323.8c-1.06,174.56,141.54,324.66,326.89,324.67,88.08-2.01,164.35-32.9,226.79-94.98,63.26-62.91,94.6-139.79,96.11-228.84h-.01Z"/><path class="d" d="M614.74,324.56c-.17,159.35-130.2,288.64-289.81,288.18-160.2-.46-289.32-129.47-289.18-288.82,.14-157.75,127.98-288.36,289.83-288.18,161.9,.18,289.45,131.13,289.16,288.82h-.01Zm-289.81,286.31c157.53,.1,287.74-126.82,287.91-286.32,.17-160.01-130.41-286.76-287.26-286.95-156.71-.18-287.7,126.16-287.91,286.31-.2,159.45,129.7,286.7,287.26,286.96Z"/><path class="d" d="M581.62,324.46c-.01,141.02-114.84,255.13-256.67,255.16-140.83,.02-256.64-114.06-256.05-256.49,.57-140.24,114.71-254.28,256.47-254.27,141.66,.01,256.26,114.4,256.25,255.61h.01Zm-3.05-.03c-.31-140.37-114.49-252.37-253.13-252.48-138.5-.11-253.31,111.59-253.42,252.1-.11,140.64,114.66,252.38,253.03,252.49,138.43,.11,252.97-111.52,253.51-252.11h.01Z"/><path class="d" d="M556,324.13c.02,127.21-103.19,230.01-230.82,230.12-125.63,.12-229.64-100.84-230.66-228.08-1.05-129.26,104.1-232.23,231.15-231.96,127.1,.27,230.32,103.1,230.34,229.91Zm-4.3,.3c-.06-124.53-101.39-225.94-226.55-225.89-124.72,.05-225.96,100.83-226.33,224.99-.36,124.93,101.23,226.37,226.32,226.42,124.77,.06,226.5-101.21,226.56-225.52Z"/><path class="c" d="M536.4,324.47c-.75,119.06-97.44,211.24-213.17,210.21-113.91-1.02-209.36-92.54-209.12-210.84,.23-119.57,98.11-211.17,213.21-210.04,113.1,1.11,208.55,92,209.08,210.68h0ZM325.12,119.26c-115.01,.5-205.69,93.57-205.5,205.57,.19,112.41,92.63,204.36,205.63,204.27,113.71-.09,205.73-92.12,205.43-205.84-.29-111.14-90.85-203.57-205.56-204Z"/><path class="b" d="M512.73,324.11c-.4,104.34-84.55,186.03-186.34,186.64-103.27,.62-188.57-81.89-188.62-186.39-.05-104.75,85.14-186.22,186.59-186.65,102.23-.44,187.83,81.29,188.36,186.41h.01Zm-187.29-179.81c-101.16,.34-179.95,81.51-180.96,178.02-1.04,98.89,79.27,181.7,180.67,181.72,14.22,0,28.02-1.62,41.23-4.68,80.15-18.58,138.75-90.14,139.55-173.41,.94-97.98-78.35-181.05-180.5-181.65h0Z"/><circle class="e" cx="325.25" cy="324.24" r="180.5"/></svg>