<?xml version="1.0" encoding="UTF-8"?><svg id="a" xmlns="http://www.w3.org/2000/svg" xmlns:xlink="http://www.w3.org/1999/xlink" viewBox="0 0 414 417"><defs><style>.c{fill:#fff;}.d{fill:#b3b3b3;}.e{fill:#bababa;}.f{fill:#bbb0a5;}.g{fill:gray;}.h{fill:url(#b);fill-opacity:.5;}.i{fill:#2d2d2d;isolation:isolate;opacity:.55;}.j{opacity:.6;}</style><radialGradient id="b" cx="-1029.83" cy="763.02" fx="-1029.83" fy="763.02" r="1" gradientTransform="translate(153853.81 36654.05) scale(149.2 -47.58)" gradientUnits="userSpaceOnUse"><stop offset=".13" stop-color="#333"/><stop offset=".81" stop-color="#333" stop-opacity=".23"/><stop offset="1" stop-color="#333" stop-opacity="0"/></radialGradient></defs><g class="j"><path class="g" d="M172,12c9.5-4,22-9.5,36.5-11,0,0-14.5,3.5-36.5,11Z"/><path class="g" d="M143.5,118c.92-4.91,2.09-13.11,4.88-35.59,2.54-20.45,5.33-44.68,5.62-45.41-2.48,6.19-11.5,51.84-12,86.5l1.5-5.5Z"/><path class="g" d="M148,148s4.88,8.88,15.5,15c0,0-10.28-3.66-15.5-15Z"/><path class="g" d="M282.86,51s-5,36.57-5.94,44.27c-.94,7.7-7.92,42.29-7.92,42.29,0,0,9.27-25.65,13.86-86.56Z"/><path class="g" d="M268.9,140.03l-13.66-4.03c-.35,10.34-.3,20.67,.1,31,1.9-.58,3.39-1.64,4.35-3.09,4.92-7.43,8.84-15.16,9.32-23.82,0-.04-.04-.08-.1-.06h0Z"/><path class="g" d="M256.03,98.7l13.47,5.8,.91-5.24-14.41-5.26c.01,1.57,.02,3.13,.03,4.7Z"/><path class="g" d="M255.43,111.84l12.19,4.35,.88-4.69s-9.28-3.68-13-4.5c-.02,1.61-.04,3.22-.07,4.84h0Z"/><path class="g" d="M265.5,129l1.05-4.24-11.05-4.26c.05,.52-.03,4.95-.03,4.95,.62,.07,9.46,3.37,10.03,3.55Z"/><path class="g" d="M263.73,38.56c3.07,.28,16.8,8.38,16.77,7.94-.35-6.3-1.11-15.21-5-20.5-3.46-4.71-8.71-7.7-13.82-10.5-1.69-.93-4.88-1.78-7.68-3,2.54,4.41,3.51,11.21,3.51,11.21l-7.51,59.14c.35,.05,.7,.11,1.05,.19,3.49,.77,5.29,4.29,5.54,4.42,4.07-.21,12.94,3.21,14.91,4.04,0,0,.9-3.87,.81-4.41-5.93-1.95-11.03-3.72-15.29-5.28-2.04-.74-3.3-2.31-2.42-4.62,.83-2.19,2.6-2.9,4.81-2.19,4.4,1.41,9.99,3.5,14.38,5.5,.32-1.62,.64-3.62,.82-4.89-.99-.35-13.06-4.88-15.44-5.72-2.08-.74-3.43-2.08-3-4.46,.37-2.06,2.55-3.21,5.16-2.52,4.36,1.15,13.22,4.31,14.07,4.59,0,0,1.22-3.72,1.23-4.31,0,0-10.31-4.16-16.4-5.8-2.08-.56-2.63-2.38-2.12-4.35,.56-2.16,2.29-2.7,4.24-2.35,3.38,.6,12.49,4.39,14.65,5.3l1.1-4.9c-.89,.17-15.95-5.69-16.43-5.94-1.59-.84-2.43-2.16-2.01-3.97,.49-2.1,2.05-2.83,4.06-2.64h0Z"/><path class="c" d="M204.16,6.59l-.03-.04s.02,.03,.03,.04h0Z"/><path class="g" d="M199.95,175.33c3.75,.81,12.13,3.14,15.96,3.6,5.15,.62,10.43,1.12,15.61,1.51,.49-.25,.9-.83,1.39-1.09l.03-.04c4.02-3.18,4.64-7.99,5.63-12.47,.77-3.47,1.02-7.12,1.06-10.7,.03-2.39,.02-4.7,0-6.98-.61,4.11-.37,11.24-3.25,13.7-10.2,8.76-31.68,12.11-36.43,12.47h0Z"/><path class="g" d="M254.55,13.79c-12.08-5.18-30.59-11.72-36.2-11.78-5.26-.19-6.37,7.22-8.3,11.73-.93,2.16-2.31,3.52-4.76,3.43-2.65-.11-3.15-4.16-3.15-7.16,.15-4.22,.76-5.59,.35-5-2.48,1.53-2.41,7.78-3.43,10.22-.83,1.98-2.7,4.58-5.52,4.64-2.43,.04-2-5.01,0-12.36-6.5,7.35-3.91,10.81-4.42,12.07-.58,1.46-1.07,2.28-2.71,2.22-1.67-.06-2.12-1.15-2.24-2.83s-.33-5.46,.67-9.46c-4.5,4-4.01,10.88-4.64,12.29-.64,1.4-1.52,1.87-3.21,1.67-1.68-.2-1.5-4.96-.5-10.46-4,5.5-2.88,8.59-4.2,10.46-.95,1.34-.55,2.04-2.89,2.04-2,0-2.41-1.03-2.41-3,0-2.08,.57-5.84,.99-6.5-1.38,.42-4.11,2.52-5.59,4-3.36,3.36-6.94,9.69-7.5,16.5,4.22-.91,11.25-2.99,15.6-3.38,2.09-.18,3.15-.14,3.9,2.38,0,2.5-1.36,3.74-3.66,4.29-5.77,1.39-14.31,3.58-15.34,4.21-.28,.45-1,4.68-1,5.96,4.66-1.36,10.89-3.28,14.59-4.14,3.07-.71,4.73,.36,5.17,2.45,.47,2.21-.54,3.85-3.42,4.58-5.96,1.51-17.46,5.58-17.84,5.71,0,0-.88,4.4-.9,4.86,2.36-.88,13.22-4.29,15.99-4.86,2.22-.45,4.55-1.49,5.05,1.41,.47,2.72-1.3,3.86-3.63,4.46-5.42,1.41-18.21,6.05-18.91,6.07-.12,.6-.97,4.39-1,5,4.13-1.17,17.26-5.42,18.7-5.49,1.79-.09,3.22,.54,3.61,2.46,.42,2.04-.42,3.48-2.4,4.19-7.71,2.77-13.91,3.6-20.41,5.55,0,0-.58,3.9-.54,4.32,3.42-1.44,10.6-2.79,15.38-3.92,1.04-.25,2.12-.34,3.19-.4,1.82-.09,3.19,.73,3.6,2.54,.44,1.99-.33,3.57-2.33,4.25-2.54,.86-18.01,4.48-20.8,5.5,.03,.47-.75,3.49-.72,3.96,2.63-.77,16.6-4.94,19.27-5.19,1.8-.17,3.12,.91,3.53,2.7,.35,1.53-.14,3.27-1.6,3.65-7.43,1.94-16.87,4.44-21.99,6.28,0,.92-.72,3.04-.72,3.96,4.59-1.58,16.96-4.87,18.03-4.98,2.24-.23,4.58-.3,5.15,2.54,.54,2.68-1.27,3.8-3.57,4.51-3.77,1.16-19.17,5.29-19.81,5.56,0,.7-1.08,3.79-1.08,4.5,2.61-.7,20.26-5.88,21.08-5.62,1.5,.47,2.37,1.61,2.38,3.2,0,1.58-.89,2.71-2.29,3.3-3.88,1.61-20.81,6.91-21.17,6.83-.51,5.63-1.04,12.4,2.5,17.3-.84-2.34-.5-5.69,0-7.71,0-1.26,1.26-1.79,2.54-1.79,.97,0,1.7,.57,2.01,1.44,.57,1.64,3.31,14.21,3.38,14.26,.35,1.04,5.13,5.67,6.37,6.11-2.11-6.04-6.62-18.44-6.67-20.02-.04-1.42,.02-2.99,1.53-3.65,1.73-.77,2.81,.56,3.11,2.4,1.78,14.27,1.54,18.55,12.74,28.31,.79-.04,2.09,.04,2.88,0-2.04-2.16-8.66-6.23-13.71-29-.24-3.08,1.82-5.02,4.51-3.63,.53,.27,.9,.84,1.33,1.65,0,0,3.39,14.88,8.09,21.2,3.41,4.6,7.43,8.62,11.8,12.29,1.33,1.88-.95,3.07-1.32,3.64,4.8,2.39,7.8,2.77,12.92,4,4.92-.72,27.47-3.49,37.55-13.08,3.17-3.02,2.86-17.2,3.13-20.18-.16-8.1-.42-15.96-.41-24.76,0-1.43-.36-6.32-.24-6.99-2.19,2.2-4.51,1.2-6.91,.31-9.32-3.47-18.91-5.67-28.92-5.89-6.71-.15-13.28,.62-19.76,2.31-1.22,.31-2.42,.77-3.66,.87-1.81,.15-3.15-.73-3.62-2.54-.45-1.75,.09-3.21,1.75-4.09,.63-.34,1.3-.62,1.99-.8,18.6-4.98,36.92-5.28,54.74,3.18,1.62,.77,3.29,1.48,4.54,2.85,0,0,0-5.58,.28-8.03-2.24,1.32-4.16-.02-6.14-.75-10.56-3.87-21.39-6.13-32.71-5.81-5.43,.15-10.71,1.13-15.97,2.36-1.04,.25-2.07,.64-3.13,.79-1.82,.26-3.21-.51-3.85-2.24-.74-2.01,.06-3.59,1.93-4.43,1.63-.73,3.36-1.3,5.1-1.69,19.18-4.38,37.82-3.59,55.46,6.12,.4-1.91,.77-3.28,1.61-4.78-2.49,.85-5.24-.49-7.72-1.4-16.27-5.93-32.79-7.78-49.71-2.83-3.08,.9-5.22-.13-5.61-2.41-.47-2.72,1.32-3.97,3.55-4.57,18.95-5.15,37.63-5.47,55.72,3.41,4.17,2.05,5.43,2.2,4.93,6.35,1.02-.81,3.09-2.03,7.15-1.73,.74-5.5,6.65-49.88,7.85-59.01,.75-5.75-1.14-10.78-2.34-13.28h-.03Zm-51.24-5.2h0l-.03-.04,.03,.04Zm-2.32,161.6c-1.18,2.14-3.03,1.83-5.15,1.1-3.33-1.15-24.35-12.65-23.99-37.68-.27-2.7,3.42-3.42,4.16-1.58,1.36,1.32-2.26,6.96,9.06,24.89,4.2,6.63,11.85,7.23,14.42,8.6,2.13,1.14,2.61,2.63,1.49,4.68h0Zm9.84-3.84c-1.18,2.14-3.02,1.83-5.15,1.1-3.33-1.15-24.35-12.65-23.99-37.68-.27-2.7,3.42-3.42,4.16-1.58,1.36,1.32-2.26,6.96,9.06,24.89,4.19,6.64,11.25,7.79,13.82,9.16,2.13,1.14,3.21,2.08,2.08,4.12h0Zm4.23-5.95c-8.29-1.69-19.29-9.79-24.48-30.31-.5-2-.14-4.16,1.83-4.51,1.8-.33,2.6,1.36,2.94,3.07,4.28,21.74,23.4,25.18,23.87,26.93,.68,2.59-1.32,5.39-4.15,4.82h0Zm-39.18-46.62c1.27-.63,2.72-.94,4.11-1.31,7.35-1.98,14.88-2.67,21.57-2.82,10.72,.19,20.26,1.73,29.25,5.94,.82,.38,1.63,.75,2.43,1.18,3.5,1.88,4.52,3.51,3.58,5.66-.93,2.1-2.78,2.46-6.58,1.02-12.49-4.74-25.34-6.92-38.71-5.64-3.43,.33-6.76,1.02-10.08,1.87-1.22,.31-2.43,.76-3.67,.88-1.75,.17-3.23-.48-3.84-2.29-.68-2.04,.14-3.6,1.94-4.49h.01Zm-5.37,12.07c.72-45.11,9.61-97.66,9.61-97.66l-9.61,97.66Zm71.72-50.72c-.93,2.31-2.79,2.62-6.94,1.08-16.41-6.1-33.07-8.12-50.18-3.23-.69,.19-1.38,.43-2.09,.48-1.81,.11-3.18-.62-3.72-2.42-.53-1.74-.07-3.32,1.6-4.12,1.6-.77,3.33-1.37,5.07-1.76,7.02-1.57,14.1-2.78,20.74-2.55,11.37-.16,21.65,1.99,31.35,6.73,4.03,1.97,5.1,3.53,4.19,5.81h0Zm1.53-13.33c-.87,1.61-2.2,2.36-4.01,1.99-.87-.18-1.7-.56-2.54-.88-16.59-6.27-33.47-8.16-50.79-3.34-.52,.15-1.04,.32-1.57,.4-2.07,.3-3.6-.54-4.17-2.52-.58-2.02,.37-3.59,2.27-4.32,4.38-1.7,9.01-2.51,13.63-3.17,4.09-.58,8.24-.69,10.97-.89,11.58,.15,21.45,1.81,30.73,6.19,1.46,.69,2.95,1.4,4.24,2.34,1.38,1.01,2.2,2.4,1.23,4.21h0Zm1.34-12.21c-.87,1.51-2.24,2.4-4.07,1.86-1.37-.41-2.68-1.03-4.04-1.5-15.97-5.6-32.15-7.67-48.72-2.78-.69,.2-1.4,.35-2.11,.43-2.08,.25-3.54-.63-4.1-2.64-.5-1.81,.34-3.19,1.96-3.97,1.12-.54,2.35-.87,3.57-1.2,7.5-2.04,15.13-3.13,19.71-3.07,13.6,.04,23.58,1.96,32.99,6.49,1.29,.62,2.58,1.3,3.74,2.13,1.49,1.06,2.03,2.59,1.08,4.25h0Zm-2.24-10.21c-1.04-.14-2.05-.64-3.06-1.02-16.57-6.23-33.4-8.22-50.7-3.25-3.18,.91-5.18,0-5.59-2.29-.47-2.67,1.13-4.03,3.43-4.65,18.94-5.13,37.61-5.44,55.69,3.4,1.87,.91,4.16,1.62,4.18,4.38-.02,2.06-1.82,3.71-3.95,3.43h0Z"/><path class="g" d="M221.28,301.05c14.41,.74,28.67,2.49,42.6,6.53,3.98,1.15,7.91,2.47,11.59,4.39,1.6,.83,3.19,1.7,4.64,2.77,5.29,3.91,5.22,5.63-.4,8.81-6.01,3.41-12.57,5.44-19.25,6.91-23.91,5.24-48.1,6.43-72.48,4.96-13.86-.83-27.61-2.33-41.06-5.96-6.09-1.64-12.12-3.51-17.39-7.17-3.22-2.24-3.29-3.11-.57-5.81,2.61-2.59,5.87-4.17,9.17-5.62,11.18-4.89,23.09-6.82,35.06-8.41,6.06-.81,12.16-1.37,18.3-1.45,.79,3.83-.42,7.54-.61,11.31-.3,6.28,2.23,9.05,8.46,9.21,4.31,.11,8.63,.05,12.94,.02,7.76-.07,10.44-3.13,9.38-10.79-.44-3.23-.94-6.44-.38-9.7h0Z"/></g><path class="c" d="M171.47,12.16c.08-.19,20.78-10.5,38.39-11.15,0,0-14.94,1.38-38.39,11.15Z"/><path class="c" d="M141.89,125.31c-.08-.08,1.82-19.78,4.87-42.65,2.77-20.81,6.71-44.97,7.02-45.71-2.7,6.3-11.34,53.09-11.89,88.37h0Z"/><path class="c" d="M146.93,147.98s5.76,9.18,16.38,15.3c0,0-11.16-3.96-16.38-15.3Z"/><path class="c" d="M281.86,51s-5,36.57-5.94,44.27c-.94,7.7-7.92,42.29-7.92,42.29,0,0,9.27-25.65,13.86-86.56Z"/><path class="c" d="M266.65,138.42l-11.39-3.99c-.29,10.24-.25,20.48,.08,30.72,1.58-.57,2.82-1.63,3.63-3.06,4.1-7.37,7.37-15.02,7.77-23.61,0-.04-.04-.08-.08-.06h0Z"/><path class="c" d="M255.24,100.95l13.79,5.93,.91-5.24-14.73-5.4c.01,1.57,.02,3.13,.03,4.7Z"/><path class="c" d="M255.18,113.68l11.89,4.89,.88-4.69s-8.99-4.21-12.71-5.04c-.02,1.61-.04,3.22-.06,4.84h0Z"/><path class="c" d="M265.1,130.35l1.06-4.24-10.94-4.57c.05,.52-.03,4.95-.03,4.95,.62,.07,9.34,3.67,9.91,3.86Z"/><path class="c" d="M261.85,39.92c3.07,.28,18.74,7.09,18.71,6.65-.35-6.3-3.06-14.72-6.94-20.01-3.46-4.71-7.93-8.12-13.05-10.92-1.69-.93-4.07-2.06-6.87-3.28,2.54,4.41,1.94,12.71,1.94,12.71l-7.51,59.14c.35,.05,.7,.11,1.05,.19,3.49,.77,5.29,4.29,5.54,4.42,4.07-.21,14.42,4.35,16.39,5.17,0,0,.9-3.87,.81-4.41-5.93-1.95-12.51-4.86-16.77-6.42-2.03-.74-3.3-2.31-2.42-4.62,.83-2.19,2.6-2.9,4.81-2.19,4.4,1.41,11.6,4.23,16,6.23,.33-1.62,.64-3.62,.82-4.89-1-.35-14.68-5.61-17.05-6.45-2.08-.74-3.43-2.08-3-4.46,.37-2.06,2.55-3.21,5.16-2.52,4.36,1.15,14.35,5.27,15.2,5.55,0,0,1.22-3.72,1.23-4.31,0,0-11.44-5.12-17.53-6.75-2.08-.56-2.63-2.38-2.12-4.35,.56-2.16,2.29-2.7,4.24-2.35,3.38,.6,14.04,5,16.2,5.91l1.1-4.9c-.89,.17-17.51-6.29-17.98-6.54-1.59-.84-2.43-2.16-2.01-3.97,.49-2.1,2.05-2.83,4.06-2.64h0Z"/><path class="f" d="M201.16,6.59l-.03-.04s.02,.03,.03,.04h0Z"/><path class="c" d="M196.95,175.33c3.75,.81,12.13,3.14,15.96,3.6,5.15,.62,10.43,1.12,15.61,1.51,.49-.25,.9-.83,1.39-1.09l.03-.04c4.02-3.18,4.64-7.99,5.63-12.47,.77-3.47,1.02-7.12,1.06-10.7,.03-2.39,.02-4.7,0-6.98-.61,4.11-.37,11.24-3.25,13.7-10.2,8.76-31.68,12.11-36.43,12.47h0Z"/><path class="c" d="M252.4,11.79C240.32,6.6,221.81,.07,216.2,0c-5.25-.19-6.37,7.22-8.3,11.73-.93,2.16-2.31,3.52-4.76,3.43-2.65-.11-2.59-3.69-2.13-6.09,.81-4.22,1.94-6.02,1.53-5.42-2.48,1.53-4.61,7.14-5.63,9.58-.83,1.98-2.7,4.58-5.52,4.64-2.42,.04,.11-7.01,2.76-12.3-4.32,3.36-6.67,10.74-7.18,12-.58,1.46-1.62,2.4-3.26,2.34-1.67-.06-1.56-1.27-1.68-2.95-.04-.53,1.26-4.68,3.06-8.82-3.78,2.7-6.4,10.24-7.04,11.65-.63,1.37-1.52,2.62-3.2,2.42-1.79-.22-.68-4.35,1.84-10.65-2.6,2.46-5.22,8.03-6.54,9.9-.95,1.34-2.55,3.54-4.46,2.77-1.86-.75-.76-2.57-.34-4.15,.42-1.55,2.76-5.1,3.18-5.76-1.38,.42-4.34,2.54-5.82,4.02-3.36,3.36-7.35,9.15-7.91,15.96,4.22-.91,9.2-2.8,13.55-3.18,2.09-.18,4.06-.31,4.81,2.21,.65,2.21-.35,3.99-3.17,4.67-5.77,1.39-13.92,3.9-14.95,4.52-.28,.45-.81,4.38-.72,5.04,4.66-1.36,8.82-2.88,12.52-3.73,3.07-.71,4.73,.36,5.17,2.45,.47,2.21-.54,3.85-3.42,4.58-5.96,1.51-15.34,5.22-15.72,5.35,0,0-.88,4.4-.9,4.86,2.36-.88,11.09-3.93,13.86-4.5,2.22-.45,4.55-1.49,5.05,1.41,.47,2.72-1.3,3.86-3.63,4.46-5.42,1.41-15.81,5.8-16.52,5.82-.12,.6-.66,3.42-.69,4.03,4.13-1.17,14.55-4.2,15.99-4.27,1.79-.09,3.22,.54,3.61,2.46,.42,2.04-.42,3.48-2.4,4.19-7.71,2.77-11.65,3.15-18.15,5.1,0,0-.58,3.9-.54,4.32,3.42-1.44,8.34-2.34,13.12-3.47,1.04-.25,2.12-.34,3.19-.4,1.82-.09,3.19,.73,3.6,2.54,.44,1.99-.33,3.57-2.33,4.25-2.54,.86-15.87,3.98-18.66,5,.03,.47-.75,3.49-.72,3.96,2.63-.77,14.46-4.44,17.13-4.69,1.8-.17,3.12,.91,3.53,2.7,.35,1.53-.14,3.27-1.6,3.65-7.43,1.94-14.31,3.87-19.42,5.72,0,.92-.72,3.04-.72,3.96,4.59-1.58,14.4-4.3,15.47-4.41,2.24-.23,4.58-.3,5.15,2.54,.54,2.68-1.27,3.8-3.57,4.51-3.77,1.16-16.59,4.48-17.23,4.74,0,.7-1.08,3.79-1.08,4.5,2.61-.7,17.68-5.06,18.5-4.81,1.5,.47,2.37,1.61,2.38,3.2,0,1.58-.89,2.71-2.29,3.3-3.88,1.61-20.81,6.91-21.17,6.83-.51,5.63,1.02,13.75,4.56,18.65-.84-2.34-1.72-6.78-1.56-8.87,.08-1.08,.76-1.99,2.04-1.98,.98,0,1.71,.57,2.01,1.44,.57,1.64,3.31,14.21,3.38,14.26-.02-.02,4.76,4.61,6,5.05-2.11-6.04-6.26-17.38-6.3-18.96-.04-1.42,.02-2.99,1.53-3.65,1.73-.77,2.81,.56,3.11,2.4,1.77,14.27,3.69,21.06,14.89,30.83,.79-.04,1.57-.09,2.36-.14-2.04-2.16-10.29-8.61-15.34-31.38-.24-3.08,1.82-5.02,4.51-3.63,.53,.27,.9,.84,1.33,1.65,0,0,3.39,14.88,8.09,21.2,3.41,4.6,7.43,8.62,11.8,12.29,1.33,1.88,.67,3.86,.3,4.43,4.8,2.39,5.22,2.33,10.34,3.56,4.92-.72,28.43-3.84,38.52-13.43,3.17-3.02,2.86-17.2,3.13-20.18-.16-8.1-.42-15.96-.41-24.76,0-1.43-.36-6.32-.24-6.99-2.19,2.2-4.51,1.2-6.91,.31-9.32-3.47-18.91-5.67-28.92-5.89-6.71-.15-13.28,.62-19.76,2.31-1.22,.31-2.43,.77-3.66,.87-1.81,.15-3.16-.73-3.62-2.54-.45-1.75,.09-3.21,1.75-4.09,.63-.34,1.3-.62,1.99-.8,18.59-4.98,36.92-5.28,54.74,3.18,1.62,.77,3.29,1.48,4.54,2.85,0,0,0-5.58,.28-8.03-2.24,1.32-4.16-.02-6.14-.75-10.56-3.87-21.39-6.13-32.71-5.81-5.43,.15-10.72,1.13-15.97,2.36-1.04,.25-2.07,.64-3.13,.79-1.82,.26-3.21-.51-3.85-2.24-.74-2.01,.06-3.59,1.93-4.43,1.63-.73,3.36-1.3,5.1-1.69,19.18-4.38,37.82-3.59,55.46,6.12,.4-1.91,.77-3.28,1.61-4.78-2.49,.85-5.24-.49-7.72-1.4-16.27-5.93-32.79-7.78-49.71-2.83-3.08,.9-5.22-.13-5.61-2.41-.47-2.72,1.32-3.97,3.55-4.57,18.95-5.15,37.63-5.47,55.71,3.41,4.17,2.05,5.43,2.2,4.93,6.35,1.02-.81,3.09-2.03,7.15-1.73,.74-5.5,6.65-49.88,7.85-59.01,.75-5.75-1.14-10.78-2.34-13.28h-.03Zm-51.24-5.2h0s-.02-.03-.03-.04l.03,.04Zm-2.32,161.6c-1.18,2.14-3.03,1.83-5.15,1.1-3.33-1.15-24.35-12.65-23.99-37.68-.27-2.7,3.42-3.42,4.16-1.58,1.36,1.32-2.26,6.96,9.06,24.89,4.19,6.63,11.25,7.79,13.82,9.16,2.13,1.14,3.21,2.08,2.08,4.12h0Zm9.84-3.84c-1.18,2.14-3.02,1.83-5.15,1.1-3.33-1.15-24.35-12.65-23.99-37.68-.27-2.7,3.42-3.42,4.16-1.58,1.36,1.32-2.26,6.96,9.06,24.89,4.19,6.64,11.25,7.79,13.82,9.16,2.13,1.14,3.21,2.08,2.08,4.12h0Zm4.23-5.95c-8.29-1.69-19.29-9.79-24.48-30.31-.5-2-.14-4.16,1.83-4.51,1.8-.33,2.6,1.36,2.95,3.07,4.28,21.74,23.4,25.18,23.87,26.93,.68,2.59-1.32,5.39-4.15,4.82h0Zm-39.18-46.62c1.27-.63,2.72-.94,4.11-1.31,7.35-1.98,14.88-2.67,21.57-2.82,10.72,.19,20.26,1.73,29.25,5.94,.82,.38,1.63,.75,2.43,1.18,3.5,1.88,4.52,3.51,3.58,5.66-.93,2.1-2.78,2.46-6.58,1.02-12.49-4.74-25.34-6.92-38.71-5.64-3.43,.33-6.76,1.02-10.08,1.87-1.22,.31-2.43,.76-3.68,.88-1.75,.17-3.22-.48-3.84-2.29-.68-2.04,.14-3.6,1.94-4.49h.01Zm-5.37,12.07c.72-45.11,9.61-97.66,9.61-97.66l-9.61,97.66Zm71.72-50.72c-.93,2.31-2.79,2.62-6.94,1.08-16.41-6.1-33.07-8.12-50.18-3.23-.69,.19-1.39,.43-2.09,.48-1.81,.11-3.18-.62-3.72-2.42-.53-1.74-.06-3.32,1.6-4.12,1.6-.77,3.33-1.37,5.07-1.76,7.03-1.57,14.1-2.78,20.74-2.55,11.37-.16,21.65,1.99,31.35,6.73,4.03,1.97,5.1,3.53,4.19,5.81h0Zm1.53-13.33c-.87,1.61-2.2,2.36-4.02,1.99-.87-.18-1.7-.56-2.54-.88-16.59-6.27-33.47-8.16-50.79-3.34-.52,.15-1.04,.32-1.57,.4-2.07,.3-3.6-.54-4.17-2.52-.58-2.02,.37-3.59,2.27-4.32,4.38-1.7,9.01-2.51,13.63-3.17,4.09-.58,8.24-.69,10.97-.89,11.58,.15,21.45,1.81,30.73,6.19,1.46,.69,2.95,1.4,4.24,2.34,1.38,1.01,2.2,2.4,1.23,4.21h0Zm1.34-12.21c-.87,1.51-2.24,2.4-4.07,1.86-1.38-.41-2.68-1.03-4.04-1.5-15.97-5.6-32.15-7.67-48.72-2.78-.69,.2-1.4,.35-2.11,.43-2.08,.25-3.54-.63-4.1-2.64-.5-1.81,.34-3.19,1.96-3.97,1.12-.54,2.35-.87,3.57-1.2,7.5-2.04,15.13-3.13,19.72-3.07,13.6,.04,23.58,1.96,32.99,6.49,1.29,.62,2.58,1.3,3.74,2.13,1.49,1.06,2.03,2.59,1.08,4.25h0Zm-2.24-10.21c-1.04-.14-2.05-.64-3.06-1.02-16.57-6.23-33.4-8.22-50.7-3.25-3.18,.91-5.18,0-5.59-2.29-.47-2.67,1.13-4.03,3.43-4.65,18.94-5.13,37.61-5.44,55.69,3.4,1.87,.91,4.16,1.62,4.18,4.38-.02,2.06-1.82,3.71-3.95,3.43h0Z"/><path class="h" d="M207,417c114.32,0,207-30.89,207-69s-92.68-69-207-69S0,309.89,0,348s92.68,69,207,69Z"/><path class="d" d="M221.28,299.05c14.41,.74,28.67,2.49,42.6,6.53,3.98,1.15,7.91,2.47,11.59,4.39,1.6,.83,3.19,1.7,4.64,2.77,5.29,3.91,5.22,5.63-.4,8.81-6.01,3.41-12.57,5.44-19.25,6.91-23.91,5.24-48.1,6.43-72.48,4.96-13.86-.83-27.61-2.33-41.06-5.96-6.09-1.64-12.12-3.51-17.39-7.17-3.22-2.24-3.29-3.11-.57-5.81,2.61-2.59,5.87-4.17,9.17-5.62,11.18-4.89,23.09-6.82,35.06-8.41,6.06-.81,12.16-1.37,18.3-1.45,.79,3.83-.42,7.54-.61,11.31-.3,6.28,2.23,9.05,8.46,9.21,4.31,.11,8.63,.05,12.94,.02,7.76-.07,10.44-3.13,9.38-10.79-.44-3.23-.94-6.44-.38-9.7h0Z"/><path class="d" d="M126.12,322c4.16,1.96,7.51,3.97,11.18,5.29,10.88,3.91,22.17,5.9,33.6,7.29,20.05,2.45,40.13,2.73,60.25,.99,12.54-1.09,24.99-2.86,37.09-6.41,5.45-1.6,10.91-3.28,15.18-7.04,1.85,.83,1.43,2.22,1.45,3.39,.06,3.2-.22,6.42,.08,9.59,.46,4.92-1.92,8.08-5.83,10.56-6.3,3.99-13.32,6.24-20.5,7.85-23.48,5.27-47.26,6.42-71.25,4.85-12.76-.83-25.38-2.41-37.76-5.61-5.75-1.49-11.33-3.43-16.49-6.42-4.66-2.7-7.6-6.27-7.05-12.1,.36-3.82,.07-7.7,.07-12.22h-.01Z"/><path class="d" d="M254.39,89.12c.62,2.45,.39,4.94,.48,7.42,0,1.57,.02,3.13,.03,4.7,0,2.63,.01,5.26,.02,7.89-.02,1.61-.04,3.22-.06,4.84,.01,2.62,.02,5.24,.04,7.87l-.03,4.94,.06,7.94c-.29,10.24-.24,20.48,.08,30.71-.53,2.64-1.04,5.29-1.61,7.92-2.31,10.68-8.93,16.8-19.4,18.92-2.27,.46-4.51,.92-6.83,.66-.57-1.26,.53-1.52,1.14-1.93,9.43-6.29,13.42-15.63,13.82-26.59,.62-17.43,.79-34.88,1.21-52.31,.14-5.75,.38-11.5,.67-17.25,.28-5.66,1.47-7.97,7.1-7.84,2.63,.06,3.05,1.99,3.3,2.12h0Z"/><path class="c" d="M196.46,283c6.41,.85,12.82,.55,19.24,.17,2.86,2.66,3.66,6.02,3.73,9.76,.04,2.03,.91,12.37,1.35,15.51,1.05,7.46-1.63,10.44-9.38,10.51-4.31,.04-8.62,.08-12.93-.02-6.23-.15-8.76-2.84-8.46-8.96,.18-3.67,1.81-15.85,1.7-18.24-.18-3.98,1.55-6.66,4.73-8.73h0Z"/><path class="d" d="M174,168.14c.78-.04,1.56-.09,2.35-.14,6.02,6.9,10.68,10.74,34.95,13.34,1.58,.19,4.11,1.06,1.73,1.48-2.33,.68-16.34-.67-24.04-3.1-5.84-1.96-11.39-4.89-14.99-11.59Z"/><path class="i" d="M250,102c2.21,0,4-2.24,4-5s-1.79-5-4-5-4,2.24-4,5,1.79,5,4,5Z"/><path class="e" d="M251,102c2.21,0,4-2.24,4-5s-1.79-5-4-5-4,2.24-4,5,1.79,5,4,5Z"/><path class="d" d="M236.88,92.26l-.71,5.63c-.19,2.44-.55,7.49-.28,8.02-.03,1.25-.06,2.51-.09,3.76,.18,7.04,.84,32.66,.7,46.67-.04,3.57-.28,7.21-1.07,10.69-1.01,4.48-1.63,9.29-5.69,12.46,0,0-.04,.04-.03,.04-.49,.25-2.35,1.56-2.79,1.95-3.76,2.8-10.36,3.41-15.22,3.75-33.28,2.39-44.69-9.65-46.94-19.66l-3.76,.72c1.09,4.49,5.94,18.29,22.28,21.34,2.85,.56,5.66,1.32,8.51,1.9,4.55,.93,4.62,.89,4.62,5.48,0,29.15-.02,58.29-.03,87.44,5.13,.69,10.26,.63,15.39,.39l.84-89.93,.8,89.82c.63-.03,1.81-.07,2.44-.11-.02-28.63,.02-57.26-.1-85.89-.01-3.15,.91-4.53,4.04-5.74,10.96-4.24,17.6-12.22,19.02-23.98,.45-3.75,.7-7.54,.71-11.32,.06-20.35,.61-40.68,1.38-61.01,.25-6.52,4.04-10.44,10.1-9.39-12.34-4.76-13.72,5.06-14.12,6.97h0Z"/></svg>