<?xml version="1.0" encoding="UTF-8"?><svg id="a" xmlns="http://www.w3.org/2000/svg" viewBox="0 0 345.75 111.7"><defs><style>.b{fill:#ffeba9;}</style></defs><path class="b" d="M183.68,10.69c38,0,76.01,.02,114.01,0,24.2-.02,43.88,11.98,44.11,28.59,.19,13.42-1.5,25.65-5,40.84-1.53,6.63-9,12.4-17,9.42-5.5-2.05-10-2.62-15-2.62-6.5,0-6.93,2.38-6.5,7.56,.03,2.33,.61,3.66,1,6.28,.54,3.66,4.1,6.19,1.5,6.81-2.6,.61-6.98-1.8-11.5-4.71-6.5-4.19-5.5-3.66-12.5-8.38-12.5-8.41-32.93-7.54-49.45-7.54-43.66,2.6-65.58,12.02-157.6,8.88-25.9,.1-50.53-16.19-57.42-33.16C2.82,39.29-5.77,10.91,33.32,10.69c38.32-.22,112.04,.04,150.36,.04v-.04Z"/></svg>