<?xml version="1.0" encoding="UTF-8"?><svg id="a" xmlns="http://www.w3.org/2000/svg" viewBox="0 0 348.17 101.76"><defs><style>.b{fill:#ffeba9;}</style></defs><path class="b" d="M188.66,95.61c-34.21,0-68.42,.09-102.62-.06-9.57-.04-62.71,2.12-76.19-6.91-12-8.04-3.9-24.89-3.7-37,.13-7.82-.11-13.49,3.7-21.04C17.86,14.69,36.36,4.78,58.96,4.69c22.43-.09,55.77,3.42,78.19,3.42,36.15,0,61.38-3.41,97.53-3.47,6.47-.01,12.44,1.04,18.05,3.47,5.01,2.17,8.72,5.47,11.49,9.06,14.86,19.32,23.29,31.01,35.3,53.52,7.55,10.16,.96,24.89-14.52,24.91-34.54,.05-61.81,.02-96.34,.01h0Z"/><path class="b" d="M327.26,85.89c-1.05,5.34-7.72,8.85-13.56,7.7-5.84-1.15-5.79-5.69-4.73-11.03,1.05-5.34,.36-13.27,6.2-12.12,5.84,1.15,13.15,10.11,12.1,15.45h0Z" shape-rendering="crispEdges"/><path class="b" d="M345.62,90.77c-2.35,3.84-8.61,5.46-12.88,3.72-4.28-1.75-.99-4.79,1.34-8.63,2.34-3.84,3.37-7.52,7.65-5.78,4.28,1.74,6.23,6.85,3.9,10.69Z" shape-rendering="crispEdges"/></svg>