<?xml version="1.0" encoding="UTF-8"?><svg id="a" xmlns="http://www.w3.org/2000/svg" viewBox="0 0 350.17 110.74"><defs><style>.b{fill:#ffeba9;}</style></defs><path class="b" d="M140.52,96.88c-40.26,3.85-79.26-.16-106.02,.11-15.94,.16-27.92-8.16-31.01-18.98-3.13-10.9,2.84-23.45,11.79-26.83,8.95-3.38,16.18-5.68,24.3-10.45,7.13-4.18,12.49-9.44,16.7-15.57,9.32-13.61,32.73-20.72,52.25-20.77,61.33-.16,122.66-.09,183.99-.06,22.49,0,38.09,12.38,38.17,30.22,.06,15.51-.42,15.68,.08,31.18,.37,11.14-.9,17.92,1,23.62,4.5,13.5,15.5,6.99,15.5,13,0,3-11.5,4-19,1.5-6-1.5-6.8-4.65-12.5-7-8-3.3-15.74,0-23.24,0-6-.12-4.76,.02-15.76,.14-11.59,.13-20.87,2.84-37,2.74-19.5-.12-12.84-.03-32.5-2.74-20-2.76-30-4.76-48.5-2.76l-18.24,2.64h0Z"/></svg>