<?xml version="1.0" encoding="UTF-8"?><svg id="a" xmlns="http://www.w3.org/2000/svg" viewBox="0 0 347.17 109.74"><defs><style>.b{fill:#fff8e0;}</style></defs><path class="b" d="M343.02,92.9c-6.18-2.19-18.52-8.05-20.38-9-8.63-4.42-14.23-13.57-19.32-22.94-.37-.81-.8-1.6-1.27-2.37-7.29-11.65-15.56-22.87-23.92-34.03-3.51-4.69-8.26-9.06-15.29-10.49-5.2-1.06-10.55-1.96-16.1-1.94-48.57-9.5-78.07-3.5-124.57,0-26,0-47,2.35-56.48,2.35-20.52,0-53.94-6.46-62.02,10.08-6.56,13.44,14,19.96,23.06,44.19,7.44,30.16,18.18,36.24,42.53,36.35,71.91-.3,180.88,.05,191.92,0,1.83,0,3.63-.12,5.4-.3,7.44-.56,14.26-2.47,20.49-5.88,2.17-.88,4.28-1.6,6.31-1.57,15.12,.19,30.23,.44,45.35,.66,.95,.01,1.89-.02,2.84-.02,1.83,0,3.62-.19,4.04-1.91,.39-1.61-.87-2.57-2.59-3.18h.01Z"/></svg>