<?xml version="1.0" encoding="utf-8"?>
<!-- Generator: Adobe Illustrator 26.2.1, SVG Export Plug-In . SVG Version: 6.00 Build 0)  -->
<svg version="1.1" id="圖層_1" xmlns="http://www.w3.org/2000/svg" xmlns:xlink="http://www.w3.org/1999/xlink" x="0px" y="0px"
	 viewBox="0 0 172.59 169.6" style="enable-background:new 0 0 172.59 169.6;" xml:space="preserve">
<style type="text/css">
	.st0{fill:#FAEAB0;}
	.st1{fill:#FDF7E1;}
</style>
<g>
	<path class="st0" d="M164.54,127.89c5.51-13.8,9.45-30.29-2.27-57.22c-12.52-25.99-29.81-29.75-40.38-40.85
		C105.73,12.87,94.14,0.03,72.61,4.28c-16.17,5.56-30.3,12.98-55.35,50.57C4.73,76.2-0.12,94.31,4.73,122.15
		c4.44,23.67,14.54,37.61,27.88,42.26c21.81,6.48,18.57-19.51,58.1-12.2c16,2.8,26.05,13.73,45.35,5.58
		c6.21-3.5,12.46-6.1,17.19-11.67S164.12,129.45,164.54,127.89z"/>
</g>
</svg>
