<?xml version="1.0" encoding="UTF-8"?><svg id="a" xmlns="http://www.w3.org/2000/svg" xmlns:xlink="http://www.w3.org/1999/xlink" viewBox="0 0 35.16 49.24"><defs><style>.c{fill:none;}.d{fill:#fff;}.e{clip-path:url(#b);}</style><clipPath id="b"><rect class="c" x=".12" y=".08" width="35" height="49"/></clipPath></defs><g class="e"><g><path class="d" d="M32.75,16.21c-1.31,0-2.36,1.08-2.36,2.41v4.61c0,2.87-1.4,5.68-3.95,7.9-2.51,2.19-5.73,3.45-8.82,3.45s-6.31-1.26-8.82-3.45c-2.54-2.22-3.95-5.03-3.95-7.9v-4.61c0-1.33-1.06-2.41-2.36-2.41S.12,17.29,.12,18.62v4.61c0,4.3,1.99,8.4,5.59,11.55,2.73,2.39,6.11,3.94,9.54,4.44v4.27h-3.69c-1.52,0-2.74,1.25-2.74,2.79s1.23,2.79,2.74,2.79h12.11c1.52,0,2.74-1.25,2.74-2.79s-1.23-2.79-2.74-2.79h-3.69v-4.27c3.43-.5,6.81-2.06,9.54-4.44,3.61-3.15,5.59-7.26,5.59-11.55v-4.61c0-1.33-1.06-2.41-2.36-2.41Z"/><path class="d" d="M17.62,30.88c5.02,0,9.08-4.14,9.08-9.24V9.32C26.7,4.21,22.63,.08,17.62,.08S8.53,4.21,8.53,9.32v12.32c0,5.1,4.07,9.24,9.08,9.24Z"/></g></g></svg>