<?xml version="1.0" encoding="utf-8"?>
<!-- Generator: Adobe Illustrator 26.2.1, SVG Export Plug-In . SVG Version: 6.00 Build 0)  -->
<svg version="1.1" id="圖層_1" xmlns="http://www.w3.org/2000/svg" xmlns:xlink="http://www.w3.org/1999/xlink" x="0px" y="0px"
	 viewBox="0 0 106.18 105.27" style="enable-background:new 0 0 106.18 105.27;" xml:space="preserve">
<style type="text/css">
	.st0{fill:#FFFFFF;}
	.st1{fill:#F78A26;fill-opacity:0.8;}
</style>
<g>
	<path class="st0" d="M52.9,103.8c-28.4,0-51.5-23.1-51.5-51.5c0-28.4,23.1-51.5,51.5-51.5s51.5,23.1,51.5,51.5
		C104.4,80.7,81.29,103.8,52.9,103.8z M52.9,2.8C25.6,2.8,3.4,25.01,3.4,52.3c0,27.29,22.21,49.5,49.5,49.5s49.5-22.21,49.5-49.5
		C102.4,25.01,80.19,2.8,52.9,2.8z"/>
	<circle class="st0" cx="52.9" cy="52.3" r="41.5"/>
	<path class="st1" d="M42.68,73.8c-0.71,0-1.41-0.19-2.03-0.55c-1.39-0.79-2.26-2.34-2.26-4.01V35.36c0-1.68,0.87-3.22,2.26-4.01
		c1.29-0.75,2.88-0.73,4.15,0.05l28.74,17.34c1.95,1.23,2.54,3.83,1.32,5.8c-0.34,0.54-0.78,0.99-1.32,1.33L44.79,73.21
		C44.16,73.59,43.43,73.8,42.68,73.8z"/>
</g>
</svg>
