<?xml version="1.0" encoding="utf-8"?>
<!-- Generator: Adobe Illustrator 26.2.1, SVG Export Plug-In . SVG Version: 6.00 Build 0)  -->
<svg version="1.1" id="圖層_1" xmlns="http://www.w3.org/2000/svg" xmlns:xlink="http://www.w3.org/1999/xlink" x="0px" y="0px"
	 viewBox="0 0 400.35 114.12" style="enable-background:new 0 0 400.35 114.12;" xml:space="preserve">
<style type="text/css">
	.st0{opacity:0.7;}
	.st1{fill:url(#SVGID_1_);}
	.st2{fill:url(#SVGID_00000065788379324672105310000015410506016060953741_);}
	.st3{fill:url(#SVGID_00000002354457182114511210000011211739385659746994_);}
	.st4{fill:url(#SVGID_00000064347446882733640960000002334699110857238919_);}
	.st5{fill:url(#SVGID_00000058555920295096746300000004733273233842492333_);}
	.st6{fill:url(#SVGID_00000064319963007232358020000015403390663634681757_);}
	.st7{fill:url(#SVGID_00000049184834861569143020000017748269124008065417_);}
	.st8{fill:url(#SVGID_00000154421183433662055960000001324263477641327258_);}
	.st9{fill:url(#SVGID_00000101077229355023533160000017462251683151054009_);}
	.st10{fill:url(#SVGID_00000032638112160522902660000000831604920371963017_);}
	.st11{fill:url(#SVGID_00000094580753556390754400000013704853377910843571_);}
	.st12{fill:url(#SVGID_00000090982935969840428570000003976860748984409268_);}
	.st13{fill:url(#SVGID_00000089545993326423873390000018091335873963436174_);}
	.st14{fill:url(#SVGID_00000132767281833896564020000005398288116999417524_);}
	.st15{fill:url(#SVGID_00000088815250206575212930000005973002091999062660_);}
	.st16{fill:url(#SVGID_00000173133933429348536570000006436991781872649388_);}
	.st17{fill:url(#SVGID_00000136394787678467198020000003658688273816553888_);}
	.st18{fill:url(#SVGID_00000082332819934111073020000017928711213451139743_);}
	.st19{fill:url(#SVGID_00000076566752448343214710000016559895829503221136_);}
	.st20{fill:url(#SVGID_00000045586522509673402820000015787126384822986426_);}
	.st21{fill:url(#SVGID_00000119802103473305202430000000282824323353324196_);}
	.st22{fill:url(#SVGID_00000067943459976699717370000007175507200685648535_);}
	.st23{fill:url(#SVGID_00000145030042475020990740000015539794859129180085_);}
	.st24{fill:url(#SVGID_00000023977065234757743150000012968417825486860177_);}
	.st25{fill:url(#SVGID_00000160890664878885261660000004150285957239698860_);}
	.st26{fill:url(#SVGID_00000034048891680265906910000013156324813800278669_);}
	.st27{fill:url(#SVGID_00000093155799941585528240000016131314928017138340_);}
	.st28{fill:url(#SVGID_00000065760087523748177300000003128710544524072127_);}
	.st29{fill:url(#SVGID_00000006704194289346383010000014786019136356514964_);}
	.st30{fill:url(#SVGID_00000132088857933396503440000005846350943367678344_);}
	.st31{fill:url(#SVGID_00000041974181925691547210000012598477809314231221_);}
	.st32{fill:url(#SVGID_00000149344345398884018260000018382023477035453599_);}
	.st33{fill:url(#SVGID_00000097470017194142663140000017728315346911397052_);}
	.st34{fill:url(#SVGID_00000156558701445718841030000012029584473317664171_);}
	.st35{fill:url(#SVGID_00000059289383277853955970000012652649096205294990_);}
	.st36{fill:url(#SVGID_00000066500431314670462800000016294483558637865357_);}
	.st37{fill:url(#SVGID_00000098906753950553805550000016425353283929482920_);}
	.st38{fill:url(#SVGID_00000102526443213043275510000003685946445591590051_);}
	.st39{fill:url(#SVGID_00000003809164580781292490000006556050924636807846_);}
	.st40{fill:url(#SVGID_00000104686913324132209320000002879656218394745243_);}
	.st41{fill:url(#SVGID_00000088127606841724165960000008123177818203247488_);}
	.st42{fill:url(#SVGID_00000138540133992616653060000007494834816855954831_);}
	.st43{fill:url(#SVGID_00000128466381425181012370000003876393865280815020_);}
	.st44{fill:url(#SVGID_00000178883134203258673390000000758277723526551987_);}
	.st45{fill:url(#SVGID_00000158029773573766821210000015468465228126301359_);}
	.st46{fill:url(#SVGID_00000119814670469613458820000015645682818704173184_);}
</style>
<g class="st0">
	
		<linearGradient id="SVGID_1_" gradientUnits="userSpaceOnUse" x1="-90.8608" y1="650.075" x2="-90.8608" y2="543.0739" gradientTransform="matrix(1 0 0 -1 242.5 655.0784)">
		<stop  offset="0.715" style="stop-color:#F78A26"/>
		<stop  offset="0.96" style="stop-color:#E0953C;stop-opacity:0.15"/>
	</linearGradient>
	<path class="st1" d="M149.68,58.76c0-15.97,0-31.93,0-47.9c0-0.87-0.03-1.74,0.03-2.59c0.14-1.92,0.93-3.23,1.91-3.26
		c1.05-0.03,1.88,1.37,1.98,3.4c0.04,0.76,0.01,1.54,0.01,2.31c0,31.93,0,63.87,0,95.8c0,0.67,0.02,1.35-0.01,2.02
		c-0.1,2.23-0.76,3.42-1.91,3.46c-1.16,0.04-1.93-1.31-2.01-3.61c-0.03-0.77-0.01-1.54-0.01-2.31
		C149.67,90.31,149.67,74.54,149.68,58.76L149.68,58.76z"/>
	
		<linearGradient id="SVGID_00000073718190541584681950000005882661748766510757_" gradientUnits="userSpaceOnUse" x1="18.3733" y1="642.5252" x2="18.3733" y2="550.484" gradientTransform="matrix(1 0 0 -1 242.5 655.0784)">
		<stop  offset="0.715" style="stop-color:#F78A26"/>
		<stop  offset="0.96" style="stop-color:#E0953C;stop-opacity:0.15"/>
	</linearGradient>
	<path style="fill:url(#SVGID_00000073718190541584681950000005882661748766510757_);" d="M258.82,58.68c0-13.38,0-26.77,0-40.15
		c0-0.87-0.03-1.74,0.03-2.6c0.14-2.06,0.96-3.39,2.03-3.38c1.07,0.01,1.86,1.33,2.02,3.41c0.05,0.66,0.02,1.35,0.02,2.02
		c0,27.06,0,54.12,0,81.17c0,0.96,0.05,1.92-0.14,2.85c-0.35,1.69-1.15,2.7-2.09,2.57c-0.86-0.12-1.7-1.5-1.83-3.15
		c-0.07-0.85-0.04-1.73-0.04-2.59C258.82,85.45,258.82,72.07,258.82,58.68L258.82,58.68z"/>
	
		<linearGradient id="SVGID_00000152264100192497800270000003348076010756297375_" gradientUnits="userSpaceOnUse" x1="77.144" y1="642.6939" x2="77.144" y2="550.1929" gradientTransform="matrix(1 0 0 -1 242.5 655.0784)">
		<stop  offset="0.715" style="stop-color:#F78A26"/>
		<stop  offset="0.96" style="stop-color:#E0953C;stop-opacity:0.15"/>
	</linearGradient>
	<path style="fill:url(#SVGID_00000152264100192497800270000003348076010756297375_);" d="M321.61,58.61c0,13.48,0,26.95,0,40.42
		c0,0.87,0.02,1.74-0.03,2.6c-0.11,1.86-0.92,3.21-1.9,3.25c-0.89,0.04-1.76-1.18-1.95-2.86c-0.08-0.74-0.06-1.53-0.06-2.3
		c0-27.43,0-54.86,0-82.29c0-0.77-0.03-1.56,0.05-2.3c0.18-1.68,1-2.78,1.97-2.74c1.02,0.04,1.72,1.09,1.86,2.92
		c0.07,0.85,0.04,1.73,0.04,2.59C321.61,31.47,321.61,45.04,321.61,58.61L321.61,58.61z"/>
	
		<linearGradient id="SVGID_00000031209771284383518670000002472774378850088367_" gradientUnits="userSpaceOnUse" x1="-158.0539" y1="640.972" x2="-158.0539" y2="551.9084" gradientTransform="matrix(1 0 0 -1 242.5 655.0784)">
		<stop  offset="0.715" style="stop-color:#F78A26"/>
		<stop  offset="0.96" style="stop-color:#E0953C;stop-opacity:0.15"/>
	</linearGradient>
	<path style="fill:url(#SVGID_00000031209771284383518670000002472774378850088367_);" d="M86.41,58.43c0,13,0,26,0,39
		c0,0.87,0.02,1.74-0.03,2.6c-0.11,1.75-0.85,3-1.79,3.13c-0.91,0.13-1.79-0.97-2.02-2.67c-0.1-0.73-0.08-1.53-0.08-2.29
		c0-26.48,0-52.97,0-79.45c0-3.14,0.62-4.59,1.92-4.64c1.1-0.04,1.84,1.04,1.98,3.01c0.06,0.86,0.03,1.73,0.03,2.6
		C86.41,32.62,86.41,45.52,86.41,58.43L86.41,58.43z"/>
	
		<linearGradient id="SVGID_00000098907191081682208040000012242055957276530353_" gradientUnits="userSpaceOnUse" x1="-225.2583" y1="637.8651" x2="-225.2583" y2="555.2848" gradientTransform="matrix(1 0 0 -1 242.5 655.0784)">
		<stop  offset="0.715" style="stop-color:#F78A26"/>
		<stop  offset="0.96" style="stop-color:#E0953C;stop-opacity:0.15"/>
	</linearGradient>
	<path style="fill:url(#SVGID_00000098907191081682208040000012242055957276530353_);" d="M19.21,58.84c0,11.84,0,23.69,0,35.53
		c0,0.87,0.03,1.75-0.05,2.59c-0.16,1.79-0.89,2.83-1.91,2.83c-0.97,0-1.77-1.13-1.93-2.83c-0.07-0.75-0.04-1.53-0.04-2.31
		c0-24.07,0-48.15,0-72.22c0-0.77-0.03-1.56,0.05-2.3c0.18-1.69,1.04-2.93,1.93-2.92c0.98,0.02,1.81,1.36,1.92,3.21
		c0.05,0.86,0.03,1.73,0.03,2.6C19.21,34.96,19.21,46.9,19.21,58.84L19.21,58.84z"/>
	
		<linearGradient id="SVGID_00000060743429656315349580000012799948912945309084_" gradientUnits="userSpaceOnUse" x1="-141.2584" y1="631.6412" x2="-141.2584" y2="561.3121" gradientTransform="matrix(1 0 0 -1 242.5 655.0784)">
		<stop  offset="0.715" style="stop-color:#F78A26"/>
		<stop  offset="0.96" style="stop-color:#E0953C;stop-opacity:0.15"/>
	</linearGradient>
	<path style="fill:url(#SVGID_00000060743429656315349580000012799948912945309084_);" d="M103.29,58.71c0,9.82,0,19.64,0,29.46
		c0,0.86,0.03,1.75-0.05,2.59c-0.16,1.67-0.82,2.73-1.73,2.97c-0.82,0.21-1.67-0.69-2.07-2.16c-0.24-0.9-0.25-1.85-0.25-2.82
		c0-20.12,0-40.24,0-60.37c0-0.96-0.02-1.92,0.23-2.83c0.39-1.46,1.17-2.26,2.09-2.1c0.87,0.15,1.6,1.3,1.74,2.91
		c0.08,0.85,0.04,1.73,0.05,2.59C103.29,38.88,103.29,48.8,103.29,58.71L103.29,58.71z"/>
	
		<linearGradient id="SVGID_00000016787891617675919030000018370072626417043134_" gradientUnits="userSpaceOnUse" x1="1.5774" y1="632.7442" x2="1.5774" y2="560.4042" gradientTransform="matrix(1 0 0 -1 242.5 655.0784)">
		<stop  offset="0.715" style="stop-color:#F78A26"/>
		<stop  offset="0.96" style="stop-color:#E0953C;stop-opacity:0.15"/>
	</linearGradient>
	<path style="fill:url(#SVGID_00000016787891617675919030000018370072626417043134_);" d="M242.11,58.39c0-10.09,0-20.19,0-30.28
		c0-0.86-0.02-1.74,0.03-2.59c0.11-1.75,0.84-3,1.77-3.16c0.9-0.15,1.79,0.96,2.03,2.63c0.1,0.73,0.09,1.52,0.09,2.29
		c0.01,20.86,0,41.73,0,62.59c0,0.58,0.02,1.16-0.02,1.73c-0.15,1.88-0.93,3.1-1.96,3.09c-1.09-0.01-1.79-1.12-1.92-3.12
		c-0.05-0.76-0.02-1.54-0.02-2.31C242.11,78.97,242.11,68.68,242.11,58.39L242.11,58.39z"/>
	
		<linearGradient id="SVGID_00000139990660094109059070000012249140171692715451_" gradientUnits="userSpaceOnUse" x1="-208.4561" y1="629.8043" x2="-208.4561" y2="563.3361" gradientTransform="matrix(1 0 0 -1 242.5 655.0784)">
		<stop  offset="0.715" style="stop-color:#F78A26"/>
		<stop  offset="0.96" style="stop-color:#E0953C;stop-opacity:0.15"/>
	</linearGradient>
	<path style="fill:url(#SVGID_00000139990660094109059070000012249140171692715451_);" d="M36.09,58.73c0,9.23,0,18.47,0,27.7
		c0,0.77,0.03,1.55-0.04,2.3c-0.14,1.66-0.81,2.78-1.7,2.97c-1.05,0.22-1.76-0.52-2.17-2.22c-0.22-0.92-0.19-1.88-0.19-2.84
		c0-18.75,0-37.51,0-56.26c0-0.58-0.02-1.16,0.03-1.73c0.16-1.91,1.09-3.41,2.06-3.38c1.06,0.03,1.85,1.38,1.99,3.46
		c0.05,0.76,0.02,1.54,0.02,2.31C36.09,40.27,36.09,49.5,36.09,58.73L36.09,58.73z"/>
	
		<linearGradient id="SVGID_00000170275362511028108720000016909137232469833859_" gradientUnits="userSpaceOnUse" x1="-23.6577" y1="631.6188" x2="-23.6577" y2="561.3527" gradientTransform="matrix(1 0 0 -1 242.5 655.0784)">
		<stop  offset="0.715" style="stop-color:#F78A26"/>
		<stop  offset="0.96" style="stop-color:#E0953C;stop-opacity:0.15"/>
	</linearGradient>
	<path style="fill:url(#SVGID_00000170275362511028108720000016909137232469833859_);" d="M220.81,58.7c0,9.82,0,19.64,0,29.46
		c0,0.77,0.02,1.55-0.02,2.31c-0.11,1.94-0.85,3.19-1.88,3.26c-1,0.06-1.83-1.18-1.99-3.08c-0.06-0.66-0.03-1.34-0.03-2.02
		c0-20.02,0-40.04,0-60.06c0-0.77-0.03-1.55,0.05-2.3c0.17-1.69,0.99-2.82,1.95-2.8c0.97,0.02,1.74,1.16,1.89,2.91
		c0.07,0.85,0.04,1.73,0.04,2.59C220.81,38.88,220.81,48.79,220.81,58.7L220.81,58.7z"/>
	
		<linearGradient id="SVGID_00000075164983534644672210000005327634533371100863_" gradientUnits="userSpaceOnUse" x1="144.3372" y1="629.3924" x2="144.3372" y2="563.4926" gradientTransform="matrix(1 0 0 -1 242.5 655.0784)">
		<stop  offset="0.715" style="stop-color:#F78A26"/>
		<stop  offset="0.96" style="stop-color:#E0953C;stop-opacity:0.15"/>
	</linearGradient>
	<path style="fill:url(#SVGID_00000075164983534644672210000005327634533371100863_);" d="M384.87,58.41c0-9.14,0-18.28,0-27.42
		c0-0.77-0.03-1.55,0.03-2.31c0.15-1.86,0.97-3.05,2.01-3c1.02,0.05,1.71,1.11,1.86,2.93c0.06,0.75,0.04,1.53,0.04,2.31
		c0,18.47,0,36.94,0,55.41c0,0.67,0.02,1.35-0.02,2.02c-0.12,1.86-0.93,3.2-1.91,3.23c-0.89,0.03-1.76-1.2-1.93-2.88
		c-0.09-0.84-0.06-1.72-0.06-2.59C384.87,76.88,384.87,67.64,384.87,58.41L384.87,58.41z"/>
	
		<linearGradient id="SVGID_00000067197052616126935630000017604831985148375484_" gradientUnits="userSpaceOnUse" x1="85.573" y1="625.7132" x2="85.573" y2="567.4243" gradientTransform="matrix(1 0 0 -1 242.5 655.0784)">
		<stop  offset="0.715" style="stop-color:#F78A26"/>
		<stop  offset="0.96" style="stop-color:#E0953C;stop-opacity:0.15"/>
	</linearGradient>
	<path style="fill:url(#SVGID_00000067197052616126935630000017604831985148375484_);" d="M326.02,58.52c0-7.79,0-15.58,0-23.37
		c0-0.77-0.03-1.55,0.02-2.31c0.13-2.07,0.94-3.44,1.99-3.48c0.96-0.03,1.91,1.51,2.07,3.39c0.05,0.66,0.02,1.34,0.03,2.02
		c0,15.87,0,31.74,0,47.61c0,1.05,0.05,2.11-0.22,3.12c-0.41,1.55-1.1,2.28-2.06,2.12c-0.88-0.14-1.61-1.27-1.77-2.85
		c-0.08-0.75-0.05-1.53-0.05-2.3C326.02,74.5,326.02,66.51,326.02,58.52L326.02,58.52z"/>
	
		<linearGradient id="SVGID_00000104673603851750704520000012707425788194010278_" gradientUnits="userSpaceOnUse" x1="102.38" y1="626.441" x2="102.38" y2="566.5498" gradientTransform="matrix(1 0 0 -1 242.5 655.0784)">
		<stop  offset="0.715" style="stop-color:#F78A26"/>
		<stop  offset="0.96" style="stop-color:#E0953C;stop-opacity:0.15"/>
	</linearGradient>
	<path style="fill:url(#SVGID_00000104673603851750704520000012707425788194010278_);" d="M346.84,58.62
		c0,8.46,0.01,16.92-0.01,25.38c0,2.66-0.36,3.7-1.38,4.33c-1.16,0.71-2.31-0.49-2.5-2.66c-0.07-0.75-0.05-1.53-0.05-2.3
		c0-16.54,0-33.07,0-49.6c0-0.67-0.02-1.35,0.03-2.02c0.14-1.9,0.92-3.12,1.95-3.11c1.02,0.01,1.8,1.26,1.93,3.16
		c0.05,0.76,0.02,1.54,0.02,2.31C346.84,42.27,346.84,50.45,346.84,58.62z"/>
	
		<linearGradient id="SVGID_00000064313855829123799190000009218275503692312989_" gradientUnits="userSpaceOnUse" x1="-99.2245" y1="625.6746" x2="-99.2245" y2="567.4496" gradientTransform="matrix(1 0 0 -1 242.5 655.0784)">
		<stop  offset="0.715" style="stop-color:#F78A26"/>
		<stop  offset="0.96" style="stop-color:#E0953C;stop-opacity:0.15"/>
	</linearGradient>
	<path style="fill:url(#SVGID_00000064313855829123799190000009218275503692312989_);" d="M141.31,58.73c0-7.98,0-15.95,0-23.93
		c0-0.77-0.02-1.55,0.04-2.3c0.12-1.72,0.92-3.03,1.81-3.09c0.9-0.06,1.8,1.12,2.01,2.74c0.1,0.74,0.08,1.53,0.08,2.29
		c0,16.15,0,32.29,0,48.43c0,3.21-0.7,4.82-2.03,4.75c-1.27-0.06-1.9-1.57-1.9-4.68C141.3,74.87,141.31,66.8,141.31,58.73
		L141.31,58.73z"/>
	
		<linearGradient id="SVGID_00000147914436422466708590000013203214495658357414_" gradientUnits="userSpaceOnUse" x1="-191.6569" y1="624.721" x2="-191.6569" y2="568.1717" gradientTransform="matrix(1 0 0 -1 242.5 655.0784)">
		<stop  offset="0.715" style="stop-color:#F78A26"/>
		<stop  offset="0.96" style="stop-color:#E0953C;stop-opacity:0.15"/>
	</linearGradient>
	<path style="fill:url(#SVGID_00000147914436422466708590000013203214495658357414_);" d="M52.81,58.72c0,7.6,0,15.21,0,22.81
		c0,0.77,0.02,1.55-0.04,2.31c-0.13,1.7-0.91,2.97-1.83,3.07c-0.88,0.09-1.78-1.12-1.99-2.77c-0.09-0.74-0.07-1.53-0.07-2.3
		c0-15.49,0-30.99,0-46.48c0-0.67-0.03-1.36,0.03-2.02c0.16-1.85,0.98-3.04,2.02-2.98c1.01,0.06,1.7,1.12,1.84,2.96
		c0.06,0.76,0.03,1.54,0.04,2.31C52.81,43.32,52.81,51.02,52.81,58.72L52.81,58.72z"/>
	
		<linearGradient id="SVGID_00000155147855256243869860000004166504879736760758_" gradientUnits="userSpaceOnUse" x1="-116.0276" y1="621.5367" x2="-116.0276" y2="571.5537" gradientTransform="matrix(1 0 0 -1 242.5 655.0784)">
		<stop  offset="0.715" style="stop-color:#F78A26"/>
		<stop  offset="0.96" style="stop-color:#E0953C;stop-opacity:0.15"/>
	</linearGradient>
	<path style="fill:url(#SVGID_00000155147855256243869860000004166504879736760758_);" d="M124.42,58.61c0-6.54,0-13.08,0-19.62
		c0-0.67-0.02-1.35,0.02-2.02c0.12-1.78,0.95-3.26,1.88-3.42c0.9-0.16,1.85,1.11,2.1,2.92c0.1,0.73,0.1,1.52,0.1,2.29
		c0.01,13.27,0.01,26.54,0,39.81c0,3.2-0.69,4.86-1.99,4.94c-1.36,0.09-2.11-1.66-2.11-5C124.42,71.89,124.42,65.25,124.42,58.61
		L124.42,58.61z"/>
	
		<linearGradient id="SVGID_00000034775983136185208200000003382017810195476903_" gradientUnits="userSpaceOnUse" x1="60.3318" y1="621.2215" x2="60.3318" y2="571.7115" gradientTransform="matrix(1 0 0 -1 242.5 655.0784)">
		<stop  offset="0.715" style="stop-color:#F78A26"/>
		<stop  offset="0.96" style="stop-color:#E0953C;stop-opacity:0.15"/>
	</linearGradient>
	<path style="fill:url(#SVGID_00000034775983136185208200000003382017810195476903_);" d="M304.89,58.42c0,6.63,0,13.27,0,19.9
		c0,3.16-0.86,5.24-2.12,5.02c-1.39-0.24-2.01-2.44-2-5.05c0.05-13.17,0.02-26.35,0.02-39.52c0-0.48-0.02-0.97,0.02-1.44
		c0.16-2.2,0.99-3.53,2.14-3.48c1.13,0.05,1.91,1.47,1.93,3.79c0.04,5,0.02,10,0.02,15C304.89,54.57,304.89,56.5,304.89,58.42
		L304.89,58.42z"/>
	
		<linearGradient id="SVGID_00000060743579020582058930000011106949552770952126_" gradientUnits="userSpaceOnUse" x1="-166.4237" y1="621.3204" x2="-166.4237" y2="571.5681" gradientTransform="matrix(1 0 0 -1 242.5 655.0784)">
		<stop  offset="0.715" style="stop-color:#F78A26"/>
		<stop  offset="0.96" style="stop-color:#E0953C;stop-opacity:0.15"/>
	</linearGradient>
	<path style="fill:url(#SVGID_00000060743579020582058930000011106949552770952126_);" d="M74.11,58.43c0-6.45,0-12.89,0-19.34
		c0-0.77-0.02-1.55,0.03-2.31c0.13-1.85,0.8-2.94,1.81-3.03c1.03-0.09,1.88,1.08,2.05,2.91c0.06,0.66,0.04,1.34,0.04,2.02
		c0,13.28,0,26.56,0,39.84c0,0.48,0.02,0.97-0.01,1.44c-0.12,2.09-0.91,3.52-1.94,3.54c-1.1,0.03-1.95-1.46-1.97-3.71
		c-0.04-4.81-0.02-9.62-0.02-14.43C74.11,63.06,74.11,60.75,74.11,58.43L74.11,58.43z"/>
	
		<linearGradient id="SVGID_00000134216577681459512140000008301475035730486916_" gradientUnits="userSpaceOnUse" x1="-132.8237" y1="619.8033" x2="-132.8237" y2="573.2615" gradientTransform="matrix(1 0 0 -1 242.5 655.0784)">
		<stop  offset="0.715" style="stop-color:#F78A26"/>
		<stop  offset="0.96" style="stop-color:#E0953C;stop-opacity:0.15"/>
	</linearGradient>
	<path style="fill:url(#SVGID_00000134216577681459512140000008301475035730486916_);" d="M107.71,58.44c0-5.86,0-11.72,0-17.58
		c0-0.77-0.02-1.54,0.02-2.3c0.11-1.93,0.85-3.21,1.87-3.28c0.93-0.06,1.85,1.33,2.01,3.09c0.05,0.56,0.03,1.15,0.03,1.72
		c0,12.3,0,24.59,0,36.89c0,0.67,0.02,1.36-0.05,2.01c-0.17,1.64-1.01,2.81-1.96,2.82c-0.92,0.01-1.73-1.21-1.88-2.92
		c-0.07-0.75-0.04-1.53-0.04-2.3C107.71,70.54,107.72,64.49,107.71,58.44L107.71,58.44z"/>
	
		<linearGradient id="SVGID_00000000183645230128766780000016971737737111336068_" gradientUnits="userSpaceOnUse" x1="10.0084" y1="618.1114" x2="10.0084" y2="574.9688" gradientTransform="matrix(1 0 0 -1 242.5 655.0784)">
		<stop  offset="0.715" style="stop-color:#F78A26"/>
		<stop  offset="0.96" style="stop-color:#E0953C;stop-opacity:0.15"/>
	</linearGradient>
	<path style="fill:url(#SVGID_00000000183645230128766780000016971737737111336068_);" d="M250.48,58.67
		c0-5.76,0.01-11.53-0.01-17.29c0-1.52,0.13-2.9,0.88-3.79c1.12-1.33,2.54-0.44,2.99,1.86c0.2,1.01,0.21,2.07,0.21,3.13
		c0,10.57,0,21.13-0.01,31.69c0,0.95-0.03,1.93-0.15,2.85c-0.26,2.08-1.11,3.17-2.19,2.95c-0.99-0.21-1.69-1.52-1.71-3.55
		c-0.04-4.22-0.01-8.45-0.02-12.68C250.48,62.13,250.48,60.4,250.48,58.67z"/>
	
		<linearGradient id="SVGID_00000137843630458748802700000013472690044407809721_" gradientUnits="userSpaceOnUse" x1="-32.0224" y1="618.1624" x2="-32.0224" y2="573.0392" gradientTransform="matrix(1 0 0 -1 242.5 655.0784)">
		<stop  offset="0.715" style="stop-color:#F78A26"/>
		<stop  offset="0.96" style="stop-color:#E0953C;stop-opacity:0.15"/>
	</linearGradient>
	<path style="fill:url(#SVGID_00000137843630458748802700000013472690044407809721_);" d="M212.45,59.55c0,5.78,0,11.55,0,17.32
		c0,0.77,0.02,1.56-0.06,2.3c-0.19,1.7-1.04,2.9-1.94,2.86c-0.99-0.04-1.78-1.36-1.9-3.24c-0.04-0.67-0.03-1.35-0.03-2.02
		c0-11.55,0-23.1,0-34.64c0-0.77-0.02-1.55,0.04-2.31c0.15-1.83,0.84-2.87,1.86-2.91c0.98-0.04,1.79,1.03,1.97,2.73
		c0.08,0.75,0.06,1.53,0.06,2.3C212.45,47.82,212.44,53.69,212.45,59.55L212.45,59.55z"/>
	
		<linearGradient id="SVGID_00000113329948012681815110000008079769186722174337_" gradientUnits="userSpaceOnUse" x1="135.9774" y1="618.9283" x2="135.9774" y2="573.9609" gradientTransform="matrix(1 0 0 -1 242.5 655.0784)">
		<stop  offset="0.715" style="stop-color:#F78A26"/>
		<stop  offset="0.96" style="stop-color:#E0953C;stop-opacity:0.15"/>
	</linearGradient>
	<path style="fill:url(#SVGID_00000113329948012681815110000008079769186722174337_);" d="M380.44,58.45c0,5.67,0,11.34,0,17.01
		c0,0.67,0.02,1.35-0.01,2.02c-0.11,2.21-0.99,3.74-2.05,3.63c-1.04-0.11-1.78-1.53-1.86-3.63c-0.02-0.67-0.01-1.34-0.01-2.02
		c0-11.24,0-22.49,0-33.73c0-0.86-0.03-1.74,0.04-2.59c0.13-1.74,0.9-2.93,1.85-2.99c1.02-0.06,1.86,1.16,2.02,2.99
		c0.06,0.75,0.03,1.53,0.03,2.3C380.44,47.12,380.44,52.79,380.44,58.45L380.44,58.45z"/>
	
		<linearGradient id="SVGID_00000104674446766183999040000002771459772263520138_" gradientUnits="userSpaceOnUse" x1="110.7412" y1="618.2322" x2="110.7412" y2="574.9166" gradientTransform="matrix(1 0 0 -1 242.5 655.0784)">
		<stop  offset="0.715" style="stop-color:#F78A26"/>
		<stop  offset="0.96" style="stop-color:#E0953C;stop-opacity:0.15"/>
	</linearGradient>
	<path style="fill:url(#SVGID_00000104674446766183999040000002771459772263520138_);" d="M355.21,58.63
		c0,5.86,0.02,11.73-0.01,17.59c-0.01,2.56-0.62,3.81-1.79,3.94c-1.12,0.13-1.96-1.1-2.11-3.1c-0.04-0.57-0.02-1.15-0.02-1.73
		c0-11.15,0-22.3,0-33.45c0-0.67-0.02-1.36,0.03-2.01c0.14-1.68,0.94-2.94,1.86-3.01c0.98-0.07,1.9,1.23,1.99,3.04
		c0.09,1.81,0.05,3.65,0.05,5.48C355.21,49.78,355.2,54.2,355.21,58.63L355.21,58.63z"/>
	
		<linearGradient id="SVGID_00000123418880126985720210000007005391434555513491_" gradientUnits="userSpaceOnUse" x1="-6.859" y1="616.3887" x2="-6.859" y2="576.6999" gradientTransform="matrix(1 0 0 -1 242.5 655.0784)">
		<stop  offset="0.715" style="stop-color:#F78A26"/>
		<stop  offset="0.96" style="stop-color:#E0953C;stop-opacity:0.15"/>
	</linearGradient>
	<path style="fill:url(#SVGID_00000123418880126985720210000007005391434555513491_);" d="M237.69,58.71c0,4.81,0,9.62,0,14.43
		c0,0.67,0.02,1.36-0.03,2.02c-0.13,1.78-0.84,3.04-1.76,3.2c-1.02,0.18-1.91-0.84-2.19-2.65c-0.11-0.73-0.12-1.52-0.12-2.28
		c-0.01-9.91,0-19.82-0.01-29.73c0-0.97,0.01-1.92,0.25-2.82c0.4-1.48,1.26-2.38,2.07-2.16c0.91,0.24,1.56,1.3,1.73,2.96
		c0.08,0.75,0.05,1.53,0.05,2.3C237.7,48.89,237.69,53.8,237.69,58.71L237.69,58.71z"/>
	
		<linearGradient id="SVGID_00000004510104446304430920000001859947095497373365_" gradientUnits="userSpaceOnUse" x1="35.1215" y1="617.1939" x2="35.1215" y2="575.7402" gradientTransform="matrix(1 0 0 -1 242.5 655.0784)">
		<stop  offset="0.715" style="stop-color:#F78A26"/>
		<stop  offset="0.96" style="stop-color:#E0953C;stop-opacity:0.15"/>
	</linearGradient>
	<path style="fill:url(#SVGID_00000004510104446304430920000001859947095497373365_);" d="M279.64,58.73c0,5.09,0,10.19,0,15.28
		c0,0.77,0.03,1.55-0.04,2.3c-0.17,1.75-0.92,2.91-1.87,3.02c-0.81,0.1-1.66-0.94-1.94-2.49c-0.13-0.72-0.21-1.51-0.19-2.26
		c0.26-9.51,0.04-19.02,0.11-28.53c0.01-0.86-0.03-1.73-0.09-2.58c-0.06-0.88-0.02-1.72,0.1-2.57c0.29-2.08,1.11-3.2,2.18-2.99
		c0.99,0.19,1.69,1.51,1.73,3.52c0.05,2.69,0.02,5.38,0.02,8.07C279.64,52.58,279.64,55.65,279.64,58.73L279.64,58.73z"/>
	
		<linearGradient id="SVGID_00000153683701386331821650000005417801259408310969_" gradientUnits="userSpaceOnUse" x1="-216.8275" y1="615.4571" x2="-216.8275" y2="577.3132" gradientTransform="matrix(1 0 0 -1 242.5 655.0784)">
		<stop  offset="0.715" style="stop-color:#F78A26"/>
		<stop  offset="0.96" style="stop-color:#E0953C;stop-opacity:0.15"/>
	</linearGradient>
	<path style="fill:url(#SVGID_00000153683701386331821650000005417801259408310969_);" d="M23.62,58.55c0-4.61,0-9.23,0-13.84
		c0-0.67-0.03-1.36,0.03-2.01c0.15-1.76,0.87-2.93,1.83-3.06c1.03-0.14,1.73,0.69,2.1,2.44c0.16,0.75,0.15,1.51,0.15,2.27
		c0,9.51,0,19.03,0,28.54c0,0.67,0,1.36-0.08,2c-0.22,1.69-1.04,2.86-1.95,2.88c-0.96,0.02-1.84-1.26-2.02-3.08
		c-0.08-0.75-0.05-1.53-0.05-2.3C23.62,67.77,23.62,63.16,23.62,58.55L23.62,58.55z"/>
	
		<linearGradient id="SVGID_00000125594189138444805060000015304724146997434803_" gradientUnits="userSpaceOnUse" x1="-74.0553" y1="615.2" x2="-74.0553" y2="577.9033" gradientTransform="matrix(1 0 0 -1 242.5 655.0784)">
		<stop  offset="0.715" style="stop-color:#F78A26"/>
		<stop  offset="0.96" style="stop-color:#E0953C;stop-opacity:0.15"/>
	</linearGradient>
	<path style="fill:url(#SVGID_00000125594189138444805060000015304724146997434803_);" d="M170.49,58.42c0,4.52,0.01,9.04,0,13.56
		c0,3.46-0.66,5.14-2.01,5.19c-1.36,0.05-2.09-1.67-2.09-5.04c-0.01-9.04,0-18.08,0-27.13c0-0.58-0.02-1.16,0.03-1.73
		c0.19-1.96,1.11-3.45,2.07-3.4c1.04,0.06,1.94,1.71,1.99,3.82c0.05,2.02,0.01,4.04,0.01,6.06
		C170.49,52.65,170.49,55.53,170.49,58.42L170.49,58.42z"/>
	
		<linearGradient id="SVGID_00000170994162646611134690000012517672256854669466_" gradientUnits="userSpaceOnUse" x1="93.9414" y1="613.4715" x2="93.9414" y2="579.6432" gradientTransform="matrix(1 0 0 -1 242.5 655.0784)">
		<stop  offset="0.715" style="stop-color:#F78A26"/>
		<stop  offset="0.96" style="stop-color:#E0953C;stop-opacity:0.15"/>
	</linearGradient>
	<path style="fill:url(#SVGID_00000170994162646611134690000012517672256854669466_);" d="M338.49,58.57c0,3.85,0,7.69,0,11.53
		c0,0.77,0.02,1.55-0.05,2.3c-0.18,1.74-0.95,2.93-1.88,3.02c-0.99,0.1-1.86-1.05-2.09-2.9c-0.09-0.74-0.08-1.53-0.08-2.29
		c-0.01-7.79,0-15.57,0-23.36c0-0.48-0.02-0.97,0.01-1.44c0.14-2.18,1-3.81,2.01-3.84c1.08-0.03,2.04,1.73,2.06,3.99
		c0.04,3.55,0.01,7.11,0.01,10.67C338.49,57.03,338.49,57.8,338.49,58.57L338.49,58.57z"/>
	
		<linearGradient id="SVGID_00000180343138618573065160000004592627801441058237_" gradientUnits="userSpaceOnUse" x1="-107.662" y1="613.4491" x2="-107.662" y2="579.6428" gradientTransform="matrix(1 0 0 -1 242.5 655.0784)">
		<stop  offset="0.715" style="stop-color:#F78A26"/>
		<stop  offset="0.96" style="stop-color:#E0953C;stop-opacity:0.15"/>
	</linearGradient>
	<path style="fill:url(#SVGID_00000180343138618573065160000004592627801441058237_);" d="M132.79,58.42c0-3.85,0-7.69,0-11.53
		c0-0.96-0.03-1.92,0.2-2.83c0.37-1.52,1.19-2.53,1.99-2.41c0.86,0.13,1.71,1.51,1.87,3.1c0.06,0.56,0.04,1.15,0.04,1.72
		c0,8.07,0,16.15,0,24.22c0,0.67,0,1.36-0.09,2c-0.24,1.7-1.06,2.79-2,2.75c-0.88-0.04-1.6-1.05-1.9-2.62
		c-0.16-0.84-0.12-1.71-0.12-2.57C132.78,66.3,132.79,62.36,132.79,58.42L132.79,58.42z"/>
	
		<linearGradient id="SVGID_00000116192973765085113930000011676186163853780109_" gradientUnits="userSpaceOnUse" x1="68.7827" y1="613.2233" x2="68.7827" y2="579.6565" gradientTransform="matrix(1 0 0 -1 242.5 655.0784)">
		<stop  offset="0.715" style="stop-color:#F78A26"/>
		<stop  offset="0.96" style="stop-color:#E0953C;stop-opacity:0.15"/>
	</linearGradient>
	<path style="fill:url(#SVGID_00000116192973765085113930000011676186163853780109_);" d="M313.24,58.46
		c0,4.24-0.01,8.47,0.01,12.71c0.01,1.55-0.18,2.85-0.97,3.7c-1.24,1.33-2.7,0.16-2.93-2.4c-0.06-0.66-0.04-1.34-0.04-2.02
		c0-7.89,0-15.79,0-23.68c0-0.48-0.01-0.97,0.01-1.44c0.1-2.24,0.76-3.43,1.9-3.47c1.17-0.04,1.93,1.31,2.01,3.61
		c0.03,0.96,0.01,1.92,0.01,2.89C313.25,51.73,313.25,55.1,313.24,58.46L313.24,58.46z"/>
	
		<linearGradient id="SVGID_00000152241438116893821150000010494456905200174753_" gradientUnits="userSpaceOnUse" x1="-57.2582" y1="613.1966" x2="-57.2582" y2="579.7192" gradientTransform="matrix(1 0 0 -1 242.5 655.0784)">
		<stop  offset="0.715" style="stop-color:#F78A26"/>
		<stop  offset="0.96" style="stop-color:#E0953C;stop-opacity:0.15"/>
	</linearGradient>
	<path style="fill:url(#SVGID_00000152241438116893821150000010494456905200174753_);" d="M187.21,58.79c0,4.13-0.01,8.27,0.01,12.4
		c0.01,1.54-0.17,2.85-0.97,3.68c-1.22,1.25-2.71,0.03-2.93-2.48c-0.06-0.66-0.03-1.34-0.03-2.01c0-7.88,0-15.76,0-23.64
		c0-0.48-0.01-0.97,0.01-1.44c0.1-2.11,0.85-3.39,1.95-3.4c1.15-0.01,1.91,1.15,1.94,3.35c0.06,4.03,0.02,8.07,0.03,12.11
		C187.21,57.82,187.21,58.31,187.21,58.79L187.21,58.79z"/>
	
		<linearGradient id="SVGID_00000165947731303408038740000011291269933088827020_" gradientUnits="userSpaceOnUse" x1="-149.627" y1="610.8526" x2="-149.627" y2="582.1243" gradientTransform="matrix(1 0 0 -1 242.5 655.0784)">
		<stop  offset="0.715" style="stop-color:#F78A26"/>
		<stop  offset="0.96" style="stop-color:#E0953C;stop-opacity:0.15"/>
	</linearGradient>
	<path style="fill:url(#SVGID_00000165947731303408038740000011291269933088827020_);" d="M90.83,58.44c0-3.46-0.05-6.92,0.01-10.38
		c0.06-3.22,1.72-4.83,3.14-3.18c0.59,0.68,0.85,1.69,0.92,2.88c0.04,0.66,0.02,1.34,0.02,2.02c0,5.86,0,11.72,0,17.58
		c0,0.58,0.02,1.16-0.01,1.73c-0.09,2.11-0.95,3.78-1.98,3.86c-1.17,0.1-2.06-1.42-2.1-3.85C90.79,65.55,90.83,61.99,90.83,58.44
		L90.83,58.44z"/>
	
		<linearGradient id="SVGID_00000121269822382487695860000016501343849199188921_" gradientUnits="userSpaceOnUse" x1="-183.2189" y1="610.8109" x2="-183.2189" y2="582.1584" gradientTransform="matrix(1 0 0 -1 242.5 655.0784)">
		<stop  offset="0.715" style="stop-color:#F78A26"/>
		<stop  offset="0.96" style="stop-color:#E0953C;stop-opacity:0.15"/>
	</linearGradient>
	<path style="fill:url(#SVGID_00000121269822382487695860000016501343849199188921_);" d="M57.23,58.26c0-3.26-0.02-6.53,0.01-9.79
		c0.02-2.67,0.81-4.24,2.04-4.19c1.24,0.04,2.04,1.57,2.05,4.24c0.03,6.72,0.04,13.44-0.01,20.16c-0.03,3.34-1.51,5.13-2.99,3.81
		c-0.88-0.79-1.1-2.22-1.09-3.85C57.23,65.17,57.22,61.71,57.23,58.26L57.23,58.26z"/>
	
		<linearGradient id="SVGID_00000034784909662638503190000007430751591447787439_" gradientUnits="userSpaceOnUse" x1="-199.2281" y1="612.3101" x2="-199.2281" y2="583.5162" gradientTransform="matrix(1 0 0 -1 242.5 655.0784)">
		<stop  offset="0.715" style="stop-color:#F78A26"/>
		<stop  offset="0.96" style="stop-color:#E0953C;stop-opacity:0.15"/>
	</linearGradient>
	<path style="fill:url(#SVGID_00000034784909662638503190000007430751591447787439_);" d="M45.31,57.26c0,3.17,0.01,6.34,0,9.52
		c0,0.76,0,1.56-0.12,2.28c-0.22,1.4-1.01,2.45-1.77,2.51c-0.75,0.06-1.62-0.89-1.91-2.21c-0.2-0.89-0.27-1.85-0.27-2.83
		c0.01-6.25,0-12.5,0.01-18.75c0-0.57,0.04-1.15,0.11-1.71c0.26-2.33,1.04-3.48,2.2-3.27c1.05,0.19,1.73,1.56,1.75,3.79
		C45.33,50.14,45.3,53.69,45.31,57.26L45.31,57.26L45.31,57.26z"/>
	
		<linearGradient id="SVGID_00000119101505110111376160000008233545033716185244_" gradientUnits="userSpaceOnUse" x1="51.9724" y1="610.6342" x2="51.9724" y2="582.4684" gradientTransform="matrix(1 0 0 -1 242.5 655.0784)">
		<stop  offset="0.715" style="stop-color:#F78A26"/>
		<stop  offset="0.96" style="stop-color:#E0953C;stop-opacity:0.15"/>
	</linearGradient>
	<path style="fill:url(#SVGID_00000119101505110111376160000008233545033716185244_);" d="M292.43,58.39c0-3.37-0.04-6.73,0.01-10.1
		c0.04-2.3,0.86-3.82,1.94-3.85c1.1-0.03,2.04,1.67,2.14,3.89c0.01,0.19,0,0.38,0,0.58c0,6.45,0,12.89,0,19.33
		c0,0.99-0.08,1.92-0.39,2.75c-0.46,1.27-1.43,1.9-2.26,1.49c-0.8-0.39-1.42-1.71-1.44-3.42C292.4,65.52,292.43,61.96,292.43,58.39
		L292.43,58.39L292.43,58.39z"/>
	
		<linearGradient id="SVGID_00000067238117710656758440000015580911266325268896_" gradientUnits="userSpaceOnUse" x1="-15.2323" y1="609.939" x2="-15.2323" y2="583.137" gradientTransform="matrix(1 0 0 -1 242.5 655.0784)">
		<stop  offset="0.715" style="stop-color:#F78A26"/>
		<stop  offset="0.96" style="stop-color:#E0953C;stop-opacity:0.15"/>
	</linearGradient>
	<path style="fill:url(#SVGID_00000067238117710656758440000015580911266325268896_);" d="M229.33,58.66c0,3.07,0.03,6.14-0.01,9.21
		c-0.03,2.5-0.8,3.99-1.97,4.07c-1.23,0.08-2.08-1.5-2.11-4.1c-0.04-3.84-0.01-7.67-0.01-11.51c0-2.3,0.08-4.61-0.02-6.9
		c-0.1-2.14,0.86-4.21,2.07-4.28c1.14-0.06,2.01,1.73,2.04,4.31C229.36,52.52,229.33,55.59,229.33,58.66z"/>
	
		<linearGradient id="SVGID_00000074410555549391361540000014330569233490923400_" gradientUnits="userSpaceOnUse" x1="-48.8353" y1="609.4213" x2="-48.8353" y2="583.6334" gradientTransform="matrix(1 0 0 -1 242.5 655.0784)">
		<stop  offset="0.715" style="stop-color:#F78A26"/>
		<stop  offset="0.96" style="stop-color:#E0953C;stop-opacity:0.15"/>
	</linearGradient>
	<path style="fill:url(#SVGID_00000074410555549391361540000014330569233490923400_);" d="M191.64,58.45c0-3.07-0.05-6.15,0.02-9.22
		c0.04-2.05,0.71-3.24,1.75-3.54c0.84-0.23,1.82,0.81,2.16,2.37c0.11,0.52,0.16,1.12,0.16,1.68c0.01,5.86,0.03,11.72-0.01,17.58
		c-0.02,2.63-0.86,4.08-2.12,4.12c-0.94,0.03-2.09-1.7-1.99-4.35c0.1-2.87,0.02-5.76,0.02-8.64L191.64,58.45L191.64,58.45z"/>
	
		<linearGradient id="SVGID_00000077289693951725393700000011082132517629185204_" gradientUnits="userSpaceOnUse" x1="127.5385" y1="609.077" x2="127.5385" y2="583.875" gradientTransform="matrix(1 0 0 -1 242.5 655.0784)">
		<stop  offset="0.715" style="stop-color:#F78A26"/>
		<stop  offset="0.96" style="stop-color:#E0953C;stop-opacity:0.15"/>
	</linearGradient>
	<path style="fill:url(#SVGID_00000077289693951725393700000011082132517629185204_);" d="M372.09,58.77c0,2.87,0.01,5.75,0,8.63
		c-0.01,1.73-0.53,2.83-1.38,3.52c-0.8,0.64-1.45,0.13-2.03-0.82c-0.45-0.74-0.67-1.74-0.68-2.83c-0.01-5.85-0.04-11.7,0.02-17.54
		c0.02-2.37,0.96-3.8,2.16-3.72c1.1,0.07,1.87,1.52,1.9,3.85C372.12,52.83,372.09,55.8,372.09,58.77z"/>
	
		<linearGradient id="SVGID_00000093175163781344363200000000866549423432283549_" gradientUnits="userSpaceOnUse" x1="26.731" y1="608.8624" x2="26.731" y2="584.2239" gradientTransform="matrix(1 0 0 -1 242.5 655.0784)">
		<stop  offset="0.715" style="stop-color:#F78A26"/>
		<stop  offset="0.96" style="stop-color:#E0953C;stop-opacity:0.15"/>
	</linearGradient>
	<path style="fill:url(#SVGID_00000093175163781344363200000000866549423432283549_);" d="M271.29,58.69c0,2.69,0.02,5.38-0.01,8.08
		c-0.03,2.55-0.75,4.02-1.93,4.09c-1.27,0.07-2.13-1.43-2.15-4.04c-0.04-5.48-0.06-10.96,0.01-16.44c0.04-3.32,1.58-5.08,3.04-3.68
		c0.8,0.77,1.04,2.09,1.04,3.63c0,0.1,0,0.19,0,0.29C271.29,53.31,271.29,56,271.29,58.69L271.29,58.69z"/>
	
		<linearGradient id="SVGID_00000033340464104994540470000006696958330046923147_" gradientUnits="userSpaceOnUse" x1="-40.4592" y1="607.4034" x2="-40.4592" y2="585.4979" gradientTransform="matrix(1 0 0 -1 242.5 655.0784)">
		<stop  offset="0.715" style="stop-color:#F78A26"/>
		<stop  offset="0.96" style="stop-color:#E0953C;stop-opacity:0.15"/>
	</linearGradient>
	<path style="fill:url(#SVGID_00000033340464104994540470000006696958330046923147_);" d="M204.09,58.65c0,2.02,0,4.03,0,6.05
		c0,0.67,0.01,1.36-0.07,2.01c-0.2,1.58-0.94,2.72-1.79,2.87c-0.76,0.13-1.54-0.69-1.94-2.07c-0.22-0.78-0.3-1.62-0.3-2.5
		c0.01-4.32,0-8.64,0.01-12.97c0-0.48,0.01-0.97,0.07-1.43c0.28-2.01,1.12-3.09,2.23-2.89c1,0.18,1.73,1.47,1.78,3.45
		C204.13,53.64,204.08,56.14,204.09,58.65L204.09,58.65L204.09,58.65z"/>
	
		<linearGradient id="SVGID_00000021819114719518614340000000430726022967104679_" gradientUnits="userSpaceOnUse" x1="-65.6935" y1="607.3897" x2="-65.6935" y2="585.5148" gradientTransform="matrix(1 0 0 -1 242.5 655.0784)">
		<stop  offset="0.715" style="stop-color:#F78A26"/>
		<stop  offset="0.96" style="stop-color:#E0953C;stop-opacity:0.15"/>
	</linearGradient>
	<path style="fill:url(#SVGID_00000021819114719518614340000000430726022967104679_);" d="M178.84,58.59c0,2.21,0.02,4.42,0,6.63
		c-0.03,2.58-0.72,4.16-1.83,4.33c-1.13,0.17-2.08-1.49-2.21-4.06c-0.07-1.53-0.03-3.07-0.03-4.61c0-2.69,0-5.39,0-8.08
		c0-0.87,0.01-1.73,0.18-2.56c0.38-1.85,1.19-2.78,2.23-2.52c0.92,0.24,1.61,1.51,1.65,3.36C178.88,53.59,178.84,56.09,178.84,58.59
		L178.84,58.59z"/>
	
		<linearGradient id="SVGID_00000071517726454148736630000012199784805835671440_" gradientUnits="userSpaceOnUse" x1="119.1781" y1="606.1979" x2="119.1781" y2="586.7252" gradientTransform="matrix(1 0 0 -1 242.5 655.0784)">
		<stop  offset="0.715" style="stop-color:#F78A26"/>
		<stop  offset="0.96" style="stop-color:#E0953C;stop-opacity:0.15"/>
	</linearGradient>
	<path style="fill:url(#SVGID_00000071517726454148736630000012199784805835671440_);" d="M359.63,58.31c0-1.92-0.04-3.85,0.01-5.77
		c0.05-2.15,0.78-3.5,1.85-3.65c1.16-0.16,2.13,1.1,2.19,3.31c0.1,4.22,0.08,8.46,0.02,12.69c-0.03,1.89-1.06,3.46-2.02,3.47
		c-1.12,0.01-1.96-1.43-2.02-3.7C359.58,62.55,359.63,60.43,359.63,58.31L359.63,58.31L359.63,58.31z"/>
	
		<linearGradient id="SVGID_00000103228900527388991200000002566366409911067542_" gradientUnits="userSpaceOnUse" x1="-174.6723" y1="606.0157" x2="-174.6723" y2="588.3133" gradientTransform="matrix(1 0 0 -1 242.5 655.0784)">
		<stop  offset="0.715" style="stop-color:#F78A26"/>
		<stop  offset="0.96" style="stop-color:#E0953C;stop-opacity:0.15"/>
	</linearGradient>
	<path style="fill:url(#SVGID_00000103228900527388991200000002566366409911067542_);" d="M69.88,58.04c0,1.63,0.04,3.26-0.01,4.88
		c-0.07,2.33-0.81,3.77-1.91,3.84c-1.2,0.08-2.11-1.34-2.16-3.72c-0.07-3.35-0.07-6.7,0-10.05c0.04-2.31,1.04-4.01,2.1-3.93
		c1.13,0.09,1.93,1.7,1.98,4.09C69.92,54.78,69.89,56.41,69.88,58.04L69.88,58.04z"/>
	
		<linearGradient id="SVGID_00000008108598717662106440000010252574824427144618_" gradientUnits="userSpaceOnUse" x1="43.6387" y1="604.7225" x2="43.6387" y2="588.3191" gradientTransform="matrix(1 0 0 -1 242.5 655.0784)">
		<stop  offset="0.715" style="stop-color:#F78A26"/>
		<stop  offset="0.96" style="stop-color:#E0953C;stop-opacity:0.15"/>
	</linearGradient>
	<path style="fill:url(#SVGID_00000008108598717662106440000010252574824427144618_);" d="M284.08,58.33c0-1.44-0.04-2.89,0.01-4.33
		c0.06-2.07,0.85-3.54,1.87-3.65c0.98-0.1,1.89,1.03,2.04,2.98c0.27,3.52,0.32,7.09-0.04,10.61c-0.19,1.91-1.15,3-2.1,2.79
		c-1-0.23-1.71-1.56-1.76-3.5C284.04,61.6,284.08,59.96,284.08,58.33L284.08,58.33z"/>
	
		<linearGradient id="SVGID_00000086667279507386299970000007454011340739922358_" gradientUnits="userSpaceOnUse" x1="-233.7274" y1="604.5443" x2="-233.7274" y2="588.3405" gradientTransform="matrix(1 0 0 -1 242.5 655.0784)">
		<stop  offset="0.715" style="stop-color:#F78A26"/>
		<stop  offset="0.96" style="stop-color:#E0953C;stop-opacity:0.15"/>
	</linearGradient>
	<path style="fill:url(#SVGID_00000086667279507386299970000007454011340739922358_);" d="M10.84,58.63c0,1.53,0.04,3.07-0.01,4.6
		c-0.06,1.93-0.77,3.24-1.77,3.48c-0.95,0.22-1.91-0.85-2.1-2.76c-0.36-3.59-0.37-7.25,0-10.84c0.2-1.97,1.03-2.76,2.15-2.54
		c1,0.19,1.59,1.28,1.72,3.18c0.01,0.19,0.01,0.38,0.01,0.58C10.85,55.76,10.85,57.2,10.84,58.63L10.84,58.63L10.84,58.63z"/>
	
		<linearGradient id="SVGID_00000000912026745872341200000015997028258807659648_" gradientUnits="userSpaceOnUse" x1="-124.3616" y1="604.5391" x2="-124.3616" y2="588.3594" gradientTransform="matrix(1 0 0 -1 242.5 655.0784)">
		<stop  offset="0.715" style="stop-color:#F78A26"/>
		<stop  offset="0.96" style="stop-color:#E0953C;stop-opacity:0.15"/>
	</linearGradient>
	<path style="fill:url(#SVGID_00000000912026745872341200000015997028258807659648_);" d="M116.08,58.43c0-1.44-0.04-2.89,0.01-4.33
		c0.06-2.03,0.72-3.32,1.72-3.52c1.17-0.24,2.02,0.68,2.19,2.85c0.28,3.42,0.29,6.9-0.02,10.33c-0.17,1.88-1.11,3.07-2.05,2.96
		c-1.04-0.12-1.79-1.57-1.84-3.67C116.05,61.51,116.08,59.97,116.08,58.43L116.08,58.43z"/>
	
		<linearGradient id="SVGID_00000105398943475509629510000017173036036477637813_" gradientUnits="userSpaceOnUse" x1="152.7742" y1="602.1087" x2="152.7742" y2="590.841" gradientTransform="matrix(1 0 0 -1 242.5 655.0784)">
		<stop  offset="0.715" style="stop-color:#F78A26"/>
		<stop  offset="0.96" style="stop-color:#E0953C;stop-opacity:0.15"/>
	</linearGradient>
	<path style="fill:url(#SVGID_00000105398943475509629510000017173036036477637813_);" d="M397.34,58.25
		c-0.04,1.4,0.04,2.36-0.15,3.3c-0.34,1.68-1.19,2.81-2.05,2.68c-0.98-0.15-1.8-1.5-1.88-3.36c-0.07-1.53-0.07-3.08,0-4.61
		c0.09-1.93,0.87-3.21,1.88-3.29c1.03-0.08,1.88,1.01,2.11,2.85C397.35,56.76,397.32,57.74,397.34,58.25L397.34,58.25z"/>
</g>
</svg>
