<?xml version="1.0" encoding="utf-8"?>
<!-- Generator: Adobe Illustrator 26.2.1, SVG Export Plug-In . SVG Version: 6.00 Build 0)  -->
<svg version="1.1" id="圖層_1" xmlns="http://www.w3.org/2000/svg" xmlns:xlink="http://www.w3.org/1999/xlink" x="0px" y="0px"
	 viewBox="0 0 42.49 57.62" style="enable-background:new 0 0 42.49 57.62;" xml:space="preserve">
<style type="text/css">
	.st0{fill:#818181;}
</style>
<path class="st0" d="M9.16,10.46c1.07,1.57,2.69,1.78,5.79,1.78c1.24,0,4.24,0,5.56-0.03v0.18c-0.58,0.14-0.87,0.7-0.88,1.34
	c-1.02,0-3.63,0-4.71,0c-3.26,0-4.86-0.6-5.91-3.18L9.16,10.46z M18.28,0.26c0,0,1.02,0.84,1.63,1.43
	c-0.04,0.16-0.21,0.24-0.42,0.24h-6.59V1.49h4.46L18.28,0.26z M10.49,4.23c-0.42,0.75-1.38,2.39-1.92,3.18h0.12L8.17,7.91L6.83,6.96
	c0.22-0.15,0.63-0.33,0.91-0.37L7.18,7.04c0.58-0.83,1.56-2.55,1.95-3.38L10.49,4.23z M8.93,3.65l0.72-0.74l1.47,1.32
	c-0.27,0.27-1.11,0.3-1.81,0.2L9.13,3.65H8.93z M9.41,6.99l0.87-0.89L11.8,7.4c-0.11,0.15-0.24,0.19-0.59,0.23
	c-0.61,2.34-1.98,4.77-4.49,6.3l-0.15-0.16c1.67-1.74,2.65-4.41,2.99-6.76H9.41z M9.58,3.65v0.44h-2.8L6.64,3.65H9.58z M10.36,6.99
	v0.42H7.99l0.17-0.42H10.36z M7.07,0.41c4.01,0.51,2.6,3.52,1.06,2.41C8.02,2,7.48,1.07,6.95,0.5L7.07,0.41z M17.23,4.23l0.95-0.95
	l1.63,1.4c-0.1,0.16-0.24,0.21-0.58,0.24c-0.89,2.99-2.78,5.38-6.71,6.54l-0.1-0.18c2.96-1.49,4.46-4.07,4.99-7.05H17.23z
	 M12.37,1.34V0.77l2.01,0.72h-0.27v2.57c0,2.19-0.24,5.44-3.21,7.44l-0.14-0.12c1.46-2.2,1.61-4.99,1.61-7.32V1.34z M18.4,4.23v0.42
	h-5.24l-0.13-0.42H18.4z M14.29,6.02c6.75,2.43,5.99,6.24,4.06,5.17c-0.84-1.64-2.79-3.69-4.22-5.05L14.29,6.02z M33.82,12.11v0.44
	H23.74v-0.44H33.82z M31.06,8.7v0.43h-4.14V8.7H31.06z M30.07,4.34l0.77-0.81l1.56,1.19C32.3,4.83,32.11,4.94,31.82,5v4.78
	c-0.01,0.1-0.78,0.45-1.33,0.45h-0.27V4.34H30.07z M27.82,9.99c0,0.16-0.66,0.52-1.32,0.52h-0.24V3.68l1.62,0.66H31v0.43h-3.18V9.99
	z M33.05,1.46l0.85-0.94l1.68,1.35c-0.1,0.12-0.31,0.24-0.61,0.31v11.17c-0.03,0.15-0.84,0.56-1.49,0.56H33.2V1.46H33.05z
	 M24.62,13.38c0,0.21-0.69,0.63-1.44,0.63H22.9V0.69l1.88,0.76h9.17v0.44h-9.32V13.38z"/>
<path class="st0" d="M0.39,42.36c-0.04-0.41,0.37-0.62,0.63-0.88C7.4,35.55,13.78,29.62,20.15,23.7c0.23-0.22,0.45-0.45,0.7-0.64
	c0.39-0.28,0.77-0.28,1.11,0.08c0.16,0.17,0.35,0.32,0.52,0.48c6.49,6.03,12.99,12.07,19.48,18.11c0.17,0.16,0.29,0.35,0.43,0.51
	c-0.27,0.44-0.74,0.34-1.15,0.34c-2.01,0.01-4.02-0.07-6.02,0.03c-1.38,0.07-2.26-0.37-3.13-1.2c-2.96-2.85-6-5.63-9-8.44
	c-0.35-0.32-0.68-0.65-1.05-0.97c-0.6-0.52-0.8-0.51-1.47,0.08c-0.42,0.37-0.82,0.75-1.22,1.13c-2.96,2.75-5.94,5.48-8.85,8.26
	c-0.8,0.76-1.61,1.19-2.89,1.14c-2.09-0.08-4.18-0.02-6.28-0.03C1.01,42.57,0.64,42.64,0.39,42.36L0.39,42.36z"/>
<path class="st0" d="M37.82,57.1c-1.48,0-3.09,0.3-4.4-0.08c-1.42-0.41-2.24-1.75-3.28-2.71c-2.73-2.52-5.43-5.07-8.16-7.6
	c-0.76-0.7-0.93-0.7-1.64-0.05c-1.46,1.33-2.9,2.68-4.35,4.03c-1.97,1.83-3.98,3.63-5.88,5.5c-0.75,0.74-1.57,1.01-2.71,0.97
	c-2.18-0.06-4.35-0.02-6.53-0.03c-0.23,0-0.53,0.05-0.63-0.25c-0.08-0.25,0.09-0.4,0.25-0.55c0.8-0.76,1.61-1.52,2.42-2.27
	c5.55-5.17,11.11-10.33,16.67-15.5c0.29-0.27,0.57-0.54,0.88-0.8c0.56-0.47,0.77-0.48,1.28-0.06c0.25,0.21,0.47,0.42,0.7,0.64
	c6.25,5.81,12.5,11.63,18.75,17.44c0.29,0.27,0.57,0.54,0.8,0.84c0.16,0.2,0,0.46-0.25,0.47C40.43,57.12,39.13,57.1,37.82,57.1
	L37.82,57.1z"/>
</svg>
