<?xml version="1.0" encoding="utf-8"?>
<!-- Generator: Adobe Illustrator 26.2.1, SVG Export Plug-In . SVG Version: 6.00 Build 0)  -->
<svg version="1.1" id="圖層_1" xmlns="http://www.w3.org/2000/svg" xmlns:xlink="http://www.w3.org/1999/xlink" x="0px" y="0px"
	 viewBox="0 0 45.85 63.41" style="enable-background:new 0 0 45.85 63.41;" xml:space="preserve">
<style type="text/css">
	.st0{fill:#818181;}
</style>
<path class="st0" d="M0.8,53.96h11.15l0.96-1.19c0,0,1.1,0.81,1.77,1.38c-0.03,0.17-0.21,0.24-0.42,0.24H0.92L0.8,53.96z
	 M1.88,52.13H11l0.94-1.15c0,0,1.06,0.76,1.72,1.33c-0.04,0.17-0.21,0.24-0.42,0.24H2L1.88,52.13z M6,55.55v6.66
	c0,0.13-0.54,0.52-1.41,0.52H4.26V56l0.65-0.93l1.3,0.48H6z M5.12,57.36h6.58v0.42H5.12V57.36z M5.12,59.25h6.6v0.44h-6.6V59.25z
	 M5.12,61.22h6.6v0.42h-6.6V61.22z M11.85,48.66l1.56,1.58c-0.16,0.14-0.51,0.14-0.97-0.06c-2.81,0.42-7.18,0.75-10.92,0.68
	L1.49,50.6C5.03,50.27,9.53,49.41,11.85,48.66z M6.05,50.25h1.89v0.24c-0.94,3.79-3.23,6.85-7.18,8.77L0.6,59.1
	C3.54,57,5.36,53.69,6.05,50.25z M5.1,55.55h6.58v0.42H5.1V55.55z M10.91,55.55h-0.15l0.81-0.87l1.65,1.26
	c-0.09,0.1-0.28,0.22-0.54,0.28v6.01c-0.02,0.1-0.89,0.45-1.47,0.45h-0.3V55.55z M19.82,57.81c1.76,2.47,5.86,3.08,10.23,3.06v0.18
	c-0.72,0.24-1.14,0.83-1.29,1.68c-4.29-0.43-7.51-1.53-9.1-4.77L19.82,57.81z M18.11,52.14v-0.73l1.86,0.73h7.44v0.42h-7.56v4.98
	c0,0.17-0.76,0.54-1.47,0.54h-0.27V52.14z M26.48,52.14h-0.15l0.81-0.9l1.71,1.29c-0.09,0.12-0.3,0.27-0.6,0.33v4.71
	c-0.01,0.1-0.9,0.42-1.47,0.42h-0.3V52.14z M18.93,56.73h8.52v0.42h-8.52V56.73z M18.92,54.39h8.53v0.42h-8.53V54.39z M16.43,50.01
	H26.9l1.05-1.28c0,0,1.18,0.87,1.89,1.47c-0.03,0.17-0.21,0.24-0.42,0.24H16.55L16.43,50.01z M22.25,50.01h1.77v5.49
	c-0.02,3.5-0.94,6.15-7.74,7.25l-0.08-0.18c5.08-1.62,6.05-3.59,6.05-7.02V50.01z M36.84,50.45h5.08v0.44h-5.5L36.84,50.45z
	 M41.18,50.45h-0.15L42,49.53l1.78,1.5c-0.13,0.15-0.38,0.19-0.78,0.22c-2.28,2.79-5.79,4.59-11.2,5.29l-0.1-0.21
	C36.02,55.08,39.26,53.22,41.18,50.45z M35.33,51.8c3.86-0.5,3.26,2.44,1.67,1.84c-0.33-0.63-1.12-1.36-1.77-1.72L35.33,51.8z
	 M39.44,49.56c-1.62,1.49-4.24,3.08-7.26,3.83l-0.1-0.15c2.38-1.19,4.53-3.13,5.5-4.62l2.64,0.65
	C40.14,49.44,39.93,49.56,39.44,49.56z M38.57,55.83H44v0.43h-5.92L38.57,55.83z M42.74,55.83h-0.15l0.99-0.94l1.82,1.53
	c-0.14,0.17-0.38,0.21-0.79,0.24c-2.4,3.57-6.18,5.46-12.62,6.04l-0.08-0.21C37.14,61.23,40.7,59.34,42.74,55.83z M36.47,57.27
	c4.46-0.24,3.53,3.15,1.77,2.28c-0.28-0.84-1.12-1.71-1.86-2.16L36.47,57.27z M41.15,54.77c-1.86,1.71-4.83,3.5-8.32,4.35
	l-0.09-0.17c2.83-1.31,5.32-3.44,6.49-5.13l2.7,0.63C41.85,54.65,41.64,54.77,41.15,54.77z"/>
<path class="st0" d="M44.12,15.29c0.04,0.41-0.37,0.62-0.63,0.88c-6.37,5.93-12.75,11.86-19.12,17.79c-0.23,0.22-0.45,0.45-0.7,0.64
	c-0.39,0.28-0.77,0.28-1.11-0.08c-0.16-0.17-0.35-0.32-0.52-0.48C15.53,27.99,9.03,21.96,2.54,15.92c-0.17-0.16-0.29-0.35-0.43-0.51
	c0.27-0.44,0.74-0.34,1.15-0.34c2.01-0.01,4.02,0.07,6.02-0.03c1.38-0.07,2.26,0.37,3.13,1.2c2.96,2.85,6,5.63,9,8.44
	c0.35,0.32,0.68,0.65,1.05,0.97c0.6,0.52,0.8,0.51,1.47-0.08c0.42-0.37,0.82-0.75,1.22-1.13c2.96-2.75,5.94-5.48,8.85-8.26
	c0.8-0.76,1.61-1.19,2.89-1.14c2.09,0.08,4.18,0.02,6.28,0.03C43.5,15.07,43.87,15,44.12,15.29L44.12,15.29z"/>
<path class="st0" d="M6.45,0.5c1.48,0,3.09-0.3,4.4,0.08c1.42,0.41,2.24,1.75,3.28,2.71c2.73,2.52,5.43,5.07,8.16,7.6
	c0.76,0.7,0.93,0.7,1.64,0.05c1.46-1.33,2.9-2.68,4.35-4.03c1.97-1.83,3.98-3.63,5.88-5.5c0.75-0.74,1.57-1.01,2.71-0.97
	c2.18,0.06,4.35,0.02,6.53,0.03c0.23,0,0.53-0.05,0.63,0.25c0.08,0.25-0.09,0.4-0.25,0.55c-0.8,0.76-1.61,1.52-2.42,2.27
	C35.8,8.7,30.24,13.87,24.69,19.03c-0.29,0.27-0.57,0.54-0.88,0.8c-0.56,0.47-0.77,0.48-1.28,0.06c-0.25-0.21-0.47-0.42-0.7-0.64
	C15.58,13.45,9.33,7.63,3.08,1.82C2.8,1.55,2.51,1.28,2.28,0.97c-0.16-0.2,0-0.46,0.25-0.47C3.84,0.47,5.14,0.49,6.45,0.5L6.45,0.5z
	"/>
</svg>
