<?xml version="1.0" encoding="UTF-8"?><svg id="a" xmlns="http://www.w3.org/2000/svg" xmlns:xlink="http://www.w3.org/1999/xlink" viewBox="0 0 265.51 92.92"><defs><style>.c{fill:none;}.d{fill:rgba(25,25,25,.7);}.e{clip-path:url(#b);}</style><clipPath id="b"><rect class="c" x=".62" y=".34" width="264.5" height="93.45"/></clipPath></defs><g class="e"><g><g><path class="d" d="M3.07,11.93h1.39l.21-.35c.05-.09,.11-.13,.17-.13s.27,.11,.62,.33,.53,.37,.53,.44-.16,.18-.48,.33v1.7c0,.1,0,.26,.03,.47l.04-.08c.61,.27,.98,.44,1.11,.52s.19,.14,.19,.18c0,.07-.06,.11-.19,.14-.13,.02-.21,.05-.25,.1-.04,.04-.13,.17-.27,.39-.14,.22-.23,.36-.28,.43h2.71c-.06-.06-.15-.17-.28-.33-.13-.16-.24-.29-.34-.38-.1-.1-.27-.2-.49-.32v-.22c.63,0,1.07,.04,1.35,.12,.28,.08,.42,.25,.42,.52s-.08,.47-.25,.62h1.13l.53-.71c.06-.08,.11-.12,.16-.12,.1,0,.33,.16,.69,.48,.35,.32,.53,.52,.53,.59s-.09,.11-.26,.11H7.5c.5,.52,1.23,.97,2.19,1.35,.96,.38,1.97,.61,3.02,.7v.27c-.41,0-.69,.03-.84,.1-.16,.08-.3,.25-.44,.53-.04,.09-.09,.13-.15,.13s-.33-.11-.84-.32v2.84c0,.1,0,.2,0,.28l.03,.21s-.03,.08-.1,.1c-.06,.03-.2,.06-.41,.1-.21,.04-.37,.06-.49,.06-.04,0-.06-.03-.06-.08v-.91h-1.58v.69s0,.07-.03,.09c-.02,.02-.1,.05-.23,.09-.14,.04-.29,.08-.45,.11-.16,.03-.26,.05-.28,.05s-.04-.03-.04-.08v-.29c.02-.09,.03-.18,.03-.27v-3.28c0-.22-.01-.46-.04-.7,.36,.12,.76,.28,1.2,.48h1.53c-1.17-.7-1.97-1.45-2.42-2.27h-1.49c-.66,.81-1.51,1.53-2.56,2.16,.07,.03,.12,.06,.17,.08h1.4l.22-.34c.06-.08,.12-.12,.17-.12s.18,.06,.38,.19c.19,.13,.36,.23,.49,.3,.13,.08,.19,.14,.19,.2s-.15,.15-.44,.29v2.76c0,.1,0,.2,0,.28l.03,.21s-.03,.08-.09,.1c-.06,.03-.2,.06-.43,.1-.23,.04-.38,.07-.44,.07s-.1-.03-.1-.08v-.91h-1.53v.82s0,.06-.02,.08c0,.02-.08,.05-.2,.09-.12,.04-.27,.08-.45,.11-.18,.03-.28,.05-.3,.05s-.04-.03-.04-.08v-.28c.02-.09,.03-.18,.03-.27v-3.18c-.46,.2-1.1,.42-1.93,.67l-.06-.26c1.94-.9,3.36-1.92,4.25-3.06H1.41c-.18,0-.37,.03-.56,.08l-.22-.49c.18,.04,.4,.06,.65,.06h3.31c.34-.47,.63-.97,.87-1.5-.16,.05-.35,.09-.56,.11-.21,.02-.32,.03-.32,.03-.05,0-.08-.03-.08-.09v-.44h-1.68v.38s0,.07-.02,.08c0,.01-.07,.04-.18,.08-.11,.04-.25,.08-.41,.12-.17,.04-.27,.06-.3,.06s-.05-.03-.05-.08v-.28c.02-.09,.03-.18,.03-.27v-2.43c0-.22,0-.46-.04-.7,.4,.13,.81,.29,1.23,.49h0Zm1.44,2.19v-1.83h-1.68v1.83h1.68Zm.09,7.55v-2.34h-1.53v2.34h1.53Zm3.6-9.68h1.51l.23-.35c.05-.07,.1-.1,.14-.1,.07,0,.28,.11,.63,.34,.35,.22,.53,.37,.53,.45s-.16,.19-.49,.36v1.7c0,.1,0,.2,.01,.28l.03,.21s-.03,.08-.09,.1c-.06,.03-.21,.06-.43,.1-.22,.04-.37,.06-.44,.06s-.1-.03-.1-.08v-.52h-1.79c0,.08,0,.14-.04,.19s-.17,.1-.43,.16c-.26,.06-.41,.09-.45,.09s-.06-.03-.06-.08v-.28c.02-.09,.03-.18,.03-.27v-2.12c0-.22-.01-.46-.04-.7,.35,.12,.76,.28,1.23,.47h.02Zm1.22,9.74v-2.36h-1.58v2.36h1.58Zm.32-7.55v-1.83h-1.79v1.83h1.79Z"/><path class="d" d="M6.16,32.69c-.19-.81-.57-1.46-1.15-1.96l.08-.18c.73,.14,1.28,.29,1.65,.47,.37,.17,.55,.38,.55,.63,0,.16-.06,.34-.19,.56-.13,.22-.31,.38-.56,.48h4.22l.27-.39c.09-.12,.16-.18,.23-.18s.21,.11,.41,.32l.57,.58c.16,.16,.25,.3,.25,.4s-.11,.16-.32,.17c-.36,.03-.69,.15-.98,.37s-.58,.53-.87,.93l-.23-.13c.25-.56,.46-1.13,.62-1.7H2.47c0,.75-.1,1.29-.33,1.62-.23,.33-.5,.5-.82,.5-.19,0-.35-.06-.49-.17-.13-.11-.2-.25-.2-.41s.13-.35,.4-.58c.58-.47,.93-1.18,1.06-2.12l.28-.04c.04,.29,.07,.57,.08,.82h3.71Zm2.25,4.45H4.32v1.54h4.36l.26-.36c.09-.13,.19-.19,.29-.19s.3,.13,.61,.38c.31,.25,.47,.43,.47,.53s-.13,.22-.38,.36v1.27c0,.43,0,.73,.01,.89v.47c0,.07-.03,.13-.11,.19s-.24,.13-.49,.21c-.24,.09-.41,.13-.51,.13-.06,0-.09-.06-.09-.19v-.7H4.3v.56c0,.07-.02,.12-.05,.15-.03,.03-.11,.08-.24,.16s-.3,.15-.5,.22c-.21,.07-.33,.1-.37,.1s-.06-.03-.06-.1l.04-.8c.02-.31,.03-.81,.03-1.49v-4.67c0-.61,0-1.23-.04-1.85,.7,.24,1.19,.44,1.48,.61h3.68l.26-.35c.09-.11,.16-.17,.22-.17s.22,.09,.49,.28c.27,.19,.45,.32,.54,.41,.1,.09,.14,.17,.14,.24s-.13,.18-.38,.32v.82c0,.45,0,.76,.01,.92v.44c.01,.08-.03,.14-.12,.19s-.25,.11-.49,.18c-.24,.07-.4,.11-.49,.11-.04,0-.06-.05-.06-.16v-.62l.02-.03Zm-4.09-.38h4.09v-1.86H4.32v1.86Zm0,4.51h4.44v-2.19H4.32v2.19Z"/><path class="d" d="M2.51,57.11c-.85,.54-1.35,.87-1.5,.99-.14,.12-.23,.17-.26,.17s-.05-.01-.07-.04c-.02-.03-.1-.19-.24-.47-.14-.28-.24-.48-.29-.59,.82-.28,1.61-.57,2.36-.88v-2.69H1.19c-.22,0-.42,.02-.58,.06l-.22-.52c.18,.04,.4,.06,.66,.06h1.46v-1.58c0-.52,0-1-.03-1.45,1.04,.27,1.57,.44,1.57,.52s-.16,.2-.48,.34v2.16h.45l.39-.63c.06-.1,.12-.16,.17-.16,.09,0,.29,.16,.62,.49,.33,.32,.49,.52,.49,.59s-.08,.1-.25,.1h-1.88v2.24l1.62-.69,.1,.19-1.72,1.09v4.43c0,.28-.04,.5-.13,.65-.09,.15-.29,.31-.61,.49-.32,.18-.51,.27-.58,.27s-.12-.07-.16-.22c-.08-.26-.21-.47-.39-.62-.18-.16-.51-.31-1-.45l.08-.27c.65,.12,1.06,.18,1.24,.18s.3-.02,.38-.05c.07-.03,.11-.12,.11-.27v-3.44Zm8.05,1.85H6.5v2.69c0,.11-.02,.19-.05,.22-.03,.03-.16,.09-.38,.16-.22,.07-.4,.11-.54,.11-.08,0-.11-.06-.1-.17,.07-.65,.1-1.22,.1-1.71v-4.65c0-.46,0-.85-.03-1.19,.26,.07,.6,.19,1.02,.38h3.9l.31-.4c.04-.06,.1-.09,.16-.09s.21,.08,.45,.23l.54,.35c.12,.09,.18,.16,.18,.23s-.13,.17-.4,.33v5.32c0,.3-.04,.52-.12,.67-.08,.14-.28,.3-.6,.47-.32,.17-.52,.25-.6,.25-.06,0-.1-.07-.13-.22-.06-.28-.18-.5-.36-.65-.18-.15-.56-.32-1.14-.51l.05-.23c.66,.12,1.09,.18,1.29,.18s.33-.02,.39-.06c.07-.04,.1-.12,.1-.25v-1.45h.01Zm-.4-5.45h-3.18v.39c0,.09-.03,.15-.09,.19s-.2,.1-.42,.18c-.22,.08-.37,.12-.45,.12-.05,0-.07-.07-.06-.21,.02-.21,.03-.51,.03-.92v-1.7c0-.36,0-.74-.04-1.13,.34,.12,.75,.31,1.22,.57h2.89l.32-.53c.03-.06,.07-.09,.12-.09,.09,0,.31,.12,.66,.37,.35,.25,.53,.4,.53,.46s-.16,.18-.49,.35v1.44l.03,.73c0,.1-.02,.18-.05,.22s-.16,.1-.38,.17-.39,.11-.51,.11c-.08,0-.12-.06-.12-.18v-.54h-.01Zm-3.65,3.16h4.05v-1.46H6.5v1.46Zm4.05,.43H6.5v1.41h4.05v-1.41Zm-3.59-3.96h3.18v-1.75h-3.18v1.75Z"/><path class="d" d="M1.97,78.37c.36,.18,.64,.33,.82,.45,.19,.12,.28,.2,.28,.25,0,.07-.08,.11-.23,.13-.09,0-.16,.06-.23,.17-.47,.66-.86,1.16-1.15,1.5-.29,.33-.62,.66-.98,.98l-.25-.16c.59-.87,1.17-1.98,1.75-3.31h-.01Zm.18-7.64h1.62l.31-.43c.05-.06,.11-.09,.16-.09s.24,.11,.56,.32c.32,.22,.48,.37,.48,.45,0,.1-.15,.24-.44,.4v5.18c0,.5,0,.81,0,.93v.35c.01,.06-.02,.11-.09,.16-.07,.04-.22,.1-.45,.17s-.38,.1-.45,.1c-.06,0-.09-.13-.09-.39h-1.64c0,.16-.02,.26-.05,.32s-.18,.12-.45,.2c-.27,.08-.43,.12-.49,.12s-.09-.04-.09-.13l.03-.48c.02-.33,.03-.74,.03-1.24v-5.39c0-.38-.01-.75-.04-1.11,.37,.15,.73,.33,1.09,.56h0Zm-.03,2.2h1.64v-1.79h-1.64v1.79Zm1.64,.38h-1.64v1.96h1.64v-1.96Zm0,4.18v-1.79h-1.64v1.79h1.64Zm-.18,.96c.53,.32,.96,.63,1.26,.92,.31,.29,.46,.58,.46,.85s-.09,.52-.26,.75c-.17,.23-.34,.34-.52,.34-.1,0-.16-.02-.18-.07-.03-.05-.05-.14-.06-.27-.12-.75-.4-1.53-.84-2.34l.14-.18Zm5.14-6.47c.27-.48,.63-1.32,1.07-2.5,.35,.15,.65,.28,.92,.41,.27,.13,.42,.21,.45,.24s.05,.07,.05,.1c0,.09-.1,.14-.3,.17-.18,.02-.3,.07-.36,.16-.48,.61-.91,1.09-1.27,1.42h1.31l.26-.41c.04-.07,.1-.1,.18-.1s.26,.08,.55,.23,.48,.25,.57,.31c.09,.06,.14,.12,.14,.2s-.15,.21-.45,.39v2.19c0,.21,0,.39,.01,.56l.03,.4s-.03,.1-.09,.14-.21,.1-.45,.16-.41,.1-.51,.1c-.06,0-.09-.13-.09-.4H6.51c0,.22-.02,.37-.05,.43-.03,.06-.17,.13-.41,.21-.24,.08-.42,.12-.54,.12-.04,0-.06-.04-.05-.13,.03-.31,.05-.63,.05-.97v-2.85c0-.36,0-.73-.04-1.1,.44,.16,.82,.34,1.14,.54h2.12v-.02Zm-1.38,4.82h2.5l.23-.34c.04-.06,.1-.09,.18-.09s.27,.07,.59,.22c.31,.15,.51,.25,.58,.3,.07,.05,.11,.1,.11,.13,0,.09-.15,.2-.44,.35v2.97c0,.21,0,.4,0,.57l.03,.4s-.03,.1-.1,.15c-.07,.05-.22,.11-.47,.19-.24,.08-.42,.12-.53,.12-.05,0-.08-.04-.08-.13v-.92h-2.76v.65c0,.09-.03,.15-.1,.19-.06,.04-.21,.09-.45,.16-.23,.07-.38,.1-.45,.1s-.1-.04-.09-.13c.03-.31,.05-.63,.05-.97v-3.24c0-.36,0-.73-.04-1.1,.48,.13,.89,.27,1.22,.43h0Zm-1.06-7.3c.6,.29,1.06,.57,1.35,.82,.3,.25,.45,.47,.45,.67s-.09,.41-.28,.63-.35,.33-.49,.33c-.07,0-.12-.03-.16-.09-.04-.06-.08-.18-.12-.36-.17-.68-.47-1.28-.88-1.79l.13-.21Zm1.85,2.87h-1.63v2.91h1.63v-2.91Zm-1.29,.16c.3,.31,.54,.6,.72,.87,.18,.27,.27,.52,.27,.75s-.07,.44-.21,.62c-.14,.18-.27,.27-.38,.27s-.19-.04-.21-.12c-.03-.08-.04-.23-.04-.43s-.03-.5-.09-.87-.14-.69-.23-.96l.17-.13Zm.36,5.88h2.76v-1.15h-2.76v1.15Zm2.76,.4h-2.76v1.44h2.76v-1.44Zm.78-3.52v-2.91h-1.7v2.56c.34-.95,.58-1.76,.74-2.42,.6,.28,.89,.47,.89,.57,0,.06-.05,.1-.14,.13-.1,.03-.17,.1-.23,.21-.37,.73-.74,1.32-1.11,1.77l-.14-.06v.16h1.69Z"/><path class="d" d="M11.23,.92V3.6h-.38v-.78c0-.18,0-.32-.02-.43-.01-.1-.05-.18-.1-.23-.05-.05-.13-.09-.25-.1-.11-.02-.27-.03-.47-.03H1.62c-.17,0-.31,.03-.41,.08-.1,.05-.17,.12-.21,.22-.04,.1-.06,.24-.06,.43v.83h-.39V.92H11.23Z"/><path class="d" d="M.56,92.48v-2.68h.38v.78c0,.18,0,.32,.02,.43,.01,.1,.05,.18,.1,.23,.05,.05,.13,.09,.25,.1,.11,.02,.27,.03,.47,.03H10.18c.17,0,.31-.03,.41-.08,.1-.05,.17-.12,.21-.22s.06-.24,.06-.43v-.83h.39v2.68H.56Z"/></g><path class="d" d="M136.91,30.25c0,1.47-.41,2.67-1.22,3.61-.81,.94-1.85,1.41-3.12,1.41s-2.29-.47-3.11-1.41c-.82-.94-1.22-2.14-1.22-3.6s.4-2.68,1.21-3.62c.81-.93,1.85-1.4,3.12-1.4s2.31,.47,3.12,1.41c.81,.94,1.22,2.14,1.22,3.6Zm-4.34,3.88c.9,0,1.61-.34,2.12-1.03,.52-.69,.77-1.64,.77-2.85s-.26-2.16-.77-2.85c-.52-.69-1.22-1.03-2.12-1.03s-1.61,.34-2.12,1.03c-.51,.68-.77,1.64-.77,2.86s.26,2.16,.77,2.85c.52,.69,1.22,1.03,2.11,1.03h0Z"/><path class="d" d="M141.64,33.89h2.66c.21,0,.36,.04,.46,.13s.15,.23,.15,.42c0,.22-.05,.37-.14,.45-.09,.08-.27,.12-.52,.12h-5.25c-.21,0-.37-.05-.47-.14-.11-.1-.16-.24-.16-.43s.05-.33,.16-.42,.28-.14,.51-.14h1.4v-5.15h-.55c-.52,0-.84-.04-.97-.12-.13-.08-.19-.23-.19-.45,0-.19,.05-.33,.16-.42,.1-.09,.26-.14,.48-.14h1.83c.14,0,.25,.03,.33,.08,.07,.06,.11,.14,.11,.24v1.37c.51-.64,1.04-1.11,1.59-1.42s1.14-.47,1.78-.47c.48,0,.86,.1,1.16,.29,.29,.19,.44,.44,.44,.74,0,.2-.07,.37-.22,.52-.15,.15-.31,.23-.49,.23-.12,0-.33-.08-.62-.24-.29-.16-.55-.25-.78-.25-.42,0-.86,.15-1.32,.45-.46,.3-.98,.77-1.54,1.41v3.33h0Z"/><path class="d" d="M155.56,34.59c0,.75-.04,1.28-.11,1.59-.08,.31-.2,.59-.39,.82-.3,.4-.72,.7-1.26,.9-.54,.21-1.18,.31-1.91,.31-.61,0-1.06-.06-1.34-.18-.28-.12-.42-.3-.42-.56,0-.17,.07-.31,.2-.44,.14-.13,.3-.19,.49-.19,.14,0,.37,.02,.67,.06,.3,.04,.53,.06,.68,.06,.79,0,1.35-.18,1.69-.55,.33-.36,.5-.99,.5-1.87v-.97c-.33,.38-.69,.66-1.08,.84s-.85,.26-1.36,.26c-1,0-1.83-.33-2.48-1-.66-.67-.98-1.51-.98-2.53s.34-1.88,1.01-2.56c.67-.68,1.51-1.02,2.5-1.02,.41,0,.81,.08,1.21,.23,.39,.15,.79,.38,1.19,.69v-.58c0-.11,.04-.19,.11-.25,.07-.05,.19-.08,.34-.08h1.21c.21,0,.37,.05,.48,.14,.11,.09,.16,.23,.16,.42,0,.21-.07,.36-.2,.45-.13,.09-.38,.13-.75,.13h-.14v5.85l-.02,.03Zm-3.49-5.8c-.7,0-1.27,.22-1.72,.65-.44,.43-.67,.99-.67,1.69s.22,1.24,.67,1.67c.44,.44,1.02,.65,1.72,.65s1.27-.22,1.71-.65c.45-.44,.67-.99,.67-1.67s-.22-1.24-.67-1.68c-.45-.44-1.02-.66-1.71-.66Z"/><path class="d" d="M164.01,34c-.44,.4-.92,.7-1.43,.91-.52,.21-1.05,.31-1.59,.31-.8,0-1.44-.22-1.93-.67-.49-.44-.73-1.02-.73-1.73,0-.85,.33-1.5,.98-1.97,.65-.47,1.56-.7,2.74-.7,.31,0,.62,.02,.94,.06,.32,.04,.64,.1,.97,.19v-.06c0-.62-.15-1.07-.44-1.36-.29-.29-.75-.44-1.37-.44-.42,0-.88,.11-1.4,.34-.51,.22-.85,.34-1.02,.34-.16,0-.28-.06-.39-.19-.1-.13-.15-.29-.15-.49,0-.32,.3-.58,.89-.8,.59-.22,1.35-.33,2.27-.33s1.65,.24,2.13,.72,.72,1.19,.72,2.12v3.64h.39c.38,0,.63,.04,.76,.12,.13,.08,.19,.22,.19,.43,0,.19-.05,.34-.16,.43-.11,.1-.27,.14-.48,.14h-1.26c-.15,0-.27-.05-.37-.14-.1-.09-.16-.22-.19-.39l-.06-.49h0Zm-.06-2.52c-.29-.1-.58-.17-.85-.21-.28-.05-.55-.07-.82-.07-.82,0-1.47,.14-1.95,.42-.48,.28-.71,.65-.71,1.12,0,.36,.15,.66,.45,.9s.68,.35,1.14,.35c.68,0,1.31-.18,1.89-.53,.58-.36,.87-.73,.87-1.11v-.87h-.02Z"/><path class="d" d="M169.04,33.89v-5.15h-.15c-.36,0-.61-.04-.75-.13s-.2-.24-.2-.45,.06-.34,.17-.43,.29-.13,.55-.13h1.15c.14,0,.26,.03,.34,.09,.08,.06,.12,.14,.12,.24v.55c.39-.36,.78-.63,1.16-.81,.38-.17,.78-.26,1.19-.26,.81,0,1.44,.25,1.91,.75,.46,.5,.69,1.2,.69,2.09v3.64h.38c.27,0,.46,.04,.58,.13s.18,.23,.18,.42c0,.21-.06,.36-.19,.45-.13,.09-.35,.13-.67,.13h-1.78c-.34,0-.56-.04-.66-.12-.1-.08-.14-.23-.14-.46,0-.21,.06-.35,.17-.43,.11-.08,.33-.12,.64-.12h.28v-3.34c0-.63-.14-1.1-.43-1.43-.28-.33-.7-.49-1.24-.49s-1.03,.18-1.45,.55c-.42,.37-.63,.83-.63,1.37v3.34h.28c.32,0,.54,.04,.65,.12,.11,.08,.17,.22,.17,.43,0,.23-.05,.38-.14,.46-.1,.08-.33,.12-.71,.12h-1.89c-.22,0-.38-.05-.49-.14s-.16-.24-.16-.44c0-.21,.06-.36,.19-.44,.13-.08,.37-.12,.73-.12h.15Z"/><path class="d" d="M189.83,35.02h-1.63c-.2,0-.35-.05-.45-.14-.1-.1-.15-.24-.15-.43,0-.21,.06-.35,.17-.43,.11-.08,.33-.12,.65-.12h.14v-7.23h-.13c-.32,0-.54-.04-.66-.13-.12-.09-.18-.23-.18-.45,0-.2,.05-.34,.15-.44,.1-.09,.25-.14,.46-.14h3.39c1.33,0,2.39,.43,3.19,1.29,.79,.86,1.19,2.02,1.19,3.48,0,.71-.11,1.37-.34,1.98-.23,.61-.56,1.14-.99,1.6-.4,.42-.89,.72-1.46,.91-.58,.19-1.32,.28-2.22,.28-.11,0-.29,0-.54-.02-.25,0-.45-.02-.59-.02h0Zm0-1.12c.17,.02,.34,.03,.51,.04,.17,0,.33,0,.49,0,1.32,0,2.28-.29,2.89-.88s.92-1.52,.92-2.78-.31-2.2-.92-2.78c-.62-.58-1.6-.87-2.95-.87h-.57c-.13,0-.25,.02-.36,.03v7.23h0Z"/><path class="d" d="M205.83,31.32c0,1.15-.39,2.08-1.17,2.81-.78,.73-1.8,1.09-3.04,1.09s-2.25-.36-3.03-1.09-1.17-1.66-1.17-2.81,.39-2.08,1.17-2.81,1.79-1.09,3.03-1.09,2.25,.36,3.04,1.09c.78,.73,1.18,1.66,1.18,2.8h0Zm-4.21,2.78c.82,0,1.5-.26,2.03-.78s.79-1.18,.79-1.99-.26-1.47-.79-2c-.53-.53-1.2-.79-2.02-.79s-1.49,.26-2.02,.79c-.53,.53-.79,1.19-.79,2s.26,1.48,.79,2,1.2,.78,2.02,.78h0Z"/><path class="d" d="M208.5,33.89v-5.15h-.15c-.36,0-.61-.04-.75-.13s-.2-.24-.2-.45,.06-.34,.17-.43,.29-.13,.55-.13h1.15c.14,0,.26,.03,.34,.09,.08,.06,.12,.14,.12,.24v.55c.39-.36,.78-.63,1.16-.81,.38-.17,.78-.26,1.19-.26,.81,0,1.44,.25,1.91,.75,.46,.5,.69,1.2,.69,2.09v3.64h.38c.27,0,.46,.04,.58,.13,.12,.09,.18,.23,.18,.42,0,.21-.06,.36-.19,.45-.13,.09-.35,.13-.67,.13h-1.78c-.34,0-.56-.04-.66-.12-.1-.08-.14-.23-.14-.46,0-.21,.06-.35,.17-.43,.11-.08,.33-.12,.64-.12h.28v-3.34c0-.63-.14-1.1-.43-1.43-.28-.33-.7-.49-1.24-.49s-1.03,.18-1.45,.55c-.42,.37-.63,.83-.63,1.37v3.34h.28c.32,0,.54,.04,.65,.12,.11,.08,.17,.22,.17,.43,0,.23-.05,.38-.14,.46-.09,.08-.33,.12-.71,.12h-1.89c-.22,0-.38-.05-.49-.14s-.16-.24-.16-.44c0-.21,.06-.36,.19-.44,.13-.08,.37-.12,.73-.12h.15Z"/><path class="d" d="M223.19,34c-.44,.4-.92,.7-1.43,.91-.52,.21-1.05,.31-1.59,.31-.8,0-1.44-.22-1.93-.67-.49-.44-.73-1.02-.73-1.73,0-.85,.33-1.5,.98-1.97,.65-.47,1.56-.7,2.74-.7,.31,0,.62,.02,.94,.06,.32,.04,.64,.1,.97,.19v-.06c0-.62-.15-1.07-.44-1.36-.29-.29-.75-.44-1.37-.44-.42,0-.88,.11-1.4,.34-.51,.22-.85,.34-1.02,.34-.16,0-.28-.06-.39-.19-.1-.13-.15-.29-.15-.49,0-.32,.3-.58,.89-.8,.59-.22,1.35-.33,2.27-.33s1.65,.24,2.14,.72c.48,.48,.72,1.19,.72,2.12v3.64h.39c.38,0,.63,.04,.76,.12,.13,.08,.19,.22,.19,.43,0,.19-.05,.34-.16,.43-.11,.1-.27,.14-.48,.14h-1.26c-.15,0-.27-.05-.37-.14-.1-.09-.16-.22-.19-.39l-.06-.49h-.02Zm-.06-2.52c-.29-.1-.58-.17-.85-.21-.28-.05-.55-.07-.82-.07-.82,0-1.47,.14-1.95,.42-.48,.28-.71,.65-.71,1.12,0,.36,.15,.66,.45,.9,.3,.24,.68,.35,1.14,.35,.68,0,1.31-.18,1.89-.53,.58-.36,.87-.73,.87-1.11v-.87h-.02Z"/><path class="d" d="M233.4,28.05c.26,0,.45,.05,.57,.14,.12,.09,.18,.24,.18,.43s-.06,.33-.17,.42-.28,.14-.51,.14h-3.25v2.68c0,.88,.11,1.46,.34,1.73,.23,.28,.62,.42,1.17,.42,.49,0,1.07-.14,1.75-.43,.68-.28,1.1-.43,1.26-.43,.15,0,.28,.05,.38,.16s.16,.24,.16,.39c0,.18-.07,.33-.2,.46-.13,.13-.35,.26-.67,.38-.52,.21-1,.36-1.42,.46-.42,.1-.81,.14-1.18,.14-.63,0-1.15-.1-1.58-.3-.43-.2-.74-.5-.95-.89-.11-.19-.18-.41-.23-.67-.05-.26-.07-.65-.07-1.19v-2.93h-1.36c-.22,0-.39-.04-.49-.13-.1-.09-.15-.23-.15-.43,0-.22,.07-.37,.21-.45,.14-.08,.44-.12,.89-.12h.91v-2.07c0-.23,.05-.4,.15-.51,.1-.11,.25-.16,.46-.16,.24,0,.4,.07,.49,.2,.09,.13,.14,.44,.14,.91v1.63h3.17v.02Z"/><path class="d" d="M241.82,33.89h2.58c.21,0,.36,.04,.46,.13,.1,.09,.15,.23,.15,.42,0,.22-.05,.37-.14,.45-.09,.08-.27,.12-.52,.12h-6.22c-.21,0-.37-.05-.48-.14-.11-.1-.16-.24-.16-.43s.06-.33,.17-.42,.28-.14,.51-.14h2.45v-5.15h-1.57c-.22,0-.39-.05-.5-.15-.12-.1-.17-.24-.17-.43s.05-.33,.16-.42,.27-.14,.48-.14h2.35c.14,0,.26,.03,.34,.09s.12,.14,.12,.24v5.96h-.01Zm-1.48-8.59c0-.58,.05-.94,.16-1.09,.1-.15,.33-.22,.67-.22s.55,.06,.66,.19,.16,.42,.16,.89-.05,.75-.15,.85c-.1,.11-.32,.16-.67,.16s-.57-.05-.67-.15c-.1-.1-.16-.31-.16-.63Z"/><path class="d" d="M255.15,31.32c0,1.15-.39,2.08-1.17,2.81s-1.8,1.09-3.04,1.09-2.25-.36-3.03-1.09c-.78-.73-1.17-1.66-1.17-2.81s.39-2.08,1.17-2.81c.78-.73,1.79-1.09,3.03-1.09s2.25,.36,3.04,1.09c.78,.73,1.18,1.66,1.18,2.8h0Zm-4.21,2.78c.82,0,1.5-.26,2.03-.78s.79-1.18,.79-1.99-.26-1.47-.79-2c-.53-.53-1.2-.79-2.02-.79s-1.49,.26-2.02,.79c-.53,.53-.79,1.19-.79,2s.26,1.48,.79,2,1.2,.78,2.02,.78h0Z"/><path class="d" d="M257.82,33.89v-5.15h-.15c-.36,0-.61-.04-.75-.13-.14-.09-.2-.24-.2-.45s.06-.34,.17-.43c.11-.09,.29-.13,.55-.13h1.15c.14,0,.26,.03,.34,.09,.08,.06,.12,.14,.12,.24v.55c.39-.36,.78-.63,1.16-.81,.38-.17,.78-.26,1.19-.26,.81,0,1.44,.25,1.91,.75,.46,.5,.69,1.2,.69,2.09v3.64h.38c.27,0,.46,.04,.58,.13s.18,.23,.18,.42c0,.21-.06,.36-.19,.45-.13,.09-.35,.13-.67,.13h-1.78c-.34,0-.56-.04-.66-.12-.1-.08-.14-.23-.14-.46,0-.21,.06-.35,.17-.43,.11-.08,.33-.12,.64-.12h.28v-3.34c0-.63-.14-1.1-.43-1.43-.28-.33-.7-.49-1.24-.49s-1.03,.18-1.45,.55c-.42,.37-.63,.83-.63,1.37v3.34h.28c.32,0,.54,.04,.65,.12,.11,.08,.17,.22,.17,.43,0,.23-.05,.38-.14,.46-.1,.08-.33,.12-.71,.12h-1.89c-.22,0-.38-.05-.49-.14-.11-.09-.16-.24-.16-.44,0-.21,.06-.36,.19-.44,.13-.08,.37-.12,.73-.12h.15Z"/><path class="d" d="M128.59,46.38h-.1c-.27,0-.46-.04-.57-.13s-.17-.24-.17-.45c0-.19,.05-.33,.14-.43,.1-.1,.24-.15,.42-.15h2.43c.32,0,.53,.04,.64,.13s.16,.24,.16,.45-.06,.34-.18,.44c-.12,.09-.3,.14-.56,.14h-.88l2.73,7,2.66-7h-1.07c-.25,0-.44-.05-.56-.14s-.18-.24-.18-.44c0-.21,.06-.36,.17-.45s.32-.13,.63-.13h2.52c.18,0,.32,.05,.41,.15,.09,.1,.14,.24,.14,.43,0,.21-.06,.36-.17,.45s-.31,.13-.59,.13h-.1l-2.89,7.56c-.17,.4-.3,.65-.39,.75-.1,.1-.22,.15-.37,.15h-.46c-.35,0-.64-.28-.86-.85l-.02-.05-2.95-7.56h.02Z"/><path class="d" d="M146.64,51.04c0,1.15-.39,2.08-1.17,2.81s-1.8,1.09-3.04,1.09-2.25-.36-3.03-1.09-1.17-1.66-1.17-2.81,.39-2.08,1.17-2.8c.78-.73,1.79-1.09,3.03-1.09s2.25,.36,3.04,1.09c.78,.73,1.18,1.66,1.18,2.8h0Zm-4.21,2.77c.82,0,1.5-.26,2.03-.78,.53-.52,.79-1.18,.79-1.99s-.26-1.47-.79-2-1.2-.79-2.02-.79-1.49,.26-2.02,.79-.79,1.19-.79,2,.26,1.48,.79,2c.52,.52,1.2,.78,2.02,.78h-.01Z"/><path class="d" d="M153.04,53.61h2.58c.21,0,.36,.04,.46,.13,.1,.09,.15,.23,.15,.42,0,.22-.05,.37-.14,.45-.09,.08-.27,.12-.52,.12h-6.22c-.21,0-.37-.05-.48-.14-.11-.1-.16-.24-.16-.43s.06-.33,.17-.42,.28-.14,.51-.14h2.45v-5.15h-1.57c-.22,0-.39-.05-.5-.15-.12-.1-.17-.24-.17-.43s.05-.33,.16-.42,.27-.14,.48-.14h2.35c.14,0,.26,.03,.34,.09,.08,.06,.12,.14,.12,.24v5.96h0Zm-1.48-8.59c0-.58,.05-.94,.16-1.09,.1-.15,.33-.22,.67-.22s.55,.06,.66,.19c.11,.13,.16,.42,.16,.9s-.05,.74-.15,.85c-.1,.11-.32,.16-.67,.16s-.57-.05-.67-.15c-.1-.1-.16-.31-.16-.63h0Z"/><path class="d" d="M164.58,47.81v-.03c0-.18,.05-.31,.15-.39,.1-.08,.26-.12,.47-.12s.37,.06,.45,.19c.08,.13,.12,.39,.12,.8v1.49c0,.2-.05,.35-.15,.45s-.25,.15-.46,.15c-.14,0-.27-.04-.37-.12-.1-.08-.23-.26-.38-.52-.26-.43-.57-.76-.93-.98-.37-.22-.79-.33-1.26-.33-.83,0-1.51,.25-2.03,.74-.52,.49-.78,1.13-.78,1.91s.25,1.45,.75,1.95,1.14,.76,1.93,.76c.36,0,.7-.05,1.02-.15,.32-.1,.63-.25,.92-.45,.1-.06,.24-.16,.41-.3,.35-.28,.62-.43,.82-.43,.17,0,.3,.05,.41,.16,.1,.1,.16,.24,.16,.41,0,.42-.4,.85-1.2,1.3-.8,.44-1.65,.66-2.55,.66-1.16,0-2.13-.37-2.9-1.12-.77-.74-1.16-1.67-1.16-2.79s.39-2.04,1.16-2.79,1.73-1.12,2.89-1.12c.41,0,.81,.05,1.22,.16s.84,.28,1.3,.51h0Z"/><path class="d" d="M169.31,51.39c.04,.77,.3,1.37,.78,1.79,.48,.42,1.13,.63,1.96,.63,.63,0,1.31-.17,2.05-.5,.74-.33,1.19-.5,1.34-.5s.29,.05,.4,.15c.11,.1,.16,.23,.16,.38s-.06,.3-.17,.42c-.11,.13-.29,.25-.54,.38-.54,.26-1.09,.46-1.66,.6-.57,.14-1.14,.21-1.7,.21-1.22,0-2.2-.35-2.93-1.06-.73-.7-1.1-1.64-1.1-2.8s.39-2.14,1.16-2.87c.78-.73,1.79-1.1,3.03-1.1,1.13,0,2.07,.34,2.81,1.03,.74,.69,1.12,1.51,1.12,2.49,0,.3-.06,.5-.19,.6-.13,.1-.47,.15-1.02,.15h-5.5Zm.04-1.05h5.22c-.08-.64-.35-1.15-.8-1.54-.45-.39-1.01-.58-1.67-.58-.71,0-1.31,.19-1.8,.56-.49,.38-.81,.89-.96,1.56h0Z"/><path class="d" d="M194.29,45.49c.05-.14,.13-.25,.22-.3,.1-.06,.24-.09,.42-.09,.2,0,.34,.05,.42,.14,.08,.1,.12,.29,.12,.59,0,.52,0,1.01,.02,1.46,.01,.45,.02,.65,.02,.59,0,.25-.04,.42-.13,.51-.09,.09-.24,.13-.46,.13-.35,0-.58-.25-.69-.75-.04-.15-.07-.26-.09-.35-.1-.4-.35-.73-.73-.98-.39-.25-.84-.38-1.36-.38-.95,0-1.71,.35-2.28,1.04-.57,.69-.86,1.62-.86,2.79s.29,2.09,.87,2.79c.58,.69,1.35,1.04,2.3,1.04,.31,0,.63-.04,.95-.13,.32-.09,.64-.22,.95-.4,.14-.07,.34-.2,.59-.38s.43-.27,.54-.27c.17,0,.31,.05,.42,.16s.17,.25,.17,.41-.06,.31-.19,.46c-.13,.15-.36,.33-.7,.54-.45,.3-.9,.51-1.36,.65-.46,.14-.93,.21-1.44,.21-1.32,0-2.41-.47-3.27-1.4s-1.29-2.13-1.29-3.58,.44-2.63,1.31-3.59c.87-.95,1.97-1.43,3.29-1.43,.35,0,.71,.04,1.08,.13,.37,.09,.75,.21,1.16,.39Z"/><path class="d" d="M203.46,53.73c-.44,.4-.92,.7-1.43,.91-.52,.21-1.05,.31-1.59,.31-.8,0-1.44-.22-1.93-.67-.49-.44-.73-1.02-.73-1.73,0-.85,.33-1.5,.98-1.97,.65-.47,1.56-.7,2.74-.7,.31,0,.62,.02,.94,.06,.32,.04,.64,.1,.97,.19v-.06c0-.62-.15-1.07-.44-1.36-.29-.29-.75-.44-1.37-.44-.42,0-.88,.11-1.4,.34-.51,.22-.85,.34-1.02,.34-.16,0-.28-.06-.39-.19-.11-.13-.15-.29-.15-.49,0-.32,.3-.58,.89-.8s1.35-.33,2.27-.33,1.65,.24,2.13,.72,.72,1.19,.72,2.12v3.64h.39c.38,0,.63,.04,.76,.12,.13,.08,.19,.23,.19,.43s-.05,.34-.16,.43c-.11,.1-.27,.14-.48,.14h-1.26c-.15,0-.27-.05-.37-.14-.1-.09-.16-.22-.19-.39l-.06-.49h-.01Zm-.06-2.52c-.29-.1-.58-.17-.85-.21-.28-.04-.55-.07-.82-.07-.82,0-1.47,.14-1.95,.42-.48,.28-.71,.65-.71,1.12,0,.36,.15,.66,.45,.9,.3,.24,.68,.35,1.14,.35,.68,0,1.31-.18,1.89-.53,.58-.36,.87-.73,.87-1.11v-.87h-.02Z"/><path class="d" d="M210.7,53.61h2.66c.21,0,.36,.04,.46,.13,.1,.09,.15,.23,.15,.42,0,.22-.05,.37-.14,.45-.09,.08-.27,.12-.52,.12h-5.25c-.21,0-.37-.05-.47-.14-.11-.1-.16-.24-.16-.43s.05-.33,.16-.42,.28-.14,.51-.14h1.4v-5.15h-.55c-.52,0-.84-.04-.97-.12-.13-.08-.19-.23-.19-.45,0-.19,.05-.33,.16-.42,.1-.09,.26-.14,.48-.14h1.83c.14,0,.25,.03,.33,.08,.08,.06,.11,.14,.11,.24v1.36c.51-.64,1.04-1.11,1.59-1.42,.55-.31,1.14-.47,1.78-.47,.48,0,.86,.1,1.16,.29,.29,.19,.44,.44,.44,.74,0,.2-.07,.37-.22,.52-.15,.15-.31,.23-.49,.23-.12,0-.33-.08-.62-.25-.29-.16-.55-.25-.78-.25-.42,0-.86,.15-1.32,.45-.46,.3-.98,.77-1.54,1.41v3.36Z"/><path class="d" d="M223.76,54.74c-.11,0-.19-.03-.24-.08-.05-.06-.07-.16-.07-.32v-.66c-.32,.4-.72,.71-1.2,.94-.48,.22-1,.33-1.57,.33-1.01,0-1.86-.36-2.54-1.08-.68-.72-1.02-1.61-1.02-2.68s.36-2.03,1.09-2.77c.73-.74,1.63-1.1,2.72-1.1,.55,0,1.05,.1,1.48,.29,.44,.19,.82,.48,1.13,.86v-3.07h-.43c-.47,0-.77-.04-.9-.12-.14-.08-.2-.23-.2-.45,0-.19,.05-.34,.16-.43,.11-.1,.27-.14,.48-.14h1.65c.16,0,.28,.03,.35,.08,.07,.05,.11,.14,.11,.25v9.05h.36c.26,0,.45,.04,.57,.13,.12,.09,.18,.23,.18,.42,0,.18-.05,.32-.15,.43-.1,.1-.24,.15-.41,.15h-1.55v-.03Zm-5.26-3.6c0,.74,.24,1.34,.71,1.81,.48,.47,1.08,.71,1.81,.71s1.35-.24,1.82-.73c.48-.49,.71-1.11,.71-1.87s-.24-1.36-.71-1.84-1.08-.72-1.83-.72-1.36,.24-1.83,.73c-.47,.49-.7,1.12-.7,1.91h.02Z"/><path class="d" d="M42.71,1.89h1.86l.47-.78c.04-.07,.09-.11,.15-.11,.1,0,.4,.14,.9,.42,.5,.28,.74,.48,.74,.59s-.24,.28-.71,.5v1.55c0,.27,.23,.41,.7,.41s.77-.06,.9-.18c.13-.12,.24-.18,.32-.18,.19,0,.45,.14,.8,.41,.35,.27,.52,.49,.52,.65,0,.27-.66,.41-1.98,.41s-2.1-.06-2.34-.19c-.24-.13-.36-.35-.36-.65V2.5h-2.18c-.01,1.17-.16,2-.44,2.51-.28,.51-.77,.95-1.46,1.33h4.62l.3-.41s.06-.06,.11-.06c.1,0,.43,.15,.99,.44,.56,.3,.84,.5,.84,.61s-.08,.18-.25,.2c-.17,.02-.29,.06-.38,.12s-.32,.31-.69,.74c-.37,.44-.79,.85-1.25,1.22,1.41,.62,2.93,.98,4.55,1.08v.3c-.62,.09-1.04,.19-1.25,.32-.22,.13-.41,.37-.58,.73-.04,.09-.12,.13-.22,.13-.14,0-.64-.19-1.49-.56-.85-.37-1.56-.76-2.14-1.16-1.65,1.06-3.75,1.66-6.3,1.79l-.09-.3c2.42-.66,4.23-1.41,5.44-2.24-.72-.7-1.29-1.52-1.73-2.44-.2,.03-.33,.05-.39,.06l-.3-.52c-.13,.07-.35,.18-.67,.32,.09,.07,.13,.14,.13,.19,0,.14-.24,.31-.71,.5v1.12l.04,1.17c0,.16-.14,.29-.42,.39-.28,.1-.56,.15-.85,.15-.17,0-.26-.07-.26-.22v-.3h-5.29c-.16,1.81-1.05,3.42-2.68,4.83l-.26-.32c.59-.81,1.01-1.62,1.25-2.45,.24-.83,.37-1.74,.37-2.75s-.02-1.95-.06-2.83c.5,.12,.99,.26,1.47,.43h5.29l.3-.54c.06-.1,.12-.15,.19-.15,.13,0,.55,.2,1.25,.6,1.06-.78,1.6-2.16,1.6-4.16,0-.39-.02-.81-.06-1.25,.63,.19,1.19,.44,1.68,.75v.02Zm-8.58,1.68h-2.83c-.36,0-.67,.04-.93,.11l-.37-.8c.3,.07,.66,.11,1.08,.11h3.04v-.78c0-.7-.01-1.33-.04-1.88,.55,.1,1,.21,1.37,.32,.37,.12,.63,.2,.78,.27,.15,.06,.23,.14,.23,.24s-.24,.26-.71,.49v1.34h1.96l.63-.93c.13-.2,.27-.3,.41-.3s.49,.23,1.04,.7c.55,.47,.82,.77,.82,.91s-.15,.2-.45,.2h-4.4v1.42h1.75l.52-.73c.11-.16,.22-.24,.32-.24s.4,.19,.91,.57c.5,.38,.76,.64,.76,.78s-.16,.2-.47,.2h-7.64c-.36,0-.67,.04-.93,.11l-.37-.8c.3,.07,.66,.11,1.08,.11h2.46v-1.42h-.02Zm.24,9.08h-1.04c-.32,0-.57,.04-.76,.11l-.45-.82c.23,.07,.52,.11,.86,.11h10.4l.65-.82c.14-.17,.26-.26,.35-.26,.1,0,.4,.16,.9,.49,.5,.32,.82,.55,.96,.67,.14,.12,.22,.23,.22,.31,0,.14-.12,.22-.37,.22h-2.18v4.75l1.7-.06,.78-1.38c.1-.19,.21-.28,.33-.28s.54,.3,1.24,.9,1.06,.95,1.06,1.07-.2,.18-.6,.19l-4.51,.22,.09,1.68c0,.11-.04,.2-.11,.27-.07,.07-.28,.15-.61,.27-.34,.12-.62,.17-.85,.17-.14,0-.22-.09-.22-.28v-2.05l-10.79,.5c-.36,0-.64,.09-.84,.24l-.56-.91c.22,.04,.47,.06,.76,.04l3.6-.15v-5.2Zm-.05-5.46h-1.68c-.09,.16-.16,.81-.22,1.94h1.9v-1.94Zm3.34,1.94v-1.94h-1.79v1.94h1.79Zm4.53,3.52h-6.15v1.19h6.15v-1.19Zm0,1.77h-6.15v1.34h6.15v-1.34Zm-6.15,1.94v1.38l6.15-.26v-1.12h-6.15Zm7.66-7.79c.55-.5,1.04-1.08,1.47-1.73h-3.49c.53,.62,1.21,1.19,2.03,1.73h0Z"/><path class="d" d="M31.64,49.77c.11,.73,.19,1.34,.23,1.82s.03,.89-.01,1.22c-.04,.33-.13,.61-.26,.85-.13,.24-.3,.48-.52,.72-.14,.17-.31,.3-.51,.4-.19,.09-.38,.15-.57,.17-.19,.02-.36,0-.53-.05-.17-.06-.3-.16-.4-.3-.12-.17-.15-.36-.1-.57,.05-.21,.22-.46,.51-.74,.29-.27,.53-.53,.72-.78,.19-.24,.35-.5,.47-.75,.12-.26,.22-.55,.29-.86,.07-.32,.13-.68,.17-1.1l.5-.02h.01Zm-1.88-2.66h.55c.18,0,.36,0,.55-.02,.6-.6,1.22-1.29,1.83-2.07,.62-.78,1.2-1.59,1.75-2.44-.42,.09-.79,.17-1.13,.25-.34,.08-.65,.16-.94,.25s-.55,.18-.8,.28c-.24,.1-.49,.22-.73,.35-.27,.14-.49,.05-.65-.28-.1-.2-.21-.43-.33-.68-.12-.25-.25-.52-.38-.81,.2,0,.38,.02,.55,.02h.49c.78-1.05,1.43-2.06,1.97-3.03,.54-.97,1-1.95,1.37-2.92,.4,.19,.76,.37,1.06,.54,.3,.17,.59,.32,.86,.43,.26,.12,.35,.23,.27,.33-.08,.11-.2,.18-.36,.21-.13,.03-.26,.07-.39,.14s-.29,.21-.47,.44c-.37,.45-.7,.84-.98,1.19s-.55,.67-.8,.97-.49,.59-.72,.86c-.23,.27-.48,.55-.76,.84h3.24c.22-.36,.39-.66,.53-.91,.14-.24,.26-.47,.37-.68,.11-.21,.21-.41,.3-.61s.2-.45,.31-.73c.39,.26,.69,.45,.92,.58,.22,.13,.46,.29,.72,.5,.23,.17,.34,.29,.33,.37,0,.07-.13,.12-.36,.15-.06,0-.1,.02-.12,0-.02,0-.09,.05-.2,.16,.29,.06,.61,.09,.97,.09h7.68l.6-1.49c.19-.3,.42-.33,.71-.09,.33,.29,.63,.56,.9,.83s.52,.53,.77,.79c.17,.19,.25,.34,.23,.46-.02,.12-.17,.18-.44,.18h-3.43c.24,.06,.47,.12,.67,.19,.2,.07,.4,.14,.58,.19,.24,.07,.36,.17,.36,.28,0,.12-.11,.22-.31,.3-.12,.04-.21,.13-.28,.27-.07,.14-.14,.35-.22,.64-.19,.88-.37,1.65-.54,2.33-.17,.68-.36,1.29-.56,1.86-.2,.56-.42,1.08-.65,1.56s-.5,.97-.8,1.46c.39,.47,.78,.88,1.19,1.21,.4,.33,.83,.63,1.28,.88,.45,.26,.95,.5,1.48,.71,.53,.22,1.12,.43,1.77,.65l.06,.39c-.36,.03-.66,.08-.91,.15-.24,.07-.45,.16-.63,.27-.17,.11-.32,.23-.43,.37-.12,.14-.22,.29-.3,.46-.07,.12-.15,.16-.23,.14-.08-.02-.16-.06-.25-.12-.96-.62-1.76-1.22-2.39-1.8-.63-.58-1.21-1.23-1.73-1.95-.39,.42-.82,.81-1.29,1.19-.47,.37-1.03,.74-1.66,1.09-.63,.35-1.36,.7-2.19,1.06-.83,.35-1.79,.71-2.88,1.07l-.22-.43c1.01-.5,1.88-.97,2.63-1.4s1.4-.86,1.96-1.27c.56-.42,1.05-.85,1.48-1.28,.42-.44,.82-.92,1.18-1.43-.37-.65-.7-1.32-.97-2.01-.27-.69-.5-1.41-.69-2.15-.19-.74-.34-1.51-.46-2.32-.12-.81-.23-1.65-.31-2.55h-.54c-.16,0-.32,0-.5,.03-.17,.02-.32,.05-.43,.08l-.32-.82c-.07,.07-.17,.17-.3,.29-.13,.12-.24,.24-.32,.36-.37,.49-.75,.96-1.12,1.41-.37,.45-.76,.9-1.14,1.35-.39,.45-.79,.9-1.21,1.35-.42,.45-.86,.92-1.34,1.39l4.34-.43c-.2-.73-.49-1.39-.86-1.96l.28-.24c.52,.34,.94,.65,1.27,.93,.33,.27,.59,.53,.77,.77,.18,.24,.31,.46,.38,.66s.11,.4,.11,.58c0,.55-.13,.95-.38,1.2s-.54,.38-.87,.38c-.27,0-.42-.19-.43-.58-.01-.19-.03-.38-.04-.58,0-.2-.04-.38-.06-.54-.91,.24-1.67,.46-2.3,.65-.63,.19-1.14,.35-1.55,.5-.41,.14-.73,.27-.96,.37-.23,.1-.41,.19-.54,.28-.14,.09-.28,.13-.4,.13s-.23-.08-.33-.24c-.14-.24-.28-.52-.4-.83-.12-.31-.24-.61-.36-.92l-.03-.04Zm5.22,5.31c0,.37-.09,.7-.28,.98-.19,.28-.44,.48-.75,.59-.24,.09-.43,.07-.56-.06s-.17-.39-.13-.78c.07-.69,.12-1.31,.14-1.87,.02-.55-.08-1.13-.29-1.72l.39-.22c.65,.63,1.06,1.22,1.23,1.76,.17,.54,.26,.97,.26,1.31h0Zm3-.64c0,.37-.13,.69-.38,.94s-.5,.38-.74,.38c-.16,0-.3-.05-.43-.16-.13-.11-.21-.31-.24-.59-.03-.32-.06-.61-.1-.88-.04-.27-.09-.54-.15-.8-.06-.26-.15-.52-.27-.78s-.26-.54-.43-.84l.41-.19c.53,.39,.95,.72,1.26,.99,.31,.27,.54,.52,.7,.74,.16,.22,.26,.43,.3,.61,.04,.19,.06,.38,.06,.58h.01Zm2.01-10.2c.11,.79,.25,1.53,.4,2.21,.15,.68,.33,1.33,.54,1.95,.21,.62,.46,1.22,.74,1.81,.29,.59,.63,1.18,1.01,1.77,.24-.5,.47-1.03,.67-1.57,.2-.55,.38-1.13,.55-1.76,.17-.63,.32-1.3,.45-2.03,.14-.73,.27-1.52,.4-2.38h-4.76Zm3.88-2.52c0,.47-.14,.85-.41,1.13-.27,.28-.55,.43-.82,.44-.19,0-.36-.05-.53-.19-.17-.14-.26-.36-.27-.65,0-.32-.02-.59-.05-.81-.04-.22-.09-.44-.16-.65-.07-.21-.17-.42-.3-.65-.13-.22-.29-.5-.5-.83l.19-.3c.66,.35,1.18,.63,1.56,.86,.38,.23,.67,.44,.86,.61,.19,.18,.31,.35,.36,.51s.06,.33,.06,.52h0Z"/><path class="d" d="M39.95,79.67h6.04l.91-1.42c.11-.17,.22-.26,.3-.26,.13,0,.53,.33,1.21,.98,.68,.65,1.01,1.04,1.01,1.16s-.13,.18-.39,.18H30.65c-.39,0-.69,.05-.91,.15l-.39-.91c.3,.07,.66,.11,1.08,.11h7.53v-6.08c0-.72,0-1.36-.04-1.92,.79,.12,1.45,.26,1.96,.42,.52,.17,.78,.31,.78,.42s-.24,.25-.71,.39v2.33h4.21l.91-1.27c.1-.13,.18-.19,.24-.19,.13,0,.52,.28,1.18,.83,.65,.55,.98,.91,.98,1.07s-.12,.24-.34,.24h-7.16v3.78h-.02Zm-.11,3.48v5.54c0,.7,0,1.19,.02,1.47l.02,.78c0,.11-.07,.22-.22,.31-.14,.09-.44,.22-.9,.39-.45,.16-.73,.25-.83,.25s-.15-.06-.15-.19l.04-1.21c0-.53,.02-1.1,.02-1.7v-6.49c0-.72-.01-1.36-.04-1.92,.46,.04,1.02,.17,1.69,.37,.67,.2,1,.36,1,.49s-.22,.33-.67,.64v.86c2.04,.5,3.54,.94,4.49,1.29,.95,.36,1.58,.74,1.89,1.14,.31,.4,.46,.88,.46,1.42s-.08,.95-.23,1.21c-.15,.26-.33,.39-.55,.39-.09,0-.18-.05-.27-.14-.09-.09-.25-.29-.46-.59-.68-.99-1.43-1.82-2.28-2.47-.84-.65-1.86-1.26-3.05-1.82l.02-.02Z"/><path class="d" d="M70.15,52.88c-.88,0-1.6-.72-1.6-1.6v-16.48c0-.88,.72-1.6,1.6-1.6s1.6,.72,1.6,1.6v16.48c0,.88-.72,1.6-1.6,1.6Z"/><path class="d" d="M99.21,52.88c-.88,0-1.6-.72-1.6-1.6v-16.48c0-.88,.72-1.6,1.6-1.6s1.6,.72,1.6,1.6v16.48c0,.88-.72,1.6-1.6,1.6Z"/><path class="d" d="M113.75,52.88c-.88,0-1.6-.72-1.6-1.6v-16.48c0-.88,.72-1.6,1.6-1.6s1.6,.72,1.6,1.6v16.48c0,.88-.72,1.6-1.6,1.6Z"/><path class="d" d="M77.41,58.73c-.88,0-1.6-.72-1.6-1.6V28.95c0-.88,.72-1.6,1.6-1.6s1.6,.72,1.6,1.6v28.18c0,.88-.72,1.6-1.6,1.6Z"/><path class="d" d="M106.48,58.73c-.88,0-1.6-.72-1.6-1.6V28.95c0-.88,.72-1.6,1.6-1.6s1.6,.72,1.6,1.6v28.18c0,.88-.72,1.6-1.6,1.6Z"/><path class="d" d="M91.95,58.73c-.88,0-1.6-.72-1.6-1.6V28.95c0-.88,.72-1.6,1.6-1.6s1.6,.72,1.6,1.6v28.18c0,.88-.72,1.6-1.6,1.6Z"/><path class="d" d="M84.68,69.89c-.88,0-1.6-.72-1.6-1.6V17.79c0-.88,.72-1.6,1.6-1.6s1.6,.72,1.6,1.6v50.51c0,.88-.72,1.6-1.6,1.6h0Z"/></g></g></svg>