<?xml version="1.0" encoding="utf-8"?>
<!-- Generator: Adobe Illustrator 26.2.1, SVG Export Plug-In . SVG Version: 6.00 Build 0)  -->
<svg version="1.1" id="圖層_1" xmlns="http://www.w3.org/2000/svg" xmlns:xlink="http://www.w3.org/1999/xlink" x="0px" y="0px"
	 viewBox="0 0 336.06 339.5" style="enable-background:new 0 0 336.06 339.5;" xml:space="preserve">
<style type="text/css">
	.st0{fill:#FFFFFF;}
</style>
<g>
	<path class="st0" d="M169.86,336.61c-0.51,0.59-1.43,0.91-2.54,0.73c-1.14-0.19-1.88-0.86-2.06-1.98
		c-0.13-0.78-0.13-1.59-0.12-2.38c0.32-24.44,0.65-48.86,0.97-73.3c0.01-1.03-0.03-2.05,0.33-3.05c0.21-0.59,0.63-0.98,1.25-0.99
		c0.67-0.01,1.03,0.51,1.15,1.07c0.19,0.88,0.35,1.79,0.37,2.7c0.49,24.66,0.95,49.32,1.42,73.98
		C170.64,334.4,170.77,335.46,169.86,336.61L169.86,336.61z"/>
	<path class="st0" d="M2.27,174.02c-0.84-0.63-1.23-1.42-1.11-2.41c0.14-1.1,0.69-2.01,1.79-2.29c0.87-0.22,1.8-0.21,2.71-0.21
		c24.36,0.04,48.72,0.1,73.08,0.16c0.68,0,1.38,0,2.05,0.06c0.95,0.09,1.98,0.36,2.08,1.42c0.11,1.19-1.03,1.35-1.91,1.5
		c-0.78,0.13-1.6,0.12-2.39,0.14c-18.06,0.54-36.12,1.08-54.18,1.61c-6.28,0.19-12.58,0.38-18.86,0.56
		c-1.13,0.03-2.31,0.25-3.24-0.55L2.27,174.02z"/>
	<path class="st0" d="M113.57,256.21c0.13-0.19,0.25-0.38,0.41-0.55c0.79-0.93,1.58-2.39,2.98-1.37c1.29,0.94,0.47,2.3-0.17,3.38
		c-3.43,5.81-6.89,11.59-10.34,17.39c-4.27,7.17-8.54,14.33-12.82,21.49c-0.64,1.08-1.3,2.17-2.04,3.18
		c-1.08,1.46-2.29,1.79-3.5,1.07c-1.33-0.79-1.59-2.19-0.62-3.88c0.68-1.19,1.46-2.32,2.2-3.47
		C97.63,281.03,105.59,268.63,113.57,256.21L113.57,256.21z"/>
	<path class="st0" d="M74.8,205.13c-0.63,0.7-1.46,1.07-2.32,1.39c-14.52,5.5-29.03,11.02-43.55,16.52
		c-0.53,0.2-1.09,0.38-1.64,0.46c-1.15,0.16-2.05-0.35-2.51-1.38c-0.53-1.18-0.23-2.31,0.84-3.03c0.74-0.49,1.64-0.78,2.5-1.07
		c14.14-4.87,28.29-9.73,42.44-14.58c1.07-0.37,2.12-0.91,3.32-0.64C75.1,203.07,75.52,204.16,74.8,205.13L74.8,205.13z"/>
	<path class="st0" d="M67.78,178.64c-0.94,1.07-2.21,1.11-3.46,1.23c-8.19,0.78-16.37,1.58-24.56,2.37
		c-5.57,0.54-11.14,1.1-16.71,1.62c-2.82,0.26-4.19-0.42-4.36-2.07c-0.19-1.77,0.92-2.64,3.82-2.83c13.9-0.91,27.82-1.8,41.73-2.69
		c1.03-0.07,2.07-0.19,3.01,0.36C68.06,177.11,68.25,177.82,67.78,178.64L67.78,178.64z"/>
	<path class="st0" d="M140.73,268.02c0.83,0.86,0.68,1.9,0.43,2.9c-0.54,2.1-1.15,4.18-1.73,6.27c-3.11,11.33-6.22,22.66-9.33,33.99
		c-0.21,0.77-0.4,1.56-0.75,2.27c-0.5,1.04-1.49,1.49-2.57,1.24c-1.21-0.27-2.05-1.1-1.99-2.43c0.04-0.78,0.28-1.56,0.52-2.32
		c4.01-12.97,8.04-25.93,12.07-38.89c0.3-0.97,0.48-2.03,1.24-2.78C139.22,267.69,139.94,267.34,140.73,268.02L140.73,268.02z"/>
	<path class="st0" d="M75.08,212.51c-0.67,0.72-1.48,1.12-2.32,1.5c-12.35,5.64-24.69,11.29-37.03,16.94
		c-0.42,0.19-0.82,0.4-1.25,0.55c-1.36,0.46-2.51,0.17-3.2-1.15c-0.72-1.39-0.06-2.44,1.08-3.2c0.66-0.44,1.44-0.69,2.17-1.01
		c12.1-5.08,24.19-10.17,36.29-15.24c0.94-0.4,1.86-0.92,2.92-0.9c0.72,0.02,1.36,0.25,1.67,0.97
		C75.66,211.56,75.36,212.06,75.08,212.51L75.08,212.51z"/>
	<path class="st0" d="M92.17,243.53c-4.33,4.18-8.58,8.32-12.85,12.43c-4.68,4.52-9.36,9.02-14.05,13.52
		c-0.74,0.71-1.49,1.43-2.31,2.03c-1.19,0.88-2.39,0.75-3.34-0.37c-0.88-1.02-0.61-2.13,0.09-3.14c0.26-0.36,0.65-0.63,0.99-0.94
		c9.13-8.26,18.27-16.51,27.41-24.76c0.76-0.69,1.52-1.4,2.38-1.94c0.8-0.51,1.77-0.66,2.46,0.24c0.58,0.74,0.28,1.51-0.2,2.2
		c-0.2,0.28-0.43,0.54-0.58,0.73L92.17,243.53z"/>
	<path class="st0" d="M103.54,298.74c-0.89,1.29-1.92,1.89-3.3,1.23c-1.39-0.66-1.74-2.05-0.79-3.83c2.46-4.62,5.01-9.2,7.53-13.79
		c3.13-5.69,6.26-11.37,9.41-17.05c0.44-0.79,0.95-1.56,1.54-2.24c0.46-0.53,1.17-0.74,1.86-0.4c0.71,0.34,0.98,1.02,0.83,1.71
		c-0.19,0.88-0.47,1.76-0.87,2.56c-5.19,10.26-10.41,20.5-15.63,30.75c-0.2,0.4-0.44,0.8-0.59,1.05L103.54,298.74z"/>
	<path class="st0" d="M84.24,240.9c-2.29,1.93-4.47,3.75-6.65,5.59c-5.05,4.25-10.1,8.53-15.18,12.74c-2.06,1.71-3.51,1.87-4.44,0.7
		c-0.98-1.24-0.54-2.64,1.48-4.23c7.06-5.58,14.14-11.14,21.21-16.7c0.36-0.28,0.68-0.63,1.08-0.84c0.93-0.52,1.95-0.91,2.8,0.05
		C85.43,239.23,84.57,240.1,84.24,240.9L84.24,240.9z"/>
	<path class="st0" d="M160.53,278.65c0.68,0.57,0.84,1.25,0.86,1.94c0.03,0.91-0.02,1.83-0.08,2.74
		c-0.52,7.75-1.05,15.51-1.58,23.26c-0.04,0.68-0.05,1.38-0.17,2.05c-0.33,1.88-1.19,2.71-2.59,2.55c-1.33-0.15-2.14-1.2-2.01-3.08
		c0.23-3.3,0.62-6.6,0.95-9.89c0.53-5.35,1.08-10.69,1.61-16.03c0.11-1.13,0.1-2.3,0.98-3.2
		C159.16,278.33,159.85,278.14,160.53,278.65z"/>
	<path class="st0" d="M97.55,273.49c-2.09,2.99-4.18,5.99-6.29,8.97c-0.46,0.65-0.9,1.34-1.47,1.88c-0.84,0.79-1.9,0.88-2.83,0.21
		c-0.92-0.67-1.18-1.7-0.67-2.75c0.35-0.71,0.86-1.34,1.33-1.98c4.58-6.26,9.17-12.52,13.76-18.78c0.54-0.74,1.09-1.47,1.91-1.94
		c0.64-0.37,1.29-0.44,1.92,0.02c0.63,0.46,0.72,1.11,0.6,1.83c-0.16,0.94-0.78,1.63-1.29,2.38c-2.34,3.38-4.66,6.77-6.99,10.15
		L97.55,273.49L97.55,273.49z"/>
	<path class="st0" d="M143.01,278.69c0.65-0.82,1.1-1.34,1.91-1.21c0.95,0.16,1.39,0.86,1.44,1.68c0.05,0.89-0.09,1.81-0.27,2.7
		c-1.57,7.82-3.15,15.64-4.76,23.45c-0.53,2.55-1.55,3.66-3.03,3.44c-1.64-0.25-2.16-1.7-1.51-4.5c1.82-7.76,3.66-15.52,5.52-23.28
		C142.52,280.09,142.56,279.13,143.01,278.69z"/>
	<path class="st0" d="M34.27,209.84c-1.19-0.88-1.24-2.61,0.03-3.47c0.73-0.5,1.65-0.76,2.52-0.99c7.36-2.02,14.73-4,22.1-5.98
		c0.77-0.21,1.55-0.42,2.33-0.45c0.93-0.04,1.87,0.16,2.09,1.32c0.16,0.9-0.28,1.55-1.03,1.97c-0.49,0.28-1.03,0.49-1.57,0.65
		c-7.73,2.36-15.47,4.72-23.2,7.07C36.42,210.3,35.32,210.65,34.27,209.84L34.27,209.84z"/>
	<path class="st0" d="M70.73,222.94c-0.38,0.26-0.92,0.69-1.51,1.01c-6.9,3.78-13.81,7.53-20.72,11.29
		c-0.4,0.22-0.81,0.43-1.25,0.56c-1.19,0.35-2.3,0.29-2.93-0.97c-0.63-1.24-0.07-2.23,0.88-2.99c0.53-0.42,1.16-0.71,1.77-1.02
		c6.62-3.32,13.26-6.63,19.88-9.95c0.82-0.41,1.6-0.87,2.55-0.91c0.74-0.03,1.38,0.22,1.73,0.87
		C71.5,221.49,71.26,222.15,70.73,222.94z"/>
	<path class="st0" d="M57.37,187.32c-0.63,0.72-1.45,1.07-2.38,1.22c-6.43,1.05-12.86,2.11-19.29,3.14
		c-1.46,0.23-2.82,0.05-3.24-1.69c-0.34-1.41,0.64-2.5,2.72-2.79c6.45-0.9,12.91-1.73,19.37-2.55c0.66-0.08,1.39-0.02,2.02,0.18
		C57.73,185.21,58.05,186.36,57.37,187.32L57.37,187.32z"/>
	<path class="st0" d="M85.39,261.61c-1.83,2.03-3.65,4.05-5.48,6.08c-0.61,0.67-1.17,1.4-2.09,1.69c-0.82,0.26-1.57,0.2-2.22-0.41
		c-0.66-0.61-0.8-1.41-0.51-2.19c0.24-0.61,0.61-1.23,1.07-1.7c3.79-3.92,7.62-7.81,11.43-11.7c0.24-0.25,0.46-0.51,0.73-0.72
		c0.84-0.7,1.78-1.18,2.76-0.4c1.19,0.95,0.74,2.11-0.01,3.01c-1.82,2.18-3.76,4.26-5.65,6.38L85.39,261.61L85.39,261.61z"/>
	<path class="st0" d="M119.85,275.35c0.63-0.67,1.28-1.39,2.33-0.99c1.18,0.44,1.41,1.43,1.13,2.52c-0.19,0.77-0.51,1.5-0.82,2.23
		c-1.68,3.98-3.38,7.94-5.08,11.9c-0.31,0.73-0.59,1.49-1.01,2.16c-0.67,1.05-1.68,1.65-2.9,1.11c-1.24-0.54-1.44-1.69-1.11-2.89
		c0.18-0.65,0.53-1.25,0.81-1.87c1.85-4.02,3.7-8.05,5.57-12.07C119.09,276.73,119.49,276.04,119.85,275.35L119.85,275.35z"/>
	<path class="st0" d="M124.57,296.68c-0.78,1.03-1.6,1.41-2.57,1.1c-1.14-0.37-1.56-1.32-1.44-2.43c0.07-0.66,0.34-1.33,0.58-1.96
		c1.71-4.47,3.44-8.92,5.17-13.39c0.08-0.21,0.19-0.41,0.27-0.63c0.52-1.37,1.3-2.7,2.95-2.07c1.42,0.54,1.24,2,0.81,3.26
		c-1.74,5.06-3.5,10.12-5.27,15.17c-0.15,0.43-0.42,0.8-0.5,0.96L124.57,296.68z"/>
	<path class="st0" d="M70.36,232.24c-0.9,0.57-1.97,1.22-3.02,1.9c-3.26,2.07-6.51,4.16-9.77,6.22c-0.77,0.48-1.55,0.97-2.39,1.28
		c-1.04,0.38-2.08,0.21-2.66-0.87c-0.54-1.02-0.3-2,0.53-2.78c0.41-0.39,0.91-0.69,1.4-0.97c4.21-2.48,8.42-4.95,12.64-7.41
		c0.49-0.29,0.98-0.58,1.52-0.76c1.07-0.38,2.08-0.26,2.64,0.84C71.73,230.65,71.13,231.41,70.36,232.24L70.36,232.24z"/>
	<path class="st0" d="M152.21,284.54c0.7,0.7,1,1.56,0.88,2.5c-0.65,4.97-1.31,9.95-2.03,14.92c-0.2,1.41-1.12,2.36-2.6,2.08
		c-1.47-0.28-1.97-1.52-1.76-2.9c0.63-4.05,1.31-8.1,2.02-12.15c0.22-1.23,0.42-2.5,0.9-3.63
		C150.08,284.31,151.08,283.99,152.21,284.54L152.21,284.54z"/>
	<path class="st0" d="M73.13,239.93c-3.13,2.24-6.65,4.75-10.17,7.26c-0.09,0.06-0.21,0.11-0.31,0.14
		c-0.94,0.25-1.87,0.23-2.47-0.62c-0.67-0.94-0.59-1.96,0.18-2.82c0.37-0.41,0.88-0.71,1.34-1.04c2.71-1.87,5.44-3.74,8.16-5.6
		c0.47-0.32,0.96-0.62,1.47-0.86c0.9-0.42,1.81-0.41,2.49,0.41C74.67,237.83,74.1,238.71,73.13,239.93L73.13,239.93z"/>
	<path class="st0" d="M91.89,267.01c-1.21,1.52-2.38,3.07-3.64,4.54c-0.81,0.94-1.91,1.38-3.04,0.63c-1.35-0.9-1.17-2.26-0.34-3.3
		c2.56-3.21,5.21-6.35,7.93-9.42c0.67-0.75,1.81-1.2,2.78-0.38c1.08,0.91,0.84,2.06,0.09,3.06c-1.23,1.64-2.54,3.23-3.82,4.84
		L91.89,267.01z"/>
	<path class="st0" d="M40.56,198.94c-0.9-0.82-1.14-1.7-0.44-2.74c0.48-0.71,1.19-1.05,1.99-1.22c3.03-0.6,6.05-1.21,9.09-1.78
		c0.55-0.1,1.16-0.1,1.69,0.06c1.44,0.41,1.79,1.83,0.75,2.94c-0.31,0.32-0.7,0.67-1.1,0.77c-3.33,0.82-6.67,1.59-10.01,2.34
		C41.85,199.45,41.16,199.29,40.56,198.94L40.56,198.94z"/>
	<path class="st0" d="M169.85,4.51c0.92,1.15,0.79,2.21,0.77,3.23c-0.46,24.66-0.93,49.32-1.42,73.98c-0.02,0.9-0.18,1.81-0.37,2.7
		c-0.12,0.57-0.48,1.09-1.15,1.07c-0.62-0.01-1.04-0.4-1.25-0.99c-0.36-0.99-0.32-2.02-0.33-3.05c-0.32-24.43-0.65-48.86-0.97-73.3
		c0-0.79-0.01-1.6,0.12-2.38c0.18-1.13,0.92-1.8,2.06-1.98C168.43,3.6,169.35,3.91,169.85,4.51L169.85,4.51z"/>
	<path class="st0" d="M113.56,84.9c-7.97-12.41-15.93-24.81-23.9-37.23c-0.74-1.15-1.52-2.28-2.2-3.47
		c-0.96-1.7-0.71-3.09,0.62-3.88c1.21-0.72,2.43-0.39,3.5,1.07c0.74,1.01,1.4,2.09,2.04,3.18c4.28,7.16,8.55,14.33,12.82,21.49
		c3.44,5.8,6.91,11.58,10.34,17.39c0.64,1.08,1.46,2.44,0.17,3.38c-1.4,1.02-2.19-0.44-2.98-1.37
		C113.82,85.28,113.7,85.09,113.56,84.9L113.56,84.9z"/>
	<path class="st0" d="M74.8,135.99c0.73,0.97,0.3,2.06-0.92,2.32c-1.19,0.26-2.25-0.27-3.32-0.64
		c-14.15-4.85-28.29-9.71-42.44-14.58c-0.86-0.29-1.76-0.58-2.5-1.07c-1.08-0.71-1.37-1.85-0.84-3.03c0.46-1.03,1.36-1.54,2.51-1.38
		c0.55,0.08,1.11,0.25,1.64,0.46c14.52,5.5,29.03,11.02,43.55,16.52C73.34,134.92,74.18,135.28,74.8,135.99L74.8,135.99z"/>
	<path class="st0" d="M67.78,162.47c0.46,0.83,0.28,1.54-0.54,2.02c-0.94,0.55-1.98,0.42-3.01,0.36
		c-13.91-0.89-27.82-1.78-41.73-2.69c-2.89-0.19-4.01-1.06-3.82-2.83c0.18-1.66,1.55-2.34,4.36-2.07
		c5.57,0.52,11.14,1.08,16.71,1.62c8.19,0.79,16.37,1.59,24.56,2.37C65.57,161.36,66.84,161.4,67.78,162.47L67.78,162.47z"/>
	<path class="st0" d="M140.73,73.09c-0.8,0.69-1.52,0.34-2.12-0.25c-0.76-0.75-0.94-1.81-1.24-2.78
		c-4.03-12.96-8.06-25.93-12.07-38.89c-0.23-0.76-0.48-1.54-0.52-2.32c-0.06-1.33,0.77-2.16,1.99-2.43c1.08-0.24,2.07,0.2,2.57,1.24
		c0.35,0.71,0.54,1.5,0.75,2.27c3.11,11.33,6.22,22.66,9.33,33.99c0.57,2.09,1.19,4.17,1.73,6.27
		C141.41,71.19,141.56,72.23,140.73,73.09L140.73,73.09z"/>
	<path class="st0" d="M75.07,128.61c0.29,0.45,0.59,0.95,0.33,1.54c-0.31,0.71-0.95,0.95-1.67,0.97c-1.06,0.02-1.98-0.5-2.92-0.9
		c-12.1-5.07-24.19-10.16-36.29-15.24c-0.73-0.31-1.51-0.57-2.17-1.01c-1.14-0.76-1.8-1.81-1.08-3.2c0.69-1.32,1.84-1.61,3.2-1.15
		c0.43,0.15,0.84,0.36,1.25,0.55c12.34,5.65,24.68,11.3,37.03,16.94C73.6,127.48,74.41,127.88,75.07,128.61L75.07,128.61z"/>
	<path class="st0" d="M92.17,97.59c0.15,0.19,0.39,0.45,0.58,0.73c0.48,0.69,0.78,1.46,0.2,2.2c-0.7,0.9-1.66,0.75-2.46,0.24
		c-0.86-0.54-1.62-1.26-2.38-1.94c-9.14-8.25-18.28-16.5-27.41-24.76c-0.34-0.31-0.73-0.58-0.99-0.94c-0.7-1.01-0.97-2.12-0.09-3.14
		c0.96-1.12,2.16-1.26,3.34-0.37c0.82,0.61,1.57,1.32,2.31,2.03c4.69,4.5,9.37,9,14.05,13.52C83.59,89.26,87.85,93.4,92.17,97.59
		L92.17,97.59z"/>
	<path class="st0" d="M103.53,42.39c0.14,0.25,0.38,0.65,0.59,1.05c5.22,10.25,10.44,20.49,15.63,30.75c0.4,0.8,0.69,1.68,0.87,2.56
		c0.15,0.69-0.12,1.37-0.83,1.71c-0.7,0.34-1.4,0.13-1.86-0.4c-0.59-0.68-1.1-1.45-1.54-2.24c-3.15-5.68-6.28-11.36-9.41-17.05
		c-2.52-4.59-5.07-9.17-7.53-13.79c-0.95-1.78-0.6-3.17,0.79-3.83c1.38-0.66,2.41-0.06,3.3,1.23L103.53,42.39z"/>
	<path class="st0" d="M84.24,100.2c0.33,0.81,1.19,1.68,0.29,2.7c-0.85,0.96-1.87,0.57-2.8,0.05c-0.39-0.21-0.72-0.56-1.08-0.84
		c-7.07-5.57-14.15-11.12-21.21-16.7c-2.01-1.6-2.46-3-1.48-4.23c0.92-1.17,2.38-1.01,4.44,0.7c5.08,4.22,10.12,8.49,15.18,12.74
		C79.76,96.46,81.95,98.29,84.24,100.2L84.24,100.2z"/>
	<path class="st0" d="M158.52,62.14c-0.88-0.9-0.87-2.07-0.98-3.2c-0.54-5.34-1.08-10.69-1.61-16.03c-0.33-3.3-0.72-6.59-0.95-9.89
		c-0.13-1.88,0.68-2.94,2.01-3.08c1.4-0.16,2.27,0.67,2.59,2.55c0.11,0.67,0.12,1.36,0.17,2.05c0.53,7.76,1.06,15.51,1.58,23.26
		c0.06,0.91,0.11,1.83,0.08,2.74c-0.02,0.69-0.18,1.37-0.86,1.94C159.85,62.98,159.16,62.79,158.52,62.14z"/>
	<path class="st0" d="M97.55,67.62l-0.02,0.01c2.33,3.39,4.65,6.77,6.99,10.15c0.51,0.75,1.13,1.45,1.29,2.38
		c0.12,0.72,0.03,1.37-0.6,1.83c-0.63,0.46-1.28,0.39-1.92,0.02c-0.82-0.47-1.36-1.2-1.91-1.94c-4.59-6.25-9.18-12.52-13.76-18.78
		c-0.47-0.64-0.99-1.27-1.33-1.98c-0.51-1.05-0.25-2.08,0.67-2.75c0.92-0.68,1.99-0.59,2.83,0.21c0.57,0.54,1.01,1.23,1.47,1.88
		C93.36,61.64,95.45,64.64,97.55,67.62L97.55,67.62z"/>
	<path class="st0" d="M142.31,60.15c-1.86-7.76-3.7-15.52-5.52-23.28c-0.65-2.8-0.13-4.25,1.51-4.5c1.49-0.22,2.51,0.89,3.03,3.44
		c1.61,7.81,3.19,15.63,4.76,23.45c0.18,0.88,0.32,1.81,0.27,2.7c-0.05,0.82-0.49,1.52-1.44,1.68c-0.81,0.13-1.25-0.39-1.91-1.21
		C142.56,61.98,142.52,61.03,142.31,60.15z"/>
	<path class="st0" d="M34.26,131.28c1.06-0.81,2.16-0.46,3.26-0.13c7.74,2.35,15.47,4.71,23.2,7.07c0.54,0.16,1.08,0.38,1.57,0.65
		c0.75,0.42,1.2,1.07,1.03,1.97c-0.21,1.15-1.15,1.35-2.09,1.32c-0.78-0.03-1.57-0.24-2.33-0.45c-7.37-1.98-14.74-3.96-22.1-5.98
		c-0.87-0.23-1.79-0.5-2.52-0.99C33.03,133.88,33.08,132.15,34.26,131.28L34.26,131.28z"/>
	<path class="st0" d="M71.14,120.29c-0.35,0.65-0.99,0.9-1.73,0.87c-0.95-0.04-1.73-0.5-2.55-0.91c-6.62-3.32-13.26-6.63-19.88-9.95
		c-0.61-0.31-1.24-0.6-1.77-1.02c-0.96-0.76-1.51-1.75-0.88-2.99c0.64-1.26,1.74-1.33,2.93-0.97c0.44,0.13,0.85,0.34,1.25,0.56
		c6.91,3.76,13.82,7.52,20.72,11.29c0.59,0.32,1.13,0.75,1.51,1.01C71.26,118.97,71.5,119.62,71.14,120.29z"/>
	<path class="st0" d="M57.38,153.8c0.67,0.95,0.34,2.1-0.82,2.48c-0.63,0.21-1.36,0.27-2.02,0.18c-6.46-0.82-12.92-1.65-19.37-2.55
		c-2.08-0.29-3.06-1.38-2.72-2.79c0.42-1.74,1.78-1.92,3.24-1.69c6.43,1.03,12.86,2.09,19.29,3.14
		C55.92,152.73,56.74,153.08,57.38,153.8L57.38,153.8z"/>
	<path class="st0" d="M85.38,79.5l0.04-0.03c1.89,2.12,3.83,4.2,5.65,6.38c0.75,0.9,1.2,2.06,0.01,3.01
		c-0.99,0.79-1.93,0.3-2.76-0.4c-0.26-0.22-0.49-0.48-0.73-0.72c-3.81-3.89-7.64-7.78-11.43-11.7c-0.46-0.47-0.83-1.09-1.07-1.7
		c-0.3-0.78-0.15-1.57,0.51-2.19c0.65-0.61,1.4-0.67,2.22-0.41c0.92,0.29,1.48,1.02,2.09,1.69C81.73,75.45,83.56,77.48,85.38,79.5
		L85.38,79.5z"/>
	<path class="st0" d="M119.85,65.78c-0.36-0.71-0.76-1.4-1.09-2.12c-1.87-4.02-3.71-8.04-5.57-12.07c-0.28-0.62-0.63-1.22-0.81-1.87
		c-0.33-1.2-0.13-2.35,1.11-2.89c1.23-0.53,2.23,0.06,2.9,1.11c0.43,0.66,0.7,1.43,1.01,2.16c1.7,3.96,3.4,7.93,5.08,11.9
		c0.31,0.73,0.63,1.47,0.82,2.23c0.28,1.1,0.05,2.08-1.13,2.52C121.13,67.16,120.48,66.44,119.85,65.78L119.85,65.78z"/>
	<path class="st0" d="M124.58,44.43c0.08,0.16,0.36,0.53,0.5,0.96c1.77,5.05,3.53,10.11,5.27,15.17c0.43,1.26,0.61,2.71-0.81,3.26
		c-1.65,0.63-2.43-0.7-2.95-2.07c-0.08-0.21-0.19-0.42-0.27-0.63c-1.73-4.46-3.46-8.92-5.17-13.39c-0.24-0.63-0.51-1.3-0.58-1.96
		c-0.12-1.12,0.29-2.07,1.44-2.43c0.97-0.31,1.78,0.07,2.57,1.1L124.58,44.43z"/>
	<path class="st0" d="M70.36,108.88c0.77,0.83,1.37,1.59,0.88,2.56c-0.56,1.1-1.56,1.23-2.64,0.84c-0.53-0.19-1.03-0.48-1.52-0.76
		c-4.22-2.46-8.44-4.93-12.64-7.41c-0.49-0.28-0.99-0.59-1.4-0.97c-0.82-0.78-1.07-1.77-0.53-2.78c0.57-1.07,1.61-1.25,2.66-0.87
		c0.84,0.31,1.62,0.79,2.39,1.28c3.26,2.06,6.51,4.15,9.77,6.22C68.39,107.66,69.46,108.31,70.36,108.88L70.36,108.88z"/>
	<path class="st0" d="M152.21,56.57c-1.12,0.56-2.12,0.24-2.58-0.82c-0.49-1.13-0.69-2.4-0.9-3.63c-0.71-4.04-1.4-8.09-2.02-12.15
		c-0.21-1.38,0.29-2.62,1.76-2.9c1.48-0.28,2.4,0.66,2.6,2.08c0.72,4.96,1.38,9.94,2.03,14.92
		C153.21,55.01,152.91,55.87,152.21,56.57L152.21,56.57z"/>
	<path class="st0" d="M73.13,101.19c0.96,1.22,1.54,2.1,0.69,3.12c-0.68,0.82-1.58,0.83-2.49,0.41c-0.51-0.24-1-0.54-1.47-0.86
		c-2.73-1.85-5.45-3.73-8.16-5.6c-0.47-0.32-0.97-0.62-1.34-1.04c-0.77-0.86-0.86-1.89-0.18-2.82c0.61-0.84,1.54-0.86,2.47-0.62
		c0.1,0.03,0.22,0.08,0.31,0.14C66.48,96.43,70,98.94,73.13,101.19L73.13,101.19z"/>
	<path class="st0" d="M91.85,74.13c1.28,1.61,2.59,3.2,3.82,4.84c0.75,1,0.99,2.15-0.09,3.06c-0.97,0.81-2.12,0.37-2.78-0.38
		c-2.72-3.07-5.37-6.21-7.93-9.42c-0.83-1.04-1.02-2.4,0.34-3.3c1.13-0.75,2.23-0.31,3.04,0.63c1.26,1.47,2.43,3.02,3.64,4.54
		L91.85,74.13z"/>
	<path class="st0" d="M40.57,142.18c0.59-0.35,1.28-0.52,1.95-0.37c3.35,0.74,6.68,1.52,10.01,2.34c0.41,0.1,0.8,0.44,1.1,0.77
		c1.04,1.1,0.7,2.52-0.75,2.94c-0.53,0.15-1.14,0.16-1.69,0.06c-3.04-0.56-6.06-1.17-9.09-1.78c-0.81-0.17-1.51-0.51-1.99-1.22
		C39.42,143.88,39.66,142.99,40.57,142.18L40.57,142.18z"/>
	<path class="st0" d="M332.41,174.03c-0.94,0.8-2.12,0.58-3.24,0.55c-6.28-0.18-12.58-0.37-18.86-0.56
		c-18.06-0.54-36.12-1.07-54.18-1.61c-0.8-0.03-1.61-0.01-2.39-0.14c-0.89-0.15-2.02-0.31-1.91-1.5c0.1-1.06,1.13-1.33,2.08-1.42
		c0.68-0.06,1.37-0.06,2.05-0.06c24.36-0.06,48.72-0.11,73.08-0.16c0.91,0,1.84-0.01,2.71,0.21c1.11,0.28,1.65,1.19,1.79,2.29
		c0.12,0.99-0.27,1.78-1.11,2.41L332.41,174.03z"/>
	<path class="st0" d="M221.14,256.22c7.97,12.41,15.93,24.81,23.9,37.23c0.74,1.15,1.52,2.28,2.2,3.47c0.96,1.7,0.71,3.09-0.62,3.88
		c-1.21,0.72-2.43,0.39-3.5-1.07c-0.74-1.01-1.4-2.09-2.04-3.18c-4.28-7.16-8.55-14.33-12.82-21.49
		c-3.44-5.8-6.91-11.58-10.34-17.39c-0.64-1.08-1.46-2.44-0.17-3.38c1.4-1.02,2.19,0.44,2.98,1.37
		C220.88,255.83,221,256.03,221.14,256.22L221.14,256.22z"/>
	<path class="st0" d="M259.9,205.13c-0.73-0.97-0.3-2.06,0.92-2.32c1.19-0.26,2.25,0.27,3.32,0.64
		c14.15,4.85,28.29,9.71,42.44,14.58c0.86,0.29,1.76,0.58,2.5,1.07c1.08,0.71,1.37,1.85,0.84,3.03c-0.46,1.03-1.36,1.54-2.51,1.38
		c-0.55-0.08-1.11-0.25-1.64-0.46c-14.52-5.5-29.03-11.02-43.55-16.52C261.35,206.2,260.52,205.83,259.9,205.13L259.9,205.13z"/>
	<path class="st0" d="M266.91,178.65c-0.46-0.83-0.28-1.54,0.54-2.02c0.94-0.55,1.98-0.42,3.01-0.36
		c13.91,0.89,27.82,1.78,41.73,2.69c2.89,0.19,4.01,1.06,3.82,2.83c-0.18,1.66-1.55,2.34-4.36,2.07
		c-5.57-0.52-11.14-1.08-16.71-1.62c-8.19-0.79-16.37-1.59-24.56-2.37C269.12,179.75,267.85,179.72,266.91,178.65L266.91,178.65z"/>
	<path class="st0" d="M193.96,268.03c0.8-0.69,1.52-0.34,2.12,0.25c0.76,0.75,0.94,1.81,1.24,2.78
		c4.03,12.96,8.06,25.93,12.07,38.89c0.23,0.76,0.48,1.54,0.52,2.32c0.06,1.33-0.77,2.16-1.99,2.43c-1.08,0.24-2.07-0.2-2.57-1.24
		c-0.35-0.71-0.54-1.5-0.75-2.27c-3.11-11.33-6.22-22.66-9.33-33.99c-0.57-2.09-1.19-4.17-1.73-6.27
		C193.28,269.93,193.13,268.89,193.96,268.03L193.96,268.03z"/>
	<path class="st0" d="M259.62,212.51c-0.29-0.45-0.59-0.95-0.33-1.54c0.31-0.71,0.95-0.95,1.67-0.97c1.06-0.02,1.98,0.5,2.92,0.9
		c12.1,5.07,24.19,10.16,36.29,15.24c0.73,0.31,1.51,0.57,2.17,1.01c1.14,0.76,1.8,1.81,1.08,3.2c-0.69,1.32-1.84,1.61-3.2,1.15
		c-0.43-0.15-0.84-0.36-1.25-0.55c-12.34-5.65-24.68-11.3-37.03-16.94C261.1,213.63,260.29,213.23,259.62,212.51L259.62,212.51z"/>
	<path class="st0" d="M242.52,243.52c-0.15-0.19-0.39-0.45-0.58-0.73c-0.48-0.69-0.78-1.46-0.2-2.2c0.7-0.9,1.66-0.75,2.46-0.24
		c0.86,0.54,1.62,1.26,2.38,1.94c9.14,8.25,18.28,16.5,27.41,24.76c0.34,0.31,0.73,0.58,0.99,0.94c0.7,1.01,0.97,2.12,0.09,3.14
		c-0.96,1.12-2.16,1.26-3.34,0.37c-0.82-0.61-1.57-1.32-2.31-2.03c-4.69-4.5-9.37-9-14.05-13.52c-4.27-4.11-8.52-8.25-12.85-12.43
		L242.52,243.52z"/>
	<path class="st0" d="M231.17,298.73c-0.14-0.25-0.38-0.65-0.59-1.05c-5.22-10.25-10.44-20.49-15.63-30.75
		c-0.4-0.8-0.69-1.68-0.87-2.56c-0.15-0.69,0.12-1.37,0.83-1.71c0.7-0.34,1.4-0.13,1.86,0.4c0.59,0.68,1.1,1.45,1.54,2.24
		c3.15,5.68,6.28,11.36,9.41,17.05c2.52,4.59,5.07,9.17,7.53,13.79c0.95,1.78,0.6,3.17-0.79,3.83c-1.38,0.66-2.41,0.06-3.3-1.23
		L231.17,298.73z"/>
	<path class="st0" d="M250.46,240.91c-0.33-0.81-1.19-1.68-0.29-2.7c0.85-0.96,1.87-0.57,2.8-0.05c0.39,0.21,0.72,0.56,1.08,0.84
		c7.07,5.57,14.15,11.12,21.21,16.7c2.01,1.6,2.46,3,1.48,4.23c-0.92,1.17-2.38,1.01-4.44-0.7c-5.08-4.22-10.12-8.49-15.18-12.74
		C254.93,244.66,252.75,242.83,250.46,240.91L250.46,240.91z"/>
	<path class="st0" d="M176.18,278.98c0.88,0.9,0.87,2.07,0.98,3.2c0.54,5.34,1.08,10.69,1.61,16.03c0.33,3.3,0.72,6.59,0.95,9.89
		c0.13,1.88-0.68,2.94-2.01,3.08c-1.4,0.16-2.27-0.67-2.59-2.55c-0.11-0.67-0.12-1.36-0.17-2.05c-0.53-7.76-1.06-15.51-1.58-23.26
		c-0.06-0.91-0.11-1.83-0.08-2.74c0.02-0.69,0.18-1.37,0.86-1.94C174.84,278.14,175.54,278.33,176.18,278.98z"/>
	<path class="st0" d="M237.15,273.49l0.02-0.01c-2.33-3.39-4.65-6.77-6.99-10.15c-0.51-0.75-1.13-1.45-1.29-2.38
		c-0.12-0.72-0.03-1.37,0.6-1.83c0.63-0.46,1.28-0.39,1.92-0.02c0.82,0.47,1.36,1.2,1.91,1.94c4.59,6.25,9.18,12.52,13.76,18.78
		c0.47,0.64,0.99,1.27,1.33,1.98c0.51,1.05,0.25,2.08-0.67,2.75c-0.92,0.68-1.99,0.59-2.83-0.21c-0.57-0.54-1.01-1.23-1.47-1.88
		C241.33,279.47,239.24,276.48,237.15,273.49L237.15,273.49z"/>
	<path class="st0" d="M192.39,280.96c1.86,7.76,3.7,15.52,5.52,23.28c0.65,2.8,0.13,4.25-1.51,4.5c-1.49,0.22-2.51-0.89-3.03-3.44
		c-1.61-7.81-3.19-15.63-4.76-23.45c-0.18-0.89-0.32-1.81-0.27-2.7c0.05-0.82,0.49-1.52,1.44-1.68c0.81-0.13,1.25,0.39,1.91,1.21
		C192.14,279.13,192.18,280.09,192.39,280.96z"/>
	<path class="st0" d="M300.43,209.84c-1.06,0.81-2.16,0.46-3.26,0.13c-7.74-2.35-15.47-4.71-23.2-7.07
		c-0.54-0.16-1.08-0.38-1.57-0.65c-0.75-0.42-1.2-1.07-1.03-1.97c0.21-1.15,1.15-1.35,2.09-1.32c0.78,0.03,1.57,0.24,2.33,0.45
		c7.37,1.98,14.74,3.96,22.1,5.98c0.87,0.23,1.79,0.5,2.52,0.99C301.67,207.24,301.62,208.97,300.43,209.84L300.43,209.84z"/>
	<path class="st0" d="M263.56,220.83c0.35-0.65,0.99-0.9,1.73-0.87c0.95,0.04,1.73,0.5,2.55,0.91c6.62,3.32,13.26,6.63,19.88,9.95
		c0.61,0.31,1.24,0.6,1.77,1.02c0.96,0.76,1.51,1.75,0.88,2.99c-0.64,1.26-1.74,1.33-2.93,0.97c-0.44-0.13-0.85-0.34-1.25-0.56
		c-6.91-3.76-13.82-7.52-20.72-11.29c-0.59-0.32-1.13-0.75-1.51-1.01C263.44,222.15,263.19,221.49,263.56,220.83z"/>
	<path class="st0" d="M277.31,187.32c-0.67-0.95-0.34-2.1,0.82-2.48c0.63-0.21,1.36-0.27,2.02-0.18c6.46,0.82,12.92,1.65,19.37,2.55
		c2.08,0.29,3.06,1.38,2.72,2.79c-0.42,1.74-1.78,1.92-3.24,1.69c-6.43-1.03-12.86-2.09-19.29-3.14
		C278.77,188.38,277.96,188.04,277.31,187.32L277.31,187.32z"/>
	<path class="st0" d="M249.31,261.62l-0.04,0.03c-1.89-2.12-3.83-4.2-5.65-6.38c-0.75-0.9-1.2-2.06-0.01-3.01
		c0.99-0.79,1.93-0.3,2.76,0.4c0.26,0.22,0.49,0.48,0.73,0.72c3.81,3.89,7.64,7.78,11.43,11.7c0.46,0.47,0.83,1.09,1.07,1.7
		c0.3,0.78,0.15,1.57-0.51,2.19c-0.65,0.61-1.4,0.67-2.22,0.41c-0.92-0.29-1.48-1.02-2.09-1.69
		C252.96,265.66,251.14,263.64,249.31,261.62L249.31,261.62z"/>
	<path class="st0" d="M214.85,275.34c0.36,0.71,0.76,1.4,1.09,2.12c1.87,4.02,3.71,8.04,5.57,12.07c0.28,0.62,0.63,1.22,0.81,1.87
		c0.33,1.2,0.13,2.35-1.11,2.89c-1.23,0.53-2.23-0.06-2.9-1.11c-0.43-0.66-0.7-1.43-1.01-2.16c-1.7-3.96-3.4-7.93-5.08-11.9
		c-0.31-0.73-0.63-1.47-0.82-2.23c-0.28-1.1-0.05-2.08,1.13-2.52C213.57,273.96,214.21,274.67,214.85,275.34L214.85,275.34z"/>
	<path class="st0" d="M210.11,296.69c-0.08-0.16-0.36-0.53-0.5-0.96c-1.77-5.05-3.53-10.11-5.27-15.17
		c-0.43-1.26-0.61-2.71,0.81-3.26c1.65-0.63,2.43,0.7,2.95,2.07c0.08,0.21,0.19,0.42,0.27,0.63c1.73,4.46,3.46,8.92,5.17,13.39
		c0.24,0.63,0.51,1.3,0.58,1.96c0.12,1.12-0.29,2.07-1.44,2.43c-0.97,0.31-1.78-0.07-2.57-1.1L210.11,296.69z"/>
	<path class="st0" d="M264.33,232.24c-0.77-0.83-1.37-1.59-0.88-2.56c0.56-1.1,1.56-1.23,2.64-0.84c0.53,0.19,1.03,0.48,1.52,0.76
		c4.22,2.46,8.44,4.93,12.64,7.41c0.49,0.28,0.99,0.59,1.4,0.97c0.82,0.78,1.07,1.77,0.53,2.78c-0.57,1.07-1.61,1.25-2.66,0.87
		c-0.84-0.31-1.62-0.79-2.39-1.28c-3.26-2.06-6.51-4.15-9.77-6.22C266.3,233.46,265.24,232.8,264.33,232.24L264.33,232.24z"/>
	<path class="st0" d="M182.49,284.55c1.12-0.56,2.12-0.24,2.58,0.82c0.49,1.13,0.69,2.4,0.9,3.63c0.71,4.04,1.4,8.09,2.02,12.15
		c0.21,1.38-0.29,2.62-1.76,2.9c-1.48,0.28-2.4-0.66-2.6-2.08c-0.72-4.96-1.38-9.94-2.03-14.92
		C181.48,286.1,181.78,285.24,182.49,284.55L182.49,284.55z"/>
	<path class="st0" d="M261.56,239.93c-0.96-1.22-1.54-2.1-0.69-3.12c0.68-0.82,1.58-0.83,2.49-0.41c0.51,0.24,1,0.54,1.47,0.86
		c2.73,1.85,5.45,3.73,8.16,5.6c0.47,0.32,0.97,0.62,1.34,1.04c0.77,0.86,0.86,1.89,0.18,2.82c-0.61,0.84-1.54,0.86-2.47,0.62
		c-0.1-0.03-0.22-0.08-0.31-0.14C268.21,244.69,264.7,242.17,261.56,239.93L261.56,239.93z"/>
	<path class="st0" d="M242.84,266.98c-1.28-1.61-2.59-3.2-3.82-4.84c-0.75-1-0.99-2.15,0.09-3.06c0.97-0.81,2.12-0.37,2.78,0.38
		c2.72,3.07,5.37,6.21,7.93,9.42c0.83,1.04,1.02,2.4-0.34,3.3c-1.13,0.75-2.23,0.31-3.04-0.63c-1.26-1.47-2.43-3.02-3.64-4.54
		L242.84,266.98z"/>
	<path class="st0" d="M294.13,198.93c-0.59,0.35-1.28,0.52-1.95,0.37c-3.35-0.74-6.68-1.52-10.01-2.34c-0.41-0.1-0.8-0.44-1.1-0.77
		c-1.04-1.1-0.7-2.52,0.75-2.94c0.53-0.15,1.14-0.16,1.69-0.06c3.04,0.56,6.06,1.17,9.09,1.78c0.81,0.17,1.51,0.51,1.99,1.22
		C295.28,197.24,295.03,198.12,294.13,198.93L294.13,198.93z"/>
	<path class="st0" d="M221.13,84.9c-0.13,0.19-0.25,0.38-0.41,0.55c-0.79,0.93-1.58,2.39-2.98,1.37c-1.29-0.94-0.47-2.3,0.17-3.38
		c3.43-5.81,6.89-11.59,10.34-17.39c4.27-7.17,8.54-14.33,12.82-21.49c0.64-1.08,1.3-2.17,2.04-3.18c1.08-1.46,2.29-1.79,3.5-1.07
		c1.33,0.79,1.59,2.19,0.62,3.88c-0.68,1.19-1.46,2.32-2.2,3.47C237.07,60.09,229.11,72.49,221.13,84.9L221.13,84.9z"/>
	<path class="st0" d="M259.89,135.99c0.63-0.7,1.46-1.07,2.32-1.39c14.52-5.5,29.03-11.02,43.55-16.52c0.53-0.2,1.09-0.38,1.64-0.46
		c1.15-0.16,2.05,0.35,2.51,1.38c0.53,1.18,0.23,2.31-0.84,3.03c-0.74,0.49-1.64,0.78-2.5,1.07c-14.14,4.87-28.29,9.73-42.44,14.58
		c-1.07,0.37-2.12,0.91-3.32,0.64C259.6,138.05,259.17,136.96,259.89,135.99L259.89,135.99z"/>
	<path class="st0" d="M266.92,162.47c0.94-1.07,2.21-1.11,3.46-1.23c8.19-0.78,16.37-1.58,24.56-2.37
		c5.57-0.54,11.14-1.1,16.71-1.62c2.82-0.26,4.19,0.42,4.36,2.07c0.19,1.77-0.92,2.64-3.82,2.83c-13.9,0.91-27.82,1.8-41.73,2.69
		c-1.03,0.07-2.07,0.19-3.01-0.36C266.63,164.01,266.45,163.3,266.92,162.47L266.92,162.47z"/>
	<path class="st0" d="M193.97,73.09c-0.83-0.86-0.68-1.9-0.43-2.9c0.54-2.1,1.15-4.18,1.73-6.27c3.11-11.33,6.22-22.66,9.33-33.99
		c0.21-0.77,0.4-1.56,0.75-2.27c0.5-1.04,1.49-1.49,2.57-1.24c1.21,0.27,2.05,1.1,1.99,2.43c-0.04,0.78-0.28,1.56-0.52,2.32
		c-4.01,12.97-8.04,25.93-12.07,38.89c-0.3,0.97-0.48,2.03-1.24,2.78C195.48,73.43,194.76,73.78,193.97,73.09L193.97,73.09z"/>
	<path class="st0" d="M259.62,128.6c0.67-0.72,1.48-1.12,2.32-1.5c12.35-5.64,24.69-11.29,37.03-16.94c0.42-0.19,0.82-0.4,1.25-0.55
		c1.36-0.46,2.51-0.17,3.2,1.15c0.72,1.39,0.06,2.44-1.08,3.2c-0.66,0.44-1.44,0.69-2.17,1.01c-12.1,5.08-24.19,10.17-36.29,15.24
		c-0.94,0.4-1.86,0.92-2.92,0.9c-0.72-0.02-1.36-0.25-1.67-0.97C259.03,129.56,259.33,129.05,259.62,128.6L259.62,128.6z"/>
	<path class="st0" d="M242.52,97.58c4.33-4.18,8.58-8.32,12.85-12.43c4.68-4.52,9.36-9.02,14.05-13.52
		c0.74-0.71,1.49-1.43,2.31-2.03c1.19-0.88,2.39-0.75,3.34,0.37c0.88,1.02,0.61,2.13-0.09,3.14c-0.26,0.36-0.65,0.63-0.99,0.94
		c-9.13,8.26-18.27,16.51-27.41,24.76c-0.76,0.69-1.52,1.4-2.38,1.94c-0.8,0.51-1.77,0.66-2.46-0.24c-0.58-0.74-0.28-1.51,0.2-2.2
		C242.14,98.04,242.37,97.79,242.52,97.58L242.52,97.58z"/>
	<path class="st0" d="M231.16,42.38c0.89-1.29,1.92-1.89,3.3-1.23c1.39,0.66,1.74,2.05,0.79,3.83c-2.46,4.62-5.01,9.2-7.53,13.79
		c-3.13,5.69-6.26,11.37-9.41,17.05c-0.44,0.79-0.95,1.56-1.54,2.24c-0.46,0.53-1.17,0.74-1.86,0.4c-0.71-0.34-0.98-1.02-0.83-1.71
		c0.19-0.88,0.47-1.76,0.87-2.56c5.19-10.26,10.41-20.5,15.63-30.75c0.2-0.4,0.44-0.8,0.59-1.05L231.16,42.38z"/>
	<path class="st0" d="M250.46,100.21c2.29-1.93,4.47-3.75,6.65-5.59c5.05-4.25,10.1-8.53,15.18-12.74c2.06-1.71,3.51-1.87,4.44-0.7
		c0.98,1.24,0.54,2.64-1.48,4.23c-7.06,5.58-14.14,11.14-21.21,16.7c-0.36,0.28-0.68,0.63-1.08,0.84c-0.93,0.52-1.95,0.91-2.8-0.05
		C249.26,101.88,250.12,101.01,250.46,100.21L250.46,100.21z"/>
	<path class="st0" d="M174.16,62.47c-0.68-0.57-0.84-1.25-0.86-1.94c-0.03-0.91,0.02-1.83,0.08-2.74
		c0.52-7.75,1.05-15.51,1.58-23.26c0.04-0.68,0.05-1.38,0.17-2.05c0.33-1.88,1.19-2.71,2.59-2.55c1.33,0.15,2.14,1.2,2.01,3.08
		c-0.23,3.3-0.62,6.6-0.95,9.89c-0.53,5.35-1.08,10.69-1.61,16.03c-0.11,1.13-0.1,2.3-0.98,3.2
		C175.54,62.79,174.84,62.98,174.16,62.47z"/>
	<path class="st0" d="M237.15,67.63c2.09-2.99,4.18-5.99,6.29-8.97c0.46-0.65,0.9-1.34,1.47-1.88c0.84-0.79,1.9-0.88,2.83-0.21
		c0.92,0.67,1.18,1.7,0.67,2.75c-0.35,0.71-0.86,1.34-1.33,1.98c-4.58,6.26-9.17,12.52-13.76,18.78c-0.54,0.74-1.09,1.47-1.91,1.94
		c-0.64,0.37-1.29,0.44-1.92-0.02s-0.72-1.11-0.6-1.83c0.16-0.94,0.78-1.63,1.29-2.38c2.34-3.38,4.66-6.77,6.99-10.15L237.15,67.63
		L237.15,67.63z"/>
	<path class="st0" d="M191.69,62.42c-0.65,0.82-1.1,1.34-1.91,1.21c-0.95-0.16-1.39-0.86-1.44-1.68c-0.05-0.89,0.09-1.81,0.27-2.7
		c1.57-7.82,3.15-15.64,4.76-23.45c0.53-2.55,1.55-3.66,3.03-3.44c1.64,0.25,2.16,1.7,1.51,4.5c-1.82,7.76-3.66,15.52-5.52,23.28
		C192.18,61.03,192.14,61.98,191.69,62.42z"/>
	<path class="st0" d="M300.43,131.27c1.19,0.88,1.24,2.61-0.03,3.47c-0.73,0.5-1.65,0.76-2.52,0.99c-7.36,2.02-14.73,4-22.1,5.98
		c-0.77,0.21-1.55,0.42-2.33,0.45c-0.93,0.04-1.87-0.16-2.09-1.32c-0.16-0.9,0.28-1.55,1.03-1.97c0.49-0.28,1.03-0.49,1.57-0.65
		c7.73-2.36,15.47-4.72,23.2-7.07C298.27,130.81,299.37,130.47,300.43,131.27L300.43,131.27z"/>
	<path class="st0" d="M263.96,118.18c0.38-0.26,0.92-0.69,1.51-1.01c6.9-3.78,13.81-7.53,20.72-11.29c0.4-0.22,0.81-0.43,1.25-0.56
		c1.19-0.35,2.3-0.29,2.93,0.97c0.63,1.24,0.07,2.23-0.88,2.99c-0.53,0.42-1.16,0.71-1.77,1.02c-6.62,3.32-13.26,6.63-19.88,9.95
		c-0.82,0.41-1.6,0.87-2.55,0.91c-0.74,0.03-1.38-0.22-1.73-0.87C263.19,119.62,263.44,118.97,263.96,118.18z"/>
	<path class="st0" d="M277.32,153.8c0.63-0.72,1.45-1.07,2.38-1.22c6.43-1.05,12.86-2.11,19.29-3.14c1.46-0.23,2.82-0.05,3.24,1.69
		c0.34,1.41-0.64,2.5-2.72,2.79c-6.45,0.9-12.91,1.73-19.37,2.55c-0.66,0.08-1.39,0.02-2.02-0.18
		C276.97,155.9,276.64,154.75,277.32,153.8L277.32,153.8z"/>
	<path class="st0" d="M249.31,79.5c1.83-2.03,3.65-4.05,5.48-6.08c0.61-0.67,1.17-1.4,2.09-1.69c0.82-0.26,1.57-0.2,2.22,0.41
		c0.66,0.61,0.8,1.41,0.51,2.19c-0.24,0.61-0.61,1.23-1.07,1.7c-3.79,3.92-7.62,7.81-11.43,11.7c-0.24,0.25-0.46,0.51-0.73,0.72
		c-0.84,0.7-1.78,1.18-2.76,0.4c-1.19-0.95-0.74-2.11,0.01-3.01c1.82-2.18,3.76-4.26,5.65-6.38L249.31,79.5L249.31,79.5z"/>
	<path class="st0" d="M214.85,65.77c-0.63,0.67-1.28,1.39-2.33,0.99c-1.18-0.44-1.41-1.43-1.13-2.52c0.19-0.77,0.51-1.5,0.82-2.23
		c1.68-3.98,3.38-7.94,5.08-11.9c0.31-0.73,0.59-1.49,1.01-2.16c0.67-1.05,1.68-1.65,2.9-1.11c1.24,0.54,1.44,1.69,1.11,2.89
		c-0.18,0.65-0.53,1.25-0.81,1.87c-1.85,4.02-3.7,8.05-5.57,12.07C215.61,64.38,215.21,65.07,214.85,65.77L214.85,65.77z"/>
	<path class="st0" d="M210.12,44.43c0.78-1.03,1.6-1.41,2.57-1.1c1.14,0.37,1.56,1.32,1.44,2.43c-0.07,0.66-0.34,1.33-0.58,1.96
		c-1.71,4.47-3.44,8.92-5.17,13.39c-0.08,0.21-0.19,0.41-0.27,0.63c-0.52,1.37-1.3,2.7-2.95,2.07c-1.42-0.54-1.24-2-0.81-3.26
		c1.74-5.06,3.5-10.12,5.27-15.17c0.15-0.43,0.42-0.8,0.5-0.96L210.12,44.43z"/>
	<path class="st0" d="M264.34,108.88c0.9-0.57,1.97-1.22,3.02-1.9c3.26-2.07,6.51-4.16,9.77-6.22c0.77-0.48,1.55-0.97,2.39-1.28
		c1.04-0.38,2.08-0.21,2.66,0.87c0.54,1.02,0.3,2-0.53,2.78c-0.41,0.39-0.91,0.69-1.4,0.97c-4.21,2.48-8.42,4.95-12.64,7.41
		c-0.49,0.29-0.98,0.58-1.52,0.76c-1.07,0.38-2.08,0.26-2.64-0.84C262.97,110.47,263.56,109.71,264.34,108.88L264.34,108.88z"/>
	<path class="st0" d="M182.49,56.57c-0.7-0.7-1-1.56-0.88-2.5c0.65-4.97,1.31-9.95,2.03-14.92c0.2-1.41,1.12-2.36,2.6-2.08
		c1.47,0.28,1.97,1.52,1.76,2.9c-0.63,4.05-1.31,8.1-2.02,12.15c-0.22,1.23-0.42,2.5-0.9,3.63
		C184.61,56.81,183.61,57.13,182.49,56.57L182.49,56.57z"/>
	<path class="st0" d="M261.57,101.18c3.13-2.24,6.65-4.75,10.17-7.26c0.09-0.06,0.21-0.11,0.31-0.14c0.94-0.25,1.87-0.23,2.47,0.62
		c0.67,0.94,0.59,1.96-0.18,2.82c-0.37,0.41-0.88,0.71-1.34,1.04c-2.71,1.87-5.44,3.74-8.16,5.6c-0.47,0.32-0.96,0.62-1.47,0.86
		c-0.9,0.42-1.81,0.41-2.49-0.41C260.02,103.29,260.6,102.41,261.57,101.18L261.57,101.18z"/>
	<path class="st0" d="M242.81,74.1c1.21-1.52,2.38-3.07,3.64-4.54c0.81-0.94,1.91-1.38,3.04-0.63c1.35,0.9,1.17,2.26,0.34,3.3
		c-2.56,3.21-5.21,6.35-7.93,9.42c-0.67,0.75-1.81,1.2-2.78,0.38c-1.08-0.91-0.84-2.06-0.09-3.06c1.23-1.64,2.54-3.23,3.82-4.84
		L242.81,74.1z"/>
	<path class="st0" d="M294.13,142.18c0.9,0.82,1.14,1.7,0.44,2.74c-0.48,0.71-1.19,1.05-1.99,1.22c-3.03,0.6-6.05,1.21-9.09,1.78
		c-0.55,0.1-1.16,0.1-1.69-0.06c-1.44-0.41-1.79-1.83-0.75-2.94c0.31-0.32,0.7-0.67,1.1-0.77c3.33-0.82,6.67-1.59,10.01-2.34
		C292.85,141.66,293.54,141.83,294.13,142.18L294.13,142.18z"/>
</g>
</svg>
