<?xml version="1.0" encoding="UTF-8"?><svg xmlns="http://www.w3.org/2000/svg" viewBox="0 0 656.09 286.21"><defs><style>.b{fill:#fff;}.c{mix-blend-mode:screen;}.d{isolation:isolate;}</style></defs><g class="d"><g id="a"><g class="c"><g><path class="b" d="M.69,162.51c0-2.56,1.28-4.63,1.28-4.63,0,0,1.28,2.07,1.28,4.63s-1.28,4.63-1.28,4.63c0,0-1.28-2.07-1.28-4.63Z"/><path class="b" d="M8.54,162.53c0-2.57,1.28-4.66,1.28-4.66,0,0,1.28,2.09,1.28,4.66s-1.28,4.66-1.28,4.66c0,0-1.28-2.09-1.28-4.66Z"/><path class="b" d="M16.39,162.61c0-2.61,1.28-4.73,1.28-4.73,0,0,1.28,2.12,1.28,4.73s-1.28,4.73-1.28,4.73c0,0-1.28-2.12-1.28-4.73Z"/><path class="b" d="M24.24,163.99c0-4.62,1.28-8.36,1.28-8.36,0,0,1.28,3.74,1.28,8.36s-1.28,8.36-1.28,8.36c0,0-1.28-3.74-1.28-8.36Z"/><path class="b" d="M32.1,166.25c0-7.55,1.28-13.67,1.28-13.67,0,0,1.28,6.12,1.28,13.67s-1.28,13.67-1.28,13.67c0,0-1.28-6.12-1.28-13.67Z"/><path class="b" d="M39.95,168.99c0-11.82,1.28-21.4,1.28-21.4,0,0,1.28,9.58,1.28,21.4s-1.28,21.4-1.28,21.4c0,0-1.28-9.58-1.28-21.4Z"/><path class="b" d="M47.8,171.91c0-17.6,1.28-31.87,1.28-31.87,0,0,1.28,14.27,1.28,31.87s-1.28,31.87-1.28,31.87c0,0-1.28-14.27-1.28-31.87Z"/><path class="b" d="M55.65,175.15c0-24.41,1.28-44.2,1.28-44.2,0,0,1.28,19.79,1.28,44.2s-1.28,44.2-1.28,44.2c0,0-1.28-19.79-1.28-44.2Z"/><path class="b" d="M63.51,178.66c0-31.39,1.28-56.84,1.28-56.84,0,0,1.28,25.45,1.28,56.84s-1.28,56.84-1.28,56.84c0,0-1.28-25.45-1.28-56.84Z"/><path class="b" d="M71.36,180.54c0-38.54,1.28-69.78,1.28-69.78,0,0,1.28,31.24,1.28,69.78s-1.28,69.78-1.28,69.78c0,0-1.28-31.24-1.28-69.78Z"/><path class="b" d="M79.21,182.32c0-44.3,1.28-80.22,1.28-80.22,0,0,1.28,35.91,1.28,80.22s-1.28,80.22-1.28,80.22c0,0-1.28-35.91-1.28-80.22Z"/><path class="b" d="M87.06,183.42c0-48.81,1.28-88.38,1.28-88.38,0,0,1.28,39.57,1.28,88.38s-1.28,88.38-1.28,88.38c0,0-1.28-39.57-1.28-88.38Z"/><path class="b" d="M94.92,184.42c0-51.83,1.28-93.85,1.28-93.85,0,0,1.28,42.02,1.28,93.85s-1.28,93.85-1.28,93.85c0,0-1.28-42.02-1.28-93.85Z"/><path class="b" d="M102.77,184.87c0-53.75,1.28-97.32,1.28-97.32,0,0,1.28,43.57,1.28,97.32s-1.28,97.32-1.28,97.32c0,0-1.28-43.57-1.28-97.32Z"/><path class="b" d="M110.62,185.22c0-54.75,1.28-99.13,1.28-99.13,0,0,1.28,44.38,1.28,99.13s-1.28,99.13-1.28,99.13c0,0-1.28-44.38-1.28-99.13Z"/><path class="b" d="M118.47,185.3c0-54.97,1.28-99.54,1.28-99.54,0,0,1.28,44.56,1.28,99.54s-1.28,99.54-1.28,99.54c0,0-1.28-44.56-1.28-99.54Z"/><path class="b" d="M126.33,185.1c0-54.4,1.28-98.5,1.28-98.5,0,0,1.28,44.1,1.28,98.5s-1.28,98.5-1.28,98.5c0,0-1.28-44.1-1.28-98.5Z"/><path class="b" d="M134.18,184.66c0-52.98,1.28-95.93,1.28-95.93,0,0,1.28,42.95,1.28,95.93s-1.28,95.93-1.28,95.93c0,0-1.28-42.95-1.28-95.93Z"/><path class="b" d="M142.03,183.92c0-50.51,1.28-91.46,1.28-91.46,0,0,1.28,40.95,1.28,91.46s-1.28,91.46-1.28,91.46c0,0-1.28-40.95-1.28-91.46Z"/><path class="b" d="M149.88,182.83c0-46.8,1.28-84.74,1.28-84.74,0,0,1.28,37.94,1.28,84.74s-1.28,84.74-1.28,84.74c0,0-1.28-37.94-1.28-84.74Z"/><path class="b" d="M157.74,181.33c0-41.71,1.28-75.52,1.28-75.52,0,0,1.28,33.81,1.28,75.52s-1.28,75.52-1.28,75.52c0,0-1.28-33.81-1.28-75.52Z"/><path class="b" d="M165.59,179.31c0-35.3,1.28-63.92,1.28-63.92,0,0,1.28,28.62,1.28,63.92s-1.28,63.92-1.28,63.92c0,0-1.28-28.62-1.28-63.92Z"/><path class="b" d="M173.44,176.7c0-28.08,1.28-50.84,1.28-50.84,0,0,1.28,22.76,1.28,50.84s-1.28,50.84-1.28,50.84c0,0-1.28-22.76-1.28-50.84Z"/><path class="b" d="M181.29,173.59c0-20.9,1.28-37.84,1.28-37.84,0,0,1.28,16.94,1.28,37.84s-1.28,37.84-1.28,37.84c0,0-1.28-16.94-1.28-37.84Z"/><path class="b" d="M189.15,170.38c0-14.59,1.28-26.42,1.28-26.42,0,0,1.28,11.83,1.28,26.42s-1.28,26.42-1.28,26.42c0,0-1.28-11.83-1.28-26.42Z"/><path class="b" d="M197,167.69c0-9.74,1.28-17.63,1.28-17.63,0,0,1.28,7.89,1.28,17.63s-1.28,17.63-1.28,17.63c0,0-1.28-7.89-1.28-17.63Z"/><path class="b" d="M204.85,164.91c0-6.03,1.28-10.92,1.28-10.92,0,0,1.28,4.89,1.28,10.92s-1.28,10.92-1.28,10.92c0,0-1.28-4.89-1.28-10.92Z"/><path class="b" d="M212.7,163.08c0-3.58,1.28-6.48,1.28-6.48,0,0,1.28,2.9,1.28,6.48s-1.28,6.48-1.28,6.48c0,0-1.28-2.9-1.28-6.48Z"/><path class="b" d="M220.56,160.5c0-2.15,1.28-3.9,1.28-3.9,0,0,1.28,1.75,1.28,3.9s-1.28,3.9-1.28,3.9c0,0-1.28-1.75-1.28-3.9Z"/><path class="b" d="M228.41,154.6c0-1.72,1.28-3.11,1.28-3.11,0,0,1.28,1.39,1.28,3.11s-1.28,3.11-1.28,3.11c0,0-1.28-1.39-1.28-3.11Z"/><path class="b" d="M236.26,149.63c0-2.41,1.28-4.36,1.28-4.36,0,0,1.28,1.95,1.28,4.36s-1.28,4.36-1.28,4.36c0,0-1.28-1.95-1.28-4.36Z"/><path class="b" d="M244.11,143.95c0-3.9,1.28-7.07,1.28-7.07,0,0,1.28,3.16,1.28,7.07s-1.28,7.07-1.28,7.07c0,0-1.28-3.16-1.28-7.07Z"/><path class="b" d="M251.97,139.14c0-6.8,1.28-12.32,1.28-12.32,0,0,1.28,5.51,1.28,12.32s-1.28,12.32-1.28,12.32c0,0-1.28-5.51-1.28-12.32Z"/><path class="b" d="M259.82,134.07c0-11.01,1.28-19.93,1.28-19.93,0,0,1.28,8.92,1.28,19.93s-1.28,19.93-1.28,19.93c0,0-1.28-8.92-1.28-19.93Z"/><path class="b" d="M267.67,131.11c0-12.97,1.28-23.49,1.28-23.49,0,0,1.28,10.51,1.28,23.49s-1.28,23.49-1.28,23.49c0,0-1.28-10.51-1.28-23.49Z"/><path class="b" d="M275.52,122.61c0-19.78,1.28-35.81,1.28-35.81,0,0,1.28,16.03,1.28,35.81s-1.28,35.81-1.28,35.81c0,0-1.28-16.03-1.28-35.81Z"/><path class="b" d="M283.38,113.88c0-28.08,1.28-50.84,1.28-50.84,0,0,1.28,22.76,1.28,50.84s-1.28,50.84-1.28,50.84c0,0-1.28-22.76-1.28-50.84Z"/><path class="b" d="M291.23,106.08c0-34.31,1.28-62.12,1.28-62.12,0,0,1.28,27.81,1.28,62.12s-1.28,62.12-1.28,62.12c0,0-1.28-27.81-1.28-62.12Z"/><path class="b" d="M299.08,101.1c0-40.53,1.28-73.38,1.28-73.38,0,0,1.28,32.85,1.28,73.38s-1.28,73.38-1.28,73.38c0,0-1.28-32.85-1.28-73.38Z"/><path class="b" d="M306.93,100.78c0-46.84,1.28-84.8,1.28-84.8,0,0,1.28,37.97,1.28,84.8s-1.28,84.8-1.28,84.8c0,0-1.28-37.97-1.28-84.8Z"/><path class="b" d="M314.79,102.87c0-51.98,1.28-94.11,1.28-94.11,0,0,1.28,42.14,1.28,94.11s-1.28,94.11-1.28,94.11c0,0-1.28-42.14-1.28-94.11Z"/><path class="b" d="M322.64,108.89c0-58.03,1.28-105.07,1.28-105.07,0,0,1.28,47.04,1.28,105.07s-1.28,105.07-1.28,105.07c0,0-1.28-47.04-1.28-105.07Z"/><path class="b" d="M330.49,114.14c0-61.68,1.28-111.67,1.28-111.67,0,0,1.28,50,1.28,111.67s-1.28,111.67-1.28,111.67c0,0-1.28-50-1.28-111.67Z"/><path class="b" d="M338.34,120.1c0-64.54,1.28-116.86,1.28-116.86,0,0,1.28,52.32,1.28,116.86s-1.28,116.86-1.28,116.86c0,0-1.28-52.32-1.28-116.86Z"/><path class="b" d="M346.19,125.77c0-65.67,1.28-118.91,1.28-118.91,0,0,1.28,53.24,1.28,118.91s-1.28,118.91-1.28,118.91c0,0-1.28-53.24-1.28-118.91Z"/><path class="b" d="M354.05,131.48c0-65.1,1.28-117.88,1.28-117.88,0,0,1.28,52.78,1.28,117.88s-1.28,117.88-1.28,117.88c0,0-1.28-52.78-1.28-117.88Z"/><path class="b" d="M361.9,137.91c0-62.76,1.28-113.64,1.28-113.64,0,0,1.28,50.88,1.28,113.64s-1.28,113.64-1.28,113.64c0,0-1.28-50.88-1.28-113.64Z"/><path class="b" d="M369.75,145.56c0-58.66,1.28-106.21,1.28-106.21,0,0,1.28,47.55,1.28,106.21s-1.28,106.21-1.28,106.21c0,0-1.28-47.55-1.28-106.21Z"/><path class="b" d="M377.6,154.37c0-52.87,1.28-95.72,1.28-95.72,0,0,1.28,42.86,1.28,95.72s-1.28,95.72-1.28,95.72c0,0-1.28-42.86-1.28-95.72Z"/><path class="b" d="M385.46,163.47c0-45.62,1.28-82.61,1.28-82.61,0,0,1.28,36.99,1.28,82.61s-1.28,82.61-1.28,82.61c0,0-1.28-36.99-1.28-82.61Z"/><path class="b" d="M393.31,171.07c0-37.6,1.28-68.08,1.28-68.08,0,0,1.28,30.48,1.28,68.08s-1.28,68.08-1.28,68.08c0,0-1.28-30.48-1.28-68.08Z"/><path class="b" d="M401.16,175.5c0-29.46,1.28-53.34,1.28-53.34,0,0,1.28,23.88,1.28,53.34s-1.28,53.34-1.28,53.34c0,0-1.28-23.88-1.28-53.34Z"/><path class="b" d="M409.01,176.13c0-21.68,1.28-39.25,1.28-39.25,0,0,1.28,17.57,1.28,39.25s-1.28,39.25-1.28,39.25c0,0-1.28-17.57-1.28-39.25Z"/><path class="b" d="M416.87,174.72c0-15.17,1.28-27.47,1.28-27.47,0,0,1.28,12.3,1.28,27.47s-1.28,27.47-1.28,27.47c0,0-1.28-12.3-1.28-27.47Z"/><path class="b" d="M424.72,173.39c0-10.83,1.28-19.62,1.28-19.62,0,0,1.28,8.78,1.28,19.62s-1.28,19.62-1.28,19.62c0,0-1.28-8.78-1.28-19.62Z"/><path class="b" d="M432.57,171.29c0-7.9,1.28-14.3,1.28-14.3,0,0,1.28,6.4,1.28,14.3s-1.28,14.3-1.28,14.3c0,0-1.28-6.4-1.28-14.3Z"/><path class="b" d="M440.42,171.42c0-4.88,1.28-8.84,1.28-8.84,0,0,1.28,3.96,1.28,8.84s-1.28,8.84-1.28,8.84c0,0-1.28-3.96-1.28-8.84Z"/><path class="b" d="M448.28,171.11c0-3.57,1.28-6.47,1.28-6.47,0,0,1.28,2.9,1.28,6.47s-1.28,6.47-1.28,6.47c0,0-1.28-2.9-1.28-6.47Z"/><path class="b" d="M456.13,168.82c0-2.31,1.28-4.18,1.28-4.18,0,0,1.28,1.87,1.28,4.18s-1.28,4.18-1.28,4.18c0,0-1.28-1.87-1.28-4.18Z"/><path class="b" d="M463.98,166.53c0-3.34,1.28-6.05,1.28-6.05,0,0,1.28,2.71,1.28,6.05s-1.28,6.05-1.28,6.05c0,0-1.28-2.71-1.28-6.05Z"/><path class="b" d="M471.83,164.64c0-5.41,1.28-9.79,1.28-9.79,0,0,1.28,4.38,1.28,9.79s-1.28,9.79-1.28,9.79c0,0-1.28-4.38-1.28-9.79Z"/><path class="b" d="M479.69,162.58c0-8.28,1.28-14.99,1.28-14.99,0,0,1.28,6.71,1.28,14.99s-1.28,14.99-1.28,14.99c0,0-1.28-6.71-1.28-14.99Z"/><path class="b" d="M487.54,160.59c0-12.74,1.28-23.06,1.28-23.06,0,0,1.28,10.33,1.28,23.06s-1.28,23.06-1.28,23.06c0,0-1.28-10.33-1.28-23.06Z"/><path class="b" d="M495.39,158.15c0-17.97,1.28-32.55,1.28-32.55,0,0,1.28,14.57,1.28,32.55s-1.28,32.55-1.28,32.55c0,0-1.28-14.57-1.28-32.55Z"/><path class="b" d="M503.24,153.77c0-23.69,1.28-42.9,1.28-42.9,0,0,1.28,19.21,1.28,42.9s-1.28,42.9-1.28,42.9c0,0-1.28-19.21-1.28-42.9Z"/><path class="b" d="M511.1,152.31c0-28.94,1.28-52.4,1.28-52.4,0,0,1.28,23.46,1.28,52.4s-1.28,52.4-1.28,52.4c0,0-1.28-23.46-1.28-52.4Z"/><path class="b" d="M518.95,154.59c0-33.61,1.28-60.85,1.28-60.85,0,0,1.28,27.24,1.28,60.85s-1.28,60.85-1.28,60.85c0,0-1.28-27.24-1.28-60.85Z"/><path class="b" d="M526.8,156.25c0-36.84,1.28-66.71,1.28-66.71,0,0,1.28,29.87,1.28,66.71s-1.28,66.71-1.28,66.71c0,0-1.28-29.87-1.28-66.71Z"/><path class="b" d="M534.65,157.46c0-38.91,1.28-70.44,1.28-70.44,0,0,1.28,31.54,1.28,70.44s-1.28,70.44-1.28,70.44c0,0-1.28-31.54-1.28-70.44Z"/><path class="b" d="M542.51,158.28c0-39.98,1.28-72.39,1.28-72.39,0,0,1.28,32.41,1.28,72.39s-1.28,72.39-1.28,72.39c0,0-1.28-32.41-1.28-72.39Z"/><path class="b" d="M550.36,158.8c0-40.26,1.28-72.9,1.28-72.9,0,0,1.28,32.64,1.28,72.9s-1.28,72.9-1.28,72.9c0,0-1.28-32.64-1.28-72.9Z"/><path class="b" d="M558.21,159.24c0-39.86,1.28-72.17,1.28-72.17,0,0,1.28,32.31,1.28,72.17s-1.28,72.17-1.28,72.17c0,0-1.28-32.31-1.28-72.17Z"/><path class="b" d="M566.06,159.47c0-38.57,1.28-69.84,1.28-69.84,0,0,1.28,31.27,1.28,69.84s-1.28,69.84-1.28,69.84c0,0-1.28-31.27-1.28-69.84Z"/><path class="b" d="M573.92,159.62c0-36.3,1.28-65.73,1.28-65.73,0,0,1.28,29.43,1.28,65.73s-1.28,65.73-1.28,65.73c0,0-1.28-29.43-1.28-65.73Z"/><path class="b" d="M581.77,159.54c0-32.81,1.28-59.41,1.28-59.41,0,0,1.28,26.6,1.28,59.41s-1.28,59.41-1.28,59.41c0,0-1.28-26.6-1.28-59.41Z"/><path class="b" d="M589.62,159.19c0-28.02,1.28-50.73,1.28-50.73,0,0,1.28,22.71,1.28,50.73s-1.28,50.73-1.28,50.73c0,0-1.28-22.71-1.28-50.73Z"/><path class="b" d="M597.47,158.61c0-22.22,1.28-40.23,1.28-40.23,0,0,1.28,18.01,1.28,40.23s-1.28,40.23-1.28,40.23c0,0-1.28-18.01-1.28-40.23Z"/><path class="b" d="M605.33,158.18c0-16.21,1.28-29.35,1.28-29.35,0,0,1.28,13.14,1.28,29.35s-1.28,29.35-1.28,29.35c0,0-1.28-13.14-1.28-29.35Z"/><path class="b" d="M613.18,158.15c0-10.94,1.28-19.8,1.28-19.8,0,0,1.28,8.87,1.28,19.8s-1.28,19.8-1.28,19.8c0,0-1.28-8.87-1.28-19.8Z"/><path class="b" d="M621.03,158.47c0-6.91,1.28-12.52,1.28-12.52,0,0,1.28,5.61,1.28,12.52s-1.28,12.52-1.28,12.52c0,0-1.28-5.61-1.28-12.52Z"/><path class="b" d="M628.88,158.93c0-4.2,1.28-7.61,1.28-7.61,0,0,1.28,3.4,1.28,7.61s-1.28,7.6-1.28,7.6c0,0-1.28-3.4-1.28-7.6Z"/><path class="b" d="M636.74,159.62c0-2.51,1.28-4.54,1.28-4.54,0,0,1.28,2.03,1.28,4.54s-1.28,4.54-1.28,4.54c0,0-1.28-2.03-1.28-4.54Z"/><path class="b" d="M644.59,160.28c0-1.74,1.28-3.16,1.28-3.16,0,0,1.28,1.41,1.28,3.16s-1.28,3.16-1.28,3.16c0,0-1.28-1.41-1.28-3.16Z"/><path class="b" d="M652.44,160.59c0-1.57,1.28-2.85,1.28-2.85,0,0,1.28,1.28,1.28,2.85s-1.28,2.85-1.28,2.85c0,0-1.28-1.28-1.28-2.85Z"/></g></g></g></g></svg>